G04 start of page 7 for group -4079 idx -4079 *
G04 Title: (unknown), topsilk *
G04 Creator: pcb 20091103 *
G04 CreationDate: Thu 14 Apr 2011 10:29:27 PM GMT UTC *
G04 For: jlamothe *
G04 Format: Gerber/RS-274X *
G04 PCB-Dimensions: 180000 210000 *
G04 PCB-Coordinate-Origin: lower left *
%MOIN*%
%FSLAX25Y25*%
%LNFRONTSILK*%
%ADD13C,0.0100*%
%ADD34C,0.0050*%
%ADD35C,0.0080*%
G54D34*X155000Y181000D02*X155500Y181500D01*
X156500D01*
X157000Y181000D01*
Y178000D01*
X156500Y177500D02*X157000Y178000D01*
X155500Y177500D02*X156500D01*
X155000Y178000D02*X155500Y177500D01*
Y179500D02*X157000D01*
X155000Y171500D02*X157000D01*
X155000D02*Y169500D01*
X155500Y170000D01*
X156500D01*
X157000Y169500D01*
Y168000D01*
X156500Y167500D02*X157000Y168000D01*
X155500Y167500D02*X156500D01*
X155000Y168000D02*X155500Y167500D01*
X156500Y161500D02*X157000Y161000D01*
X155500Y161500D02*X156500D01*
X155000Y161000D02*X155500Y161500D01*
X155000Y161000D02*Y158000D01*
X155500Y157500D01*
X156500Y159500D02*X157000Y159000D01*
X155000Y159500D02*X156500D01*
X155500Y157500D02*X156500D01*
X157000Y158000D01*
Y159000D02*Y158000D01*
X155000Y147500D02*X157000Y149500D01*
Y151000D02*Y149500D01*
X156500Y151500D02*X157000Y151000D01*
X155500Y151500D02*X156500D01*
X155000Y151000D02*X155500Y151500D01*
X155000Y151000D02*Y150000D01*
X155500Y149500D01*
X157000D01*
X153000Y137500D02*X154000D01*
X153500Y141500D02*Y137500D01*
X152500Y140500D02*X153500Y141500D01*
X155201Y138000D02*X155701Y137500D01*
X155201Y141000D02*Y138000D01*
Y141000D02*X155701Y141500D01*
X156701D01*
X157201Y141000D01*
Y138000D01*
X156701Y137500D02*X157201Y138000D01*
X155701Y137500D02*X156701D01*
X155201Y138500D02*X157201Y140500D01*
X10000Y67000D02*X12000D01*
X11000Y68000D02*Y66000D01*
X15501Y65000D02*X16501D01*
X16001Y69000D02*Y65000D01*
X15001Y68000D02*X16001Y69000D01*
X17702Y68500D02*X18202Y69000D01*
X19702D01*
X20202Y68500D01*
Y67500D01*
X17702Y65000D02*X20202Y67500D01*
X17702Y65000D02*X20202D01*
X21403Y69000D02*Y66000D01*
X22403Y65000D01*
X23403Y66000D01*
Y69000D02*Y66000D01*
X25104Y69000D02*Y65000D01*
X26604Y69000D02*X27104Y68500D01*
Y65500D01*
X26604Y65000D02*X27104Y65500D01*
X24604Y65000D02*X26604D01*
X24604Y69000D02*X26604D01*
X28805Y65000D02*X30305D01*
X28305Y65500D02*X28805Y65000D01*
X28305Y68500D02*Y65500D01*
Y68500D02*X28805Y69000D01*
X30305D01*
X33306D02*X34306D01*
X33806D02*Y65000D01*
X33306D02*X34306D01*
X35507Y69000D02*Y65000D01*
Y69000D02*Y68500D01*
X38007Y66000D01*
Y69000D02*Y65000D01*
X10000Y12000D02*X12000D01*
X153000Y127500D02*X154000D01*
X153500Y131500D02*Y127500D01*
X152500Y130500D02*X153500Y131500D01*
X155701Y127500D02*X156701D01*
X156201Y131500D02*Y127500D01*
X155201Y130500D02*X156201Y131500D01*
X149500Y142500D02*X150000Y143000D01*
X146500Y142500D02*X149500D01*
X146500D02*X146000Y143000D01*
Y144000D02*Y143000D01*
Y144000D02*X146500Y144500D01*
X149500D01*
X150000Y144000D02*X149500Y144500D01*
X150000Y144000D02*Y143000D01*
X149000Y142500D02*X147000Y144500D01*
X148000Y147701D02*Y145701D01*
X150000Y150402D02*Y149402D01*
X146000Y149902D02*X150000D01*
X147000Y148902D02*X146000Y149902D01*
X149500Y151603D02*X150000Y152103D01*
X146500Y151603D02*X149500D01*
X146500D02*X146000Y152103D01*
Y153103D02*Y152103D01*
Y153103D02*X146500Y153603D01*
X149500D01*
X150000Y153103D02*X149500Y153603D01*
X150000Y153103D02*Y152103D01*
X149000Y151603D02*X147000Y153603D01*
X146000Y154804D02*X149000D01*
X150000Y155804D01*
X149000Y156804D01*
X146000D02*X149000D01*
X146500Y159805D02*X149500D01*
X146500D02*X146000Y160305D01*
Y161305D02*Y160305D01*
Y161305D02*X146500Y161805D01*
X149500D01*
X150000Y161305D02*X149500Y161805D01*
X150000Y161305D02*Y160305D01*
X149500Y159805D02*X150000Y160305D01*
X146000Y163006D02*X149500D01*
X150000Y163506D01*
Y164506D02*Y163506D01*
Y164506D02*X149500Y165006D01*
X146000D02*X149500D01*
X146000Y168207D02*Y166207D01*
Y167207D02*X150000D01*
X3500Y4500D02*Y3000D01*
Y4500D02*X4000Y5000D01*
X5000D01*
X3000D02*X3500Y4500D01*
X6701Y3000D02*X8201D01*
X6201Y3500D02*X6701Y3000D01*
X6201Y4500D02*Y3500D01*
Y4500D02*X6701Y5000D01*
X7701D01*
X8201Y4500D01*
X6201Y4000D02*X8201D01*
Y4500D02*Y4000D01*
X9402Y5000D02*Y4000D01*
X10402Y3000D01*
X11402Y4000D01*
Y5000D02*Y4000D01*
X12603Y6500D02*X13103Y7000D01*
X14603D01*
X15103Y6500D01*
Y5500D01*
X12603Y3000D02*X15103Y5500D01*
X12603Y3000D02*X15103D01*
G54D13*X140000Y114095D02*X122283D01*
X140000Y100315D02*Y114095D01*
X122283Y100315D02*X140000D01*
X122283Y114095D02*Y100315D01*
X8464Y18110D02*X37992D01*
Y62205D02*Y18110D01*
X8464Y62205D02*X37992D01*
X8464D02*Y18110D01*
X100000Y65000D02*Y50000D01*
Y40000D02*Y25000D01*
Y65000D02*X170000D01*
Y25000D01*
X100000D02*X170000D01*
X100000Y40000D02*G75*G03X100000Y50000I0J5000D01*G01*
G54D35*X59100Y88000D02*X47000D01*
X59100Y81000D02*Y88000D01*
X47000Y81000D02*X59100D01*
X47000Y88000D02*Y81000D01*
X39100Y108000D02*X27000D01*
X39100Y101000D02*Y108000D01*
X27000Y101000D02*X39100D01*
X27000Y108000D02*Y101000D01*
X59100Y108000D02*X47000D01*
X59100Y101000D02*Y108000D01*
X47000Y101000D02*X59100D01*
X47000Y108000D02*Y101000D01*
X39100Y88000D02*X27000D01*
X39100Y81000D02*Y88000D01*
X27000Y81000D02*X39100D01*
X27000Y88000D02*Y81000D01*
X86500Y88600D02*X71400D01*
X86500Y79800D02*Y88600D01*
X71400Y79800D02*X86500D01*
X71400Y88600D02*Y79800D01*
G54D13*X40000Y15000D02*X100000D01*
X40000Y5000D02*Y15000D01*
X100000Y5000D02*X40000D01*
X100000Y15000D02*Y5000D01*
X110000Y15000D02*X170000D01*
X110000Y5000D02*Y15000D01*
X170000Y5000D02*X110000D01*
X170000Y15000D02*Y5000D01*
X4000Y205000D02*X84000D01*
X4000Y195000D02*Y205000D01*
X84000Y195000D02*X4000D01*
X84000Y205000D02*Y195000D01*
X170000Y205000D02*X90000D01*
X170000Y195000D02*Y205000D01*
X90000Y195000D02*X170000D01*
X90000Y205000D02*Y195000D01*
G54D35*X86500Y128600D02*X71400D01*
X86500Y119800D02*Y128600D01*
X71400Y119800D02*X86500D01*
X71400Y128600D02*Y119800D01*
X86500Y108600D02*X71400D01*
X86500Y99800D02*Y108600D01*
X71400Y99800D02*X86500D01*
X71400Y108600D02*Y99800D01*
X19100Y88000D02*X7000D01*
X19100Y81000D02*Y88000D01*
X7000Y81000D02*X19100D01*
X7000Y88000D02*Y81000D01*
G54D13*X100000Y185000D02*Y170000D01*
Y160000D02*Y145000D01*
Y185000D02*X140000D01*
Y145000D01*
X100000D02*X140000D01*
X100000Y160000D02*G75*G03X100000Y170000I0J5000D01*G01*
G54D35*X39100Y168000D02*X27000D01*
X39100Y161000D02*Y168000D01*
X27000Y161000D02*X39100D01*
X27000Y168000D02*Y161000D01*
X59100Y168000D02*X47000D01*
X59100Y161000D02*Y168000D01*
X47000Y161000D02*X59100D01*
X47000Y168000D02*Y161000D01*
X59100Y148000D02*X47000D01*
X59100Y141000D02*Y148000D01*
X47000Y141000D02*X59100D01*
X47000Y148000D02*Y141000D01*
X39100Y148000D02*X27000D01*
X39100Y141000D02*Y148000D01*
X27000Y141000D02*X39100D01*
X27000Y148000D02*Y141000D01*
X39100Y128000D02*X27000D01*
X39100Y121000D02*Y128000D01*
X27000Y121000D02*X39100D01*
X27000Y128000D02*Y121000D01*
X59100Y128000D02*X47000D01*
X59100Y121000D02*Y128000D01*
X47000Y121000D02*X59100D01*
X47000Y128000D02*Y121000D01*
X19100Y148000D02*X7000D01*
X19100Y141000D02*Y148000D01*
X7000Y141000D02*X19100D01*
X7000Y148000D02*Y141000D01*
X19100Y128000D02*X7000D01*
X19100Y121000D02*Y128000D01*
X7000Y121000D02*X19100D01*
X7000Y128000D02*Y121000D01*
X19100Y108000D02*X7000D01*
X19100Y101000D02*Y108000D01*
X7000Y101000D02*X19100D01*
X7000Y108000D02*Y101000D01*
X86500Y168600D02*X71400D01*
X86500Y159800D02*Y168600D01*
X71400Y159800D02*X86500D01*
X71400Y168600D02*Y159800D01*
X86500Y148600D02*X71400D01*
X86500Y139800D02*Y148600D01*
X71400Y139800D02*X86500D01*
X71400Y148600D02*Y139800D01*
X86500Y188600D02*X71400D01*
X86500Y179800D02*Y188600D01*
X71400Y179800D02*X86500D01*
X71400Y188600D02*Y179800D01*
G54D13*X170000Y175000D02*Y185000D01*
X160000Y175000D02*X170000D01*
Y185000D02*X160000D01*
X170000Y125000D02*Y185000D01*
X160000Y125000D02*X170000D01*
X160000Y185000D02*Y125000D01*
G54D35*X19100Y188000D02*X7000D01*
X19100Y181000D02*Y188000D01*
X7000Y181000D02*X19100D01*
X7000Y188000D02*Y181000D01*
X39100Y188000D02*X27000D01*
X39100Y181000D02*Y188000D01*
X27000Y181000D02*X39100D01*
X27000Y188000D02*Y181000D01*
X59100Y188000D02*X47000D01*
X59100Y181000D02*Y188000D01*
X47000Y181000D02*X59100D01*
X47000Y188000D02*Y181000D01*
X19100Y168000D02*X7000D01*
X19100Y161000D02*Y168000D01*
X7000Y161000D02*X19100D01*
X7000Y168000D02*Y161000D01*
G54D34*X78600Y173300D02*X80100D01*
X78100Y173800D02*X78600Y173300D01*
X78100Y176800D02*Y173800D01*
Y176800D02*X78600Y177300D01*
X80100D01*
X81301Y176800D02*X81801Y177300D01*
X82801D01*
X83301Y176800D01*
Y173800D01*
X82801Y173300D02*X83301Y173800D01*
X81801Y173300D02*X82801D01*
X81301Y173800D02*X81801Y173300D01*
Y175300D02*X83301D01*
X84502Y173800D02*X85002Y173300D01*
X84502Y176800D02*Y173800D01*
Y176800D02*X85002Y177300D01*
X86002D01*
X86502Y176800D01*
Y173800D01*
X86002Y173300D02*X86502Y173800D01*
X85002Y173300D02*X86002D01*
X84502Y174300D02*X86502Y176300D01*
X87703Y176800D02*X88203Y177300D01*
X89703D01*
X90203Y176800D01*
Y175800D01*
X87703Y173300D02*X90203Y175800D01*
X87703Y173300D02*X90203D01*
X78600Y153300D02*X80100D01*
X78100Y153800D02*X78600Y153300D01*
X78100Y156800D02*Y153800D01*
Y156800D02*X78600Y157300D01*
X80100D01*
X81301Y156800D02*X81801Y157300D01*
X82801D01*
X83301Y156800D01*
Y153800D01*
X82801Y153300D02*X83301Y153800D01*
X81801Y153300D02*X82801D01*
X81301Y153800D02*X81801Y153300D01*
Y155300D02*X83301D01*
X84502Y153800D02*X85002Y153300D01*
X84502Y156800D02*Y153800D01*
Y156800D02*X85002Y157300D01*
X86002D01*
X86502Y156800D01*
Y153800D01*
X86002Y153300D02*X86502Y153800D01*
X85002Y153300D02*X86002D01*
X84502Y154300D02*X86502Y156300D01*
X88203Y153300D02*X89203D01*
X88703Y157300D02*Y153300D01*
X87703Y156300D02*X88703Y157300D01*
X78600Y133300D02*X80100D01*
X78100Y133800D02*X78600Y133300D01*
X78100Y136800D02*Y133800D01*
Y136800D02*X78600Y137300D01*
X80100D01*
X81301Y136800D02*X81801Y137300D01*
X83301D01*
X83801Y136800D01*
Y135800D01*
X81301Y133300D02*X83801Y135800D01*
X81301Y133300D02*X83801D01*
X85002Y133800D02*X85502Y133300D01*
X85002Y136800D02*Y133800D01*
Y136800D02*X85502Y137300D01*
X86502D01*
X87002Y136800D01*
Y133800D01*
X86502Y133300D02*X87002Y133800D01*
X85502Y133300D02*X86502D01*
X85002Y134300D02*X87002Y136300D01*
X88203Y135300D02*X90203Y137300D01*
X88203Y135300D02*X90703D01*
X90203Y137300D02*Y133300D01*
X78600Y113300D02*X80100D01*
X78100Y113800D02*X78600Y113300D01*
X78100Y116800D02*Y113800D01*
Y116800D02*X78600Y117300D01*
X80100D01*
X81301Y116800D02*X81801Y117300D01*
X83301D01*
X83801Y116800D01*
Y115800D01*
X81301Y113300D02*X83801Y115800D01*
X81301Y113300D02*X83801D01*
X85002Y113800D02*X85502Y113300D01*
X85002Y116800D02*Y113800D01*
Y116800D02*X85502Y117300D01*
X86502D01*
X87002Y116800D01*
Y113800D01*
X86502Y113300D02*X87002Y113800D01*
X85502Y113300D02*X86502D01*
X85002Y114300D02*X87002Y116300D01*
X88203Y116800D02*X88703Y117300D01*
X89703D01*
X90203Y116800D01*
Y113800D01*
X89703Y113300D02*X90203Y113800D01*
X88703Y113300D02*X89703D01*
X88203Y113800D02*X88703Y113300D01*
Y115300D02*X90203D01*
X78600Y93300D02*X80100D01*
X78100Y93800D02*X78600Y93300D01*
X78100Y96800D02*Y93800D01*
Y96800D02*X78600Y97300D01*
X80100D01*
X81301Y96800D02*X81801Y97300D01*
X83301D01*
X83801Y96800D01*
Y95800D01*
X81301Y93300D02*X83801Y95800D01*
X81301Y93300D02*X83801D01*
X85002Y93800D02*X85502Y93300D01*
X85002Y96800D02*Y93800D01*
Y96800D02*X85502Y97300D01*
X86502D01*
X87002Y96800D01*
Y93800D01*
X86502Y93300D02*X87002Y93800D01*
X85502Y93300D02*X86502D01*
X85002Y94300D02*X87002Y96300D01*
X88203Y96800D02*X88703Y97300D01*
X90203D01*
X90703Y96800D01*
Y95800D01*
X88203Y93300D02*X90703Y95800D01*
X88203Y93300D02*X90703D01*
X12500Y98500D02*X14500D01*
X15000Y98000D01*
Y97000D01*
X14500Y96500D02*X15000Y97000D01*
X13000Y96500D02*X14500D01*
X13000Y98500D02*Y94500D01*
Y96500D02*X15000Y94500D01*
X16201Y98000D02*X16701Y98500D01*
X18201D01*
X18701Y98000D01*
Y97000D01*
X16201Y94500D02*X18701Y97000D01*
X16201Y94500D02*X18701D01*
X19902Y95000D02*X20402Y94500D01*
X19902Y98000D02*Y95000D01*
Y98000D02*X20402Y98500D01*
X21402D01*
X21902Y98000D01*
Y95000D01*
X21402Y94500D02*X21902Y95000D01*
X20402Y94500D02*X21402D01*
X19902Y95500D02*X21902Y97500D01*
X24603Y98500D02*X25103Y98000D01*
X23603Y98500D02*X24603D01*
X23103Y98000D02*X23603Y98500D01*
X23103Y98000D02*Y95000D01*
X23603Y94500D01*
X24603Y96500D02*X25103Y96000D01*
X23103Y96500D02*X24603D01*
X23603Y94500D02*X24603D01*
X25103Y95000D01*
Y96000D02*Y95000D01*
X32500Y98500D02*X34500D01*
X35000Y98000D01*
Y97000D01*
X34500Y96500D02*X35000Y97000D01*
X33000Y96500D02*X34500D01*
X33000Y98500D02*Y94500D01*
Y96500D02*X35000Y94500D01*
X36201Y98000D02*X36701Y98500D01*
X38201D01*
X38701Y98000D01*
Y97000D01*
X36201Y94500D02*X38701Y97000D01*
X36201Y94500D02*X38701D01*
X39902Y95000D02*X40402Y94500D01*
X39902Y98000D02*Y95000D01*
Y98000D02*X40402Y98500D01*
X41402D01*
X41902Y98000D01*
Y95000D01*
X41402Y94500D02*X41902Y95000D01*
X40402Y94500D02*X41402D01*
X39902Y95500D02*X41902Y97500D01*
X43103Y98500D02*X45103D01*
X43103D02*Y96500D01*
X43603Y97000D01*
X44603D01*
X45103Y96500D01*
Y95000D01*
X44603Y94500D02*X45103Y95000D01*
X43603Y94500D02*X44603D01*
X43103Y95000D02*X43603Y94500D01*
X52500Y98500D02*X54500D01*
X55000Y98000D01*
Y97000D01*
X54500Y96500D02*X55000Y97000D01*
X53000Y96500D02*X54500D01*
X53000Y98500D02*Y94500D01*
Y96500D02*X55000Y94500D01*
X56201Y98000D02*X56701Y98500D01*
X58201D01*
X58701Y98000D01*
Y97000D01*
X56201Y94500D02*X58701Y97000D01*
X56201Y94500D02*X58701D01*
X59902Y95000D02*X60402Y94500D01*
X59902Y98000D02*Y95000D01*
Y98000D02*X60402Y98500D01*
X61402D01*
X61902Y98000D01*
Y95000D01*
X61402Y94500D02*X61902Y95000D01*
X60402Y94500D02*X61402D01*
X59902Y95500D02*X61902Y97500D01*
X63103Y96500D02*X65103Y98500D01*
X63103Y96500D02*X65603D01*
X65103Y98500D02*Y94500D01*
X12500Y178500D02*X14500D01*
X15000Y178000D01*
Y177000D01*
X14500Y176500D02*X15000Y177000D01*
X13000Y176500D02*X14500D01*
X13000Y178500D02*Y174500D01*
Y176500D02*X15000Y174500D01*
X16201Y178000D02*X16701Y178500D01*
X17701D01*
X18201Y178000D01*
Y175000D01*
X17701Y174500D02*X18201Y175000D01*
X16701Y174500D02*X17701D01*
X16201Y175000D02*X16701Y174500D01*
Y176500D02*X18201D01*
X19402Y175000D02*X19902Y174500D01*
X19402Y178000D02*Y175000D01*
Y178000D02*X19902Y178500D01*
X20902D01*
X21402Y178000D01*
Y175000D01*
X20902Y174500D02*X21402Y175000D01*
X19902Y174500D02*X20902D01*
X19402Y175500D02*X21402Y177500D01*
X24103Y178500D02*X24603Y178000D01*
X23103Y178500D02*X24103D01*
X22603Y178000D02*X23103Y178500D01*
X22603Y178000D02*Y175000D01*
X23103Y174500D01*
X24103Y176500D02*X24603Y176000D01*
X22603Y176500D02*X24103D01*
X23103Y174500D02*X24103D01*
X24603Y175000D01*
Y176000D02*Y175000D01*
X12500Y158500D02*X14500D01*
X15000Y158000D01*
Y157000D01*
X14500Y156500D02*X15000Y157000D01*
X13000Y156500D02*X14500D01*
X13000Y158500D02*Y154500D01*
Y156500D02*X15000Y154500D01*
X16201Y158000D02*X16701Y158500D01*
X17701D01*
X18201Y158000D01*
Y155000D01*
X17701Y154500D02*X18201Y155000D01*
X16701Y154500D02*X17701D01*
X16201Y155000D02*X16701Y154500D01*
Y156500D02*X18201D01*
X19402Y155000D02*X19902Y154500D01*
X19402Y158000D02*Y155000D01*
Y158000D02*X19902Y158500D01*
X20902D01*
X21402Y158000D01*
Y155000D01*
X20902Y154500D02*X21402Y155000D01*
X19902Y154500D02*X20902D01*
X19402Y155500D02*X21402Y157500D01*
X22603Y158000D02*X23103Y158500D01*
X24103D01*
X24603Y158000D01*
Y155000D01*
X24103Y154500D02*X24603Y155000D01*
X23103Y154500D02*X24103D01*
X22603Y155000D02*X23103Y154500D01*
Y156500D02*X24603D01*
X32500Y178500D02*X34500D01*
X35000Y178000D01*
Y177000D01*
X34500Y176500D02*X35000Y177000D01*
X33000Y176500D02*X34500D01*
X33000Y178500D02*Y174500D01*
Y176500D02*X35000Y174500D01*
X36201Y178000D02*X36701Y178500D01*
X37701D01*
X38201Y178000D01*
Y175000D01*
X37701Y174500D02*X38201Y175000D01*
X36701Y174500D02*X37701D01*
X36201Y175000D02*X36701Y174500D01*
Y176500D02*X38201D01*
X39402Y175000D02*X39902Y174500D01*
X39402Y178000D02*Y175000D01*
Y178000D02*X39902Y178500D01*
X40902D01*
X41402Y178000D01*
Y175000D01*
X40902Y174500D02*X41402Y175000D01*
X39902Y174500D02*X40902D01*
X39402Y175500D02*X41402Y177500D01*
X42603Y178500D02*X44603D01*
X42603D02*Y176500D01*
X43103Y177000D01*
X44103D01*
X44603Y176500D01*
Y175000D01*
X44103Y174500D02*X44603Y175000D01*
X43103Y174500D02*X44103D01*
X42603Y175000D02*X43103Y174500D01*
X52500Y178500D02*X54500D01*
X55000Y178000D01*
Y177000D01*
X54500Y176500D02*X55000Y177000D01*
X53000Y176500D02*X54500D01*
X53000Y178500D02*Y174500D01*
Y176500D02*X55000Y174500D01*
X56201Y178000D02*X56701Y178500D01*
X57701D01*
X58201Y178000D01*
Y175000D01*
X57701Y174500D02*X58201Y175000D01*
X56701Y174500D02*X57701D01*
X56201Y175000D02*X56701Y174500D01*
Y176500D02*X58201D01*
X59402Y175000D02*X59902Y174500D01*
X59402Y178000D02*Y175000D01*
Y178000D02*X59902Y178500D01*
X60902D01*
X61402Y178000D01*
Y175000D01*
X60902Y174500D02*X61402Y175000D01*
X59902Y174500D02*X60902D01*
X59402Y175500D02*X61402Y177500D01*
X62603Y176500D02*X64603Y178500D01*
X62603Y176500D02*X65103D01*
X64603Y178500D02*Y174500D01*
X32500Y158500D02*X34500D01*
X35000Y158000D01*
Y157000D01*
X34500Y156500D02*X35000Y157000D01*
X33000Y156500D02*X34500D01*
X33000Y158500D02*Y154500D01*
Y156500D02*X35000Y154500D01*
X36201Y158000D02*X36701Y158500D01*
X37701D01*
X38201Y158000D01*
Y155000D01*
X37701Y154500D02*X38201Y155000D01*
X36701Y154500D02*X37701D01*
X36201Y155000D02*X36701Y154500D01*
Y156500D02*X38201D01*
X39402Y155000D02*X39902Y154500D01*
X39402Y158000D02*Y155000D01*
Y158000D02*X39902Y158500D01*
X40902D01*
X41402Y158000D01*
Y155000D01*
X40902Y154500D02*X41402Y155000D01*
X39902Y154500D02*X40902D01*
X39402Y155500D02*X41402Y157500D01*
X42603Y158000D02*X43103Y158500D01*
X44603D01*
X45103Y158000D01*
Y157000D01*
X42603Y154500D02*X45103Y157000D01*
X42603Y154500D02*X45103D01*
X52500Y158500D02*X54500D01*
X55000Y158000D01*
Y157000D01*
X54500Y156500D02*X55000Y157000D01*
X53000Y156500D02*X54500D01*
X53000Y158500D02*Y154500D01*
Y156500D02*X55000Y154500D01*
X56201Y158000D02*X56701Y158500D01*
X57701D01*
X58201Y158000D01*
Y155000D01*
X57701Y154500D02*X58201Y155000D01*
X56701Y154500D02*X57701D01*
X56201Y155000D02*X56701Y154500D01*
Y156500D02*X58201D01*
X59402Y155000D02*X59902Y154500D01*
X59402Y158000D02*Y155000D01*
Y158000D02*X59902Y158500D01*
X60902D01*
X61402Y158000D01*
Y155000D01*
X60902Y154500D02*X61402Y155000D01*
X59902Y154500D02*X60902D01*
X59402Y155500D02*X61402Y157500D01*
X63103Y154500D02*X64103D01*
X63603Y158500D02*Y154500D01*
X62603Y157500D02*X63603Y158500D01*
X52500Y138500D02*X54500D01*
X55000Y138000D01*
Y137000D01*
X54500Y136500D02*X55000Y137000D01*
X53000Y136500D02*X54500D01*
X53000Y138500D02*Y134500D01*
Y136500D02*X55000Y134500D01*
X56201Y138000D02*X56701Y138500D01*
X58201D01*
X58701Y138000D01*
Y137000D01*
X56201Y134500D02*X58701Y137000D01*
X56201Y134500D02*X58701D01*
X60402D02*X61402D01*
X60902Y138500D02*Y134500D01*
X59902Y137500D02*X60902Y138500D01*
X62603Y135000D02*X63103Y134500D01*
X62603Y138000D02*Y135000D01*
Y138000D02*X63103Y138500D01*
X64103D01*
X64603Y138000D01*
Y135000D01*
X64103Y134500D02*X64603Y135000D01*
X63103Y134500D02*X64103D01*
X62603Y135500D02*X64603Y137500D01*
X12500Y138500D02*X14500D01*
X15000Y138000D01*
Y137000D01*
X14500Y136500D02*X15000Y137000D01*
X13000Y136500D02*X14500D01*
X13000Y138500D02*Y134500D01*
Y136500D02*X15000Y134500D01*
X16201Y138000D02*X16701Y138500D01*
X18201D01*
X18701Y138000D01*
Y137000D01*
X16201Y134500D02*X18701Y137000D01*
X16201Y134500D02*X18701D01*
X20402D02*X21402D01*
X20902Y138500D02*Y134500D01*
X19902Y137500D02*X20902Y138500D01*
X22603Y138000D02*X23103Y138500D01*
X24603D01*
X25103Y138000D01*
Y137000D01*
X22603Y134500D02*X25103Y137000D01*
X22603Y134500D02*X25103D01*
X32500Y138500D02*X34500D01*
X35000Y138000D01*
Y137000D01*
X34500Y136500D02*X35000Y137000D01*
X33000Y136500D02*X34500D01*
X33000Y138500D02*Y134500D01*
Y136500D02*X35000Y134500D01*
X36201Y138000D02*X36701Y138500D01*
X38201D01*
X38701Y138000D01*
Y137000D01*
X36201Y134500D02*X38701Y137000D01*
X36201Y134500D02*X38701D01*
X40402D02*X41402D01*
X40902Y138500D02*Y134500D01*
X39902Y137500D02*X40902Y138500D01*
X43103Y134500D02*X44103D01*
X43603Y138500D02*Y134500D01*
X42603Y137500D02*X43603Y138500D01*
X12500Y118500D02*X14500D01*
X15000Y118000D01*
Y117000D01*
X14500Y116500D02*X15000Y117000D01*
X13000Y116500D02*X14500D01*
X13000Y118500D02*Y114500D01*
Y116500D02*X15000Y114500D01*
X16201Y118000D02*X16701Y118500D01*
X18201D01*
X18701Y118000D01*
Y117000D01*
X16201Y114500D02*X18701Y117000D01*
X16201Y114500D02*X18701D01*
X19902Y115000D02*X20402Y114500D01*
X19902Y118000D02*Y115000D01*
Y118000D02*X20402Y118500D01*
X21402D01*
X21902Y118000D01*
Y115000D01*
X21402Y114500D02*X21902Y115000D01*
X20402Y114500D02*X21402D01*
X19902Y115500D02*X21902Y117500D01*
X23103Y114500D02*X25103Y116500D01*
Y118000D02*Y116500D01*
X24603Y118500D02*X25103Y118000D01*
X23603Y118500D02*X24603D01*
X23103Y118000D02*X23603Y118500D01*
X23103Y118000D02*Y117000D01*
X23603Y116500D01*
X25103D01*
X32500Y118500D02*X34500D01*
X35000Y118000D01*
Y117000D01*
X34500Y116500D02*X35000Y117000D01*
X33000Y116500D02*X34500D01*
X33000Y118500D02*Y114500D01*
Y116500D02*X35000Y114500D01*
X36201Y118000D02*X36701Y118500D01*
X38201D01*
X38701Y118000D01*
Y117000D01*
X36201Y114500D02*X38701Y117000D01*
X36201Y114500D02*X38701D01*
X39902Y115000D02*X40402Y114500D01*
X39902Y118000D02*Y115000D01*
Y118000D02*X40402Y118500D01*
X41402D01*
X41902Y118000D01*
Y115000D01*
X41402Y114500D02*X41902Y115000D01*
X40402Y114500D02*X41402D01*
X39902Y115500D02*X41902Y117500D01*
X43103Y115000D02*X43603Y114500D01*
X43103Y116000D02*Y115000D01*
Y116000D02*X43603Y116500D01*
X44603D01*
X45103Y116000D01*
Y115000D01*
X44603Y114500D02*X45103Y115000D01*
X43603Y114500D02*X44603D01*
X43103Y117000D02*X43603Y116500D01*
X43103Y118000D02*Y117000D01*
Y118000D02*X43603Y118500D01*
X44603D01*
X45103Y118000D01*
Y117000D01*
X44603Y116500D02*X45103Y117000D01*
X52500Y118500D02*X54500D01*
X55000Y118000D01*
Y117000D01*
X54500Y116500D02*X55000Y117000D01*
X53000Y116500D02*X54500D01*
X53000Y118500D02*Y114500D01*
Y116500D02*X55000Y114500D01*
X56201Y118000D02*X56701Y118500D01*
X58201D01*
X58701Y118000D01*
Y117000D01*
X56201Y114500D02*X58701Y117000D01*
X56201Y114500D02*X58701D01*
X59902Y115000D02*X60402Y114500D01*
X59902Y118000D02*Y115000D01*
Y118000D02*X60402Y118500D01*
X61402D01*
X61902Y118000D01*
Y115000D01*
X61402Y114500D02*X61902Y115000D01*
X60402Y114500D02*X61402D01*
X59902Y115500D02*X61902Y117500D01*
X63103Y114500D02*X65603Y117000D01*
Y118500D02*Y117000D01*
X63103Y118500D02*X65603D01*
X32500Y78500D02*X34500D01*
X35000Y78000D01*
Y77000D01*
X34500Y76500D02*X35000Y77000D01*
X33000Y76500D02*X34500D01*
X33000Y78500D02*Y74500D01*
Y76500D02*X35000Y74500D01*
X36201Y78000D02*X36701Y78500D01*
X38201D01*
X38701Y78000D01*
Y77000D01*
X36201Y74500D02*X38701Y77000D01*
X36201Y74500D02*X38701D01*
X39902Y75000D02*X40402Y74500D01*
X39902Y78000D02*Y75000D01*
Y78000D02*X40402Y78500D01*
X41402D01*
X41902Y78000D01*
Y75000D01*
X41402Y74500D02*X41902Y75000D01*
X40402Y74500D02*X41402D01*
X39902Y75500D02*X41902Y77500D01*
X43103Y78000D02*X43603Y78500D01*
X45103D01*
X45603Y78000D01*
Y77000D01*
X43103Y74500D02*X45603Y77000D01*
X43103Y74500D02*X45603D01*
X78600Y73300D02*X80100D01*
X78100Y73800D02*X78600Y73300D01*
X78100Y76800D02*Y73800D01*
Y76800D02*X78600Y77300D01*
X80100D01*
X81301Y76800D02*X81801Y77300D01*
X83301D01*
X83801Y76800D01*
Y75800D01*
X81301Y73300D02*X83801Y75800D01*
X81301Y73300D02*X83801D01*
X85002Y73800D02*X85502Y73300D01*
X85002Y76800D02*Y73800D01*
Y76800D02*X85502Y77300D01*
X86502D01*
X87002Y76800D01*
Y73800D01*
X86502Y73300D02*X87002Y73800D01*
X85502Y73300D02*X86502D01*
X85002Y74300D02*X87002Y76300D01*
X88703Y73300D02*X89703D01*
X89203Y77300D02*Y73300D01*
X88203Y76300D02*X89203Y77300D01*
X45000Y21500D02*Y18000D01*
X45500Y17500D01*
X46500D01*
X47000Y18000D01*
Y21500D02*Y18000D01*
X48701Y17500D02*X49701D01*
X49201Y21500D02*Y17500D01*
X48201Y20500D02*X49201Y21500D01*
X50902Y18000D02*X51402Y17500D01*
X50902Y21000D02*Y18000D01*
Y21000D02*X51402Y21500D01*
X52402D01*
X52902Y21000D01*
Y18000D01*
X52402Y17500D02*X52902Y18000D01*
X51402Y17500D02*X52402D01*
X50902Y18500D02*X52902Y20500D01*
X54603Y17500D02*X55603D01*
X55103Y21500D02*Y17500D01*
X54103Y20500D02*X55103Y21500D01*
X40000Y59500D02*Y58000D01*
X40500Y60000D02*X40000Y59500D01*
X40500Y60000D02*X43500D01*
X44000Y59500D01*
Y58000D01*
X40500Y56799D02*X43500D01*
X44000Y56299D01*
Y55299D01*
X43500Y54799D01*
X40500D02*X43500D01*
X40000Y55299D02*X40500Y54799D01*
X40000Y56299D02*Y55299D01*
X40500Y56799D02*X40000Y56299D01*
Y53598D02*X44000D01*
X43500D02*X44000D01*
X43500D02*X41000Y51098D01*
X40000D02*X44000D01*
X40000Y49897D02*X44000D01*
X43500D02*X44000D01*
X43500D02*X41000Y47397D01*
X40000D02*X44000D01*
X40000Y45696D02*Y44696D01*
Y45196D02*X44000D01*
X43000Y46196D02*X44000Y45196D01*
X40500Y43495D02*X40000Y42995D01*
X40500Y43495D02*X43500D01*
X44000Y42995D01*
Y41995D01*
X43500Y41495D01*
X40500D02*X43500D01*
X40000Y41995D02*X40500Y41495D01*
X40000Y42995D02*Y41995D01*
X41000Y43495D02*X43000Y41495D01*
X43500Y40294D02*X44000Y39794D01*
Y38294D01*
X43500Y37794D01*
X42500D02*X43500D01*
X40000Y40294D02*X42500Y37794D01*
X40000Y40294D02*Y37794D01*
X52500Y78500D02*X54500D01*
X55000Y78000D01*
Y77000D01*
X54500Y76500D02*X55000Y77000D01*
X53000Y76500D02*X54500D01*
X53000Y78500D02*Y74500D01*
Y76500D02*X55000Y74500D01*
X56201Y78000D02*X56701Y78500D01*
X58201D01*
X58701Y78000D01*
Y77000D01*
X56201Y74500D02*X58701Y77000D01*
X56201Y74500D02*X58701D01*
X59902Y75000D02*X60402Y74500D01*
X59902Y78000D02*Y75000D01*
Y78000D02*X60402Y78500D01*
X61402D01*
X61902Y78000D01*
Y75000D01*
X61402Y74500D02*X61902Y75000D01*
X60402Y74500D02*X61402D01*
X59902Y75500D02*X61902Y77500D01*
X63603Y74500D02*X64603D01*
X64103Y78500D02*Y74500D01*
X63103Y77500D02*X64103Y78500D01*
X110000Y46000D02*Y42500D01*
X110500Y42000D01*
X111500D01*
X112000Y42500D01*
Y46000D02*Y42500D01*
X113201Y45500D02*X113701Y46000D01*
X115201D01*
X115701Y45500D01*
Y44500D01*
X113201Y42000D02*X115701Y44500D01*
X113201Y42000D02*X115701D01*
X116902Y42500D02*X117402Y42000D01*
X116902Y45500D02*Y42500D01*
Y45500D02*X117402Y46000D01*
X118402D01*
X118902Y45500D01*
Y42500D01*
X118402Y42000D02*X118902Y42500D01*
X117402Y42000D02*X118402D01*
X116902Y43000D02*X118902Y45000D01*
X120603Y42000D02*X121603D01*
X121103Y46000D02*Y42000D01*
X120103Y45000D02*X121103Y46000D01*
X12500Y78500D02*X14500D01*
X15000Y78000D01*
Y77000D01*
X14500Y76500D02*X15000Y77000D01*
X13000Y76500D02*X14500D01*
X13000Y78500D02*Y74500D01*
Y76500D02*X15000Y74500D01*
X16201Y78000D02*X16701Y78500D01*
X18201D01*
X18701Y78000D01*
Y77000D01*
X16201Y74500D02*X18701Y77000D01*
X16201Y74500D02*X18701D01*
X19902Y75000D02*X20402Y74500D01*
X19902Y78000D02*Y75000D01*
Y78000D02*X20402Y78500D01*
X21402D01*
X21902Y78000D01*
Y75000D01*
X21402Y74500D02*X21902Y75000D01*
X20402Y74500D02*X21402D01*
X19902Y75500D02*X21902Y77500D01*
X23103Y78000D02*X23603Y78500D01*
X24603D01*
X25103Y78000D01*
Y75000D01*
X24603Y74500D02*X25103Y75000D01*
X23603Y74500D02*X24603D01*
X23103Y75000D02*X23603Y74500D01*
Y76500D02*X25103D01*
X171000Y184500D02*Y183000D01*
X171500Y185000D02*X171000Y184500D01*
X171500Y185000D02*X174500D01*
X175000Y184500D01*
Y183000D01*
X171500Y181799D02*X174500D01*
X175000Y181299D01*
Y180299D01*
X174500Y179799D01*
X171500D02*X174500D01*
X171000Y180299D02*X171500Y179799D01*
X171000Y181299D02*Y180299D01*
X171500Y181799D02*X171000Y181299D01*
Y178598D02*X175000D01*
X174500D02*X175000D01*
X174500D02*X172000Y176098D01*
X171000D02*X175000D01*
X171000Y174897D02*X175000D01*
X174500D02*X175000D01*
X174500D02*X172000Y172397D01*
X171000D02*X175000D01*
X171000Y170696D02*Y169696D01*
Y170196D02*X175000D01*
X174000Y171196D02*X175000Y170196D01*
X171500Y168495D02*X171000Y167995D01*
X171500Y168495D02*X174500D01*
X175000Y167995D01*
Y166995D01*
X174500Y166495D01*
X171500D02*X174500D01*
X171000Y166995D02*X171500Y166495D01*
X171000Y167995D02*Y166995D01*
X172000Y168495D02*X174000Y166495D01*
X171000Y164794D02*Y163794D01*
Y164294D02*X175000D01*
X174000Y165294D02*X175000Y164294D01*
X147000Y109000D02*X147500Y108500D01*
X145500Y109000D02*X147000D01*
X145000Y108500D02*X145500Y109000D01*
X145000Y108500D02*Y107500D01*
X145500Y107000D01*
X147000D01*
X147500Y106500D01*
Y105500D01*
X147000Y105000D02*X147500Y105500D01*
X145500Y105000D02*X147000D01*
X145000Y105500D02*X145500Y105000D01*
X148701Y109000D02*Y105000D01*
X150201Y106500D01*
X151701Y105000D01*
Y109000D02*Y105000D01*
X153402D02*X154402D01*
X153902Y109000D02*Y105000D01*
X152902Y108000D02*X153902Y109000D01*
X155603Y105500D02*X156103Y105000D01*
X155603Y108500D02*Y105500D01*
Y108500D02*X156103Y109000D01*
X157103D01*
X157603Y108500D01*
Y105500D01*
X157103Y105000D02*X157603Y105500D01*
X156103Y105000D02*X157103D01*
X155603Y106000D02*X157603Y108000D01*
X159304Y105000D02*X160304D01*
X159804Y109000D02*Y105000D01*
X158804Y108000D02*X159804Y109000D01*
X110000Y166000D02*Y162500D01*
X110500Y162000D01*
X111500D01*
X112000Y162500D01*
Y166000D02*Y162500D01*
X113201Y165500D02*X113701Y166000D01*
X114701D01*
X115201Y165500D01*
Y162500D01*
X114701Y162000D02*X115201Y162500D01*
X113701Y162000D02*X114701D01*
X113201Y162500D02*X113701Y162000D01*
Y164000D02*X115201D01*
X116402Y162500D02*X116902Y162000D01*
X116402Y165500D02*Y162500D01*
Y165500D02*X116902Y166000D01*
X117902D01*
X118402Y165500D01*
Y162500D01*
X117902Y162000D02*X118402Y162500D01*
X116902Y162000D02*X117902D01*
X116402Y163000D02*X118402Y165000D01*
X120103Y162000D02*X121103D01*
X120603Y166000D02*Y162000D01*
X119603Y165000D02*X120603Y166000D01*
M02*
