G04 start of page 5 for group -4062 idx -4062 *
G04 Title: (unknown), soldermask *
G04 Creator: pcb 20091103 *
G04 CreationDate: Thu 17 Mar 2011 12:53:05 AM GMT UTC *
G04 For: jlamothe *
G04 Format: Gerber/RS-274X *
G04 PCB-Dimensions: 185000 210000 *
G04 PCB-Coordinate-Origin: lower left *
%MOIN*%
%FSLAX25Y25*%
%LNBACKMASK*%
%ADD11C,0.0200*%
%ADD25C,0.0660*%
%ADD26C,0.0847*%
%ADD27C,0.0810*%
%ADD28C,0.1241*%
G54D25*X135000Y150000D03*
Y180000D03*
X125000D03*
X115000D03*
G54D11*G36*
X101700Y153300D02*Y146700D01*
X108300D01*
Y153300D01*
X101700D01*
G37*
G54D25*X115000Y150000D03*
X125000D03*
X105000Y180000D03*
X165000Y160000D03*
Y150000D03*
Y140000D03*
Y130000D03*
G54D26*X115000Y89410D03*
Y115000D03*
G54D11*G36*
X128480Y119237D02*Y110763D01*
X136954D01*
Y119237D01*
X128480D01*
G37*
G54D26*X132717Y89410D03*
G54D11*G36*
X161700Y183300D02*Y176700D01*
X168300D01*
Y183300D01*
X161700D01*
G37*
G54D25*X165000Y170000D03*
G54D27*Y200000D03*
X155000D03*
X145000D03*
X135000D03*
X125000D03*
X115000D03*
X105000D03*
X95000D03*
X79000D03*
X69000D03*
X59000D03*
X49000D03*
X39000D03*
X29000D03*
X19000D03*
X9000D03*
G54D11*G36*
X101700Y33300D02*Y26700D01*
X108300D01*
Y33300D01*
X101700D01*
G37*
G36*
X13795Y46205D02*Y33795D01*
X26205D01*
Y46205D01*
X13795D01*
G37*
G54D28*X20000Y20315D03*
G54D25*X115000Y30000D03*
X145000Y60000D03*
X135000D03*
X125000D03*
X115000D03*
X105000D03*
X125000Y30000D03*
X135000D03*
X145000D03*
X155000D03*
X165000D03*
Y60000D03*
X155000D03*
G54D27*X165000Y10000D03*
X155000D03*
X145000D03*
X135000D03*
X125000D03*
X115000D03*
X95000D03*
X85000D03*
X75000D03*
X65000D03*
X55000D03*
X45000D03*
M02*
