G04 start of page 8 for group -4078 idx -4078 *
G04 Title: (unknown), bottomsilk *
G04 Creator: pcb 20091103 *
G04 CreationDate: Thu 17 Mar 2011 12:59:32 AM GMT UTC *
G04 For: jlamothe *
G04 Format: Gerber/RS-274X *
G04 PCB-Dimensions: 185000 210000 *
G04 PCB-Coordinate-Origin: lower left *
%MOIN*%
%FSLAX25Y25*%
%LNBACKSILK*%
%ADD12C,0.0100*%
G54D12*X89000Y45000D02*Y49000D01*
X91000D01*
X92201Y45000D02*X93201D01*
X92701D02*Y49000D01*
X92201D02*X93201D01*
X94902D02*X96402D01*
X94402Y48500D02*X94902Y49000D01*
X94402Y45500D02*Y48500D01*
Y45500D02*X94902Y45000D01*
X96402D01*
X97603Y47000D02*X99103D01*
X97603Y49000D02*X99603D01*
X97603Y45000D02*Y49000D01*
Y45000D02*X99603D01*
X100804D02*Y49000D01*
Y45000D02*Y45500D01*
X103304Y48000D01*
Y45000D02*Y49000D01*
X106505Y45000D02*X107005Y45500D01*
X105005Y45000D02*X106505D01*
X104505Y45500D02*X105005Y45000D01*
X104505Y45500D02*Y46500D01*
X105005Y47000D01*
X106505D01*
X107005Y47500D01*
Y48500D01*
X106505Y49000D02*X107005Y48500D01*
X105005Y49000D02*X106505D01*
X104505Y48500D02*X105005Y49000D01*
X108206Y47000D02*X109706D01*
X108206Y49000D02*X110206D01*
X108206Y45000D02*Y49000D01*
Y45000D02*X110206D01*
X111907D02*Y49000D01*
X113407Y45000D02*X113907Y45500D01*
Y48500D01*
X113407Y49000D02*X113907Y48500D01*
X111407Y49000D02*X113407D01*
X111407Y45000D02*X113407D01*
X116908D02*Y48500D01*
X117408Y49000D01*
X118408D01*
X118908Y48500D01*
Y45000D02*Y48500D01*
X120109Y45000D02*Y49000D01*
Y45000D02*Y45500D01*
X122609Y48000D01*
Y45000D02*Y49000D01*
X124310Y45000D02*Y49000D01*
X125810Y45000D02*X126310Y45500D01*
Y48500D01*
X125810Y49000D02*X126310Y48500D01*
X123810Y49000D02*X125810D01*
X123810Y45000D02*X125810D01*
X127511Y47000D02*X129011D01*
X127511Y49000D02*X129511D01*
X127511Y45000D02*Y49000D01*
Y45000D02*X129511D01*
X130712D02*X132712D01*
X133212Y45500D01*
Y46500D01*
X132712Y47000D02*X133212Y46500D01*
X131212Y47000D02*X132712D01*
X131212Y45000D02*Y49000D01*
Y47000D02*X133212Y49000D01*
X138213Y45000D02*X138713Y45500D01*
X136713Y45000D02*X138213D01*
X136213Y45500D02*X136713Y45000D01*
X136213Y45500D02*Y48500D01*
X136713Y49000D01*
X138213D01*
X138713Y48500D01*
Y47500D02*Y48500D01*
X138213Y47000D02*X138713Y47500D01*
X137213Y47000D02*X138213D01*
X140414Y45000D02*Y49000D01*
X139914Y45000D02*X141914D01*
X142414Y45500D01*
Y46500D01*
X141914Y47000D02*X142414Y46500D01*
X140414Y47000D02*X141914D01*
X143615Y45000D02*Y49000D01*
X145615D01*
X146816Y47000D02*Y48000D01*
X147816Y49000D01*
X148816Y48000D01*
Y47000D02*Y48000D01*
X150017Y45500D02*X150517Y45000D01*
X151517D01*
X152017Y45500D01*
Y48500D01*
X151517Y49000D02*X152017Y48500D01*
X150517Y49000D02*X151517D01*
X150017Y48500D02*X150517Y49000D01*
Y47000D02*X152017D01*
X155018Y48500D02*X155518Y49000D01*
X155018Y45500D02*X155518Y45000D01*
X155018Y45500D02*Y48500D01*
X156719Y45500D02*Y48500D01*
Y45500D02*X157219Y45000D01*
X158219D01*
X158719Y45500D01*
Y48500D01*
X158219Y49000D02*X158719Y48500D01*
X157219Y49000D02*X158219D01*
X156719Y48500D02*X157219Y49000D01*
X159920Y45000D02*X161920D01*
X162420Y45500D01*
Y46500D01*
X161920Y47000D02*X162420Y46500D01*
X160420Y47000D02*X161920D01*
X160420Y45000D02*Y49000D01*
Y47000D02*X162420Y49000D01*
X165421Y45000D02*Y49000D01*
X167421D01*
X168622Y45500D02*Y49000D01*
Y45500D02*X169122Y45000D01*
X170622D01*
X171122Y45500D01*
Y49000D01*
X168622Y47000D02*X171122D01*
X172323Y45000D02*X174323D01*
X173323D02*Y49000D01*
X175524Y47000D02*X177024D01*
X175524Y49000D02*X177524D01*
X175524Y45000D02*Y49000D01*
Y45000D02*X177524D01*
X178725D02*X180725D01*
X181225Y45500D01*
Y46500D01*
X180725Y47000D02*X181225Y46500D01*
X179225Y47000D02*X180725D01*
X179225Y45000D02*Y49000D01*
Y47000D02*X181225Y49000D01*
X182426Y45000D02*X182926Y45500D01*
Y48500D01*
X182426Y49000D02*X182926Y48500D01*
X96000Y42500D02*X96500Y43000D01*
X96000Y39500D02*X96500Y39000D01*
X96000Y39500D02*Y42500D01*
X98201Y43000D02*X99701D01*
X97701Y42500D02*X98201Y43000D01*
X97701Y39500D02*Y42500D01*
Y39500D02*X98201Y39000D01*
X99701D01*
X100902D02*X101402Y39500D01*
Y42500D01*
X100902Y43000D02*X101402Y42500D01*
X104403Y39500D02*X104903Y39000D01*
X106403D01*
X106903Y39500D01*
Y40500D01*
X104403Y43000D02*X106903Y40500D01*
X104403Y43000D02*X106903D01*
X108104Y42500D02*X108604Y43000D01*
X108104Y39500D02*Y42500D01*
Y39500D02*X108604Y39000D01*
X109604D01*
X110104Y39500D01*
Y42500D01*
X109604Y43000D02*X110104Y42500D01*
X108604Y43000D02*X109604D01*
X108104Y42000D02*X110104Y40000D01*
X111805Y43000D02*X112805D01*
X112305Y39000D02*Y43000D01*
X111305Y40000D02*X112305Y39000D01*
X114506Y43000D02*X115506D01*
X115006Y39000D02*Y43000D01*
X114006Y40000D02*X115006Y39000D01*
X118507D02*X120007D01*
Y42500D01*
X119507Y43000D02*X120007Y42500D01*
X119007Y43000D02*X119507D01*
X118507Y42500D02*X119007Y43000D01*
X121208Y39500D02*Y42500D01*
Y39500D02*X121708Y39000D01*
X122708D01*
X123208Y39500D01*
Y42500D01*
X122708Y43000D02*X123208Y42500D01*
X121708Y43000D02*X122708D01*
X121208Y42500D02*X121708Y43000D01*
X124409Y39000D02*Y43000D01*
Y39000D02*Y39500D01*
X126909Y42000D01*
Y39000D02*Y43000D01*
X128110Y39500D02*Y43000D01*
Y39500D02*X128610Y39000D01*
X130110D01*
X130610Y39500D01*
Y43000D01*
X128110Y41000D02*X130610D01*
X131811Y39000D02*X133811D01*
X132811D02*Y43000D01*
X135012Y39000D02*Y43000D01*
X137512Y39000D02*Y43000D01*
X135012Y41000D02*X137512D01*
X138713Y39500D02*Y43000D01*
Y39500D02*X139213Y39000D01*
X140713D01*
X141213Y39500D01*
Y43000D01*
X138713Y41000D02*X141213D01*
X142414Y39000D02*Y43000D01*
Y39000D02*Y39500D01*
X144914Y42000D01*
Y39000D02*Y43000D01*
X147915Y39000D02*Y43000D01*
X149915D01*
X151116Y39500D02*Y43000D01*
Y39500D02*X151616Y39000D01*
X153116D01*
X153616Y39500D01*
Y43000D01*
X151116Y41000D02*X153616D01*
X154817Y39000D02*Y43000D01*
Y39000D02*X156317Y40500D01*
X157817Y39000D01*
Y43000D01*
X159018Y39500D02*Y42500D01*
Y39500D02*X159518Y39000D01*
X160518D01*
X161018Y39500D01*
Y42500D01*
X160518Y43000D02*X161018Y42500D01*
X159518Y43000D02*X160518D01*
X159018Y42500D02*X159518Y43000D01*
X162219Y39000D02*X164219D01*
X163219D02*Y43000D01*
X165420Y39000D02*Y43000D01*
X167920Y39000D02*Y43000D01*
X165420Y41000D02*X167920D01*
X169121D02*X170621D01*
X169121Y43000D02*X171121D01*
X169121Y39000D02*Y43000D01*
Y39000D02*X171121D01*
M02*
