G04 start of page 5 for group 4 idx 4 *
G04 Title: (unknown), bottom *
G04 Creator: pcb 20091103 *
G04 CreationDate: Wed 09 Mar 2011 02:16:16 PM GMT UTC *
G04 For: jlamothe *
G04 Format: Gerber/RS-274X *
G04 PCB-Dimensions: 200000 210000 *
G04 PCB-Coordinate-Origin: lower left *
%MOIN*%
%FSLAX25Y25*%
%LNGROUP4*%
%ADD11C,0.0200*%
%ADD12C,0.0600*%
%ADD13C,0.0750*%
%ADD14C,0.0250*%
%ADD16C,0.0300*%
%ADD17C,0.0280*%
%ADD18C,0.0380*%
%ADD19C,0.0150*%
%ADD20C,0.0100*%
G54D20*X185001Y40000D02*X150499D01*
X185000Y13000D02*Y9999D01*
X185001Y13000D02*X181999D01*
Y15251D02*Y12999D01*
X182000Y15251D02*X140499D01*
X135000Y34501D02*Y29999D01*
X140499Y60000D02*Y15250D01*
X140500Y60000D02*X135000D01*
X95000Y13749D02*Y9999D01*
X97252Y13749D02*X95000D01*
X97251Y58251D02*Y13748D01*
X125001Y58251D02*X97251D01*
X125000Y60000D02*Y58250D01*
X78245Y188503D02*Y156249D01*
X78246Y156250D02*X70250D01*
X61501Y196251D02*Y151497D01*
X82002Y151498D02*X61501D01*
X81498Y186502D02*Y169247D01*
X82001Y151498D02*Y145499D01*
X110499Y184501D02*Y149999D01*
X110500Y184501D02*X84249D01*
Y179248D01*
X105000Y180000D02*Y172748D01*
X102251Y169248D02*X81498D01*
X119500Y180000D02*Y99999D01*
X12501Y105250D02*X10250D01*
X27252Y93499D02*X3749D01*
X27251Y105250D02*Y93498D01*
X10000Y100000D02*Y95499D01*
X24501Y95500D02*X10000D01*
X20001Y100000D02*X19000D01*
X10250Y141500D02*Y105249D01*
X3749Y205251D02*Y93498D01*
X30002Y138750D02*Y92748D01*
X33751Y138750D02*X30002D01*
X33752Y180899D02*X25498D01*
X33751D02*Y175149D01*
X30250Y178148D02*Y166499D01*
X24500Y148501D02*Y95499D01*
X19000Y200000D02*Y99999D01*
X21751Y151251D02*Y149999D01*
X21752Y150000D02*X19000D01*
X40752Y148501D02*Y120648D01*
X43504Y120649D02*X40752D01*
X159501Y150000D02*X155000D01*
X155001Y154501D02*X150499D01*
X135000Y156502D02*Y149999D01*
X149501Y156502D02*X135000D01*
X115000Y205251D02*Y199999D01*
X105000Y200000D02*Y194749D01*
X105001Y194750D02*X76996D01*
X94501Y145500D02*X82001D01*
X159501Y188503D02*X78245D01*
X145001Y186502D02*X81498D01*
X159500Y188503D02*Y149999D01*
X155000Y180000D02*Y154500D01*
X149500Y185751D02*Y156501D01*
X152252Y185751D02*X149500D01*
X145000Y186502D02*Y179999D01*
X119501Y180000D02*X115000D01*
X129501D02*X125000D01*
X115001Y205251D02*X3749D01*
X76996Y194750D02*Y191998D01*
X59000Y200000D02*Y196250D01*
X61502Y196251D02*X59000D01*
X49000Y200000D02*Y194249D01*
X58751Y194250D02*Y149496D01*
X59502Y149497D02*X58751D01*
X40753Y148501D02*X24500D01*
X50500Y154002D02*X25498D01*
X40752Y188750D02*Y176146D01*
X58752Y194250D02*X49000D01*
X25498Y180899D02*Y154001D01*
X54000Y169251D02*Y169249D01*
X54001Y169251D02*X37252D01*
X48999Y166500D02*X30250D01*
X44252Y163000D02*X28249D01*
X150499Y154501D02*Y39999D01*
X94500Y145500D02*Y38248D01*
X80000Y100000D02*Y35497D01*
X59501Y149497D02*Y38248D01*
X50499Y154002D02*Y35497D01*
X55000Y54252D02*Y44999D01*
Y100000D02*Y44999D01*
X115001Y150000D02*X110499D01*
X109500D02*Y120648D01*
X115001Y150000D02*X109500D01*
X99500D02*Y128899D01*
X105001Y150000D02*X99500D01*
X119501Y100000D02*X115000D01*
X80001Y35498D02*X50499D01*
X135001Y34501D02*X119750D01*
Y54748D02*Y34500D01*
X129501Y60000D02*X125000D01*
X129500Y180000D02*Y59999D01*
X125000Y100000D02*Y92748D01*
Y150000D02*Y99999D01*
G54D11*G36*
X112000Y103000D02*Y97000D01*
X118000D01*
Y103000D01*
X112000D01*
G37*
G36*
X92000Y153000D02*Y147000D01*
X98000D01*
Y153000D01*
X92000D01*
G37*
G54D12*X105000Y150000D03*
X115000D03*
X125000Y100000D03*
Y60000D03*
G54D11*G36*
X7000Y48000D02*Y42000D01*
X13000D01*
Y48000D01*
X7000D01*
G37*
G54D12*X20000Y45000D03*
G54D11*G36*
X42000Y48000D02*Y42000D01*
X48000D01*
Y48000D01*
X42000D01*
G37*
G54D12*X55000Y45000D03*
G54D11*G36*
X42000Y103000D02*Y97000D01*
X48000D01*
Y103000D01*
X42000D01*
G37*
G54D12*X55000Y100000D03*
G54D11*G36*
X7000Y103000D02*Y97000D01*
X13000D01*
Y103000D01*
X7000D01*
G37*
G54D12*X20000Y100000D03*
G54D11*G36*
X77000Y103000D02*Y97000D01*
X83000D01*
Y103000D01*
X77000D01*
G37*
G54D12*X90000Y100000D03*
X155000Y30000D03*
Y60000D03*
X145000D03*
X135000D03*
G54D11*G36*
X122000Y33000D02*Y27000D01*
X128000D01*
Y33000D01*
X122000D01*
G37*
G54D12*X135000Y30000D03*
X145000D03*
G54D11*G36*
X182000Y63000D02*Y57000D01*
X188000D01*
Y63000D01*
X182000D01*
G37*
G54D12*X185000Y50000D03*
Y40000D03*
Y30000D03*
Y20000D03*
Y10000D03*
G54D13*X165000D03*
X155000D03*
X145000D03*
X135000D03*
X125000D03*
X115000D03*
X95000D03*
X85000D03*
X75000D03*
X65000D03*
X55000D03*
X45000D03*
G54D12*X125000Y150000D03*
X135000D03*
X145000D03*
X155000D03*
Y180000D03*
X145000D03*
X135000D03*
G54D13*X165000Y200000D03*
X155000D03*
X145000D03*
G54D12*X125000Y180000D03*
X115000D03*
X105000D03*
X95000D03*
G54D13*X135000Y200000D03*
X125000D03*
X115000D03*
X105000D03*
X95000D03*
X79000D03*
X69000D03*
X59000D03*
X49000D03*
X39000D03*
X29000D03*
X19000D03*
X9000D03*
G54D14*X125000Y92749D03*
X55000Y54252D03*
X119750Y54748D03*
X152251Y185751D03*
X105000Y172749D03*
X102250Y169248D03*
X99500Y128900D03*
X109500Y120649D03*
X84249Y179249D03*
X76996Y191999D03*
X70250Y156250D03*
X59501Y38249D03*
X94500D03*
X21751Y151251D03*
X28249Y163000D03*
X37252Y169251D03*
X10250Y141500D03*
X33750Y138750D03*
X30250Y178148D03*
X30002Y92749D03*
X44251Y163000D03*
X48998Y166500D03*
X54000Y169250D03*
X33751Y175150D03*
X40752Y176147D03*
X43503Y120649D03*
X27251Y105250D03*
X12500D03*
X40752Y188750D03*
G54D16*G54D17*G54D16*G54D17*G54D16*G54D17*G54D18*G54D16*G54D17*G54D16*G54D17*G54D16*G54D19*M02*
