G04 start of page 5 for group -4062 idx -4062 *
G04 Title: (unknown), soldermask *
G04 Creator: pcb 20091103 *
G04 CreationDate: Tue 22 Mar 2011 08:58:35 AM GMT UTC *
G04 For: jlamothe *
G04 Format: Gerber/RS-274X *
G04 PCB-Dimensions: 180000 210000 *
G04 PCB-Coordinate-Origin: lower left *
%MOIN*%
%FSLAX25Y25*%
%LNBACKMASK*%
%ADD11C,0.0200*%
%ADD25C,0.1084*%
%ADD26C,0.0660*%
%ADD27C,0.0810*%
%ADD28C,0.0847*%
G54D11*G36*
X101700Y33300D02*Y26700D01*
X108300D01*
Y33300D01*
X101700D01*
G37*
G54D25*X25000Y30315D03*
G54D26*X135000Y60000D03*
X125000D03*
X115000D03*
X105000D03*
G54D11*G36*
X19582Y55418D02*Y44582D01*
X30418D01*
Y55418D01*
X19582D01*
G37*
G54D27*X85000Y10000D03*
X75000D03*
X65000D03*
X55000D03*
X45000D03*
G54D26*X135000Y150000D03*
Y180000D03*
X125000D03*
X115000D03*
G54D11*G36*
X101700Y153300D02*Y146700D01*
X108300D01*
Y153300D01*
X101700D01*
G37*
G54D26*X115000Y150000D03*
X125000D03*
X165000D03*
Y140000D03*
X105000Y180000D03*
G54D28*X122283Y120000D03*
G54D26*X115000Y30000D03*
G54D27*Y10000D03*
X95000D03*
G54D26*X125000Y30000D03*
X135000D03*
X145000D03*
G54D27*X135000Y10000D03*
X125000D03*
G54D26*X155000Y30000D03*
X165000D03*
Y60000D03*
X155000D03*
G54D27*X165000Y10000D03*
X155000D03*
G54D26*X145000Y60000D03*
G54D27*Y10000D03*
G54D28*X122283Y94410D03*
X140000D03*
G54D11*G36*
X135763Y124237D02*Y115763D01*
X144237D01*
Y124237D01*
X135763D01*
G37*
G54D26*X165000Y130000D03*
G54D11*G36*
X161700Y183300D02*Y176700D01*
X168300D01*
Y183300D01*
X161700D01*
G37*
G54D26*X165000Y170000D03*
Y160000D03*
G54D27*Y200000D03*
X155000D03*
X145000D03*
X135000D03*
X125000D03*
X115000D03*
X105000D03*
X95000D03*
X79000D03*
X69000D03*
X59000D03*
X49000D03*
X39000D03*
X29000D03*
X19000D03*
X9000D03*
M02*
