G04 start of page 4 for group 3 idx 3 *
G04 Title: (unknown), top *
G04 Creator: pcb 20091103 *
G04 CreationDate: Wed 09 Mar 2011 02:16:16 PM GMT UTC *
G04 For: jlamothe *
G04 Format: Gerber/RS-274X *
G04 PCB-Dimensions: 200000 210000 *
G04 PCB-Coordinate-Origin: lower left *
%MOIN*%
%FSLAX25Y25*%
%LNGROUP3*%
%ADD11C,0.0200*%
%ADD12C,0.0600*%
%ADD13C,0.0750*%
%ADD14C,0.0250*%
%ADD16C,0.0300*%
%ADD17C,0.0280*%
%ADD18C,0.0380*%
%ADD19C,0.0150*%
%ADD20C,0.0100*%
G54D20*X185000Y68503D02*Y59999D01*
X189500Y150000D02*Y49999D01*
X191501Y175500D02*Y22749D01*
X191502Y22750D02*X189500D01*
Y30000D02*Y15499D01*
X185001Y20000D02*X180499D01*
Y34501D02*Y19999D01*
X140499Y154501D02*Y68502D01*
X189501Y150000D02*X155000D01*
X158000Y180000D02*X155000D01*
X157999Y183001D02*Y179999D01*
X170251Y183001D02*X157999D01*
X191502Y175500D02*X139500D01*
X189501Y50000D02*X185000D01*
X135001Y51998D02*X103099D01*
X189501Y30000D02*X185000D01*
X180500Y34501D02*X125000D01*
X145000Y30000D02*Y25499D01*
X145001Y25500D02*X106100D01*
Y29000D02*Y25499D01*
X155000Y30000D02*Y23498D01*
X185001Y68503D02*X140499D01*
X155000Y66502D02*Y59999D01*
X145000Y64501D02*Y59999D01*
X135000Y60000D02*Y51997D01*
X106100Y59000D02*Y53998D01*
X119750Y56499D02*Y54747D01*
X119751Y56499D02*X106100D01*
X145001Y64501D02*X103099D01*
X105000Y152999D02*Y149999D01*
X105002Y152999D02*X105000D01*
X105001Y160000D02*Y152998D01*
X135000Y150000D02*Y95499D01*
X145000Y163001D02*Y149999D01*
X115000Y123400D02*Y99999D01*
X125000Y135000D02*Y99999D01*
X189501Y15500D02*X5499D01*
X125551Y25500D02*X45000D01*
X155001Y23499D02*X40499D01*
X15251Y123899D02*Y92748D01*
X30003Y92749D02*X15251D01*
X5499Y105250D02*Y15499D01*
X10000Y51502D02*Y44999D01*
X20000Y100000D02*Y95499D01*
Y120898D02*Y99999D01*
X45000Y45000D02*Y25499D01*
X59501Y51502D02*X10000D01*
X59500D02*Y40999D01*
X81101Y41000D02*X59500D01*
X90000Y100000D02*Y95499D01*
X90001Y95500D02*X55000D01*
X55001D02*X20000D01*
X55000Y100000D02*Y95499D01*
X90000Y100000D02*Y92748D01*
X155001Y66502D02*X34750D01*
Y51501D01*
X20000Y49501D02*Y44999D01*
X55001Y49501D02*X20000D01*
X100001Y63001D02*X75000D01*
Y59999D01*
X75001Y54252D02*X55000D01*
X75000Y59000D02*Y54251D01*
X55000Y49501D02*Y44999D01*
X40499Y49501D02*Y23498D01*
X55001Y49501D02*X40499D01*
X55000D02*Y47249D01*
X125001Y92749D02*X90000D01*
X170250Y205251D02*Y183000D01*
X152251Y186502D02*Y185750D01*
X152252Y186502D02*X86999D01*
Y181999D01*
X87000Y182000D02*X70999D01*
Y179148D01*
X135000Y180000D02*Y175499D01*
X170251Y205251D02*X3749D01*
X140500Y154501D02*X130499D01*
Y145499D01*
X139500Y184501D02*Y175499D01*
X95000Y184501D02*Y179999D01*
X139501Y184501D02*X95000D01*
X135000Y200000D02*Y189247D01*
X135001Y189248D02*X75000D01*
Y184999D01*
X69000Y200000D02*Y194749D01*
X40753Y105250D02*X27251D01*
X109501Y120649D02*X43503D01*
X125001Y135000D02*X75000D01*
X55000D02*Y134998D01*
X74001Y134999D02*X55000D01*
X74000Y135000D02*Y134998D01*
X40752Y176147D02*Y105249D01*
Y188750D02*Y184999D01*
X35000Y191999D02*Y184999D01*
X69001Y194750D02*X15000D01*
Y184999D01*
X54001Y185000D02*X40752D01*
X76997Y191999D02*X35000D01*
X71000Y179149D02*X55000D01*
X45000Y104501D02*Y99999D01*
X55001Y128900D02*X50999D01*
Y160000D02*Y128899D01*
X94501Y104501D02*X45000D01*
X135001Y175500D02*X50999D01*
X55001Y160000D02*X50999D01*
X56000Y163001D02*Y159999D01*
X145001Y163001D02*X56000D01*
X55000Y179149D02*Y178899D01*
X50999Y178898D02*Y175499D01*
X51000Y178898D02*X35000D01*
Y178900D02*Y178897D01*
X33751Y178900D02*Y175149D01*
X34001Y178900D02*X33751D01*
X125000Y44000D02*Y29999D01*
X125001Y44000D02*X106100D01*
X125000Y34501D02*Y29999D01*
X84249Y179249D02*Y178899D01*
X84250Y178900D02*X75000D01*
X105002Y160000D02*X75000D01*
X94499Y44000D02*X81100D01*
X99501Y128900D02*X75000D01*
X94500Y104501D02*Y95499D01*
X81100Y59000D02*Y52250D01*
X81101Y52251D02*X75000D01*
Y44999D01*
X135001Y95500D02*X94500D01*
X103099Y51998D02*Y40999D01*
X103100Y41000D02*X94498D01*
Y44000D02*Y40999D01*
X94500Y38249D02*Y29999D01*
X100001Y30000D02*X94500D01*
X59501Y38249D02*Y29999D01*
X75001Y30000D02*X59501D01*
X81100Y41000D02*Y29999D01*
X103100Y56000D02*X78050D01*
Y52250D01*
X106101Y53999D02*X100000D01*
Y44999D01*
X103099Y64501D02*Y55999D01*
X100000Y63001D02*Y58999D01*
X95001Y150000D02*X75000D01*
Y153900D02*Y149999D01*
X130500Y145500D02*X95000D01*
Y150000D02*Y145499D01*
X35001Y128900D02*X30999D01*
X115001Y123400D02*X48998D01*
X102251Y169248D02*X54000D01*
X105001Y172749D02*X44251D01*
X38002Y135000D02*X35000D01*
X70250Y156250D02*Y153899D01*
X70251Y153900D02*X56000D01*
X12501Y105250D02*X5499D01*
X10250Y153900D02*Y141499D01*
X14001Y153900D02*X10250D01*
X18002Y128900D02*X15000D01*
X18001Y160000D02*Y128899D01*
X18002Y160000D02*X15000D01*
X37253D02*X35000D01*
X48998Y166500D02*Y123399D01*
X44251Y172749D02*Y162999D01*
X38001Y135000D02*Y120897D01*
X38002Y120898D02*X20000D01*
X3749Y205251D02*Y123898D01*
X15252Y123899D02*X3749D01*
X15001Y135000D02*X10999D01*
Y125899D01*
X21752Y125900D02*X10999D01*
X54000Y169250D02*Y169247D01*
X37252Y169251D02*Y159999D01*
X30250Y178900D02*Y178147D01*
X30251Y178900D02*X15000D01*
X28249Y163000D02*Y159999D01*
X33750Y153900D02*Y138749D01*
X34001Y153900D02*X33750D01*
X30999Y156901D02*Y128899D01*
X34001Y156901D02*X30999D01*
X34000Y160000D02*Y156900D01*
X28250Y160000D02*X16501D01*
X21751Y151251D02*Y125899D01*
G54D11*G36*
X112000Y103000D02*Y97000D01*
X118000D01*
Y103000D01*
X112000D01*
G37*
G36*
X92000Y153000D02*Y147000D01*
X98000D01*
Y153000D01*
X92000D01*
G37*
G54D12*X105000Y150000D03*
X115000D03*
X125000Y100000D03*
Y60000D03*
G54D11*G36*
X7000Y48000D02*Y42000D01*
X13000D01*
Y48000D01*
X7000D01*
G37*
G54D12*X20000Y45000D03*
G54D11*G36*
X42000Y48000D02*Y42000D01*
X48000D01*
Y48000D01*
X42000D01*
G37*
G54D12*X55000Y45000D03*
G54D11*G36*
X42000Y103000D02*Y97000D01*
X48000D01*
Y103000D01*
X42000D01*
G37*
G54D12*X55000Y100000D03*
G54D11*G36*
X7000Y103000D02*Y97000D01*
X13000D01*
Y103000D01*
X7000D01*
G37*
G54D12*X20000Y100000D03*
G54D11*G36*
X77000Y103000D02*Y97000D01*
X83000D01*
Y103000D01*
X77000D01*
G37*
G54D12*X90000Y100000D03*
X155000Y30000D03*
Y60000D03*
X145000D03*
X135000D03*
G54D11*G36*
X122000Y33000D02*Y27000D01*
X128000D01*
Y33000D01*
X122000D01*
G37*
G54D12*X135000Y30000D03*
X145000D03*
G54D11*G36*
X182000Y63000D02*Y57000D01*
X188000D01*
Y63000D01*
X182000D01*
G37*
G54D12*X185000Y50000D03*
Y40000D03*
Y30000D03*
Y20000D03*
Y10000D03*
G54D13*X165000D03*
X155000D03*
X145000D03*
X135000D03*
X125000D03*
X115000D03*
X95000D03*
X85000D03*
X75000D03*
X65000D03*
X55000D03*
X45000D03*
G54D12*X125000Y150000D03*
X135000D03*
X145000D03*
X155000D03*
Y180000D03*
X145000D03*
X135000D03*
G54D13*X165000Y200000D03*
X155000D03*
X145000D03*
G54D12*X125000Y180000D03*
X115000D03*
X105000D03*
X95000D03*
G54D13*X135000Y200000D03*
X125000D03*
X115000D03*
X105000D03*
X95000D03*
X79000D03*
X69000D03*
X59000D03*
X49000D03*
X39000D03*
X29000D03*
X19000D03*
X9000D03*
G54D14*X125000Y92749D03*
X55000Y54252D03*
X119750Y54748D03*
X152251Y185751D03*
X105000Y172749D03*
X102250Y169248D03*
X99500Y128900D03*
X109500Y120649D03*
X84249Y179249D03*
X76996Y191999D03*
X70250Y156250D03*
X59501Y38249D03*
X94500D03*
X21751Y151251D03*
X28249Y163000D03*
X37252Y169251D03*
X10250Y141500D03*
X33750Y138750D03*
X30250Y178148D03*
X30002Y92749D03*
X44251Y163000D03*
X48998Y166500D03*
X54000Y169250D03*
X33751Y175150D03*
X40752Y176147D03*
X43503Y120649D03*
X27251Y105250D03*
X12500D03*
X40752Y188750D03*
G54D16*G54D17*G54D16*G54D17*G54D16*G54D17*G54D18*G54D16*G54D17*G54D16*G54D17*G54D16*G54D19*M02*
