G04 start of page 2 for group 0 idx 0 *
G04 Title: (unknown), component *
G04 Creator: pcb 20091103 *
G04 CreationDate: Sat 12 Mar 2011 05:15:37 PM GMT UTC *
G04 For: jlamothe *
G04 Format: Gerber/RS-274X *
G04 PCB-Dimensions: 180000 210000 *
G04 PCB-Coordinate-Origin: lower left *
%MOIN*%
%FSLAX25Y25*%
%LNFRONT*%
%ADD11C,0.0100*%
%ADD12C,0.0200*%
%ADD13C,0.0600*%
%ADD14C,0.0750*%
%ADD15C,0.0360*%
%ADD16R,0.0430X0.0430*%
%ADD17R,0.0300X0.0300*%
%ADD18C,0.0380*%
%ADD19C,0.0300*%
%ADD20C,0.0280*%
G54D11*X92851Y68400D02*X87900D01*
X61349Y94362D02*Y73650D01*
X80000Y68400D02*Y64748D01*
X95100Y73651D02*X80000D01*
X95099D02*Y73397D01*
X40001Y40898D02*X19000D01*
X48500Y31000D02*Y21497D01*
X43100Y35000D02*X40000D01*
X46401D02*X46100D01*
X40000Y49000D02*Y40897D01*
X40001Y49000D02*X36999D01*
X40000Y73651D02*Y48999D01*
X51701Y50000D02*X46100D01*
X51700Y52046D02*Y49999D01*
X36999Y49000D02*Y30999D01*
X43099Y47500D02*Y34999D01*
X44601Y47500D02*X43099D01*
X44600Y49000D02*Y47499D01*
X46101Y49000D02*X44600D01*
X46400Y39300D02*Y34999D01*
X61350Y73651D02*X40000D01*
X66101Y57375D02*Y55499D01*
X46400Y45499D02*Y39299D01*
X63001Y45499D02*X46400D01*
X135001Y21498D02*X48500D01*
X60001Y31000D02*X36999D01*
X60000Y34000D02*Y30999D01*
X86100Y34000D02*Y23498D01*
X105000Y30000D02*Y25499D01*
X115001Y38001D02*X80000D01*
X122000Y23499D02*X86100D01*
X121999Y27002D02*Y23498D01*
X125001Y27002D02*X121999D01*
X125000Y30000D02*Y27001D01*
X119501Y25500D02*X105000D01*
X135001Y55500D02*X66101D01*
X169501Y64749D02*X80000D01*
X135000Y60000D02*Y55499D01*
Y30000D02*Y21497D01*
X115000Y38001D02*Y29999D01*
X125000Y35500D02*Y29999D01*
X125551Y42602D02*X119500D01*
Y25499D01*
X86100Y49000D02*Y42601D01*
X169501Y35500D02*X125000D01*
X165001Y42602D02*X86100D01*
X165000D02*Y39999D01*
X169500Y64749D02*Y35499D01*
X160500Y73398D02*X95099D01*
X160499Y75500D02*Y73397D01*
X169501Y75500D02*X160499D01*
X165001Y80000D02*X106398D01*
X66102Y50000D02*X66100D01*
X66101Y64750D02*Y49999D01*
X60001Y50000D02*X56301D01*
Y55346D02*Y49999D01*
X63000Y59947D02*Y45498D01*
X80000Y44800D02*Y38000D01*
Y49000D02*Y40600D01*
X80001Y40601D02*X66100D01*
Y33999D01*
X80001Y35000D02*X70400D01*
Y37300D02*Y34999D01*
X66102Y64750D02*X55000D01*
Y68400D02*Y64749D01*
X63001Y59947D02*X62801D01*
X135001Y120000D02*X122900D01*
X135000Y150000D02*Y119999D01*
X169500Y145500D02*Y75499D01*
X169501Y145500D02*X160499D01*
X98401Y118400D02*X97900D01*
X98400D02*Y76697D01*
X97900Y143499D02*Y118399D01*
X80000Y139000D02*Y73650D01*
X100500Y149700D02*X91300D01*
X112251Y145500D02*X104748D01*
X122900Y118400D02*Y113449D01*
X123801Y124950D02*X115000D01*
Y118399D01*
X104748Y145500D02*Y120400D01*
X106399Y120401D02*X104748D01*
X119501Y145500D02*X105000D01*
X106398Y120401D02*Y79999D01*
X105000Y150000D02*Y145499D01*
X19000Y200000D02*Y40897D01*
X32697Y194750D02*Y44198D01*
X36999Y166000D02*Y161999D01*
X40001Y140000D02*X36999D01*
Y184000D02*Y139999D01*
X40001Y184000D02*X36999D01*
X40000Y139000D02*Y123650D01*
Y154000D02*Y143000D01*
X60001Y166000D02*X36999D01*
X46100Y139000D02*Y136896D01*
X53703Y136897D02*X46100D01*
X46101Y139000D02*X44099D01*
X60001Y140000D02*X57003D01*
Y146398D02*Y139999D01*
X53703Y150999D02*X46100D01*
X44100Y143001D02*X40000D01*
X44099D02*Y138999D01*
X46100Y154000D02*Y150998D01*
X57000Y180699D02*X40497D01*
X60000Y162699D02*Y154999D01*
Y169000D02*Y165999D01*
X61349Y116575D02*Y72148D01*
X62901Y72149D02*X61349D01*
X62900D02*Y68399D01*
X61349Y118400D02*Y114749D01*
X62502Y162699D02*X60000D01*
X61350Y118400D02*X47900D01*
Y122151D02*Y118399D01*
X44100Y123651D02*X40000D01*
X44099D02*Y122150D01*
X47901Y122151D02*X44099D01*
X42150Y116252D02*Y113449D01*
X42151Y116252D02*X40000D01*
Y118400D02*Y116251D01*
X46101Y170000D02*X43798D01*
Y174300D02*Y169999D01*
X60000Y184000D02*Y173000D01*
X40498Y170000D02*X40000D01*
X40497Y180699D02*Y169999D01*
X50401Y184000D02*X46100D01*
X59001Y194750D02*X32697D01*
X59000Y200000D02*Y194749D01*
X66101Y191448D02*X35998D01*
X3749Y207252D02*Y190147D01*
X56999Y188001D02*Y180698D01*
X63100Y188001D02*X56999D01*
X63099D02*Y180999D01*
X94601Y166000D02*Y165198D01*
X115002Y168500D02*X98498D01*
X94602Y166000D02*X83099D01*
Y188001D02*Y165999D01*
X75700Y177699D02*Y169999D01*
X86100Y184000D02*Y173000D01*
Y170501D02*Y169999D01*
X155001Y188001D02*X83099D01*
X155000D02*Y179999D01*
X69101Y181000D02*X63099D01*
X135001Y194750D02*X80000D01*
X66100Y191448D02*Y184999D01*
X172252Y207252D02*X3749D01*
X95198Y176301D02*Y175499D01*
X145001Y175500D02*X95198D01*
X122000Y173001D02*X86100D01*
X119501Y170501D02*X86100D01*
X80000Y154000D02*Y143498D01*
X97901Y143499D02*X80000D01*
X92951Y139000D02*X86975D01*
X92950Y140198D02*Y138999D01*
X87850Y139000D02*X86100D01*
X98499Y155250D02*X86100D01*
X77000Y120000D02*X72900D01*
X72901Y114750D02*X61349D01*
X72900Y118400D02*Y114749D01*
X67150Y118400D02*X65000D01*
X69103Y154000D02*Y122150D01*
X66101Y140000D02*X65802D01*
Y149700D02*Y139999D01*
X69104Y122151D02*X67149D01*
Y118399D01*
X76999Y153501D02*Y119999D01*
X87849Y139000D02*Y122148D01*
X90001Y122149D02*X87849D01*
X90000D02*Y118399D01*
X80001Y153501D02*X76999D01*
X80000Y154000D02*Y153500D01*
X73700Y154000D02*X67602D01*
X73699Y159398D02*Y153999D01*
X69104Y154000D02*X66100D01*
X69100Y196252D02*Y180999D01*
X69101Y196252D02*X69000D01*
Y200000D02*Y196251D01*
X80000Y194750D02*Y184999D01*
X75701Y170000D02*X66100D01*
X66101Y173001D02*X60000D01*
X66100D02*Y168999D01*
X98498Y168500D02*Y155249D01*
X100499Y157897D02*Y149699D01*
X115001Y168500D02*Y152999D01*
X121999Y173001D02*Y152999D01*
X111700Y165199D02*Y157896D01*
X115002Y153000D02*X115000D01*
Y149999D01*
X125001Y153000D02*X121999D01*
X125000D02*Y149999D01*
X80000Y169000D02*Y158000D01*
X84600Y158001D02*X80000D01*
X84599D02*Y156499D01*
X86101Y156500D02*X84599D01*
X86100D02*Y153999D01*
X111701Y157897D02*X100499D01*
X145000Y180000D02*Y175499D01*
X160499Y194750D02*Y145499D01*
X170251Y194750D02*X160499D01*
X170250Y205251D02*Y194749D01*
X170251Y205251D02*X115000D01*
Y199999D01*
X135000Y200000D02*Y194749D01*
X172251Y207252D02*Y149999D01*
X172252Y150000D02*X165000D01*
X119500Y170501D02*Y145499D01*
G54D12*G36*
X162000Y83000D02*Y77000D01*
X168000D01*
Y83000D01*
X162000D01*
G37*
G54D13*X165000Y70000D03*
Y60000D03*
Y50000D03*
Y40000D03*
Y30000D03*
G54D14*Y10000D03*
X155000D03*
G54D13*X135000Y60000D03*
X125000D03*
X115000D03*
X105000D03*
G54D12*G36*
X102000Y153000D02*Y147000D01*
X108000D01*
Y153000D01*
X102000D01*
G37*
G54D13*X105000Y180000D03*
X115000Y150000D03*
Y180000D03*
X125000Y150000D03*
Y180000D03*
G54D14*X145000Y10000D03*
X135000D03*
X125000D03*
X115000D03*
X95000D03*
X85000D03*
X75000D03*
X65000D03*
X55000D03*
X45000D03*
G54D12*G36*
X102000Y33000D02*Y27000D01*
X108000D01*
Y33000D01*
X102000D01*
G37*
G54D13*X115000Y30000D03*
X125000D03*
X135000D03*
Y150000D03*
Y180000D03*
X145000Y150000D03*
X155000D03*
X165000D03*
Y180000D03*
X155000D03*
X145000D03*
G54D14*X165000Y200000D03*
X155000D03*
X145000D03*
X135000D03*
X125000D03*
X115000D03*
X105000D03*
X95000D03*
X79000D03*
X69000D03*
X59000D03*
X49000D03*
X39000D03*
X29000D03*
X19000D03*
X9000D03*
G54D15*X122900Y113450D03*
X98400Y76698D03*
X92850Y68400D03*
X123800Y124950D03*
X94601Y165199D03*
X95198Y176301D03*
X92950Y140198D03*
X91300Y149700D03*
X111700Y165199D03*
X57003Y146398D03*
X62501Y162699D03*
X65802Y149700D03*
X50400Y184000D03*
X35998Y191448D03*
X3749Y190148D03*
X73699Y159398D03*
X75700Y177699D03*
X70400Y37300D03*
X53702Y136897D03*
X42150Y113450D03*
X43798Y174300D03*
X46400Y39300D03*
X53702Y150999D03*
X51700Y52046D03*
X56301Y55346D03*
X32697Y44199D03*
X62801Y59947D03*
G54D16*X65000Y120000D02*Y118400D01*
X72900Y120000D02*Y118400D01*
X90000Y120000D02*Y118400D01*
G54D17*X80000Y140000D02*Y139000D01*
X86100Y140000D02*Y139000D01*
G54D16*X97900Y120000D02*Y118400D01*
X40000Y120000D02*Y118400D01*
G54D17*Y140000D02*Y139000D01*
X46100Y140000D02*Y139000D01*
X60000Y140000D02*Y139000D01*
X66100Y140000D02*Y139000D01*
G54D16*X47900Y120000D02*Y118400D01*
X115000Y120000D02*Y118400D01*
X122900Y120000D02*Y118400D01*
G54D17*X60000Y155000D02*Y154000D01*
X66100Y155000D02*Y154000D01*
X60000Y170000D02*Y169000D01*
X66100Y170000D02*Y169000D01*
X60000Y185000D02*Y184000D01*
X66100Y185000D02*Y184000D01*
X80000Y155000D02*Y154000D01*
X86100Y155000D02*Y154000D01*
X80000Y170000D02*Y169000D01*
X86100Y170000D02*Y169000D01*
X80000Y185000D02*Y184000D01*
X86100Y185000D02*Y184000D01*
X40000Y170000D02*Y169000D01*
Y185000D02*Y184000D01*
Y155000D02*Y154000D01*
Y35000D02*Y34000D01*
Y50000D02*Y49000D01*
X46100Y170000D02*Y169000D01*
Y185000D02*Y184000D01*
Y155000D02*Y154000D01*
Y35000D02*Y34000D01*
G54D16*X55000Y70000D02*Y68400D01*
G54D17*X46100Y50000D02*Y49000D01*
G54D16*X62900Y70000D02*Y68400D01*
X80000Y70000D02*Y68400D01*
X87900Y70000D02*Y68400D01*
G54D17*X60000Y50000D02*Y49000D01*
X66100Y50000D02*Y49000D01*
X80000Y50000D02*Y49000D01*
X86100Y50000D02*Y49000D01*
X60000Y35000D02*Y34000D01*
X66100Y35000D02*Y34000D01*
X80000Y35000D02*Y34000D01*
X86100Y35000D02*Y34000D01*
G54D18*G54D19*G54D20*G54D19*G54D20*G54D19*G54D12*M02*
