G04 start of page 9 for group -4079 idx -4079 *
G04 Title: (unknown), topsilk *
G04 Creator: pcb 20091103 *
G04 CreationDate: Wed 09 Mar 2011 02:16:16 PM GMT UTC *
G04 For: jlamothe *
G04 Format: Gerber/RS-274X *
G04 PCB-Dimensions: 200000 210000 *
G04 PCB-Coordinate-Origin: lower left *
%MOIN*%
%FSLAX25Y25*%
%LNFRONTSILK*%
%ADD20C,0.0100*%
%ADD24C,0.0080*%
G54D20*X90000Y185000D02*Y170000D01*
Y160000D02*Y145000D01*
Y185000D02*X160000D01*
Y145000D01*
X90000D02*X160000D01*
X90000Y160000D02*G75*G03X90000Y170000I0J5000D01*G01*
G54D24*X78000Y163000D02*Y150900D01*
X71000D02*X78000D01*
X71000Y163000D02*Y150900D01*
Y163000D02*X78000D01*
Y188000D02*Y175900D01*
X71000D02*X78000D01*
X71000Y188000D02*Y175900D01*
Y188000D02*X78000D01*
X84100Y63000D02*X72000D01*
X84100Y56000D02*Y63000D01*
X72000Y56000D02*X84100D01*
X72000Y63000D02*Y56000D01*
X84100Y48000D02*X72000D01*
X84100Y41000D02*Y48000D01*
X72000Y41000D02*X84100D01*
X72000Y48000D02*Y41000D01*
X84100Y33000D02*X72000D01*
X84100Y26000D02*Y33000D01*
X72000Y26000D02*X84100D01*
X72000Y33000D02*Y26000D01*
G54D20*X40000Y45000D02*G75*G03X40000Y45000I10000J0D01*G01*
X120000Y65000D02*Y50000D01*
Y40000D02*Y25000D01*
Y65000D02*X160000D01*
Y25000D01*
X120000D02*X160000D01*
X120000Y40000D02*G75*G03X120000Y50000I0J5000D01*G01*
X110000Y100000D02*G75*G03X110000Y100000I10000J0D01*G01*
G54D24*X109100Y63000D02*X97000D01*
X109100Y56000D02*Y63000D01*
X97000Y56000D02*X109100D01*
X97000Y63000D02*Y56000D01*
X109100Y48000D02*X97000D01*
X109100Y41000D02*Y48000D01*
X97000Y41000D02*X109100D01*
X97000Y48000D02*Y41000D01*
G54D20*X190000Y55000D02*Y65000D01*
X180000Y55000D02*X190000D01*
Y65000D02*X180000D01*
X190000Y5000D02*Y65000D01*
X180000Y5000D02*X190000D01*
X180000Y65000D02*Y5000D01*
G54D24*X109100Y33000D02*X97000D01*
X109100Y26000D02*Y33000D01*
X97000Y26000D02*X109100D01*
X97000Y33000D02*Y26000D01*
X78000Y138000D02*Y125900D01*
X71000D02*X78000D01*
X71000Y138000D02*Y125900D01*
Y138000D02*X78000D01*
G54D20*X40000Y15000D02*X100000D01*
X40000D02*Y5000D01*
X100000D01*
Y15000D02*Y5000D01*
X110000Y15000D02*X170000D01*
X110000D02*Y5000D01*
X170000D01*
Y15000D02*Y5000D01*
X4000Y205000D02*X84000D01*
X4000D02*Y195000D01*
X84000D01*
Y205000D02*Y195000D01*
X90000Y205000D02*X170000D01*
Y195000D01*
X90000D02*X170000D01*
X90000Y205000D02*Y195000D01*
G54D24*X18000Y163000D02*Y150900D01*
X11000D02*X18000D01*
X11000Y163000D02*Y150900D01*
Y163000D02*X18000D01*
Y188000D02*Y175900D01*
X11000D02*X18000D01*
X11000Y188000D02*Y175900D01*
Y188000D02*X18000D01*
Y138000D02*Y125900D01*
X11000D02*X18000D01*
X11000Y138000D02*Y125900D01*
Y138000D02*X18000D01*
G54D20*X75000Y100000D02*G75*G03X75000Y100000I10000J0D01*G01*
X40000D02*G75*G03X40000Y100000I10000J0D01*G01*
X5000Y45000D02*G75*G03X5000Y45000I10000J0D01*G01*
Y100000D02*G75*G03X5000Y100000I10000J0D01*G01*
G54D24*X58000Y188000D02*Y175900D01*
X51000D02*X58000D01*
X51000Y188000D02*Y175900D01*
Y188000D02*X58000D01*
Y138000D02*Y125900D01*
X51000D02*X58000D01*
X51000Y138000D02*Y125900D01*
Y138000D02*X58000D01*
X59000Y163000D02*Y150900D01*
X52000D02*X59000D01*
X52000Y163000D02*Y150900D01*
Y163000D02*X59000D01*
X38000D02*Y150900D01*
X31000D02*X38000D01*
X31000Y163000D02*Y150900D01*
Y163000D02*X38000D01*
Y188000D02*Y175900D01*
X31000D02*X38000D01*
X31000Y188000D02*Y175900D01*
Y188000D02*X38000D01*
Y138000D02*Y125900D01*
X31000D02*X38000D01*
X31000Y138000D02*Y125900D01*
Y138000D02*X38000D01*
G54D20*X100000Y166000D02*Y162500D01*
X100500Y162000D01*
X101500D01*
X102000Y162500D01*
Y166000D02*Y162500D01*
X103201Y165500D02*X103701Y166000D01*
X105201D01*
X105701Y165500D01*
Y164500D01*
X103201Y162000D02*X105701Y164500D01*
X103201Y162000D02*X105701D01*
X106902Y162500D02*X107402Y162000D01*
X106902Y165500D02*Y162500D01*
Y165500D02*X107402Y166000D01*
X108402D01*
X108902Y165500D01*
Y162500D01*
X108402Y162000D02*X108902Y162500D01*
X107402Y162000D02*X108402D01*
X106902Y163000D02*X108902Y165000D01*
X110603Y162000D02*X111603D01*
X111103Y166000D02*Y162000D01*
X110103Y165000D02*X111103Y166000D01*
X68500Y132500D02*Y130500D01*
X68000Y130000D01*
X67000D02*X68000D01*
X66500Y130500D02*X67000Y130000D01*
X66500Y132000D02*Y130500D01*
X64500Y132000D02*X68500D01*
X66500D02*X64500Y130000D01*
X68000Y128799D02*X68500Y128299D01*
Y126799D01*
X68000Y126299D01*
X67000D02*X68000D01*
X64500Y128799D02*X67000Y126299D01*
X64500Y128799D02*Y126299D01*
X65000Y125098D02*X64500Y124598D01*
X65000Y125098D02*X68000D01*
X68500Y124598D01*
Y123598D01*
X68000Y123098D01*
X65000D02*X68000D01*
X64500Y123598D02*X65000Y123098D01*
X64500Y124598D02*Y123598D01*
X65500Y125098D02*X67500Y123098D01*
X68000Y121897D02*X68500Y121397D01*
Y120397D01*
X68000Y119897D01*
X65000D02*X68000D01*
X64500Y120397D02*X65000Y119897D01*
X64500Y121397D02*Y120397D01*
X65000Y121897D02*X64500Y121397D01*
X66500D02*Y119897D01*
X48500Y132500D02*Y130500D01*
X48000Y130000D01*
X47000D02*X48000D01*
X46500Y130500D02*X47000Y130000D01*
X46500Y132000D02*Y130500D01*
X44500Y132000D02*X48500D01*
X46500D02*X44500Y130000D01*
X48000Y128799D02*X48500Y128299D01*
Y126799D01*
X48000Y126299D01*
X47000D02*X48000D01*
X44500Y128799D02*X47000Y126299D01*
X44500Y128799D02*Y126299D01*
X45000Y125098D02*X44500Y124598D01*
X45000Y125098D02*X48000D01*
X48500Y124598D01*
Y123598D01*
X48000Y123098D01*
X45000D02*X48000D01*
X44500Y123598D02*X45000Y123098D01*
X44500Y124598D02*Y123598D01*
X45500Y125098D02*X47500Y123098D01*
X48500Y120397D02*X48000Y119897D01*
X48500Y121397D02*Y120397D01*
X48000Y121897D02*X48500Y121397D01*
X45000Y121897D02*X48000D01*
X45000D02*X44500Y121397D01*
X46500Y120397D02*X46000Y119897D01*
X46500Y121897D02*Y120397D01*
X44500Y121397D02*Y120397D01*
X45000Y119897D01*
X46000D01*
X28500Y132500D02*Y130500D01*
X28000Y130000D01*
X27000D02*X28000D01*
X26500Y130500D02*X27000Y130000D01*
X26500Y132000D02*Y130500D01*
X24500Y132000D02*X28500D01*
X26500D02*X24500Y130000D01*
X28000Y128799D02*X28500Y128299D01*
Y126799D01*
X28000Y126299D01*
X27000D02*X28000D01*
X24500Y128799D02*X27000Y126299D01*
X24500Y128799D02*Y126299D01*
X25000Y125098D02*X24500Y124598D01*
X25000Y125098D02*X28000D01*
X28500Y124598D01*
Y123598D01*
X28000Y123098D01*
X25000D02*X28000D01*
X24500Y123598D02*X25000Y123098D01*
X24500Y124598D02*Y123598D01*
X25500Y125098D02*X27500Y123098D01*
X24500Y121897D02*X26500Y119897D01*
X28000D01*
X28500Y120397D02*X28000Y119897D01*
X28500Y121397D02*Y120397D01*
X28000Y121897D02*X28500Y121397D01*
X27000Y121897D02*X28000D01*
X27000D02*X26500Y121397D01*
Y119897D01*
X8500Y132500D02*Y130500D01*
X8000Y130000D01*
X7000D02*X8000D01*
X6500Y130500D02*X7000Y130000D01*
X6500Y132000D02*Y130500D01*
X4500Y132000D02*X8500D01*
X6500D02*X4500Y130000D01*
X8000Y128799D02*X8500Y128299D01*
Y126799D01*
X8000Y126299D01*
X7000D02*X8000D01*
X4500Y128799D02*X7000Y126299D01*
X4500Y128799D02*Y126299D01*
Y124598D02*Y123598D01*
Y124098D02*X8500D01*
X7500Y125098D02*X8500Y124098D01*
X8000Y122397D02*X8500Y121897D01*
Y120397D01*
X8000Y119897D01*
X7000D02*X8000D01*
X4500Y122397D02*X7000Y119897D01*
X4500Y122397D02*Y119897D01*
X60500Y105000D02*X62000D01*
X60000Y105500D02*X60500Y105000D01*
X60000Y108500D02*Y105500D01*
Y108500D02*X60500Y109000D01*
X62000D01*
X63201Y108500D02*X63701Y109000D01*
X65201D01*
X65701Y108500D01*
Y107500D01*
X63201Y105000D02*X65701Y107500D01*
X63201Y105000D02*X65701D01*
X66902Y105500D02*X67402Y105000D01*
X66902Y108500D02*Y105500D01*
Y108500D02*X67402Y109000D01*
X68402D01*
X68902Y108500D01*
Y105500D01*
X68402Y105000D02*X68902Y105500D01*
X67402Y105000D02*X68402D01*
X66902Y106000D02*X68902Y108000D01*
X70103Y108500D02*X70603Y109000D01*
X72103D01*
X72603Y108500D01*
Y107500D01*
X70103Y105000D02*X72603Y107500D01*
X70103Y105000D02*X72603D01*
X25500Y50000D02*X27000D01*
X25000Y50500D02*X25500Y50000D01*
X25000Y53500D02*Y50500D01*
Y53500D02*X25500Y54000D01*
X27000D01*
X28201Y53500D02*X28701Y54000D01*
X29701D01*
X30201Y53500D01*
Y50500D01*
X29701Y50000D02*X30201Y50500D01*
X28701Y50000D02*X29701D01*
X28201Y50500D02*X28701Y50000D01*
Y52000D02*X30201D01*
X31402Y50500D02*X31902Y50000D01*
X31402Y53500D02*Y50500D01*
Y53500D02*X31902Y54000D01*
X32902D01*
X33402Y53500D01*
Y50500D01*
X32902Y50000D02*X33402Y50500D01*
X31902Y50000D02*X32902D01*
X31402Y51000D02*X33402Y53000D01*
X34603Y53500D02*X35103Y54000D01*
X36603D01*
X37103Y53500D01*
Y52500D01*
X34603Y50000D02*X37103Y52500D01*
X34603Y50000D02*X37103D01*
X25500Y105000D02*X27000D01*
X25000Y105500D02*X25500Y105000D01*
X25000Y108500D02*Y105500D01*
Y108500D02*X25500Y109000D01*
X27000D01*
X28201Y108500D02*X28701Y109000D01*
X30201D01*
X30701Y108500D01*
Y107500D01*
X28201Y105000D02*X30701Y107500D01*
X28201Y105000D02*X30701D01*
X31902Y105500D02*X32402Y105000D01*
X31902Y108500D02*Y105500D01*
Y108500D02*X32402Y109000D01*
X33402D01*
X33902Y108500D01*
Y105500D01*
X33402Y105000D02*X33902Y105500D01*
X32402Y105000D02*X33402D01*
X31902Y106000D02*X33902Y108000D01*
X35603Y105000D02*X36603D01*
X36103Y109000D02*Y105000D01*
X35103Y108000D02*X36103Y109000D01*
X95500Y105000D02*X97000D01*
X95000Y105500D02*X95500Y105000D01*
X95000Y108500D02*Y105500D01*
Y108500D02*X95500Y109000D01*
X97000D01*
X98201Y108500D02*X98701Y109000D01*
X100201D01*
X100701Y108500D01*
Y107500D01*
X98201Y105000D02*X100701Y107500D01*
X98201Y105000D02*X100701D01*
X101902Y105500D02*X102402Y105000D01*
X101902Y108500D02*Y105500D01*
Y108500D02*X102402Y109000D01*
X103402D01*
X103902Y108500D01*
Y105500D01*
X103402Y105000D02*X103902Y105500D01*
X102402Y105000D02*X103402D01*
X101902Y106000D02*X103902Y108000D01*
X105103Y108500D02*X105603Y109000D01*
X106603D01*
X107103Y108500D01*
Y105500D01*
X106603Y105000D02*X107103Y105500D01*
X105603Y105000D02*X106603D01*
X105103Y105500D02*X105603Y105000D01*
Y107000D02*X107103D01*
X68500Y157500D02*Y155500D01*
X68000Y155000D01*
X67000D02*X68000D01*
X66500Y155500D02*X67000Y155000D01*
X66500Y157000D02*Y155500D01*
X64500Y157000D02*X68500D01*
X66500D02*X64500Y155000D01*
X68000Y153799D02*X68500Y153299D01*
Y151799D01*
X68000Y151299D01*
X67000D02*X68000D01*
X64500Y153799D02*X67000Y151299D01*
X64500Y153799D02*Y151299D01*
X65000Y150098D02*X64500Y149598D01*
X65000Y150098D02*X68000D01*
X68500Y149598D01*
Y148598D01*
X68000Y148098D01*
X65000D02*X68000D01*
X64500Y148598D02*X65000Y148098D01*
X64500Y149598D02*Y148598D01*
X65500Y150098D02*X67500Y148098D01*
X68000Y146897D02*X68500Y146397D01*
Y144897D01*
X68000Y144397D01*
X67000D02*X68000D01*
X64500Y146897D02*X67000Y144397D01*
X64500Y146897D02*Y144397D01*
X49500Y157500D02*Y155500D01*
X49000Y155000D01*
X48000D02*X49000D01*
X47500Y155500D02*X48000Y155000D01*
X47500Y157000D02*Y155500D01*
X45500Y157000D02*X49500D01*
X47500D02*X45500Y155000D01*
X49000Y153799D02*X49500Y153299D01*
Y151799D01*
X49000Y151299D01*
X48000D02*X49000D01*
X45500Y153799D02*X48000Y151299D01*
X45500Y153799D02*Y151299D01*
X46000Y150098D02*X45500Y149598D01*
X46000Y150098D02*X49000D01*
X49500Y149598D01*
Y148598D01*
X49000Y148098D01*
X46000D02*X49000D01*
X45500Y148598D02*X46000Y148098D01*
X45500Y149598D02*Y148598D01*
X46500Y150098D02*X48500Y148098D01*
X49500Y146897D02*Y144897D01*
X47500Y146897D02*X49500D01*
X47500D02*X48000Y146397D01*
Y145397D01*
X47500Y144897D01*
X46000D02*X47500D01*
X45500Y145397D02*X46000Y144897D01*
X45500Y146397D02*Y145397D01*
X46000Y146897D02*X45500Y146397D01*
X28600Y157400D02*Y155400D01*
X28100Y154900D01*
X27100D02*X28100D01*
X26600Y155400D02*X27100Y154900D01*
X26600Y156900D02*Y155400D01*
X24600Y156900D02*X28600D01*
X26600D02*X24600Y154900D01*
X28100Y153699D02*X28600Y153199D01*
Y151699D01*
X28100Y151199D01*
X27100D02*X28100D01*
X24600Y153699D02*X27100Y151199D01*
X24600Y153699D02*Y151199D01*
X25100Y149998D02*X24600Y149498D01*
X25100Y149998D02*X28100D01*
X28600Y149498D01*
Y148498D01*
X28100Y147998D01*
X25100D02*X28100D01*
X24600Y148498D02*X25100Y147998D01*
X24600Y149498D02*Y148498D01*
X25600Y149998D02*X27600Y147998D01*
X25100Y146797D02*X24600Y146297D01*
X25100Y146797D02*X26100D01*
X26600Y146297D01*
Y145297D01*
X26100Y144797D01*
X25100D02*X26100D01*
X24600Y145297D02*X25100Y144797D01*
X24600Y146297D02*Y145297D01*
X27100Y146797D02*X26600Y146297D01*
X27100Y146797D02*X28100D01*
X28600Y146297D01*
Y145297D01*
X28100Y144797D01*
X27100D02*X28100D01*
X26600Y145297D02*X27100Y144797D01*
X8500Y157500D02*Y155500D01*
X8000Y155000D01*
X7000D02*X8000D01*
X6500Y155500D02*X7000Y155000D01*
X6500Y157000D02*Y155500D01*
X4500Y157000D02*X8500D01*
X6500D02*X4500Y155000D01*
X8000Y153799D02*X8500Y153299D01*
Y151799D01*
X8000Y151299D01*
X7000D02*X8000D01*
X4500Y153799D02*X7000Y151299D01*
X4500Y153799D02*Y151299D01*
Y149598D02*Y148598D01*
Y149098D02*X8500D01*
X7500Y150098D02*X8500Y149098D01*
X4500Y146897D02*Y145897D01*
Y146397D02*X8500D01*
X7500Y147397D02*X8500Y146397D01*
X68500Y182500D02*Y180500D01*
X68000Y180000D01*
X67000D02*X68000D01*
X66500Y180500D02*X67000Y180000D01*
X66500Y182000D02*Y180500D01*
X64500Y182000D02*X68500D01*
X66500D02*X64500Y180000D01*
X68000Y178799D02*X68500Y178299D01*
Y176799D01*
X68000Y176299D01*
X67000D02*X68000D01*
X64500Y178799D02*X67000Y176299D01*
X64500Y178799D02*Y176299D01*
X65000Y175098D02*X64500Y174598D01*
X65000Y175098D02*X68000D01*
X68500Y174598D01*
Y173598D01*
X68000Y173098D01*
X65000D02*X68000D01*
X64500Y173598D02*X65000Y173098D01*
X64500Y174598D02*Y173598D01*
X65500Y175098D02*X67500Y173098D01*
X64500Y171397D02*Y170397D01*
Y170897D02*X68500D01*
X67500Y171897D02*X68500Y170897D01*
X48500Y182500D02*Y180500D01*
X48000Y180000D01*
X47000D02*X48000D01*
X46500Y180500D02*X47000Y180000D01*
X46500Y182000D02*Y180500D01*
X44500Y182000D02*X48500D01*
X46500D02*X44500Y180000D01*
X48000Y178799D02*X48500Y178299D01*
Y176799D01*
X48000Y176299D01*
X47000D02*X48000D01*
X44500Y178799D02*X47000Y176299D01*
X44500Y178799D02*Y176299D01*
X45000Y175098D02*X44500Y174598D01*
X45000Y175098D02*X48000D01*
X48500Y174598D01*
Y173598D01*
X48000Y173098D01*
X45000D02*X48000D01*
X44500Y173598D02*X45000Y173098D01*
X44500Y174598D02*Y173598D01*
X45500Y175098D02*X47500Y173098D01*
X46500Y171897D02*X48500Y169897D01*
X46500Y171897D02*Y169397D01*
X44500Y169897D02*X48500D01*
X28500Y182500D02*Y180500D01*
X28000Y180000D01*
X27000D02*X28000D01*
X26500Y180500D02*X27000Y180000D01*
X26500Y182000D02*Y180500D01*
X24500Y182000D02*X28500D01*
X26500D02*X24500Y180000D01*
X28000Y178799D02*X28500Y178299D01*
Y176799D01*
X28000Y176299D01*
X27000D02*X28000D01*
X24500Y178799D02*X27000Y176299D01*
X24500Y178799D02*Y176299D01*
X25000Y175098D02*X24500Y174598D01*
X25000Y175098D02*X28000D01*
X28500Y174598D01*
Y173598D01*
X28000Y173098D01*
X25000D02*X28000D01*
X24500Y173598D02*X25000Y173098D01*
X24500Y174598D02*Y173598D01*
X25500Y175098D02*X27500Y173098D01*
X24500Y171897D02*X27000Y169397D01*
X28500D01*
Y171897D02*Y169397D01*
X8500Y182500D02*Y180500D01*
X8000Y180000D01*
X7000D02*X8000D01*
X6500Y180500D02*X7000Y180000D01*
X6500Y182000D02*Y180500D01*
X4500Y182000D02*X8500D01*
X6500D02*X4500Y180000D01*
X8000Y178799D02*X8500Y178299D01*
Y176799D01*
X8000Y176299D01*
X7000D02*X8000D01*
X4500Y178799D02*X7000Y176299D01*
X4500Y178799D02*Y176299D01*
Y174598D02*Y173598D01*
Y174098D02*X8500D01*
X7500Y175098D02*X8500Y174098D01*
X5000Y172397D02*X4500Y171897D01*
X5000Y172397D02*X8000D01*
X8500Y171897D01*
Y170897D01*
X8000Y170397D01*
X5000D02*X8000D01*
X4500Y170897D02*X5000Y170397D01*
X4500Y171897D02*Y170897D01*
X5500Y172397D02*X7500Y170397D01*
X77500Y53500D02*X79500D01*
X80000Y53000D01*
Y52000D01*
X79500Y51500D02*X80000Y52000D01*
X78000Y51500D02*X79500D01*
X78000Y53500D02*Y49500D01*
Y51500D02*X80000Y49500D01*
X81201Y53000D02*X81701Y53500D01*
X82701D01*
X83201Y53000D01*
Y50000D01*
X82701Y49500D02*X83201Y50000D01*
X81701Y49500D02*X82701D01*
X81201Y50000D02*X81701Y49500D01*
Y51500D02*X83201D01*
X84402Y50000D02*X84902Y49500D01*
X84402Y53000D02*Y50000D01*
Y53000D02*X84902Y53500D01*
X85902D01*
X86402Y53000D01*
Y50000D01*
X85902Y49500D02*X86402Y50000D01*
X84902Y49500D02*X85902D01*
X84402Y50500D02*X86402Y52500D01*
X89103Y53500D02*X89603Y53000D01*
X88103Y53500D02*X89103D01*
X87603Y53000D02*X88103Y53500D01*
X87603Y53000D02*Y50000D01*
X88103Y49500D01*
X89103Y51500D02*X89603Y51000D01*
X87603Y51500D02*X89103D01*
X88103Y49500D02*X89103D01*
X89603Y50000D01*
Y51000D02*Y50000D01*
X77500Y38500D02*X79500D01*
X80000Y38000D01*
Y37000D01*
X79500Y36500D02*X80000Y37000D01*
X78000Y36500D02*X79500D01*
X78000Y38500D02*Y34500D01*
Y36500D02*X80000Y34500D01*
X81201Y38000D02*X81701Y38500D01*
X82701D01*
X83201Y38000D01*
Y35000D01*
X82701Y34500D02*X83201Y35000D01*
X81701Y34500D02*X82701D01*
X81201Y35000D02*X81701Y34500D01*
Y36500D02*X83201D01*
X84402Y35000D02*X84902Y34500D01*
X84402Y38000D02*Y35000D01*
Y38000D02*X84902Y38500D01*
X85902D01*
X86402Y38000D01*
Y35000D01*
X85902Y34500D02*X86402Y35000D01*
X84902Y34500D02*X85902D01*
X84402Y35500D02*X86402Y37500D01*
X87603Y38500D02*X89603D01*
X87603D02*Y36500D01*
X88103Y37000D01*
X89103D01*
X89603Y36500D01*
Y35000D01*
X89103Y34500D02*X89603Y35000D01*
X88103Y34500D02*X89103D01*
X87603Y35000D02*X88103Y34500D01*
X77500Y23500D02*X79500D01*
X80000Y23000D01*
Y22000D01*
X79500Y21500D02*X80000Y22000D01*
X78000Y21500D02*X79500D01*
X78000Y23500D02*Y19500D01*
Y21500D02*X80000Y19500D01*
X81201Y23000D02*X81701Y23500D01*
X82701D01*
X83201Y23000D01*
Y20000D01*
X82701Y19500D02*X83201Y20000D01*
X81701Y19500D02*X82701D01*
X81201Y20000D02*X81701Y19500D01*
Y21500D02*X83201D01*
X84402Y20000D02*X84902Y19500D01*
X84402Y23000D02*Y20000D01*
Y23000D02*X84902Y23500D01*
X85902D01*
X86402Y23000D01*
Y20000D01*
X85902Y19500D02*X86402Y20000D01*
X84902Y19500D02*X85902D01*
X84402Y20500D02*X86402Y22500D01*
X87603Y21500D02*X89603Y23500D01*
X87603Y21500D02*X90103D01*
X89603Y23500D02*Y19500D01*
X60500Y50000D02*X62000D01*
X60000Y50500D02*X60500Y50000D01*
X60000Y53500D02*Y50500D01*
Y53500D02*X60500Y54000D01*
X62000D01*
X63201Y53500D02*X63701Y54000D01*
X64701D01*
X65201Y53500D01*
Y50500D01*
X64701Y50000D02*X65201Y50500D01*
X63701Y50000D02*X64701D01*
X63201Y50500D02*X63701Y50000D01*
Y52000D02*X65201D01*
X66402Y50500D02*X66902Y50000D01*
X66402Y53500D02*Y50500D01*
Y53500D02*X66902Y54000D01*
X67902D01*
X68402Y53500D01*
Y50500D01*
X67902Y50000D02*X68402Y50500D01*
X66902Y50000D02*X67902D01*
X66402Y51000D02*X68402Y53000D01*
X70103Y50000D02*X71103D01*
X70603Y54000D02*Y50000D01*
X69603Y53000D02*X70603Y54000D01*
X130000Y46000D02*Y42500D01*
X130500Y42000D01*
X131500D01*
X132000Y42500D01*
Y46000D02*Y42500D01*
X133201Y45500D02*X133701Y46000D01*
X134701D01*
X135201Y45500D01*
Y42500D01*
X134701Y42000D02*X135201Y42500D01*
X133701Y42000D02*X134701D01*
X133201Y42500D02*X133701Y42000D01*
Y44000D02*X135201D01*
X136402Y42500D02*X136902Y42000D01*
X136402Y45500D02*Y42500D01*
Y45500D02*X136902Y46000D01*
X137902D01*
X138402Y45500D01*
Y42500D01*
X137902Y42000D02*X138402Y42500D01*
X136902Y42000D02*X137902D01*
X136402Y43000D02*X138402Y45000D01*
X140103Y42000D02*X141103D01*
X140603Y46000D02*Y42000D01*
X139603Y45000D02*X140603Y46000D01*
X130500Y105000D02*X132000D01*
X130000Y105500D02*X130500Y105000D01*
X130000Y108500D02*Y105500D01*
Y108500D02*X130500Y109000D01*
X132000D01*
X133201Y108500D02*X133701Y109000D01*
X135201D01*
X135701Y108500D01*
Y107500D01*
X133201Y105000D02*X135701Y107500D01*
X133201Y105000D02*X135701D01*
X136902Y105500D02*X137402Y105000D01*
X136902Y108500D02*Y105500D01*
Y108500D02*X137402Y109000D01*
X138402D01*
X138902Y108500D01*
Y105500D01*
X138402Y105000D02*X138902Y105500D01*
X137402Y105000D02*X138402D01*
X136902Y106000D02*X138902Y108000D01*
X140103Y107000D02*X142103Y109000D01*
X140103Y107000D02*X142603D01*
X142103Y109000D02*Y105000D01*
X102500Y53500D02*X104500D01*
X105000Y53000D01*
Y52000D01*
X104500Y51500D02*X105000Y52000D01*
X103000Y51500D02*X104500D01*
X103000Y53500D02*Y49500D01*
Y51500D02*X105000Y49500D01*
X106201Y53000D02*X106701Y53500D01*
X107701D01*
X108201Y53000D01*
Y50000D01*
X107701Y49500D02*X108201Y50000D01*
X106701Y49500D02*X107701D01*
X106201Y50000D02*X106701Y49500D01*
Y51500D02*X108201D01*
X109402Y50000D02*X109902Y49500D01*
X109402Y53000D02*Y50000D01*
Y53000D02*X109902Y53500D01*
X110902D01*
X111402Y53000D01*
Y50000D01*
X110902Y49500D02*X111402Y50000D01*
X109902Y49500D02*X110902D01*
X109402Y50500D02*X111402Y52500D01*
X112603Y53000D02*X113103Y53500D01*
X114103D01*
X114603Y53000D01*
Y50000D01*
X114103Y49500D02*X114603Y50000D01*
X113103Y49500D02*X114103D01*
X112603Y50000D02*X113103Y49500D01*
Y51500D02*X114603D01*
X102500Y38500D02*X104500D01*
X105000Y38000D01*
Y37000D01*
X104500Y36500D02*X105000Y37000D01*
X103000Y36500D02*X104500D01*
X103000Y38500D02*Y34500D01*
Y36500D02*X105000Y34500D01*
X106201Y38000D02*X106701Y38500D01*
X107701D01*
X108201Y38000D01*
Y35000D01*
X107701Y34500D02*X108201Y35000D01*
X106701Y34500D02*X107701D01*
X106201Y35000D02*X106701Y34500D01*
Y36500D02*X108201D01*
X109402Y35000D02*X109902Y34500D01*
X109402Y38000D02*Y35000D01*
Y38000D02*X109902Y38500D01*
X110902D01*
X111402Y38000D01*
Y35000D01*
X110902Y34500D02*X111402Y35000D01*
X109902Y34500D02*X110902D01*
X109402Y35500D02*X111402Y37500D01*
X112603Y38000D02*X113103Y38500D01*
X114603D01*
X115103Y38000D01*
Y37000D01*
X112603Y34500D02*X115103Y37000D01*
X112603Y34500D02*X115103D01*
X191000Y64500D02*Y63000D01*
X191500Y65000D02*X191000Y64500D01*
X191500Y65000D02*X194500D01*
X195000Y64500D01*
Y63000D01*
X191500Y61799D02*X194500D01*
X195000Y61299D01*
Y60299D01*
X194500Y59799D01*
X191500D02*X194500D01*
X191000Y60299D02*X191500Y59799D01*
X191000Y61299D02*Y60299D01*
X191500Y61799D02*X191000Y61299D01*
Y58598D02*X195000D01*
X194500D02*X195000D01*
X194500D02*X192000Y56098D01*
X191000D02*X195000D01*
X191000Y54897D02*X195000D01*
X194500D02*X195000D01*
X194500D02*X192000Y52397D01*
X191000D02*X195000D01*
X191000Y50696D02*Y49696D01*
Y50196D02*X195000D01*
X194000Y51196D02*X195000Y50196D01*
X191500Y48495D02*X191000Y47995D01*
X191500Y48495D02*X194500D01*
X195000Y47995D01*
Y46995D01*
X194500Y46495D01*
X191500D02*X194500D01*
X191000Y46995D02*X191500Y46495D01*
X191000Y47995D02*Y46995D01*
X192000Y48495D02*X194000Y46495D01*
X191000Y44794D02*Y43794D01*
Y44294D02*X195000D01*
X194000Y45294D02*X195000Y44294D01*
X102500Y23500D02*X104500D01*
X105000Y23000D01*
Y22000D01*
X104500Y21500D02*X105000Y22000D01*
X103000Y21500D02*X104500D01*
X103000Y23500D02*Y19500D01*
Y21500D02*X105000Y19500D01*
X106201Y23000D02*X106701Y23500D01*
X107701D01*
X108201Y23000D01*
Y20000D01*
X107701Y19500D02*X108201Y20000D01*
X106701Y19500D02*X107701D01*
X106201Y20000D02*X106701Y19500D01*
Y21500D02*X108201D01*
X109402Y20000D02*X109902Y19500D01*
X109402Y23000D02*Y20000D01*
Y23000D02*X109902Y23500D01*
X110902D01*
X111402Y23000D01*
Y20000D01*
X110902Y19500D02*X111402Y20000D01*
X109902Y19500D02*X110902D01*
X109402Y20500D02*X111402Y22500D01*
X113103Y19500D02*X114103D01*
X113603Y23500D02*Y19500D01*
X112603Y22500D02*X113603Y23500D01*
X45000Y21500D02*Y18000D01*
X45500Y17500D01*
X46500D01*
X47000Y18000D01*
Y21500D02*Y18000D01*
X48701Y17500D02*X49701D01*
X49201Y21500D02*Y17500D01*
X48201Y20500D02*X49201Y21500D01*
X50902Y18000D02*X51402Y17500D01*
X50902Y21000D02*Y18000D01*
Y21000D02*X51402Y21500D01*
X52402D01*
X52902Y21000D01*
Y18000D01*
X52402Y17500D02*X52902Y18000D01*
X51402Y17500D02*X52402D01*
X50902Y18500D02*X52902Y20500D01*
X54603Y17500D02*X55603D01*
X55103Y21500D02*Y17500D01*
X54103Y20500D02*X55103Y21500D01*
M02*
