M48
INCH
T11C0.020
T20C0.030
T21C0.038
T22C0.028
T25C0.035
T32C0.039
T33C0.051
%
T11
X014700Y007000
X017500Y000400
X014400Y007900
X013700Y008200
X017700Y008900
X010900Y008500
X010900Y007100
X012300Y006800
X016400Y010000
X000400Y010500
X000400Y008500
X000400Y018500
X000400Y016500
X000400Y014500
X000400Y012500
X001000Y007700
X001300Y004000
X001400Y005800
X001000Y009700
X009000Y014500
X014300Y013600
X010900Y014000
X015000Y017200
X014900Y013000
X011700Y017100
X011400Y011400
X009000Y012500
X009000Y008500
X009000Y010500
X003000Y011800
X003000Y009800
X004200Y002200
X003000Y007800
X003600Y002800
X005000Y011100
X005000Y009100
X004700Y006400
X004100Y007000
X005000Y007800
X005400Y004200
X007400Y009700
X008100Y005600
X006900Y006800
X009000Y016500
X005000Y017100
X009000Y018500
X006800Y019200
X006900Y017700
X009400Y017900
X005000Y015100
X005000Y013100
X006500Y013100
X004200Y014300
X006700Y014000
T22
X013500Y018000
X012500Y018000
X011500Y018000
X010500Y018000
X010500Y015000
X011500Y015000
X012500Y015000
X013500Y015000
X010500Y003000
X011500Y003000
X012500Y003000
X013500Y003000
X014500Y003000
X015500Y003000
X016500Y003000
X016500Y006000
X015500Y006000
X014500Y006000
X013500Y006000
X012500Y006000
X011500Y006000
X010500Y006000
T20
X016500Y001000
X015500Y001000
X014500Y001000
X013500Y001000
X016500Y020000
X015500Y020000
X014500Y020000
X013500Y020000
X012500Y020000
X011500Y020000
X010500Y020000
X009500Y020000
X007900Y020000
X006900Y020000
X005900Y020000
X004900Y020000
X003900Y020000
X002900Y020000
X001900Y020000
X000900Y020000
X008500Y001000
X007500Y001000
X006500Y001000
X005500Y001000
X004500Y001000
X012500Y001000
X011500Y001000
X009500Y001000
T25
X008900Y004500
T21
X016500Y018000
X016500Y017000
X016500Y016000
X016500Y015000
X016500Y014000
X016500Y013000
T32
X012228Y009441
X014000Y009441
X012228Y012000
X014000Y012000
T33
X002500Y005000
X002500Y003031
M30
