M48
INCH
T11C0.020
T20C0.028
T21C0.038
T23C0.030
T31C0.039
T32C0.059
%
T11
X000900Y013800
X000900Y011800
X000900Y009800
X000900Y007800
X000900Y017800
X000900Y015800
X004300Y015000
X004400Y017100
X003000Y000700
X003700Y001200
X002300Y006300
X002400Y011100
X002900Y013800
X008900Y010400
X003700Y011100
X015500Y011100
X015900Y010000
X008900Y008400
X016500Y008000
X009600Y007500
X010100Y009000
X010900Y008000
X003600Y009100
X005800Y006800
X005900Y003100
X005100Y004900
X007400Y007600
X008200Y004500
X008900Y003800
X008900Y014400
X014300Y016600
X010300Y017200
X013500Y016000
X008900Y012400
X004000Y013100
X010700Y013100
X015700Y012000
X010600Y012200
X008900Y018400
X008900Y016400
X007500Y017700
X007500Y015600
X006200Y016100
X005700Y019000
X006900Y010100
X007500Y011700
X005000Y013700
T20
X013500Y015000
X013500Y018000
X012500Y018000
X011500Y018000
X010500Y015000
X011500Y015000
X012500Y015000
X010500Y018000
X010500Y003000
X011500Y003000
X014500Y006000
X013500Y006000
X012500Y006000
X011500Y006000
X010500Y006000
X012500Y003000
X013500Y003000
X014500Y003000
X015500Y003000
X016500Y003000
X016500Y006000
X015500Y006000
T23
X016500Y020000
X015500Y020000
X014500Y020000
X013500Y020000
X012500Y020000
X011500Y020000
X010500Y020000
X009500Y020000
X007900Y020000
X006900Y020000
X005900Y020000
X004900Y020000
X003900Y020000
X002900Y020000
X001900Y020000
X000900Y020000
X016500Y001000
X015500Y001000
X014500Y001000
X013500Y001000
X012500Y001000
X011500Y001000
X009500Y001000
X008500Y001000
X007500Y001000
X006500Y001000
X005500Y001000
X004500Y001000
T21
X016500Y016000
X016500Y015000
X016500Y014000
X016500Y013000
X016500Y018000
X016500Y017000
T31
X011500Y008941
X011500Y011500
X013271Y011500
X013271Y008941
T32
X002000Y004000
X002000Y002031
M30
