G04 start of page 4 for group -4063 idx -4063 *
G04 Title: (unknown), componentmask *
G04 Creator: pcb 20091103 *
G04 CreationDate: Tue 15 Mar 2011 11:02:10 PM GMT UTC *
G04 For: jlamothe *
G04 Format: Gerber/RS-274X *
G04 PCB-Dimensions: 185000 210000 *
G04 PCB-Coordinate-Origin: lower left *
%MOIN*%
%FSLAX25Y25*%
%LNFRONTMASK*%
%ADD12C,0.0200*%
%ADD25C,0.0660*%
%ADD26C,0.0810*%
%ADD27C,0.0847*%
%ADD28C,0.1241*%
%ADD29R,0.0360X0.0360*%
%ADD30R,0.0490X0.0490*%
G54D12*G36*
X166700Y83300D02*Y76700D01*
X173300D01*
Y83300D01*
X166700D01*
G37*
G54D25*X170000Y70000D03*
Y60000D03*
Y50000D03*
Y40000D03*
Y30000D03*
G54D26*Y10000D03*
X160000D03*
X150000D03*
X140000D03*
G54D25*Y30000D03*
Y60000D03*
X130000D03*
X120000D03*
G54D12*G36*
X106700Y33300D02*Y26700D01*
X113300D01*
Y33300D01*
X106700D01*
G37*
G54D25*X120000Y30000D03*
X130000D03*
G54D26*Y10000D03*
X120000D03*
X170000Y200000D03*
X160000D03*
X150000D03*
X140000D03*
X130000D03*
X120000D03*
X110000D03*
X100000D03*
X84000D03*
X74000D03*
X64000D03*
X54000D03*
X44000D03*
X34000D03*
X24000D03*
X14000D03*
G54D12*G36*
X106700Y153300D02*Y146700D01*
X113300D01*
Y153300D01*
X106700D01*
G37*
G54D25*X120000Y150000D03*
X130000D03*
X140000D03*
X150000D03*
X160000D03*
X170000D03*
Y180000D03*
X160000D03*
X150000D03*
X140000D03*
X130000D03*
X120000D03*
X110000D03*
Y60000D03*
G54D12*G36*
X73480Y104237D02*Y95763D01*
X81954D01*
Y104237D01*
X73480D01*
G37*
G54D27*X77717Y74410D03*
G54D26*X100000Y10000D03*
X90000D03*
X80000D03*
X70000D03*
X60000D03*
X50000D03*
G54D27*X60000Y74410D03*
Y100000D03*
G54D12*G36*
X13795Y96205D02*Y83795D01*
X26205D01*
Y96205D01*
X13795D01*
G37*
G54D28*X20000Y70315D03*
G54D29*X40000Y60000D02*Y59000D01*
X46100Y60000D02*Y59000D01*
X60000Y60000D02*Y59000D01*
X66100Y60000D02*Y59000D01*
X80000Y60000D02*Y59000D01*
X40000Y40000D02*Y39000D01*
Y120000D02*Y119000D01*
Y140000D02*Y139000D01*
Y160000D02*Y159000D01*
X46100Y40000D02*Y39000D01*
X60000Y160000D02*Y159000D01*
X66100Y160000D02*Y159000D01*
X80000Y160000D02*Y159000D01*
G54D30*X140000Y90000D02*Y88400D01*
X147900Y90000D02*Y88400D01*
X140000Y110000D02*Y108400D01*
X147900Y110000D02*Y108400D01*
G54D29*X86100Y60000D02*Y59000D01*
X80000Y120000D02*Y119000D01*
X86100Y120000D02*Y119000D01*
X60000Y40000D02*Y39000D01*
X66100Y40000D02*Y39000D01*
X80000Y40000D02*Y39000D01*
X86100Y40000D02*Y39000D01*
G54D30*X110000Y90000D02*Y88400D01*
X117900Y90000D02*Y88400D01*
X110000Y110000D02*Y108400D01*
X117900Y110000D02*Y108400D01*
X140000Y130000D02*Y128400D01*
X110000Y130000D02*Y128400D01*
X117900Y130000D02*Y128400D01*
X147900Y130000D02*Y128400D01*
G54D29*X46100Y120000D02*Y119000D01*
X60000Y120000D02*Y119000D01*
X66100Y120000D02*Y119000D01*
X80000Y180000D02*Y179000D01*
Y140000D02*Y139000D01*
X86100Y180000D02*Y179000D01*
Y140000D02*Y139000D01*
Y160000D02*Y159000D01*
X46100Y140000D02*Y139000D01*
X60000Y140000D02*Y139000D01*
X66100Y140000D02*Y139000D01*
X46100Y160000D02*Y159000D01*
X40000Y180000D02*Y179000D01*
X46100Y180000D02*Y179000D01*
X60000Y180000D02*Y179000D01*
X66100Y180000D02*Y179000D01*
M02*
