G04 start of page 7 for group -4062 idx -4062 *
G04 Title: (unknown), soldermask *
G04 Creator: pcb 20091103 *
G04 CreationDate: Wed 09 Mar 2011 02:16:16 PM GMT UTC *
G04 For: jlamothe *
G04 Format: Gerber/RS-274X *
G04 PCB-Dimensions: 200000 210000 *
G04 PCB-Coordinate-Origin: lower left *
%MOIN*%
%FSLAX25Y25*%
%LNBACKMASK*%
%ADD11C,0.0200*%
%ADD21C,0.0660*%
%ADD22C,0.0810*%
G54D11*G36*
X111700Y103300D02*Y96700D01*
X118300D01*
Y103300D01*
X111700D01*
G37*
G36*
X91700Y153300D02*Y146700D01*
X98300D01*
Y153300D01*
X91700D01*
G37*
G54D21*X105000Y150000D03*
X115000D03*
X125000Y100000D03*
Y60000D03*
G54D11*G36*
X6700Y48300D02*Y41700D01*
X13300D01*
Y48300D01*
X6700D01*
G37*
G54D21*X20000Y45000D03*
G54D11*G36*
X41700Y48300D02*Y41700D01*
X48300D01*
Y48300D01*
X41700D01*
G37*
G54D21*X55000Y45000D03*
G54D11*G36*
X41700Y103300D02*Y96700D01*
X48300D01*
Y103300D01*
X41700D01*
G37*
G54D21*X55000Y100000D03*
G54D11*G36*
X6700Y103300D02*Y96700D01*
X13300D01*
Y103300D01*
X6700D01*
G37*
G54D21*X20000Y100000D03*
G54D11*G36*
X76700Y103300D02*Y96700D01*
X83300D01*
Y103300D01*
X76700D01*
G37*
G54D21*X90000Y100000D03*
X155000Y30000D03*
Y60000D03*
X145000D03*
X135000D03*
G54D11*G36*
X121700Y33300D02*Y26700D01*
X128300D01*
Y33300D01*
X121700D01*
G37*
G54D21*X135000Y30000D03*
X145000D03*
G54D11*G36*
X181700Y63300D02*Y56700D01*
X188300D01*
Y63300D01*
X181700D01*
G37*
G54D21*X185000Y50000D03*
Y40000D03*
Y30000D03*
Y20000D03*
Y10000D03*
G54D22*X165000D03*
X155000D03*
X145000D03*
X135000D03*
X125000D03*
X115000D03*
X95000D03*
X85000D03*
X75000D03*
X65000D03*
X55000D03*
X45000D03*
G54D21*X125000Y150000D03*
X135000D03*
X145000D03*
X155000D03*
Y180000D03*
X145000D03*
X135000D03*
G54D22*X165000Y200000D03*
X155000D03*
X145000D03*
G54D21*X125000Y180000D03*
X115000D03*
X105000D03*
X95000D03*
G54D22*X135000Y200000D03*
X125000D03*
X115000D03*
X105000D03*
X95000D03*
X79000D03*
X69000D03*
X59000D03*
X49000D03*
X39000D03*
X29000D03*
X19000D03*
X9000D03*
M02*
