G04 start of page 4 for group -4063 idx -4063 *
G04 Title: (unknown), componentmask *
G04 Creator: pcb 20091103 *
G04 CreationDate: Thu 14 Apr 2011 10:29:27 PM GMT UTC *
G04 For: jlamothe *
G04 Format: Gerber/RS-274X *
G04 PCB-Dimensions: 180000 210000 *
G04 PCB-Coordinate-Origin: lower left *
%MOIN*%
%FSLAX25Y25*%
%LNFRONTMASK*%
%ADD11C,0.0200*%
%ADD26C,0.0810*%
%ADD27C,0.0660*%
%ADD28C,0.0847*%
%ADD29C,0.1084*%
%ADD30R,0.0490X0.0490*%
%ADD31R,0.0360X0.0360*%
G54D26*X165000Y10000D03*
X155000D03*
X145000D03*
X135000D03*
G54D11*G36*
X161700Y183300D02*Y176700D01*
X168300D01*
Y183300D01*
X161700D01*
G37*
G54D27*X165000Y170000D03*
Y160000D03*
Y150000D03*
Y140000D03*
Y130000D03*
G54D26*Y200000D03*
X155000D03*
G54D27*X135000Y180000D03*
X125000D03*
X115000D03*
X105000D03*
G54D28*X122283Y94410D03*
X140000D03*
X122283Y120000D03*
G54D11*G36*
X101700Y153300D02*Y146700D01*
X108300D01*
Y153300D01*
X101700D01*
G37*
G54D27*X115000Y150000D03*
X125000D03*
X135000D03*
G54D11*G36*
X135763Y124237D02*Y115763D01*
X144237D01*
Y124237D01*
X135763D01*
G37*
G54D26*X145000Y200000D03*
X135000D03*
X125000D03*
X115000D03*
X105000D03*
X95000D03*
X79000D03*
X69000D03*
X59000D03*
X49000D03*
X39000D03*
X29000D03*
X19000D03*
X9000D03*
X85000Y10000D03*
X75000D03*
X65000D03*
X55000D03*
X45000D03*
G54D11*G36*
X19582Y55418D02*Y44582D01*
X30418D01*
Y55418D01*
X19582D01*
G37*
G54D29*X25000Y30315D03*
G54D26*X125000Y10000D03*
X115000D03*
X95000D03*
G54D11*G36*
X101700Y33300D02*Y26700D01*
X108300D01*
Y33300D01*
X101700D01*
G37*
G54D27*X115000Y30000D03*
X125000D03*
X135000D03*
X145000D03*
X155000D03*
X165000D03*
Y60000D03*
X155000D03*
X145000D03*
X135000D03*
X125000D03*
X115000D03*
X105000D03*
G54D30*X75000Y185000D02*Y183400D01*
X82900Y185000D02*Y183400D01*
X75000Y165000D02*Y163400D01*
X82900Y165000D02*Y163400D01*
Y145000D02*Y143400D01*
G54D31*X50000Y185000D02*Y184000D01*
Y165000D02*Y164000D01*
Y145000D02*Y144000D01*
X56100Y185000D02*Y184000D01*
Y165000D02*Y164000D01*
Y145000D02*Y144000D01*
X30000Y85000D02*Y84000D01*
X36100Y85000D02*Y84000D01*
G54D30*X75000Y85000D02*Y83400D01*
G54D31*X50000Y85000D02*Y84000D01*
X56100Y85000D02*Y84000D01*
G54D30*X82900Y85000D02*Y83400D01*
Y105000D02*Y103400D01*
X75000Y145000D02*Y143400D01*
Y105000D02*Y103400D01*
Y125000D02*Y123400D01*
X82900Y125000D02*Y123400D01*
G54D31*X50000Y125000D02*Y124000D01*
X56100Y125000D02*Y124000D01*
X30000Y145000D02*Y144000D01*
Y125000D02*Y124000D01*
Y105000D02*Y104000D01*
X36100Y145000D02*Y144000D01*
Y125000D02*Y124000D01*
Y105000D02*Y104000D01*
X50000Y105000D02*Y104000D01*
X56100Y105000D02*Y104000D01*
X10000Y185000D02*Y184000D01*
X16100Y185000D02*Y184000D01*
X30000Y185000D02*Y184000D01*
X36100Y185000D02*Y184000D01*
Y165000D02*Y164000D01*
X10000Y165000D02*Y164000D01*
X16100Y165000D02*Y164000D01*
X30000Y165000D02*Y164000D01*
X10000Y145000D02*Y144000D01*
X16100Y145000D02*Y144000D01*
X10000Y125000D02*Y124000D01*
Y85000D02*Y84000D01*
X16100Y125000D02*Y124000D01*
Y85000D02*Y84000D01*
X10000Y105000D02*Y104000D01*
X16100Y105000D02*Y104000D01*
M02*
