G04 start of page 7 for group -4079 idx -4079 *
G04 Title: (unknown), topsilk *
G04 Creator: pcb 20091103 *
G04 CreationDate: Tue 22 Mar 2011 08:58:35 AM GMT UTC *
G04 For: jlamothe *
G04 Format: Gerber/RS-274X *
G04 PCB-Dimensions: 180000 210000 *
G04 PCB-Coordinate-Origin: lower left *
%MOIN*%
%FSLAX25Y25*%
%LNFRONTSILK*%
%ADD12C,0.0100*%
%ADD33C,0.0050*%
%ADD34C,0.0080*%
G54D33*X156500Y161500D02*X157000Y161000D01*
X155500Y161500D02*X156500D01*
X155000Y161000D02*X155500Y161500D01*
X155000Y161000D02*Y158000D01*
X155500Y157500D01*
X156500Y159500D02*X157000Y159000D01*
X155000Y159500D02*X156500D01*
X155500Y157500D02*X156500D01*
X157000Y158000D01*
Y159000D02*Y158000D01*
X155000Y147500D02*X157000Y149500D01*
Y151000D02*Y149500D01*
X156500Y151500D02*X157000Y151000D01*
X155500Y151500D02*X156500D01*
X155000Y151000D02*X155500Y151500D01*
X155000Y151000D02*Y150000D01*
X155500Y149500D01*
X157000D01*
X153000Y137500D02*X154000D01*
X153500Y141500D02*Y137500D01*
X152500Y140500D02*X153500Y141500D01*
X155201Y138000D02*X155701Y137500D01*
X155201Y141000D02*Y138000D01*
Y141000D02*X155701Y141500D01*
X156701D01*
X157201Y141000D01*
Y138000D01*
X156701Y137500D02*X157201Y138000D01*
X155701Y137500D02*X156701D01*
X155201Y138500D02*X157201Y140500D01*
X153000Y127500D02*X154000D01*
X153500Y131500D02*Y127500D01*
X152500Y130500D02*X153500Y131500D01*
X155701Y127500D02*X156701D01*
X156201Y131500D02*Y127500D01*
X155201Y130500D02*X156201Y131500D01*
X149500Y142500D02*X150000Y143000D01*
X146500Y142500D02*X149500D01*
X146500D02*X146000Y143000D01*
Y144000D02*Y143000D01*
Y144000D02*X146500Y144500D01*
X149500D01*
X150000Y144000D02*X149500Y144500D01*
X150000Y144000D02*Y143000D01*
X149000Y142500D02*X147000Y144500D01*
X148000Y147701D02*Y145701D01*
X150000Y150402D02*Y149402D01*
X146000Y149902D02*X150000D01*
X147000Y148902D02*X146000Y149902D01*
X149500Y151603D02*X150000Y152103D01*
X146500Y151603D02*X149500D01*
X146500D02*X146000Y152103D01*
Y153103D02*Y152103D01*
Y153103D02*X146500Y153603D01*
X149500D01*
X150000Y153103D02*X149500Y153603D01*
X150000Y153103D02*Y152103D01*
X149000Y151603D02*X147000Y153603D01*
X146000Y154804D02*X149000D01*
X150000Y155804D01*
X149000Y156804D01*
X146000D02*X149000D01*
X146500Y159805D02*X149500D01*
X146500D02*X146000Y160305D01*
Y161305D02*Y160305D01*
Y161305D02*X146500Y161805D01*
X149500D01*
X150000Y161305D02*X149500Y161805D01*
X150000Y161305D02*Y160305D01*
X149500Y159805D02*X150000Y160305D01*
X146000Y163006D02*X149500D01*
X150000Y163506D01*
Y164506D02*Y163506D01*
Y164506D02*X149500Y165006D01*
X146000D02*X149500D01*
X146000Y168207D02*Y166207D01*
Y167207D02*X150000D01*
X155000Y181000D02*X155500Y181500D01*
X156500D01*
X157000Y181000D01*
Y178000D01*
X156500Y177500D02*X157000Y178000D01*
X155500Y177500D02*X156500D01*
X155000Y178000D02*X155500Y177500D01*
Y179500D02*X157000D01*
X155000Y171500D02*X157000D01*
X155000D02*Y169500D01*
X155500Y170000D01*
X156500D01*
X157000Y169500D01*
Y168000D01*
X156500Y167500D02*X157000Y168000D01*
X155500Y167500D02*X156500D01*
X155000Y168000D02*X155500Y167500D01*
X10000Y67000D02*X12000D01*
X11000Y68000D02*Y66000D01*
X15501Y65000D02*X16501D01*
X16001Y69000D02*Y65000D01*
X15001Y68000D02*X16001Y69000D01*
X17702Y68500D02*X18202Y69000D01*
X19702D01*
X20202Y68500D01*
Y67500D01*
X17702Y65000D02*X20202Y67500D01*
X17702Y65000D02*X20202D01*
X21403Y69000D02*Y66000D01*
X22403Y65000D01*
X23403Y66000D01*
Y69000D02*Y66000D01*
X25104Y69000D02*Y65000D01*
X26604Y69000D02*X27104Y68500D01*
Y65500D01*
X26604Y65000D02*X27104Y65500D01*
X24604Y65000D02*X26604D01*
X24604Y69000D02*X26604D01*
X28805Y65000D02*X30305D01*
X28305Y65500D02*X28805Y65000D01*
X28305Y68500D02*Y65500D01*
Y68500D02*X28805Y69000D01*
X30305D01*
X33306D02*X34306D01*
X33806D02*Y65000D01*
X33306D02*X34306D01*
X35507Y69000D02*Y65000D01*
Y69000D02*Y68500D01*
X38007Y66000D01*
Y69000D02*Y65000D01*
X10000Y12000D02*X12000D01*
X156500Y19500D02*Y18000D01*
Y19500D02*X157000Y20000D01*
X158000D01*
X156000D02*X156500Y19500D01*
X159701Y18000D02*X161201D01*
X159201Y18500D02*X159701Y18000D01*
X159201Y19500D02*Y18500D01*
Y19500D02*X159701Y20000D01*
X160701D01*
X161201Y19500D01*
X159201Y19000D02*X161201D01*
Y19500D02*Y19000D01*
X162402Y20000D02*Y19000D01*
X163402Y18000D01*
X164402Y19000D01*
Y20000D02*Y19000D01*
X166103Y18000D02*X167103D01*
X166603Y22000D02*Y18000D01*
X165603Y21000D02*X166603Y22000D01*
G54D34*X86500Y188600D02*X71400D01*
X86500Y179800D02*Y188600D01*
X71400Y179800D02*X86500D01*
X71400Y188600D02*Y179800D01*
X86500Y168600D02*X71400D01*
X86500Y159800D02*Y168600D01*
X71400Y159800D02*X86500D01*
X71400Y168600D02*Y159800D01*
G54D12*X100000Y185000D02*Y170000D01*
Y160000D02*Y145000D01*
Y185000D02*X140000D01*
Y145000D01*
X100000D02*X140000D01*
X100000Y160000D02*G75*G03X100000Y170000I0J5000D01*G01*
X170000Y175000D02*Y185000D01*
X160000Y175000D02*X170000D01*
Y185000D02*X160000D01*
X170000Y125000D02*Y185000D01*
X160000Y125000D02*X170000D01*
X160000Y185000D02*Y125000D01*
G54D34*X86500Y148600D02*X71400D01*
X86500Y139800D02*Y148600D01*
X71400Y139800D02*X86500D01*
X71400Y148600D02*Y139800D01*
G54D12*X140000Y114095D02*X122283D01*
X140000Y100315D02*Y114095D01*
X122283Y100315D02*X140000D01*
X122283Y114095D02*Y100315D01*
G54D34*X24100Y188000D02*X12000D01*
X24100Y181000D02*Y188000D01*
X12000Y181000D02*X24100D01*
X12000Y188000D02*Y181000D01*
X44100Y188000D02*X32000D01*
X44100Y181000D02*Y188000D01*
X32000Y181000D02*X44100D01*
X32000Y188000D02*Y181000D01*
X64100Y188000D02*X52000D01*
X64100Y181000D02*Y188000D01*
X52000Y181000D02*X64100D01*
X52000Y188000D02*Y181000D01*
X24100Y168000D02*X12000D01*
X24100Y161000D02*Y168000D01*
X12000Y161000D02*X24100D01*
X12000Y168000D02*Y161000D01*
X44100Y168000D02*X32000D01*
X44100Y161000D02*Y168000D01*
X32000Y161000D02*X44100D01*
X32000Y168000D02*Y161000D01*
X64100Y168000D02*X52000D01*
X64100Y161000D02*Y168000D01*
X52000Y161000D02*X64100D01*
X52000Y168000D02*Y161000D01*
G54D12*X100000Y65000D02*Y50000D01*
Y40000D02*Y25000D01*
Y65000D02*X170000D01*
Y25000D01*
X100000D02*X170000D01*
X100000Y40000D02*G75*G03X100000Y50000I0J5000D01*G01*
G54D34*X64100Y88000D02*X52000D01*
X64100Y81000D02*Y88000D01*
X52000Y81000D02*X64100D01*
X52000Y88000D02*Y81000D01*
G54D12*X8464Y18110D02*X37992D01*
Y62205D02*Y18110D01*
X8464Y62205D02*X37992D01*
X8464D02*Y18110D01*
X40000Y15000D02*X100000D01*
X40000Y5000D02*Y15000D01*
X100000Y5000D02*X40000D01*
X100000Y15000D02*Y5000D01*
X110000Y15000D02*X170000D01*
X110000Y5000D02*Y15000D01*
X170000Y5000D02*X110000D01*
X170000Y15000D02*Y5000D01*
X4000Y205000D02*X84000D01*
X4000Y195000D02*Y205000D01*
X84000Y195000D02*X4000D01*
X84000Y205000D02*Y195000D01*
X170000Y205000D02*X90000D01*
X170000Y195000D02*Y205000D01*
X90000Y195000D02*X170000D01*
X90000Y205000D02*Y195000D01*
G54D34*X86500Y88600D02*X71400D01*
X86500Y79800D02*Y88600D01*
X71400Y79800D02*X86500D01*
X71400Y88600D02*Y79800D01*
X86500Y128600D02*X71400D01*
X86500Y119800D02*Y128600D01*
X71400Y119800D02*X86500D01*
X71400Y128600D02*Y119800D01*
X86500Y108600D02*X71400D01*
X86500Y99800D02*Y108600D01*
X71400Y99800D02*X86500D01*
X71400Y108600D02*Y99800D01*
X24100Y88000D02*X12000D01*
X24100Y81000D02*Y88000D01*
X12000Y81000D02*X24100D01*
X12000Y88000D02*Y81000D01*
X44100Y88000D02*X32000D01*
X44100Y81000D02*Y88000D01*
X32000Y81000D02*X44100D01*
X32000Y88000D02*Y81000D01*
X64100Y148000D02*X52000D01*
X64100Y141000D02*Y148000D01*
X52000Y141000D02*X64100D01*
X52000Y148000D02*Y141000D01*
X24100Y148000D02*X12000D01*
X24100Y141000D02*Y148000D01*
X12000Y141000D02*X24100D01*
X12000Y148000D02*Y141000D01*
X44100Y148000D02*X32000D01*
X44100Y141000D02*Y148000D01*
X32000Y141000D02*X44100D01*
X32000Y148000D02*Y141000D01*
X24100Y128000D02*X12000D01*
X24100Y121000D02*Y128000D01*
X12000Y121000D02*X24100D01*
X12000Y128000D02*Y121000D01*
X44100Y128000D02*X32000D01*
X44100Y121000D02*Y128000D01*
X32000Y121000D02*X44100D01*
X32000Y128000D02*Y121000D01*
X64100Y128000D02*X52000D01*
X64100Y121000D02*Y128000D01*
X52000Y121000D02*X64100D01*
X52000Y128000D02*Y121000D01*
X24100Y108000D02*X12000D01*
X24100Y101000D02*Y108000D01*
X12000Y101000D02*X24100D01*
X12000Y108000D02*Y101000D01*
X44100Y108000D02*X32000D01*
X44100Y101000D02*Y108000D01*
X32000Y101000D02*X44100D01*
X32000Y108000D02*Y101000D01*
X64100Y108000D02*X52000D01*
X64100Y101000D02*Y108000D01*
X52000Y101000D02*X64100D01*
X52000Y108000D02*Y101000D01*
G54D33*X78600Y173300D02*X80100D01*
X78100Y173800D02*X78600Y173300D01*
X78100Y176800D02*Y173800D01*
Y176800D02*X78600Y177300D01*
X80100D01*
X81301Y176800D02*X81801Y177300D01*
X82801D01*
X83301Y176800D01*
Y173800D01*
X82801Y173300D02*X83301Y173800D01*
X81801Y173300D02*X82801D01*
X81301Y173800D02*X81801Y173300D01*
Y175300D02*X83301D01*
X84502Y173800D02*X85002Y173300D01*
X84502Y176800D02*Y173800D01*
Y176800D02*X85002Y177300D01*
X86002D01*
X86502Y176800D01*
Y173800D01*
X86002Y173300D02*X86502Y173800D01*
X85002Y173300D02*X86002D01*
X84502Y174300D02*X86502Y176300D01*
X87703Y176800D02*X88203Y177300D01*
X89703D01*
X90203Y176800D01*
Y175800D01*
X87703Y173300D02*X90203Y175800D01*
X87703Y173300D02*X90203D01*
X78600Y153300D02*X80100D01*
X78100Y153800D02*X78600Y153300D01*
X78100Y156800D02*Y153800D01*
Y156800D02*X78600Y157300D01*
X80100D01*
X81301Y156800D02*X81801Y157300D01*
X82801D01*
X83301Y156800D01*
Y153800D01*
X82801Y153300D02*X83301Y153800D01*
X81801Y153300D02*X82801D01*
X81301Y153800D02*X81801Y153300D01*
Y155300D02*X83301D01*
X84502Y153800D02*X85002Y153300D01*
X84502Y156800D02*Y153800D01*
Y156800D02*X85002Y157300D01*
X86002D01*
X86502Y156800D01*
Y153800D01*
X86002Y153300D02*X86502Y153800D01*
X85002Y153300D02*X86002D01*
X84502Y154300D02*X86502Y156300D01*
X88203Y153300D02*X89203D01*
X88703Y157300D02*Y153300D01*
X87703Y156300D02*X88703Y157300D01*
X110000Y166000D02*Y162500D01*
X110500Y162000D01*
X111500D01*
X112000Y162500D01*
Y166000D02*Y162500D01*
X113201Y165500D02*X113701Y166000D01*
X114701D01*
X115201Y165500D01*
Y162500D01*
X114701Y162000D02*X115201Y162500D01*
X113701Y162000D02*X114701D01*
X113201Y162500D02*X113701Y162000D01*
Y164000D02*X115201D01*
X116402Y162500D02*X116902Y162000D01*
X116402Y165500D02*Y162500D01*
Y165500D02*X116902Y166000D01*
X117902D01*
X118402Y165500D01*
Y162500D01*
X117902Y162000D02*X118402Y162500D01*
X116902Y162000D02*X117902D01*
X116402Y163000D02*X118402Y165000D01*
X120103Y162000D02*X121103D01*
X120603Y166000D02*Y162000D01*
X119603Y165000D02*X120603Y166000D01*
X57500Y178500D02*X59500D01*
X60000Y178000D01*
Y177000D01*
X59500Y176500D02*X60000Y177000D01*
X58000Y176500D02*X59500D01*
X58000Y178500D02*Y174500D01*
Y176500D02*X60000Y174500D01*
X61201Y178000D02*X61701Y178500D01*
X62701D01*
X63201Y178000D01*
Y175000D01*
X62701Y174500D02*X63201Y175000D01*
X61701Y174500D02*X62701D01*
X61201Y175000D02*X61701Y174500D01*
Y176500D02*X63201D01*
X64402Y175000D02*X64902Y174500D01*
X64402Y178000D02*Y175000D01*
Y178000D02*X64902Y178500D01*
X65902D01*
X66402Y178000D01*
Y175000D01*
X65902Y174500D02*X66402Y175000D01*
X64902Y174500D02*X65902D01*
X64402Y175500D02*X66402Y177500D01*
X67603Y176500D02*X69603Y178500D01*
X67603Y176500D02*X70103D01*
X69603Y178500D02*Y174500D01*
X57500Y158500D02*X59500D01*
X60000Y158000D01*
Y157000D01*
X59500Y156500D02*X60000Y157000D01*
X58000Y156500D02*X59500D01*
X58000Y158500D02*Y154500D01*
Y156500D02*X60000Y154500D01*
X61201Y158000D02*X61701Y158500D01*
X62701D01*
X63201Y158000D01*
Y155000D01*
X62701Y154500D02*X63201Y155000D01*
X61701Y154500D02*X62701D01*
X61201Y155000D02*X61701Y154500D01*
Y156500D02*X63201D01*
X64402Y155000D02*X64902Y154500D01*
X64402Y158000D02*Y155000D01*
Y158000D02*X64902Y158500D01*
X65902D01*
X66402Y158000D01*
Y155000D01*
X65902Y154500D02*X66402Y155000D01*
X64902Y154500D02*X65902D01*
X64402Y155500D02*X66402Y157500D01*
X68103Y154500D02*X69103D01*
X68603Y158500D02*Y154500D01*
X67603Y157500D02*X68603Y158500D01*
X171000Y184500D02*Y183000D01*
X171500Y185000D02*X171000Y184500D01*
X171500Y185000D02*X174500D01*
X175000Y184500D01*
Y183000D01*
X171500Y181799D02*X174500D01*
X175000Y181299D01*
Y180299D01*
X174500Y179799D01*
X171500D02*X174500D01*
X171000Y180299D02*X171500Y179799D01*
X171000Y181299D02*Y180299D01*
X171500Y181799D02*X171000Y181299D01*
Y178598D02*X175000D01*
X174500D02*X175000D01*
X174500D02*X172000Y176098D01*
X171000D02*X175000D01*
X171000Y174897D02*X175000D01*
X174500D02*X175000D01*
X174500D02*X172000Y172397D01*
X171000D02*X175000D01*
X171000Y170696D02*Y169696D01*
Y170196D02*X175000D01*
X174000Y171196D02*X175000Y170196D01*
X171500Y168495D02*X171000Y167995D01*
X171500Y168495D02*X174500D01*
X175000Y167995D01*
Y166995D01*
X174500Y166495D01*
X171500D02*X174500D01*
X171000Y166995D02*X171500Y166495D01*
X171000Y167995D02*Y166995D01*
X172000Y168495D02*X174000Y166495D01*
X171000Y164794D02*Y163794D01*
Y164294D02*X175000D01*
X174000Y165294D02*X175000Y164294D01*
X110000Y46000D02*Y42500D01*
X110500Y42000D01*
X111500D01*
X112000Y42500D01*
Y46000D02*Y42500D01*
X113201Y45500D02*X113701Y46000D01*
X115201D01*
X115701Y45500D01*
Y44500D01*
X113201Y42000D02*X115701Y44500D01*
X113201Y42000D02*X115701D01*
X116902Y42500D02*X117402Y42000D01*
X116902Y45500D02*Y42500D01*
Y45500D02*X117402Y46000D01*
X118402D01*
X118902Y45500D01*
Y42500D01*
X118402Y42000D02*X118902Y42500D01*
X117402Y42000D02*X118402D01*
X116902Y43000D02*X118902Y45000D01*
X120603Y42000D02*X121603D01*
X121103Y46000D02*Y42000D01*
X120103Y45000D02*X121103Y46000D01*
X57500Y78500D02*X59500D01*
X60000Y78000D01*
Y77000D01*
X59500Y76500D02*X60000Y77000D01*
X58000Y76500D02*X59500D01*
X58000Y78500D02*Y74500D01*
Y76500D02*X60000Y74500D01*
X61201Y78000D02*X61701Y78500D01*
X63201D01*
X63701Y78000D01*
Y77000D01*
X61201Y74500D02*X63701Y77000D01*
X61201Y74500D02*X63701D01*
X64902Y75000D02*X65402Y74500D01*
X64902Y78000D02*Y75000D01*
Y78000D02*X65402Y78500D01*
X66402D01*
X66902Y78000D01*
Y75000D01*
X66402Y74500D02*X66902Y75000D01*
X65402Y74500D02*X66402D01*
X64902Y75500D02*X66902Y77500D01*
X68603Y74500D02*X69603D01*
X69103Y78500D02*Y74500D01*
X68103Y77500D02*X69103Y78500D01*
X40000Y59500D02*Y58000D01*
X40500Y60000D02*X40000Y59500D01*
X40500Y60000D02*X43500D01*
X44000Y59500D01*
Y58000D01*
X40500Y56799D02*X43500D01*
X44000Y56299D01*
Y55299D01*
X43500Y54799D01*
X40500D02*X43500D01*
X40000Y55299D02*X40500Y54799D01*
X40000Y56299D02*Y55299D01*
X40500Y56799D02*X40000Y56299D01*
Y53598D02*X44000D01*
X43500D02*X44000D01*
X43500D02*X41000Y51098D01*
X40000D02*X44000D01*
X40000Y49897D02*X44000D01*
X43500D02*X44000D01*
X43500D02*X41000Y47397D01*
X40000D02*X44000D01*
X40000Y45696D02*Y44696D01*
Y45196D02*X44000D01*
X43000Y46196D02*X44000Y45196D01*
X40500Y43495D02*X40000Y42995D01*
X40500Y43495D02*X43500D01*
X44000Y42995D01*
Y41995D01*
X43500Y41495D01*
X40500D02*X43500D01*
X40000Y41995D02*X40500Y41495D01*
X40000Y42995D02*Y41995D01*
X41000Y43495D02*X43000Y41495D01*
X43500Y40294D02*X44000Y39794D01*
Y38294D01*
X43500Y37794D01*
X42500D02*X43500D01*
X40000Y40294D02*X42500Y37794D01*
X40000Y40294D02*Y37794D01*
X45000Y21500D02*Y18000D01*
X45500Y17500D01*
X46500D01*
X47000Y18000D01*
Y21500D02*Y18000D01*
X48701Y17500D02*X49701D01*
X49201Y21500D02*Y17500D01*
X48201Y20500D02*X49201Y21500D01*
X50902Y18000D02*X51402Y17500D01*
X50902Y21000D02*Y18000D01*
Y21000D02*X51402Y21500D01*
X52402D01*
X52902Y21000D01*
Y18000D01*
X52402Y17500D02*X52902Y18000D01*
X51402Y17500D02*X52402D01*
X50902Y18500D02*X52902Y20500D01*
X54603Y17500D02*X55603D01*
X55103Y21500D02*Y17500D01*
X54103Y20500D02*X55103Y21500D01*
X78600Y73300D02*X80100D01*
X78100Y73800D02*X78600Y73300D01*
X78100Y76800D02*Y73800D01*
Y76800D02*X78600Y77300D01*
X80100D01*
X81301Y76800D02*X81801Y77300D01*
X83301D01*
X83801Y76800D01*
Y75800D01*
X81301Y73300D02*X83801Y75800D01*
X81301Y73300D02*X83801D01*
X85002Y73800D02*X85502Y73300D01*
X85002Y76800D02*Y73800D01*
Y76800D02*X85502Y77300D01*
X86502D01*
X87002Y76800D01*
Y73800D01*
X86502Y73300D02*X87002Y73800D01*
X85502Y73300D02*X86502D01*
X85002Y74300D02*X87002Y76300D01*
X88703Y73300D02*X89703D01*
X89203Y77300D02*Y73300D01*
X88203Y76300D02*X89203Y77300D01*
X147000Y109000D02*X147500Y108500D01*
X145500Y109000D02*X147000D01*
X145000Y108500D02*X145500Y109000D01*
X145000Y108500D02*Y107500D01*
X145500Y107000D01*
X147000D01*
X147500Y106500D01*
Y105500D01*
X147000Y105000D02*X147500Y105500D01*
X145500Y105000D02*X147000D01*
X145000Y105500D02*X145500Y105000D01*
X148701Y109000D02*Y105000D01*
X150201Y106500D01*
X151701Y105000D01*
Y109000D02*Y105000D01*
X153402D02*X154402D01*
X153902Y109000D02*Y105000D01*
X152902Y108000D02*X153902Y109000D01*
X155603Y105500D02*X156103Y105000D01*
X155603Y108500D02*Y105500D01*
Y108500D02*X156103Y109000D01*
X157103D01*
X157603Y108500D01*
Y105500D01*
X157103Y105000D02*X157603Y105500D01*
X156103Y105000D02*X157103D01*
X155603Y106000D02*X157603Y108000D01*
X159304Y105000D02*X160304D01*
X159804Y109000D02*Y105000D01*
X158804Y108000D02*X159804Y109000D01*
X78600Y113300D02*X80100D01*
X78100Y113800D02*X78600Y113300D01*
X78100Y116800D02*Y113800D01*
Y116800D02*X78600Y117300D01*
X80100D01*
X81301Y116800D02*X81801Y117300D01*
X83301D01*
X83801Y116800D01*
Y115800D01*
X81301Y113300D02*X83801Y115800D01*
X81301Y113300D02*X83801D01*
X85002Y113800D02*X85502Y113300D01*
X85002Y116800D02*Y113800D01*
Y116800D02*X85502Y117300D01*
X86502D01*
X87002Y116800D01*
Y113800D01*
X86502Y113300D02*X87002Y113800D01*
X85502Y113300D02*X86502D01*
X85002Y114300D02*X87002Y116300D01*
X88203Y116800D02*X88703Y117300D01*
X89703D01*
X90203Y116800D01*
Y113800D01*
X89703Y113300D02*X90203Y113800D01*
X88703Y113300D02*X89703D01*
X88203Y113800D02*X88703Y113300D01*
Y115300D02*X90203D01*
X78600Y93300D02*X80100D01*
X78100Y93800D02*X78600Y93300D01*
X78100Y96800D02*Y93800D01*
Y96800D02*X78600Y97300D01*
X80100D01*
X81301Y96800D02*X81801Y97300D01*
X83301D01*
X83801Y96800D01*
Y95800D01*
X81301Y93300D02*X83801Y95800D01*
X81301Y93300D02*X83801D01*
X85002Y93800D02*X85502Y93300D01*
X85002Y96800D02*Y93800D01*
Y96800D02*X85502Y97300D01*
X86502D01*
X87002Y96800D01*
Y93800D01*
X86502Y93300D02*X87002Y93800D01*
X85502Y93300D02*X86502D01*
X85002Y94300D02*X87002Y96300D01*
X88203Y96800D02*X88703Y97300D01*
X90203D01*
X90703Y96800D01*
Y95800D01*
X88203Y93300D02*X90703Y95800D01*
X88203Y93300D02*X90703D01*
X78600Y133300D02*X80100D01*
X78100Y133800D02*X78600Y133300D01*
X78100Y136800D02*Y133800D01*
Y136800D02*X78600Y137300D01*
X80100D01*
X81301Y136800D02*X81801Y137300D01*
X83301D01*
X83801Y136800D01*
Y135800D01*
X81301Y133300D02*X83801Y135800D01*
X81301Y133300D02*X83801D01*
X85002Y133800D02*X85502Y133300D01*
X85002Y136800D02*Y133800D01*
Y136800D02*X85502Y137300D01*
X86502D01*
X87002Y136800D01*
Y133800D01*
X86502Y133300D02*X87002Y133800D01*
X85502Y133300D02*X86502D01*
X85002Y134300D02*X87002Y136300D01*
X88203Y135300D02*X90203Y137300D01*
X88203Y135300D02*X90703D01*
X90203Y137300D02*Y133300D01*
X57500Y98500D02*X59500D01*
X60000Y98000D01*
Y97000D01*
X59500Y96500D02*X60000Y97000D01*
X58000Y96500D02*X59500D01*
X58000Y98500D02*Y94500D01*
Y96500D02*X60000Y94500D01*
X61201Y98000D02*X61701Y98500D01*
X63201D01*
X63701Y98000D01*
Y97000D01*
X61201Y94500D02*X63701Y97000D01*
X61201Y94500D02*X63701D01*
X64902Y95000D02*X65402Y94500D01*
X64902Y98000D02*Y95000D01*
Y98000D02*X65402Y98500D01*
X66402D01*
X66902Y98000D01*
Y95000D01*
X66402Y94500D02*X66902Y95000D01*
X65402Y94500D02*X66402D01*
X64902Y95500D02*X66902Y97500D01*
X68103Y96500D02*X70103Y98500D01*
X68103Y96500D02*X70603D01*
X70103Y98500D02*Y94500D01*
X17500Y178500D02*X19500D01*
X20000Y178000D01*
Y177000D01*
X19500Y176500D02*X20000Y177000D01*
X18000Y176500D02*X19500D01*
X18000Y178500D02*Y174500D01*
Y176500D02*X20000Y174500D01*
X21201Y178000D02*X21701Y178500D01*
X22701D01*
X23201Y178000D01*
Y175000D01*
X22701Y174500D02*X23201Y175000D01*
X21701Y174500D02*X22701D01*
X21201Y175000D02*X21701Y174500D01*
Y176500D02*X23201D01*
X24402Y175000D02*X24902Y174500D01*
X24402Y178000D02*Y175000D01*
Y178000D02*X24902Y178500D01*
X25902D01*
X26402Y178000D01*
Y175000D01*
X25902Y174500D02*X26402Y175000D01*
X24902Y174500D02*X25902D01*
X24402Y175500D02*X26402Y177500D01*
X29103Y178500D02*X29603Y178000D01*
X28103Y178500D02*X29103D01*
X27603Y178000D02*X28103Y178500D01*
X27603Y178000D02*Y175000D01*
X28103Y174500D01*
X29103Y176500D02*X29603Y176000D01*
X27603Y176500D02*X29103D01*
X28103Y174500D02*X29103D01*
X29603Y175000D01*
Y176000D02*Y175000D01*
X37500Y178500D02*X39500D01*
X40000Y178000D01*
Y177000D01*
X39500Y176500D02*X40000Y177000D01*
X38000Y176500D02*X39500D01*
X38000Y178500D02*Y174500D01*
Y176500D02*X40000Y174500D01*
X41201Y178000D02*X41701Y178500D01*
X42701D01*
X43201Y178000D01*
Y175000D01*
X42701Y174500D02*X43201Y175000D01*
X41701Y174500D02*X42701D01*
X41201Y175000D02*X41701Y174500D01*
Y176500D02*X43201D01*
X44402Y175000D02*X44902Y174500D01*
X44402Y178000D02*Y175000D01*
Y178000D02*X44902Y178500D01*
X45902D01*
X46402Y178000D01*
Y175000D01*
X45902Y174500D02*X46402Y175000D01*
X44902Y174500D02*X45902D01*
X44402Y175500D02*X46402Y177500D01*
X47603Y178500D02*X49603D01*
X47603D02*Y176500D01*
X48103Y177000D01*
X49103D01*
X49603Y176500D01*
Y175000D01*
X49103Y174500D02*X49603Y175000D01*
X48103Y174500D02*X49103D01*
X47603Y175000D02*X48103Y174500D01*
X17500Y158500D02*X19500D01*
X20000Y158000D01*
Y157000D01*
X19500Y156500D02*X20000Y157000D01*
X18000Y156500D02*X19500D01*
X18000Y158500D02*Y154500D01*
Y156500D02*X20000Y154500D01*
X21201Y158000D02*X21701Y158500D01*
X22701D01*
X23201Y158000D01*
Y155000D01*
X22701Y154500D02*X23201Y155000D01*
X21701Y154500D02*X22701D01*
X21201Y155000D02*X21701Y154500D01*
Y156500D02*X23201D01*
X24402Y155000D02*X24902Y154500D01*
X24402Y158000D02*Y155000D01*
Y158000D02*X24902Y158500D01*
X25902D01*
X26402Y158000D01*
Y155000D01*
X25902Y154500D02*X26402Y155000D01*
X24902Y154500D02*X25902D01*
X24402Y155500D02*X26402Y157500D01*
X27603Y158000D02*X28103Y158500D01*
X29103D01*
X29603Y158000D01*
Y155000D01*
X29103Y154500D02*X29603Y155000D01*
X28103Y154500D02*X29103D01*
X27603Y155000D02*X28103Y154500D01*
Y156500D02*X29603D01*
X37500Y158500D02*X39500D01*
X40000Y158000D01*
Y157000D01*
X39500Y156500D02*X40000Y157000D01*
X38000Y156500D02*X39500D01*
X38000Y158500D02*Y154500D01*
Y156500D02*X40000Y154500D01*
X41201Y158000D02*X41701Y158500D01*
X42701D01*
X43201Y158000D01*
Y155000D01*
X42701Y154500D02*X43201Y155000D01*
X41701Y154500D02*X42701D01*
X41201Y155000D02*X41701Y154500D01*
Y156500D02*X43201D01*
X44402Y155000D02*X44902Y154500D01*
X44402Y158000D02*Y155000D01*
Y158000D02*X44902Y158500D01*
X45902D01*
X46402Y158000D01*
Y155000D01*
X45902Y154500D02*X46402Y155000D01*
X44902Y154500D02*X45902D01*
X44402Y155500D02*X46402Y157500D01*
X47603Y158000D02*X48103Y158500D01*
X49603D01*
X50103Y158000D01*
Y157000D01*
X47603Y154500D02*X50103Y157000D01*
X47603Y154500D02*X50103D01*
X17500Y138500D02*X19500D01*
X20000Y138000D01*
Y137000D01*
X19500Y136500D02*X20000Y137000D01*
X18000Y136500D02*X19500D01*
X18000Y138500D02*Y134500D01*
Y136500D02*X20000Y134500D01*
X21201Y138000D02*X21701Y138500D01*
X23201D01*
X23701Y138000D01*
Y137000D01*
X21201Y134500D02*X23701Y137000D01*
X21201Y134500D02*X23701D01*
X25402D02*X26402D01*
X25902Y138500D02*Y134500D01*
X24902Y137500D02*X25902Y138500D01*
X27603Y138000D02*X28103Y138500D01*
X29603D01*
X30103Y138000D01*
Y137000D01*
X27603Y134500D02*X30103Y137000D01*
X27603Y134500D02*X30103D01*
X5500Y145500D02*X7500D01*
X8000Y145000D01*
Y144000D01*
X7500Y143500D02*X8000Y144000D01*
X6000Y143500D02*X7500D01*
X6000Y145500D02*Y141500D01*
Y143500D02*X8000Y141500D01*
X9201Y145000D02*X9701Y145500D01*
X11201D01*
X11701Y145000D01*
Y144000D01*
X9201Y141500D02*X11701Y144000D01*
X9201Y141500D02*X11701D01*
X12902Y142000D02*X13402Y141500D01*
X12902Y145000D02*Y142000D01*
Y145000D02*X13402Y145500D01*
X14402D01*
X14902Y145000D01*
Y142000D01*
X14402Y141500D02*X14902Y142000D01*
X13402Y141500D02*X14402D01*
X12902Y142500D02*X14902Y144500D01*
X16103Y142000D02*X16603Y141500D01*
X16103Y143000D02*Y142000D01*
Y143000D02*X16603Y143500D01*
X17603D01*
X18103Y143000D01*
Y142000D01*
X17603Y141500D02*X18103Y142000D01*
X16603Y141500D02*X17603D01*
X16103Y144000D02*X16603Y143500D01*
X16103Y145000D02*Y144000D01*
Y145000D02*X16603Y145500D01*
X17603D01*
X18103Y145000D01*
Y144000D01*
X17603Y143500D02*X18103Y144000D01*
X57500Y138500D02*X59500D01*
X60000Y138000D01*
Y137000D01*
X59500Y136500D02*X60000Y137000D01*
X58000Y136500D02*X59500D01*
X58000Y138500D02*Y134500D01*
Y136500D02*X60000Y134500D01*
X61201Y138000D02*X61701Y138500D01*
X63201D01*
X63701Y138000D01*
Y137000D01*
X61201Y134500D02*X63701Y137000D01*
X61201Y134500D02*X63701D01*
X65402D02*X66402D01*
X65902Y138500D02*Y134500D01*
X64902Y137500D02*X65902Y138500D01*
X67603Y135000D02*X68103Y134500D01*
X67603Y138000D02*Y135000D01*
Y138000D02*X68103Y138500D01*
X69103D01*
X69603Y138000D01*
Y135000D01*
X69103Y134500D02*X69603Y135000D01*
X68103Y134500D02*X69103D01*
X67603Y135500D02*X69603Y137500D01*
X37500Y138500D02*X39500D01*
X40000Y138000D01*
Y137000D01*
X39500Y136500D02*X40000Y137000D01*
X38000Y136500D02*X39500D01*
X38000Y138500D02*Y134500D01*
Y136500D02*X40000Y134500D01*
X41201Y138000D02*X41701Y138500D01*
X43201D01*
X43701Y138000D01*
Y137000D01*
X41201Y134500D02*X43701Y137000D01*
X41201Y134500D02*X43701D01*
X45402D02*X46402D01*
X45902Y138500D02*Y134500D01*
X44902Y137500D02*X45902Y138500D01*
X48103Y134500D02*X49103D01*
X48603Y138500D02*Y134500D01*
X47603Y137500D02*X48603Y138500D01*
X17500Y118500D02*X19500D01*
X20000Y118000D01*
Y117000D01*
X19500Y116500D02*X20000Y117000D01*
X18000Y116500D02*X19500D01*
X18000Y118500D02*Y114500D01*
Y116500D02*X20000Y114500D01*
X21201Y118000D02*X21701Y118500D01*
X23201D01*
X23701Y118000D01*
Y117000D01*
X21201Y114500D02*X23701Y117000D01*
X21201Y114500D02*X23701D01*
X24902Y115000D02*X25402Y114500D01*
X24902Y118000D02*Y115000D01*
Y118000D02*X25402Y118500D01*
X26402D01*
X26902Y118000D01*
Y115000D01*
X26402Y114500D02*X26902Y115000D01*
X25402Y114500D02*X26402D01*
X24902Y115500D02*X26902Y117500D01*
X28103Y114500D02*X30103Y116500D01*
Y118000D02*Y116500D01*
X29603Y118500D02*X30103Y118000D01*
X28603Y118500D02*X29603D01*
X28103Y118000D02*X28603Y118500D01*
X28103Y118000D02*Y117000D01*
X28603Y116500D01*
X30103D01*
X57500Y118500D02*X59500D01*
X60000Y118000D01*
Y117000D01*
X59500Y116500D02*X60000Y117000D01*
X58000Y116500D02*X59500D01*
X58000Y118500D02*Y114500D01*
Y116500D02*X60000Y114500D01*
X61201Y118000D02*X61701Y118500D01*
X63201D01*
X63701Y118000D01*
Y117000D01*
X61201Y114500D02*X63701Y117000D01*
X61201Y114500D02*X63701D01*
X64902Y115000D02*X65402Y114500D01*
X64902Y118000D02*Y115000D01*
Y118000D02*X65402Y118500D01*
X66402D01*
X66902Y118000D01*
Y115000D01*
X66402Y114500D02*X66902Y115000D01*
X65402Y114500D02*X66402D01*
X64902Y115500D02*X66902Y117500D01*
X68103Y114500D02*X70603Y117000D01*
Y118500D02*Y117000D01*
X68103Y118500D02*X70603D01*
X17500Y98500D02*X19500D01*
X20000Y98000D01*
Y97000D01*
X19500Y96500D02*X20000Y97000D01*
X18000Y96500D02*X19500D01*
X18000Y98500D02*Y94500D01*
Y96500D02*X20000Y94500D01*
X21201Y98000D02*X21701Y98500D01*
X23201D01*
X23701Y98000D01*
Y97000D01*
X21201Y94500D02*X23701Y97000D01*
X21201Y94500D02*X23701D01*
X24902Y95000D02*X25402Y94500D01*
X24902Y98000D02*Y95000D01*
Y98000D02*X25402Y98500D01*
X26402D01*
X26902Y98000D01*
Y95000D01*
X26402Y94500D02*X26902Y95000D01*
X25402Y94500D02*X26402D01*
X24902Y95500D02*X26902Y97500D01*
X29603Y98500D02*X30103Y98000D01*
X28603Y98500D02*X29603D01*
X28103Y98000D02*X28603Y98500D01*
X28103Y98000D02*Y95000D01*
X28603Y94500D01*
X29603Y96500D02*X30103Y96000D01*
X28103Y96500D02*X29603D01*
X28603Y94500D02*X29603D01*
X30103Y95000D01*
Y96000D02*Y95000D01*
X37500Y98500D02*X39500D01*
X40000Y98000D01*
Y97000D01*
X39500Y96500D02*X40000Y97000D01*
X38000Y96500D02*X39500D01*
X38000Y98500D02*Y94500D01*
Y96500D02*X40000Y94500D01*
X41201Y98000D02*X41701Y98500D01*
X43201D01*
X43701Y98000D01*
Y97000D01*
X41201Y94500D02*X43701Y97000D01*
X41201Y94500D02*X43701D01*
X44902Y95000D02*X45402Y94500D01*
X44902Y98000D02*Y95000D01*
Y98000D02*X45402Y98500D01*
X46402D01*
X46902Y98000D01*
Y95000D01*
X46402Y94500D02*X46902Y95000D01*
X45402Y94500D02*X46402D01*
X44902Y95500D02*X46902Y97500D01*
X48103Y98500D02*X50103D01*
X48103D02*Y96500D01*
X48603Y97000D01*
X49603D01*
X50103Y96500D01*
Y95000D01*
X49603Y94500D02*X50103Y95000D01*
X48603Y94500D02*X49603D01*
X48103Y95000D02*X48603Y94500D01*
X17500Y78500D02*X19500D01*
X20000Y78000D01*
Y77000D01*
X19500Y76500D02*X20000Y77000D01*
X18000Y76500D02*X19500D01*
X18000Y78500D02*Y74500D01*
Y76500D02*X20000Y74500D01*
X21201Y78000D02*X21701Y78500D01*
X23201D01*
X23701Y78000D01*
Y77000D01*
X21201Y74500D02*X23701Y77000D01*
X21201Y74500D02*X23701D01*
X24902Y75000D02*X25402Y74500D01*
X24902Y78000D02*Y75000D01*
Y78000D02*X25402Y78500D01*
X26402D01*
X26902Y78000D01*
Y75000D01*
X26402Y74500D02*X26902Y75000D01*
X25402Y74500D02*X26402D01*
X24902Y75500D02*X26902Y77500D01*
X28103Y78000D02*X28603Y78500D01*
X29603D01*
X30103Y78000D01*
Y75000D01*
X29603Y74500D02*X30103Y75000D01*
X28603Y74500D02*X29603D01*
X28103Y75000D02*X28603Y74500D01*
Y76500D02*X30103D01*
X37500Y78500D02*X39500D01*
X40000Y78000D01*
Y77000D01*
X39500Y76500D02*X40000Y77000D01*
X38000Y76500D02*X39500D01*
X38000Y78500D02*Y74500D01*
Y76500D02*X40000Y74500D01*
X41201Y78000D02*X41701Y78500D01*
X43201D01*
X43701Y78000D01*
Y77000D01*
X41201Y74500D02*X43701Y77000D01*
X41201Y74500D02*X43701D01*
X44902Y75000D02*X45402Y74500D01*
X44902Y78000D02*Y75000D01*
Y78000D02*X45402Y78500D01*
X46402D01*
X46902Y78000D01*
Y75000D01*
X46402Y74500D02*X46902Y75000D01*
X45402Y74500D02*X46402D01*
X44902Y75500D02*X46902Y77500D01*
X48103Y78000D02*X48603Y78500D01*
X50103D01*
X50603Y78000D01*
Y77000D01*
X48103Y74500D02*X50603Y77000D01*
X48103Y74500D02*X50603D01*
M02*
