G04 start of page 8 for group -4015 idx -4015 *
G04 Title: (unknown), toppaste *
G04 Creator: pcb 20091103 *
G04 CreationDate: Thu 17 Mar 2011 12:53:05 AM GMT UTC *
G04 For: jlamothe *
G04 Format: Gerber/RS-274X *
G04 PCB-Dimensions: 185000 210000 *
G04 PCB-Coordinate-Origin: lower left *
%MOIN*%
%FSLAX25Y25*%
%LNFRONTPASTE*%
%ADD18R,0.0300X0.0300*%
%ADD19R,0.0430X0.0430*%
G54D18*X30000Y105000D02*Y104000D01*
X36100Y105000D02*Y104000D01*
X10000Y105000D02*Y104000D01*
X16100Y105000D02*Y104000D01*
X50000Y125000D02*Y124000D01*
X56100Y125000D02*Y124000D01*
G54D19*X75000Y85000D02*Y83400D01*
X82900Y85000D02*Y83400D01*
G54D18*X50000Y85000D02*Y84000D01*
X56100Y85000D02*Y84000D01*
G54D19*X75000Y125000D02*Y123400D01*
X82900Y125000D02*Y123400D01*
G54D18*X30000Y125000D02*Y124000D01*
X36100Y125000D02*Y124000D01*
X10000Y125000D02*Y124000D01*
X16100Y125000D02*Y124000D01*
X50000Y145000D02*Y144000D01*
X56100Y145000D02*Y144000D01*
G54D19*X75000Y145000D02*Y143400D01*
X82900Y145000D02*Y143400D01*
G54D18*X30000Y145000D02*Y144000D01*
X36100Y145000D02*Y144000D01*
X10000Y145000D02*Y144000D01*
X16100Y145000D02*Y144000D01*
X30000Y85000D02*Y84000D01*
X36100Y85000D02*Y84000D01*
X10000Y85000D02*Y84000D01*
X16100Y85000D02*Y84000D01*
X50000Y105000D02*Y104000D01*
X56100Y105000D02*Y104000D01*
X50000Y185000D02*Y184000D01*
X56100Y185000D02*Y184000D01*
G54D19*X75000Y185000D02*Y183400D01*
X82900Y185000D02*Y183400D01*
G54D18*X30000Y185000D02*Y184000D01*
X36100Y185000D02*Y184000D01*
X10000Y185000D02*Y184000D01*
X16100Y185000D02*Y184000D01*
G54D19*X75000Y105000D02*Y103400D01*
X82900Y105000D02*Y103400D01*
G54D18*X30000Y165000D02*Y164000D01*
X36100Y165000D02*Y164000D01*
X10000Y165000D02*Y164000D01*
X16100Y165000D02*Y164000D01*
X50000Y165000D02*Y164000D01*
X56100Y165000D02*Y164000D01*
G54D19*X75000Y165000D02*Y163400D01*
X82900Y165000D02*Y163400D01*
M02*
