G04 start of page 5 for group -4062 idx -4062 *
G04 Title: (unknown), soldermask *
G04 Creator: pcb 20091103 *
G04 CreationDate: Sat 12 Mar 2011 05:15:37 PM GMT UTC *
G04 For: jlamothe *
G04 Format: Gerber/RS-274X *
G04 PCB-Dimensions: 180000 210000 *
G04 PCB-Coordinate-Origin: lower left *
%MOIN*%
%FSLAX25Y25*%
%LNBACKMASK*%
%ADD12C,0.0200*%
%ADD21C,0.0660*%
%ADD22C,0.0810*%
G54D12*G36*
X161700Y83300D02*Y76700D01*
X168300D01*
Y83300D01*
X161700D01*
G37*
G54D21*X165000Y70000D03*
Y60000D03*
Y50000D03*
Y40000D03*
Y30000D03*
G54D22*Y10000D03*
X155000D03*
G54D21*X135000Y60000D03*
X125000D03*
X115000D03*
X105000D03*
G54D12*G36*
X101700Y153300D02*Y146700D01*
X108300D01*
Y153300D01*
X101700D01*
G37*
G54D21*X105000Y180000D03*
X115000Y150000D03*
Y180000D03*
X125000Y150000D03*
Y180000D03*
G54D22*X145000Y10000D03*
X135000D03*
X125000D03*
X115000D03*
X95000D03*
X85000D03*
X75000D03*
X65000D03*
X55000D03*
X45000D03*
G54D12*G36*
X101700Y33300D02*Y26700D01*
X108300D01*
Y33300D01*
X101700D01*
G37*
G54D21*X115000Y30000D03*
X125000D03*
X135000D03*
Y150000D03*
Y180000D03*
X145000Y150000D03*
X155000D03*
X165000D03*
Y180000D03*
X155000D03*
X145000D03*
G54D22*X165000Y200000D03*
X155000D03*
X145000D03*
X135000D03*
X125000D03*
X115000D03*
X105000D03*
X95000D03*
X79000D03*
X69000D03*
X59000D03*
X49000D03*
X39000D03*
X29000D03*
X19000D03*
X9000D03*
M02*
