G04 start of page 9 for group -3984 idx -3984 *
G04 Title: (unknown), fab *
G04 Creator: pcb 20091103 *
G04 CreationDate: Thu 17 Mar 2011 12:53:05 AM GMT UTC *
G04 For: jlamothe *
G04 Format: Gerber/RS-274X *
G04 PCB-Dimensions: 185000 210000 *
G04 PCB-Coordinate-Origin: lower left *
%MOIN*%
%FSLAX25Y25*%
%LNFAB*%
%ADD11C,0.0200*%
%ADD12C,0.0100*%
%ADD34R,0.0080X0.0080*%
%ADD35C,0.0060*%
G54D34*X20000Y40000D02*Y36800D01*
G54D11*G36*
X19453Y40147D02*X22919Y42147D01*
X23319Y41454D01*
X19853Y39454D01*
X19453Y40147D01*
G37*
G36*
X20146Y39454D02*X16680Y41454D01*
X17080Y42147D01*
X20546Y40147D01*
X20146Y39454D01*
G37*
G54D34*X18400Y40000D02*G75*G03X21600Y40000I1600J0D01*G01*
G75*G03X18400Y40000I-1600J0D01*G01*
X20000Y20315D02*Y17115D01*
G54D11*G36*
X19453Y20462D02*X22919Y22462D01*
X23319Y21769D01*
X19853Y19769D01*
X19453Y20462D01*
G37*
G36*
X20146Y19769D02*X16680Y21769D01*
X17080Y22462D01*
X20546Y20462D01*
X20146Y19769D01*
G37*
G54D34*X18400Y20315D02*G75*G03X21600Y20315I1600J0D01*G01*
G75*G03X18400Y20315I-1600J0D01*G01*
X15000Y221250D02*Y218050D01*
G54D11*G36*
X14453Y221396D02*X17919Y223396D01*
X18319Y222703D01*
X14853Y220703D01*
X14453Y221396D01*
G37*
G36*
X15146Y220703D02*X11680Y222703D01*
X12080Y223396D01*
X15546Y221396D01*
X15146Y220703D01*
G37*
G54D34*X13400Y221250D02*G75*G03X16600Y221250I1600J0D01*G01*
G75*G03X13400Y221250I-1600J0D01*G01*
G54D35*X135000Y223500D02*Y222750D01*
X136500Y221250D01*
X138000Y222750D01*
Y223500D02*Y222750D01*
X136500Y221250D02*Y217500D01*
X139801Y220500D02*X142051D01*
X139801Y217500D02*X142801D01*
X139801Y223500D02*Y217500D01*
Y223500D02*X142801D01*
X147603D02*X148353Y222750D01*
X145353Y223500D02*X147603D01*
X144603Y222750D02*X145353Y223500D01*
X144603Y222750D02*Y221250D01*
X145353Y220500D01*
X147603D01*
X148353Y219750D01*
Y218250D01*
X147603Y217500D02*X148353Y218250D01*
X145353Y217500D02*X147603D01*
X144603Y218250D02*X145353Y217500D01*
X135000Y214249D02*X150154D01*
X98000Y222750D02*X98750Y223500D01*
X101000D01*
X101750Y222750D01*
Y221250D01*
X98000Y217500D02*X101750Y221250D01*
X98000Y217500D02*X101750D01*
X98000Y214249D02*X103551D01*
X45000Y218250D02*X45750Y217500D01*
X45000Y222750D02*Y218250D01*
Y222750D02*X45750Y223500D01*
X47250D01*
X48000Y222750D01*
Y218250D01*
X47250Y217500D02*X48000Y218250D01*
X45750Y217500D02*X47250D01*
X45000Y219000D02*X48000Y222000D01*
X49801Y217500D02*X50551D01*
X52353Y218250D02*X53103Y217500D01*
X52353Y222750D02*Y218250D01*
Y222750D02*X53103Y223500D01*
X54603D01*
X55353Y222750D01*
Y218250D01*
X54603Y217500D02*X55353Y218250D01*
X53103Y217500D02*X54603D01*
X52353Y219000D02*X55353Y222000D01*
X57154Y223500D02*X60154D01*
X57154D02*Y220500D01*
X57904Y221250D01*
X59404D01*
X60154Y220500D01*
Y218250D01*
X59404Y217500D02*X60154Y218250D01*
X57904Y217500D02*X59404D01*
X57154Y218250D02*X57904Y217500D01*
X61956D02*X64956Y220500D01*
Y222750D02*Y220500D01*
X64206Y223500D02*X64956Y222750D01*
X62706Y223500D02*X64206D01*
X61956Y222750D02*X62706Y223500D01*
X61956Y222750D02*Y221250D01*
X62706Y220500D01*
X64956D01*
X45000Y214249D02*X66757D01*
X113400Y91010D02*X116600D01*
X113400D02*Y87810D01*
X116600D01*
Y91010D02*Y87810D01*
X113400Y116600D02*X116600D01*
X113400D02*Y113400D01*
X116600D01*
Y116600D02*Y113400D01*
X131117Y116600D02*X134317D01*
X131117D02*Y113400D01*
X134317D01*
Y116600D02*Y113400D01*
X131117Y91010D02*X134317D01*
X131117D02*Y87810D01*
X134317D01*
Y91010D02*Y87810D01*
X13400Y237850D02*X16600D01*
X13400D02*Y234650D01*
X16600D01*
Y237850D02*Y234650D01*
X135000Y238500D02*Y237750D01*
X136500Y236250D01*
X138000Y237750D01*
Y238500D02*Y237750D01*
X136500Y236250D02*Y232500D01*
X139801Y235500D02*X142051D01*
X139801Y232500D02*X142801D01*
X139801Y238500D02*Y232500D01*
Y238500D02*X142801D01*
X147603D02*X148353Y237750D01*
X145353Y238500D02*X147603D01*
X144603Y237750D02*X145353Y238500D01*
X144603Y237750D02*Y236250D01*
X145353Y235500D01*
X147603D01*
X148353Y234750D01*
Y233250D01*
X147603Y232500D02*X148353Y233250D01*
X145353Y232500D02*X147603D01*
X144603Y233250D02*X145353Y232500D01*
X135000Y229249D02*X150154D01*
X98000Y235500D02*X101000Y238500D01*
X98000Y235500D02*X101750D01*
X101000Y238500D02*Y232500D01*
X98000Y229249D02*X103551D01*
X45000Y233250D02*X45750Y232500D01*
X45000Y237750D02*Y233250D01*
Y237750D02*X45750Y238500D01*
X47250D01*
X48000Y237750D01*
Y233250D01*
X47250Y232500D02*X48000Y233250D01*
X45750Y232500D02*X47250D01*
X45000Y234000D02*X48000Y237000D01*
X49801Y232500D02*X50551D01*
X52353Y233250D02*X53103Y232500D01*
X52353Y237750D02*Y233250D01*
Y237750D02*X53103Y238500D01*
X54603D01*
X55353Y237750D01*
Y233250D01*
X54603Y232500D02*X55353Y233250D01*
X53103Y232500D02*X54603D01*
X52353Y234000D02*X55353Y237000D01*
X57154Y237750D02*X57904Y238500D01*
X59404D01*
X60154Y237750D01*
Y233250D01*
X59404Y232500D02*X60154Y233250D01*
X57904Y232500D02*X59404D01*
X57154Y233250D02*X57904Y232500D01*
Y235500D02*X60154D01*
X61956Y232500D02*X64956Y235500D01*
Y237750D02*Y235500D01*
X64206Y238500D02*X64956Y237750D01*
X62706Y238500D02*X64206D01*
X61956Y237750D02*X62706Y238500D01*
X61956Y237750D02*Y236250D01*
X62706Y235500D01*
X64956D01*
X45000Y229249D02*X66757D01*
X164200Y180000D02*G75*G03X165800Y180000I800J0D01*G01*
G75*G03X164200Y180000I-800J0D01*G01*
Y170000D02*G75*G03X165800Y170000I800J0D01*G01*
G75*G03X164200Y170000I-800J0D01*G01*
Y160000D02*G75*G03X165800Y160000I800J0D01*G01*
G75*G03X164200Y160000I-800J0D01*G01*
Y150000D02*G75*G03X165800Y150000I800J0D01*G01*
G75*G03X164200Y150000I-800J0D01*G01*
Y140000D02*G75*G03X165800Y140000I800J0D01*G01*
G75*G03X164200Y140000I-800J0D01*G01*
Y130000D02*G75*G03X165800Y130000I800J0D01*G01*
G75*G03X164200Y130000I-800J0D01*G01*
X14200Y251250D02*G75*G03X15800Y251250I800J0D01*G01*
G75*G03X14200Y251250I-800J0D01*G01*
X135000Y253500D02*Y252750D01*
X136500Y251250D01*
X138000Y252750D01*
Y253500D02*Y252750D01*
X136500Y251250D02*Y247500D01*
X139801Y250500D02*X142051D01*
X139801Y247500D02*X142801D01*
X139801Y253500D02*Y247500D01*
Y253500D02*X142801D01*
X147603D02*X148353Y252750D01*
X145353Y253500D02*X147603D01*
X144603Y252750D02*X145353Y253500D01*
X144603Y252750D02*Y251250D01*
X145353Y250500D01*
X147603D01*
X148353Y249750D01*
Y248250D01*
X147603Y247500D02*X148353Y248250D01*
X145353Y247500D02*X147603D01*
X144603Y248250D02*X145353Y247500D01*
X135000Y244249D02*X150154D01*
X100250Y253500D02*X101000Y252750D01*
X98750Y253500D02*X100250D01*
X98000Y252750D02*X98750Y253500D01*
X98000Y252750D02*Y248250D01*
X98750Y247500D01*
X100250Y250500D02*X101000Y249750D01*
X98000Y250500D02*X100250D01*
X98750Y247500D02*X100250D01*
X101000Y248250D01*
Y249750D02*Y248250D01*
X98000Y244249D02*X102801D01*
X45000Y248250D02*X45750Y247500D01*
X45000Y252750D02*Y248250D01*
Y252750D02*X45750Y253500D01*
X47250D01*
X48000Y252750D01*
Y248250D01*
X47250Y247500D02*X48000Y248250D01*
X45750Y247500D02*X47250D01*
X45000Y249000D02*X48000Y252000D01*
X49801Y247500D02*X50551D01*
X52353Y248250D02*X53103Y247500D01*
X52353Y252750D02*Y248250D01*
Y252750D02*X53103Y253500D01*
X54603D01*
X55353Y252750D01*
Y248250D01*
X54603Y247500D02*X55353Y248250D01*
X53103Y247500D02*X54603D01*
X52353Y249000D02*X55353Y252000D01*
X57154Y252750D02*X57904Y253500D01*
X59404D01*
X60154Y252750D01*
Y248250D01*
X59404Y247500D02*X60154Y248250D01*
X57904Y247500D02*X59404D01*
X57154Y248250D02*X57904Y247500D01*
Y250500D02*X60154D01*
X61956Y248250D02*X62706Y247500D01*
X61956Y249750D02*Y248250D01*
Y249750D02*X62706Y250500D01*
X64206D01*
X64956Y249750D01*
Y248250D01*
X64206Y247500D02*X64956Y248250D01*
X62706Y247500D02*X64206D01*
X61956Y251250D02*X62706Y250500D01*
X61956Y252750D02*Y251250D01*
Y252750D02*X62706Y253500D01*
X64206D01*
X64956Y252750D01*
Y251250D01*
X64206Y250500D02*X64956Y251250D01*
X45000Y244249D02*X66757D01*
X163800Y11200D02*X166200Y8800D01*
X163800D02*X166200Y11200D01*
X153800D02*X156200Y8800D01*
X153800D02*X156200Y11200D01*
X143800D02*X146200Y8800D01*
X143800D02*X146200Y11200D01*
X133800D02*X136200Y8800D01*
X133800D02*X136200Y11200D01*
X123800D02*X126200Y8800D01*
X123800D02*X126200Y11200D01*
X113800D02*X116200Y8800D01*
X113800D02*X116200Y11200D01*
X93800D02*X96200Y8800D01*
X93800D02*X96200Y11200D01*
X83800D02*X86200Y8800D01*
X83800D02*X86200Y11200D01*
X73800D02*X76200Y8800D01*
X73800D02*X76200Y11200D01*
X63800D02*X66200Y8800D01*
X63800D02*X66200Y11200D01*
X53800D02*X56200Y8800D01*
X53800D02*X56200Y11200D01*
X43800D02*X46200Y8800D01*
X43800D02*X46200Y11200D01*
X163800Y201200D02*X166200Y198800D01*
X163800D02*X166200Y201200D01*
X153800D02*X156200Y198800D01*
X153800D02*X156200Y201200D01*
X143800D02*X146200Y198800D01*
X143800D02*X146200Y201200D01*
X133800D02*X136200Y198800D01*
X133800D02*X136200Y201200D01*
X123800D02*X126200Y198800D01*
X123800D02*X126200Y201200D01*
X113800D02*X116200Y198800D01*
X113800D02*X116200Y201200D01*
X103800D02*X106200Y198800D01*
X103800D02*X106200Y201200D01*
X93800D02*X96200Y198800D01*
X93800D02*X96200Y201200D01*
X77800D02*X80200Y198800D01*
X77800D02*X80200Y201200D01*
X67800D02*X70200Y198800D01*
X67800D02*X70200Y201200D01*
X57800D02*X60200Y198800D01*
X57800D02*X60200Y201200D01*
X47800D02*X50200Y198800D01*
X47800D02*X50200Y201200D01*
X37800D02*X40200Y198800D01*
X37800D02*X40200Y201200D01*
X27800D02*X30200Y198800D01*
X27800D02*X30200Y201200D01*
X17800D02*X20200Y198800D01*
X17800D02*X20200Y201200D01*
X7800D02*X10200Y198800D01*
X7800D02*X10200Y201200D01*
X13800Y267450D02*X16200Y265050D01*
X13800D02*X16200Y267450D01*
X135000Y268500D02*Y267750D01*
X136500Y266250D01*
X138000Y267750D01*
Y268500D02*Y267750D01*
X136500Y266250D02*Y262500D01*
X139801Y265500D02*X142051D01*
X139801Y262500D02*X142801D01*
X139801Y268500D02*Y262500D01*
Y268500D02*X142801D01*
X147603D02*X148353Y267750D01*
X145353Y268500D02*X147603D01*
X144603Y267750D02*X145353Y268500D01*
X144603Y267750D02*Y266250D01*
X145353Y265500D01*
X147603D01*
X148353Y264750D01*
Y263250D01*
X147603Y262500D02*X148353Y263250D01*
X145353Y262500D02*X147603D01*
X144603Y263250D02*X145353Y262500D01*
X135000Y259249D02*X150154D01*
X98000Y267750D02*X98750Y268500D01*
X101000D01*
X101750Y267750D01*
Y266250D01*
X98000Y262500D02*X101750Y266250D01*
X98000Y262500D02*X101750D01*
X103551Y263250D02*X104301Y262500D01*
X103551Y264750D02*Y263250D01*
Y264750D02*X104301Y265500D01*
X105801D01*
X106551Y264750D01*
Y263250D01*
X105801Y262500D02*X106551Y263250D01*
X104301Y262500D02*X105801D01*
X103551Y266250D02*X104301Y265500D01*
X103551Y267750D02*Y266250D01*
Y267750D02*X104301Y268500D01*
X105801D01*
X106551Y267750D01*
Y266250D01*
X105801Y265500D02*X106551Y266250D01*
X98000Y259249D02*X108353D01*
X45000Y263250D02*X45750Y262500D01*
X45000Y267750D02*Y263250D01*
Y267750D02*X45750Y268500D01*
X47250D01*
X48000Y267750D01*
Y263250D01*
X47250Y262500D02*X48000Y263250D01*
X45750Y262500D02*X47250D01*
X45000Y264000D02*X48000Y267000D01*
X49801Y262500D02*X50551D01*
X52353Y263250D02*X53103Y262500D01*
X52353Y267750D02*Y263250D01*
Y267750D02*X53103Y268500D01*
X54603D01*
X55353Y267750D01*
Y263250D01*
X54603Y262500D02*X55353Y263250D01*
X53103Y262500D02*X54603D01*
X52353Y264000D02*X55353Y267000D01*
X57154Y267750D02*X57904Y268500D01*
X59404D01*
X60154Y267750D01*
Y263250D01*
X59404Y262500D02*X60154Y263250D01*
X57904Y262500D02*X59404D01*
X57154Y263250D02*X57904Y262500D01*
Y265500D02*X60154D01*
X61956Y263250D02*X62706Y262500D01*
X61956Y267750D02*Y263250D01*
Y267750D02*X62706Y268500D01*
X64206D01*
X64956Y267750D01*
Y263250D01*
X64206Y262500D02*X64956Y263250D01*
X62706Y262500D02*X64206D01*
X61956Y264000D02*X64956Y267000D01*
X45000Y259249D02*X66757D01*
X105000Y31600D02*Y28400D01*
X103400Y30000D02*X106600D01*
X115000Y31600D02*Y28400D01*
X113400Y30000D02*X116600D01*
X125000Y31600D02*Y28400D01*
X123400Y30000D02*X126600D01*
X135000Y31600D02*Y28400D01*
X133400Y30000D02*X136600D01*
X145000Y31600D02*Y28400D01*
X143400Y30000D02*X146600D01*
X155000Y31600D02*Y28400D01*
X153400Y30000D02*X156600D01*
X165000Y31600D02*Y28400D01*
X163400Y30000D02*X166600D01*
X165000Y61600D02*Y58400D01*
X163400Y60000D02*X166600D01*
X155000Y61600D02*Y58400D01*
X153400Y60000D02*X156600D01*
X145000Y61600D02*Y58400D01*
X143400Y60000D02*X146600D01*
X135000Y61600D02*Y58400D01*
X133400Y60000D02*X136600D01*
X125000Y61600D02*Y58400D01*
X123400Y60000D02*X126600D01*
X115000Y61600D02*Y58400D01*
X113400Y60000D02*X116600D01*
X105000Y61600D02*Y58400D01*
X103400Y60000D02*X106600D01*
X105000Y151600D02*Y148400D01*
X103400Y150000D02*X106600D01*
X115000Y151600D02*Y148400D01*
X113400Y150000D02*X116600D01*
X125000Y151600D02*Y148400D01*
X123400Y150000D02*X126600D01*
X135000Y151600D02*Y148400D01*
X133400Y150000D02*X136600D01*
X135000Y181600D02*Y178400D01*
X133400Y180000D02*X136600D01*
X125000Y181600D02*Y178400D01*
X123400Y180000D02*X126600D01*
X115000Y181600D02*Y178400D01*
X113400Y180000D02*X116600D01*
X105000Y181600D02*Y178400D01*
X103400Y180000D02*X106600D01*
X15000Y282850D02*Y279650D01*
X13400Y281250D02*X16600D01*
X135000Y283500D02*Y282750D01*
X136500Y281250D01*
X138000Y282750D01*
Y283500D02*Y282750D01*
X136500Y281250D02*Y277500D01*
X139801Y280500D02*X142051D01*
X139801Y277500D02*X142801D01*
X139801Y283500D02*Y277500D01*
Y283500D02*X142801D01*
X147603D02*X148353Y282750D01*
X145353Y283500D02*X147603D01*
X144603Y282750D02*X145353Y283500D01*
X144603Y282750D02*Y281250D01*
X145353Y280500D01*
X147603D01*
X148353Y279750D01*
Y278250D01*
X147603Y277500D02*X148353Y278250D01*
X145353Y277500D02*X147603D01*
X144603Y278250D02*X145353Y277500D01*
X135000Y274249D02*X150154D01*
X98000Y282750D02*X98750Y283500D01*
X101000D01*
X101750Y282750D01*
Y281250D01*
X98000Y277500D02*X101750Y281250D01*
X98000Y277500D02*X101750D01*
X103551Y282750D02*X104301Y283500D01*
X106551D01*
X107301Y282750D01*
Y281250D01*
X103551Y277500D02*X107301Y281250D01*
X103551Y277500D02*X107301D01*
X98000Y274249D02*X109103D01*
X45000Y278250D02*X45750Y277500D01*
X45000Y282750D02*Y278250D01*
Y282750D02*X45750Y283500D01*
X47250D01*
X48000Y282750D01*
Y278250D01*
X47250Y277500D02*X48000Y278250D01*
X45750Y277500D02*X47250D01*
X45000Y279000D02*X48000Y282000D01*
X49801Y277500D02*X50551D01*
X52353Y278250D02*X53103Y277500D01*
X52353Y282750D02*Y278250D01*
Y282750D02*X53103Y283500D01*
X54603D01*
X55353Y282750D01*
Y278250D01*
X54603Y277500D02*X55353Y278250D01*
X53103Y277500D02*X54603D01*
X52353Y279000D02*X55353Y282000D01*
X57154Y282750D02*X57904Y283500D01*
X60154D01*
X60904Y282750D01*
Y281250D01*
X57154Y277500D02*X60904Y281250D01*
X57154Y277500D02*X60904D01*
X62706Y278250D02*X63456Y277500D01*
X62706Y279750D02*Y278250D01*
Y279750D02*X63456Y280500D01*
X64956D01*
X65706Y279750D01*
Y278250D01*
X64956Y277500D02*X65706Y278250D01*
X63456Y277500D02*X64956D01*
X62706Y281250D02*X63456Y280500D01*
X62706Y282750D02*Y281250D01*
Y282750D02*X63456Y283500D01*
X64956D01*
X65706Y282750D01*
Y281250D01*
X64956Y280500D02*X65706Y281250D01*
X45000Y274249D02*X67507D01*
X9000Y178000D02*Y176400D01*
Y178000D02*X10386Y178800D01*
X9000Y178000D02*X7614Y178800D01*
X9000Y158000D02*Y156400D01*
Y158000D02*X10386Y158800D01*
X9000Y158000D02*X7614Y158800D01*
X9000Y138000D02*Y136400D01*
Y138000D02*X10386Y138800D01*
X9000Y138000D02*X7614Y138800D01*
X9000Y118000D02*Y116400D01*
Y118000D02*X10386Y118800D01*
X9000Y118000D02*X7614Y118800D01*
X9000Y98000D02*Y96400D01*
Y98000D02*X10386Y98800D01*
X9000Y98000D02*X7614Y98800D01*
X9000Y78000D02*Y76400D01*
Y78000D02*X10386Y78800D01*
X9000Y78000D02*X7614Y78800D01*
X89000Y184000D02*Y182400D01*
Y184000D02*X90386Y184800D01*
X89000Y184000D02*X87614Y184800D01*
X89000Y164000D02*Y162400D01*
Y164000D02*X90386Y164800D01*
X89000Y164000D02*X87614Y164800D01*
X89000Y144000D02*Y142400D01*
Y144000D02*X90386Y144800D01*
X89000Y144000D02*X87614Y144800D01*
X89000Y124000D02*Y122400D01*
Y124000D02*X90386Y124800D01*
X89000Y124000D02*X87614Y124800D01*
X89000Y104000D02*Y102400D01*
Y104000D02*X90386Y104800D01*
X89000Y104000D02*X87614Y104800D01*
X89000Y84000D02*Y82400D01*
Y84000D02*X90386Y84800D01*
X89000Y84000D02*X87614Y84800D01*
X143000Y166000D02*Y164400D01*
Y166000D02*X144386Y166800D01*
X143000Y166000D02*X141614Y166800D01*
X75000Y177000D02*Y175400D01*
Y177000D02*X76386Y177800D01*
X75000Y177000D02*X73614Y177800D01*
X103000Y172000D02*Y170400D01*
Y172000D02*X104386Y172800D01*
X103000Y172000D02*X101614Y172800D01*
X75000Y156000D02*Y154400D01*
Y156000D02*X76386Y156800D01*
X75000Y156000D02*X73614Y156800D01*
X135000Y160000D02*Y158400D01*
Y160000D02*X136386Y160800D01*
X135000Y160000D02*X133614Y160800D01*
X40000Y131000D02*Y129400D01*
Y131000D02*X41386Y131800D01*
X40000Y131000D02*X38614Y131800D01*
X107000Y131000D02*Y129400D01*
Y131000D02*X108386Y131800D01*
X107000Y131000D02*X105614Y131800D01*
X157000Y120000D02*Y118400D01*
Y120000D02*X158386Y120800D01*
X157000Y120000D02*X155614Y120800D01*
X165000Y80000D02*Y78400D01*
Y80000D02*X166386Y80800D01*
X165000Y80000D02*X163614Y80800D01*
X37000Y111000D02*Y109400D01*
Y111000D02*X38386Y111800D01*
X37000Y111000D02*X35614Y111800D01*
X106000Y122000D02*Y120400D01*
Y122000D02*X107386Y122800D01*
X106000Y122000D02*X104614Y122800D01*
X155000Y111000D02*Y109400D01*
Y111000D02*X156386Y111800D01*
X155000Y111000D02*X153614Y111800D01*
X36000Y91000D02*Y89400D01*
Y91000D02*X37386Y91800D01*
X36000Y91000D02*X34614Y91800D01*
X58000Y68000D02*Y66400D01*
Y68000D02*X59386Y68800D01*
X58000Y68000D02*X56614Y68800D01*
X159000Y100000D02*Y98400D01*
Y100000D02*X160386Y100800D01*
X159000Y100000D02*X157614Y100800D01*
X59000Y31000D02*Y29400D01*
Y31000D02*X60386Y31800D01*
X59000Y31000D02*X57614Y31800D01*
X96000Y75000D02*Y73400D01*
Y75000D02*X97386Y75800D01*
X96000Y75000D02*X94614Y75800D01*
X62000Y161000D02*Y159400D01*
Y161000D02*X63386Y161800D01*
X62000Y161000D02*X60614Y161800D01*
X43000Y150000D02*Y148400D01*
Y150000D02*X44386Y150800D01*
X43000Y150000D02*X41614Y150800D01*
X57000Y190000D02*Y188400D01*
Y190000D02*X58386Y190800D01*
X57000Y190000D02*X55614Y190800D01*
X44000Y171000D02*Y169400D01*
Y171000D02*X45386Y171800D01*
X44000Y171000D02*X42614Y171800D01*
X51000Y49000D02*Y47400D01*
Y49000D02*X52386Y49800D01*
X51000Y49000D02*X49614Y49800D01*
X74000Y76000D02*Y74400D01*
Y76000D02*X75386Y76800D01*
X74000Y76000D02*X72614Y76800D01*
X82000Y45000D02*Y43400D01*
Y45000D02*X83386Y45800D01*
X82000Y45000D02*X80614Y45800D01*
X89000Y38000D02*Y36400D01*
Y38000D02*X90386Y38800D01*
X89000Y38000D02*X87614Y38800D01*
X69000Y101000D02*Y99400D01*
Y101000D02*X70386Y101800D01*
X69000Y101000D02*X67614Y101800D01*
X101000Y90000D02*Y88400D01*
Y90000D02*X102386Y90800D01*
X101000Y90000D02*X99614Y90800D01*
X109000Y80000D02*Y78400D01*
Y80000D02*X110386Y80800D01*
X109000Y80000D02*X107614Y80800D01*
X30000Y7000D02*Y5400D01*
Y7000D02*X31386Y7800D01*
X30000Y7000D02*X28614Y7800D01*
X75000Y117000D02*Y115400D01*
Y117000D02*X76386Y117800D01*
X75000Y117000D02*X73614Y117800D01*
X23000Y63000D02*Y61400D01*
Y63000D02*X24386Y63800D01*
X23000Y63000D02*X21614Y63800D01*
X24000Y111000D02*Y109400D01*
Y111000D02*X25386Y111800D01*
X24000Y111000D02*X22614Y111800D01*
X37000Y12000D02*Y10400D01*
Y12000D02*X38386Y12800D01*
X37000Y12000D02*X35614Y12800D01*
X50000Y137000D02*Y135400D01*
Y137000D02*X51386Y137800D01*
X50000Y137000D02*X48614Y137800D01*
X29000Y138000D02*Y136400D01*
Y138000D02*X30386Y138800D01*
X29000Y138000D02*X27614Y138800D01*
X15000Y296250D02*Y294650D01*
Y296250D02*X16386Y297050D01*
X15000Y296250D02*X13614Y297050D01*
X135000Y298500D02*Y297750D01*
X136500Y296250D01*
X138000Y297750D01*
Y298500D02*Y297750D01*
X136500Y296250D02*Y292500D01*
X139801Y295500D02*X142051D01*
X139801Y292500D02*X142801D01*
X139801Y298500D02*Y292500D01*
Y298500D02*X142801D01*
X147603D02*X148353Y297750D01*
X145353Y298500D02*X147603D01*
X144603Y297750D02*X145353Y298500D01*
X144603Y297750D02*Y296250D01*
X145353Y295500D01*
X147603D01*
X148353Y294750D01*
Y293250D01*
X147603Y292500D02*X148353Y293250D01*
X145353Y292500D02*X147603D01*
X144603Y293250D02*X145353Y292500D01*
X135000Y289249D02*X150154D01*
X98000Y295500D02*X101000Y298500D01*
X98000Y295500D02*X101750D01*
X101000Y298500D02*Y292500D01*
X103551D02*X107301Y296250D01*
Y298500D02*Y296250D01*
X103551Y298500D02*X107301D01*
X98000Y289249D02*X109103D01*
X45000Y293250D02*X45750Y292500D01*
X45000Y297750D02*Y293250D01*
Y297750D02*X45750Y298500D01*
X47250D01*
X48000Y297750D01*
Y293250D01*
X47250Y292500D02*X48000Y293250D01*
X45750Y292500D02*X47250D01*
X45000Y294000D02*X48000Y297000D01*
X49801Y292500D02*X50551D01*
X52353Y293250D02*X53103Y292500D01*
X52353Y297750D02*Y293250D01*
Y297750D02*X53103Y298500D01*
X54603D01*
X55353Y297750D01*
Y293250D01*
X54603Y292500D02*X55353Y293250D01*
X53103Y292500D02*X54603D01*
X52353Y294000D02*X55353Y297000D01*
X57154Y297750D02*X57904Y298500D01*
X60154D01*
X60904Y297750D01*
Y296250D01*
X57154Y292500D02*X60904Y296250D01*
X57154Y292500D02*X60904D01*
X62706Y293250D02*X63456Y292500D01*
X62706Y297750D02*Y293250D01*
Y297750D02*X63456Y298500D01*
X64956D01*
X65706Y297750D01*
Y293250D01*
X64956Y292500D02*X65706Y293250D01*
X63456Y292500D02*X64956D01*
X62706Y294000D02*X65706Y297000D01*
X45000Y289249D02*X67507D01*
X3000Y313500D02*X3750Y312750D01*
X750Y313500D02*X3000D01*
X0Y312750D02*X750Y313500D01*
X0Y312750D02*Y311250D01*
X750Y310500D01*
X3000D01*
X3750Y309750D01*
Y308250D01*
X3000Y307500D02*X3750Y308250D01*
X750Y307500D02*X3000D01*
X0Y308250D02*X750Y307500D01*
X5551Y310500D02*Y308250D01*
X6301Y307500D01*
X8551Y310500D02*Y306000D01*
X7801Y305250D02*X8551Y306000D01*
X6301Y305250D02*X7801D01*
X5551Y306000D02*X6301Y305250D01*
Y307500D02*X7801D01*
X8551Y308250D01*
X11103Y309750D02*Y307500D01*
Y309750D02*X11853Y310500D01*
X12603D01*
X13353Y309750D01*
Y307500D01*
Y309750D02*X14103Y310500D01*
X14853D01*
X15603Y309750D01*
Y307500D01*
X10353Y310500D02*X11103Y309750D01*
X17404Y313500D02*Y307500D01*
Y308250D02*X18154Y307500D01*
X19654D01*
X20404Y308250D01*
Y309750D02*Y308250D01*
X19654Y310500D02*X20404Y309750D01*
X18154Y310500D02*X19654D01*
X17404Y309750D02*X18154Y310500D01*
X22206Y309750D02*Y308250D01*
Y309750D02*X22956Y310500D01*
X24456D01*
X25206Y309750D01*
Y308250D01*
X24456Y307500D02*X25206Y308250D01*
X22956Y307500D02*X24456D01*
X22206Y308250D02*X22956Y307500D01*
X27007Y313500D02*Y308250D01*
X27757Y307500D01*
X41750Y313500D02*Y307500D01*
X44000Y313500D02*X44750Y312750D01*
Y308250D01*
X44000Y307500D02*X44750Y308250D01*
X41000Y307500D02*X44000D01*
X41000Y313500D02*X44000D01*
X46551Y312000D02*Y311250D01*
Y309750D02*Y307500D01*
X50303Y310500D02*X51053Y309750D01*
X48803Y310500D02*X50303D01*
X48053Y309750D02*X48803Y310500D01*
X48053Y309750D02*Y308250D01*
X48803Y307500D01*
X51053Y310500D02*Y308250D01*
X51803Y307500D01*
X48803D02*X50303D01*
X51053Y308250D01*
X54354Y309750D02*Y307500D01*
Y309750D02*X55104Y310500D01*
X55854D01*
X56604Y309750D01*
Y307500D01*
Y309750D02*X57354Y310500D01*
X58104D01*
X58854Y309750D01*
Y307500D01*
X53604Y310500D02*X54354Y309750D01*
X60656Y307500D02*X61406D01*
X65907Y308250D02*X66657Y307500D01*
X65907Y312750D02*X66657Y313500D01*
X65907Y312750D02*Y308250D01*
X68459Y313500D02*X69959D01*
X69209D02*Y307500D01*
X68459D02*X69959D01*
X72510Y309750D02*Y307500D01*
Y309750D02*X73260Y310500D01*
X74010D01*
X74760Y309750D01*
Y307500D01*
X71760Y310500D02*X72510Y309750D01*
X77312Y310500D02*X79562D01*
X76562Y309750D02*X77312Y310500D01*
X76562Y309750D02*Y308250D01*
X77312Y307500D01*
X79562D01*
X81363Y313500D02*Y307500D01*
Y309750D02*X82113Y310500D01*
X83613D01*
X84363Y309750D01*
Y307500D01*
X86165Y313500D02*X86915Y312750D01*
Y308250D01*
X86165Y307500D02*X86915Y308250D01*
X95750Y307500D02*X98000D01*
X95000Y308250D02*X95750Y307500D01*
X95000Y312750D02*Y308250D01*
Y312750D02*X95750Y313500D01*
X98000D01*
X99801Y309750D02*Y308250D01*
Y309750D02*X100551Y310500D01*
X102051D01*
X102801Y309750D01*
Y308250D01*
X102051Y307500D02*X102801Y308250D01*
X100551Y307500D02*X102051D01*
X99801Y308250D02*X100551Y307500D01*
X104603Y310500D02*Y308250D01*
X105353Y307500D01*
X106853D01*
X107603Y308250D01*
Y310500D02*Y308250D01*
X110154Y309750D02*Y307500D01*
Y309750D02*X110904Y310500D01*
X111654D01*
X112404Y309750D01*
Y307500D01*
X109404Y310500D02*X110154Y309750D01*
X114956Y313500D02*Y308250D01*
X115706Y307500D01*
X114206Y311250D02*X115706D01*
X130750Y313500D02*Y307500D01*
X130000Y313500D02*X133000D01*
X133750Y312750D01*
Y311250D01*
X133000Y310500D02*X133750Y311250D01*
X130750Y310500D02*X133000D01*
X135551Y313500D02*Y308250D01*
X136301Y307500D01*
X140053Y310500D02*X140803Y309750D01*
X138553Y310500D02*X140053D01*
X137803Y309750D02*X138553Y310500D01*
X137803Y309750D02*Y308250D01*
X138553Y307500D01*
X140803Y310500D02*Y308250D01*
X141553Y307500D01*
X138553D02*X140053D01*
X140803Y308250D01*
X144104Y313500D02*Y308250D01*
X144854Y307500D01*
X143354Y311250D02*X144854D01*
X147106Y307500D02*X149356D01*
X146356Y308250D02*X147106Y307500D01*
X146356Y309750D02*Y308250D01*
Y309750D02*X147106Y310500D01*
X148606D01*
X149356Y309750D01*
X146356Y309000D02*X149356D01*
Y309750D02*Y309000D01*
X154157Y313500D02*Y307500D01*
X153407D02*X154157Y308250D01*
X151907Y307500D02*X153407D01*
X151157Y308250D02*X151907Y307500D01*
X151157Y309750D02*Y308250D01*
Y309750D02*X151907Y310500D01*
X153407D01*
X154157Y309750D01*
X157459Y310500D02*Y309750D01*
Y308250D02*Y307500D01*
X155959Y312750D02*Y312000D01*
Y312750D02*X156709Y313500D01*
X158209D01*
X158959Y312750D01*
Y312000D01*
X157459Y310500D02*X158959Y312000D01*
X0Y328500D02*X3000D01*
X1500D02*Y322500D01*
X4801Y328500D02*Y322500D01*
Y324750D02*X5551Y325500D01*
X7051D01*
X7801Y324750D01*
Y322500D01*
X10353D02*X12603D01*
X9603Y323250D02*X10353Y322500D01*
X9603Y324750D02*Y323250D01*
Y324750D02*X10353Y325500D01*
X11853D01*
X12603Y324750D01*
X9603Y324000D02*X12603D01*
Y324750D02*Y324000D01*
X15154Y324750D02*Y322500D01*
Y324750D02*X15904Y325500D01*
X17404D01*
X14404D02*X15154Y324750D01*
X19956Y322500D02*X22206D01*
X19206Y323250D02*X19956Y322500D01*
X19206Y324750D02*Y323250D01*
Y324750D02*X19956Y325500D01*
X21456D01*
X22206Y324750D01*
X19206Y324000D02*X22206D01*
Y324750D02*Y324000D01*
X28957Y325500D02*X29707Y324750D01*
X27457Y325500D02*X28957D01*
X26707Y324750D02*X27457Y325500D01*
X26707Y324750D02*Y323250D01*
X27457Y322500D01*
X29707Y325500D02*Y323250D01*
X30457Y322500D01*
X27457D02*X28957D01*
X29707Y323250D01*
X33009Y324750D02*Y322500D01*
Y324750D02*X33759Y325500D01*
X35259D01*
X32259D02*X33009Y324750D01*
X37810Y322500D02*X40060D01*
X37060Y323250D02*X37810Y322500D01*
X37060Y324750D02*Y323250D01*
Y324750D02*X37810Y325500D01*
X39310D01*
X40060Y324750D01*
X37060Y324000D02*X40060D01*
Y324750D02*Y324000D01*
X46812Y328500D02*X47562Y327750D01*
X45312Y328500D02*X46812D01*
X44562Y327750D02*X45312Y328500D01*
X44562Y327750D02*Y323250D01*
X45312Y322500D01*
X46812Y325500D02*X47562Y324750D01*
X44562Y325500D02*X46812D01*
X45312Y322500D02*X46812D01*
X47562Y323250D01*
Y324750D02*Y323250D01*
X55063Y328500D02*Y322500D01*
X54313D02*X55063Y323250D01*
X52813Y322500D02*X54313D01*
X52063Y323250D02*X52813Y322500D01*
X52063Y324750D02*Y323250D01*
Y324750D02*X52813Y325500D01*
X54313D01*
X55063Y324750D01*
X56865Y327000D02*Y326250D01*
Y324750D02*Y322500D01*
X59116Y327750D02*Y322500D01*
Y327750D02*X59866Y328500D01*
X60616D01*
X58366Y325500D02*X59866D01*
X62868Y327750D02*Y322500D01*
Y327750D02*X63618Y328500D01*
X64368D01*
X62118Y325500D02*X63618D01*
X66619Y322500D02*X68869D01*
X65869Y323250D02*X66619Y322500D01*
X65869Y324750D02*Y323250D01*
Y324750D02*X66619Y325500D01*
X68119D01*
X68869Y324750D01*
X65869Y324000D02*X68869D01*
Y324750D02*Y324000D01*
X71421Y324750D02*Y322500D01*
Y324750D02*X72171Y325500D01*
X73671D01*
X70671D02*X71421Y324750D01*
X76222Y322500D02*X78472D01*
X75472Y323250D02*X76222Y322500D01*
X75472Y324750D02*Y323250D01*
Y324750D02*X76222Y325500D01*
X77722D01*
X78472Y324750D01*
X75472Y324000D02*X78472D01*
Y324750D02*Y324000D01*
X81024Y324750D02*Y322500D01*
Y324750D02*X81774Y325500D01*
X82524D01*
X83274Y324750D01*
Y322500D01*
X80274Y325500D02*X81024Y324750D01*
X85825Y328500D02*Y323250D01*
X86575Y322500D01*
X85075Y326250D02*X86575D01*
X93777Y328500D02*Y322500D01*
X93027D02*X93777Y323250D01*
X91527Y322500D02*X93027D01*
X90777Y323250D02*X91527Y322500D01*
X90777Y324750D02*Y323250D01*
Y324750D02*X91527Y325500D01*
X93027D01*
X93777Y324750D01*
X96328D02*Y322500D01*
Y324750D02*X97078Y325500D01*
X98578D01*
X95578D02*X96328Y324750D01*
X100380Y327000D02*Y326250D01*
Y324750D02*Y322500D01*
X101881Y328500D02*Y323250D01*
X102631Y322500D01*
X104133Y328500D02*Y323250D01*
X104883Y322500D01*
X109834D02*X112084D01*
X112834Y323250D01*
X112084Y324000D02*X112834Y323250D01*
X109834Y324000D02*X112084D01*
X109084Y324750D02*X109834Y324000D01*
X109084Y324750D02*X109834Y325500D01*
X112084D01*
X112834Y324750D01*
X109084Y323250D02*X109834Y322500D01*
X114636Y327000D02*Y326250D01*
Y324750D02*Y322500D01*
X116137Y325500D02*X119137D01*
X116137Y322500D02*X119137Y325500D01*
X116137Y322500D02*X119137D01*
X121689D02*X123939D01*
X120939Y323250D02*X121689Y322500D01*
X120939Y324750D02*Y323250D01*
Y324750D02*X121689Y325500D01*
X123189D01*
X123939Y324750D01*
X120939Y324000D02*X123939D01*
Y324750D02*Y324000D01*
X126490Y322500D02*X128740D01*
X129490Y323250D01*
X128740Y324000D02*X129490Y323250D01*
X126490Y324000D02*X128740D01*
X125740Y324750D02*X126490Y324000D01*
X125740Y324750D02*X126490Y325500D01*
X128740D01*
X129490Y324750D01*
X125740Y323250D02*X126490Y322500D01*
X133992Y325500D02*Y323250D01*
X134742Y322500D01*
X136242D01*
X136992Y323250D01*
Y325500D02*Y323250D01*
X139543Y322500D02*X141793D01*
X142543Y323250D01*
X141793Y324000D02*X142543Y323250D01*
X139543Y324000D02*X141793D01*
X138793Y324750D02*X139543Y324000D01*
X138793Y324750D02*X139543Y325500D01*
X141793D01*
X142543Y324750D01*
X138793Y323250D02*X139543Y322500D01*
X145095D02*X147345D01*
X144345Y323250D02*X145095Y322500D01*
X144345Y324750D02*Y323250D01*
Y324750D02*X145095Y325500D01*
X146595D01*
X147345Y324750D01*
X144345Y324000D02*X147345D01*
Y324750D02*Y324000D01*
X152146Y328500D02*Y322500D01*
X151396D02*X152146Y323250D01*
X149896Y322500D02*X151396D01*
X149146Y323250D02*X149896Y322500D01*
X149146Y324750D02*Y323250D01*
Y324750D02*X149896Y325500D01*
X151396D01*
X152146Y324750D01*
X156648Y327000D02*Y326250D01*
Y324750D02*Y322500D01*
X158899Y324750D02*Y322500D01*
Y324750D02*X159649Y325500D01*
X160399D01*
X161149Y324750D01*
Y322500D01*
X158149Y325500D02*X158899Y324750D01*
X166401Y328500D02*Y323250D01*
X167151Y322500D01*
X165651Y326250D02*X167151D01*
X168652Y328500D02*Y322500D01*
Y324750D02*X169402Y325500D01*
X170902D01*
X171652Y324750D01*
Y322500D01*
X173454Y327000D02*Y326250D01*
Y324750D02*Y322500D01*
X175705D02*X177955D01*
X178705Y323250D01*
X177955Y324000D02*X178705Y323250D01*
X175705Y324000D02*X177955D01*
X174955Y324750D02*X175705Y324000D01*
X174955Y324750D02*X175705Y325500D01*
X177955D01*
X178705Y324750D01*
X174955Y323250D02*X175705Y322500D01*
X183207Y328500D02*Y323250D01*
X183957Y322500D01*
X187708Y325500D02*X188458Y324750D01*
X186208Y325500D02*X187708D01*
X185458Y324750D02*X186208Y325500D01*
X185458Y324750D02*Y323250D01*
X186208Y322500D01*
X188458Y325500D02*Y323250D01*
X189208Y322500D01*
X186208D02*X187708D01*
X188458Y323250D01*
X191010Y325500D02*Y323250D01*
X191760Y322500D01*
X194010Y325500D02*Y321000D01*
X193260Y320250D02*X194010Y321000D01*
X191760Y320250D02*X193260D01*
X191010Y321000D02*X191760Y320250D01*
Y322500D02*X193260D01*
X194010Y323250D01*
X195811Y324750D02*Y323250D01*
Y324750D02*X196561Y325500D01*
X198061D01*
X198811Y324750D01*
Y323250D01*
X198061Y322500D02*X198811Y323250D01*
X196561Y322500D02*X198061D01*
X195811Y323250D02*X196561Y322500D01*
X200613Y325500D02*Y323250D01*
X201363Y322500D01*
X202863D01*
X203613Y323250D01*
Y325500D02*Y323250D01*
X206164Y328500D02*Y323250D01*
X206914Y322500D01*
X205414Y326250D02*X206914D01*
X208416Y321000D02*X209916Y322500D01*
X215167D02*X216667D01*
X215917Y328500D02*Y322500D01*
X214417Y327000D02*X215917Y328500D01*
X218469Y323250D02*X219219Y322500D01*
X218469Y327750D02*Y323250D01*
Y327750D02*X219219Y328500D01*
X220719D01*
X221469Y327750D01*
Y323250D01*
X220719Y322500D02*X221469Y323250D01*
X219219Y322500D02*X220719D01*
X218469Y324000D02*X221469Y327000D01*
X223270Y322500D02*X226270Y325500D01*
Y327750D02*Y325500D01*
X225520Y328500D02*X226270Y327750D01*
X224020Y328500D02*X225520D01*
X223270Y327750D02*X224020Y328500D01*
X223270Y327750D02*Y326250D01*
X224020Y325500D01*
X226270D01*
X230772Y328500D02*Y322500D01*
Y324750D02*X231522Y325500D01*
X233022D01*
X233772Y324750D01*
Y322500D01*
X235573Y324750D02*Y323250D01*
Y324750D02*X236323Y325500D01*
X237823D01*
X238573Y324750D01*
Y323250D01*
X237823Y322500D02*X238573Y323250D01*
X236323Y322500D02*X237823D01*
X235573Y323250D02*X236323Y322500D01*
X240375Y328500D02*Y323250D01*
X241125Y322500D01*
X243376D02*X245626D01*
X242626Y323250D02*X243376Y322500D01*
X242626Y324750D02*Y323250D01*
Y324750D02*X243376Y325500D01*
X244876D01*
X245626Y324750D01*
X242626Y324000D02*X245626D01*
Y324750D02*Y324000D01*
X248178Y322500D02*X250428D01*
X251178Y323250D01*
X250428Y324000D02*X251178Y323250D01*
X248178Y324000D02*X250428D01*
X247428Y324750D02*X248178Y324000D01*
X247428Y324750D02*X248178Y325500D01*
X250428D01*
X251178Y324750D01*
X247428Y323250D02*X248178Y322500D01*
X256429Y328500D02*Y323250D01*
X257179Y322500D01*
X255679Y326250D02*X257179D01*
X258681Y324750D02*Y323250D01*
Y324750D02*X259431Y325500D01*
X260931D01*
X261681Y324750D01*
Y323250D01*
X260931Y322500D02*X261681Y323250D01*
X259431Y322500D02*X260931D01*
X258681Y323250D02*X259431Y322500D01*
X264232Y328500D02*Y323250D01*
X264982Y322500D01*
X263482Y326250D02*X264982D01*
X268734Y325500D02*X269484Y324750D01*
X267234Y325500D02*X268734D01*
X266484Y324750D02*X267234Y325500D01*
X266484Y324750D02*Y323250D01*
X267234Y322500D01*
X269484Y325500D02*Y323250D01*
X270234Y322500D01*
X267234D02*X268734D01*
X269484Y323250D01*
X272035Y328500D02*Y323250D01*
X272785Y322500D01*
G54D12*X0Y210000D02*X185000D01*
X0D02*Y0D01*
X185000Y210000D02*Y0D01*
X0D02*X185000D01*
G54D35*X200000Y223500D02*Y217500D01*
Y223500D02*X202250Y221250D01*
X204500Y223500D01*
Y217500D01*
X208551Y220500D02*X209301Y219750D01*
X207051Y220500D02*X208551D01*
X206301Y219750D02*X207051Y220500D01*
X206301Y219750D02*Y218250D01*
X207051Y217500D01*
X209301Y220500D02*Y218250D01*
X210051Y217500D01*
X207051D02*X208551D01*
X209301Y218250D01*
X211853Y220500D02*X214853Y217500D01*
X211853D02*X214853Y220500D01*
X216654Y222000D02*Y221250D01*
Y219750D02*Y217500D01*
X218906Y219750D02*Y217500D01*
Y219750D02*X219656Y220500D01*
X220406D01*
X221156Y219750D01*
Y217500D01*
Y219750D02*X221906Y220500D01*
X222656D01*
X223406Y219750D01*
Y217500D01*
X218156Y220500D02*X218906Y219750D01*
X225207Y220500D02*Y218250D01*
X225957Y217500D01*
X227457D01*
X228207Y218250D01*
Y220500D02*Y218250D01*
X230759Y219750D02*Y217500D01*
Y219750D02*X231509Y220500D01*
X232259D01*
X233009Y219750D01*
Y217500D01*
Y219750D02*X233759Y220500D01*
X234509D01*
X235259Y219750D01*
Y217500D01*
X230009Y220500D02*X230759Y219750D01*
X240510Y223500D02*Y217500D01*
X242760Y223500D02*X243510Y222750D01*
Y218250D01*
X242760Y217500D02*X243510Y218250D01*
X239760Y217500D02*X242760D01*
X239760Y223500D02*X242760D01*
X245312Y222000D02*Y221250D01*
Y219750D02*Y217500D01*
X247563Y219750D02*Y217500D01*
Y219750D02*X248313Y220500D01*
X249063D01*
X249813Y219750D01*
Y217500D01*
Y219750D02*X250563Y220500D01*
X251313D01*
X252063Y219750D01*
Y217500D01*
X246813Y220500D02*X247563Y219750D01*
X254615Y217500D02*X256865D01*
X253865Y218250D02*X254615Y217500D01*
X253865Y219750D02*Y218250D01*
Y219750D02*X254615Y220500D01*
X256115D01*
X256865Y219750D01*
X253865Y219000D02*X256865D01*
Y219750D02*Y219000D01*
X259416Y219750D02*Y217500D01*
Y219750D02*X260166Y220500D01*
X260916D01*
X261666Y219750D01*
Y217500D01*
X258666Y220500D02*X259416Y219750D01*
X264218Y217500D02*X266468D01*
X267218Y218250D01*
X266468Y219000D02*X267218Y218250D01*
X264218Y219000D02*X266468D01*
X263468Y219750D02*X264218Y219000D01*
X263468Y219750D02*X264218Y220500D01*
X266468D01*
X267218Y219750D01*
X263468Y218250D02*X264218Y217500D01*
X269019Y222000D02*Y221250D01*
Y219750D02*Y217500D01*
X270521Y219750D02*Y218250D01*
Y219750D02*X271271Y220500D01*
X272771D01*
X273521Y219750D01*
Y218250D01*
X272771Y217500D02*X273521Y218250D01*
X271271Y217500D02*X272771D01*
X270521Y218250D02*X271271Y217500D01*
X276072Y219750D02*Y217500D01*
Y219750D02*X276822Y220500D01*
X277572D01*
X278322Y219750D01*
Y217500D01*
X275322Y220500D02*X276072Y219750D01*
X280874Y217500D02*X283124D01*
X283874Y218250D01*
X283124Y219000D02*X283874Y218250D01*
X280874Y219000D02*X283124D01*
X280124Y219750D02*X280874Y219000D01*
X280124Y219750D02*X280874Y220500D01*
X283124D01*
X283874Y219750D01*
X280124Y218250D02*X280874Y217500D01*
X285675Y221250D02*X286425D01*
X285675Y219750D02*X286425D01*
X291677Y217500D02*X293177D01*
X292427Y223500D02*Y217500D01*
X290927Y222000D02*X292427Y223500D01*
X294978Y218250D02*X295728Y217500D01*
X294978Y219750D02*Y218250D01*
Y219750D02*X295728Y220500D01*
X297228D01*
X297978Y219750D01*
Y218250D01*
X297228Y217500D02*X297978Y218250D01*
X295728Y217500D02*X297228D01*
X294978Y221250D02*X295728Y220500D01*
X294978Y222750D02*Y221250D01*
Y222750D02*X295728Y223500D01*
X297228D01*
X297978Y222750D01*
Y221250D01*
X297228Y220500D02*X297978Y221250D01*
X299780Y223500D02*X302780D01*
X299780D02*Y220500D01*
X300530Y221250D01*
X302030D01*
X302780Y220500D01*
Y218250D01*
X302030Y217500D02*X302780Y218250D01*
X300530Y217500D02*X302030D01*
X299780Y218250D02*X300530Y217500D01*
X304581Y218250D02*X305331Y217500D01*
X304581Y222750D02*Y218250D01*
Y222750D02*X305331Y223500D01*
X306831D01*
X307581Y222750D01*
Y218250D01*
X306831Y217500D02*X307581Y218250D01*
X305331Y217500D02*X306831D01*
X304581Y219000D02*X307581Y222000D01*
X312833Y219750D02*Y217500D01*
Y219750D02*X313583Y220500D01*
X314333D01*
X315083Y219750D01*
Y217500D01*
Y219750D02*X315833Y220500D01*
X316583D01*
X317333Y219750D01*
Y217500D01*
X312083Y220500D02*X312833Y219750D01*
X319134Y222000D02*Y221250D01*
Y219750D02*Y217500D01*
X320636Y223500D02*Y218250D01*
X321386Y217500D01*
X323637D02*X325887D01*
X326637Y218250D01*
X325887Y219000D02*X326637Y218250D01*
X323637Y219000D02*X325887D01*
X322887Y219750D02*X323637Y219000D01*
X322887Y219750D02*X323637Y220500D01*
X325887D01*
X326637Y219750D01*
X322887Y218250D02*X323637Y217500D01*
X331139Y220500D02*Y218250D01*
X331889Y217500D01*
X332639D01*
X333389Y218250D01*
Y220500D02*Y218250D01*
X334139Y217500D01*
X334889D01*
X335639Y218250D01*
Y220500D02*Y218250D01*
X337440Y222000D02*Y221250D01*
Y219750D02*Y217500D01*
X341942Y223500D02*Y217500D01*
X341192D02*X341942Y218250D01*
X339692Y217500D02*X341192D01*
X338942Y218250D02*X339692Y217500D01*
X338942Y219750D02*Y218250D01*
Y219750D02*X339692Y220500D01*
X341192D01*
X341942Y219750D01*
X344493Y217500D02*X346743D01*
X343743Y218250D02*X344493Y217500D01*
X343743Y219750D02*Y218250D01*
Y219750D02*X344493Y220500D01*
X345993D01*
X346743Y219750D01*
X343743Y219000D02*X346743D01*
Y219750D02*Y219000D01*
X348545Y216000D02*X350045Y217500D01*
X354546Y222750D02*X355296Y223500D01*
X357546D01*
X358296Y222750D01*
Y221250D01*
X354546Y217500D02*X358296Y221250D01*
X354546Y217500D02*X358296D01*
X360848D02*X362348D01*
X361598Y223500D02*Y217500D01*
X360098Y222000D02*X361598Y223500D01*
X364149Y218250D02*X364899Y217500D01*
X364149Y222750D02*Y218250D01*
Y222750D02*X364899Y223500D01*
X366399D01*
X367149Y222750D01*
Y218250D01*
X366399Y217500D02*X367149Y218250D01*
X364899Y217500D02*X366399D01*
X364149Y219000D02*X367149Y222000D01*
X368951Y218250D02*X369701Y217500D01*
X368951Y222750D02*Y218250D01*
Y222750D02*X369701Y223500D01*
X371201D01*
X371951Y222750D01*
Y218250D01*
X371201Y217500D02*X371951Y218250D01*
X369701Y217500D02*X371201D01*
X368951Y219000D02*X371951Y222000D01*
X377202Y219750D02*Y217500D01*
Y219750D02*X377952Y220500D01*
X378702D01*
X379452Y219750D01*
Y217500D01*
Y219750D02*X380202Y220500D01*
X380952D01*
X381702Y219750D01*
Y217500D01*
X376452Y220500D02*X377202Y219750D01*
X383504Y222000D02*Y221250D01*
Y219750D02*Y217500D01*
X385005Y223500D02*Y218250D01*
X385755Y217500D01*
X388007D02*X390257D01*
X391007Y218250D01*
X390257Y219000D02*X391007Y218250D01*
X388007Y219000D02*X390257D01*
X387257Y219750D02*X388007Y219000D01*
X387257Y219750D02*X388007Y220500D01*
X390257D01*
X391007Y219750D01*
X387257Y218250D02*X388007Y217500D01*
X395508Y223500D02*Y217500D01*
Y219750D02*X396258Y220500D01*
X397758D01*
X398508Y219750D01*
Y217500D01*
X400310Y222000D02*Y221250D01*
Y219750D02*Y217500D01*
X404061Y220500D02*X404811Y219750D01*
X402561Y220500D02*X404061D01*
X401811Y219750D02*X402561Y220500D01*
X401811Y219750D02*Y218250D01*
X402561Y217500D01*
X404061D01*
X404811Y218250D01*
X401811Y216000D02*X402561Y215250D01*
X404061D01*
X404811Y216000D01*
Y220500D02*Y216000D01*
X406613Y223500D02*Y217500D01*
Y219750D02*X407363Y220500D01*
X408863D01*
X409613Y219750D01*
Y217500D01*
X0Y-9500D02*X3000D01*
X3750Y-8750D01*
Y-7250D02*Y-8750D01*
X3000Y-6500D02*X3750Y-7250D01*
X750Y-6500D02*X3000D01*
X750Y-3500D02*Y-9500D01*
X0Y-3500D02*X3000D01*
X3750Y-4250D01*
Y-5750D01*
X3000Y-6500D02*X3750Y-5750D01*
X5551Y-7250D02*Y-8750D01*
Y-7250D02*X6301Y-6500D01*
X7801D01*
X8551Y-7250D01*
Y-8750D01*
X7801Y-9500D02*X8551Y-8750D01*
X6301Y-9500D02*X7801D01*
X5551Y-8750D02*X6301Y-9500D01*
X12603Y-6500D02*X13353Y-7250D01*
X11103Y-6500D02*X12603D01*
X10353Y-7250D02*X11103Y-6500D01*
X10353Y-7250D02*Y-8750D01*
X11103Y-9500D01*
X13353Y-6500D02*Y-8750D01*
X14103Y-9500D01*
X11103D02*X12603D01*
X13353Y-8750D01*
X16654Y-7250D02*Y-9500D01*
Y-7250D02*X17404Y-6500D01*
X18904D01*
X15904D02*X16654Y-7250D01*
X23706Y-3500D02*Y-9500D01*
X22956D02*X23706Y-8750D01*
X21456Y-9500D02*X22956D01*
X20706Y-8750D02*X21456Y-9500D01*
X20706Y-7250D02*Y-8750D01*
Y-7250D02*X21456Y-6500D01*
X22956D01*
X23706Y-7250D01*
X28207D02*Y-8750D01*
Y-7250D02*X28957Y-6500D01*
X30457D01*
X31207Y-7250D01*
Y-8750D01*
X30457Y-9500D02*X31207Y-8750D01*
X28957Y-9500D02*X30457D01*
X28207Y-8750D02*X28957Y-9500D01*
X33009Y-6500D02*Y-8750D01*
X33759Y-9500D01*
X35259D01*
X36009Y-8750D01*
Y-6500D02*Y-8750D01*
X38560Y-3500D02*Y-8750D01*
X39310Y-9500D01*
X37810Y-5750D02*X39310D01*
X40812Y-3500D02*Y-8750D01*
X41562Y-9500D01*
X43063Y-5000D02*Y-5750D01*
Y-7250D02*Y-9500D01*
X45315Y-7250D02*Y-9500D01*
Y-7250D02*X46065Y-6500D01*
X46815D01*
X47565Y-7250D01*
Y-9500D01*
X44565Y-6500D02*X45315Y-7250D01*
X50116Y-9500D02*X52366D01*
X49366Y-8750D02*X50116Y-9500D01*
X49366Y-7250D02*Y-8750D01*
Y-7250D02*X50116Y-6500D01*
X51616D01*
X52366Y-7250D01*
X49366Y-8000D02*X52366D01*
Y-7250D02*Y-8000D01*
X56868Y-5000D02*Y-5750D01*
Y-7250D02*Y-9500D01*
X59119D02*X61369D01*
X62119Y-8750D01*
X61369Y-8000D02*X62119Y-8750D01*
X59119Y-8000D02*X61369D01*
X58369Y-7250D02*X59119Y-8000D01*
X58369Y-7250D02*X59119Y-6500D01*
X61369D01*
X62119Y-7250D01*
X58369Y-8750D02*X59119Y-9500D01*
X67371Y-3500D02*Y-8750D01*
X68121Y-9500D01*
X66621Y-5750D02*X68121D01*
X69622Y-3500D02*Y-9500D01*
Y-7250D02*X70372Y-6500D01*
X71872D01*
X72622Y-7250D01*
Y-9500D01*
X75174D02*X77424D01*
X74424Y-8750D02*X75174Y-9500D01*
X74424Y-7250D02*Y-8750D01*
Y-7250D02*X75174Y-6500D01*
X76674D01*
X77424Y-7250D01*
X74424Y-8000D02*X77424D01*
Y-7250D02*Y-8000D01*
X82675Y-6500D02*X84925D01*
X81925Y-7250D02*X82675Y-6500D01*
X81925Y-7250D02*Y-8750D01*
X82675Y-9500D01*
X84925D01*
X87477D02*X89727D01*
X86727Y-8750D02*X87477Y-9500D01*
X86727Y-7250D02*Y-8750D01*
Y-7250D02*X87477Y-6500D01*
X88977D01*
X89727Y-7250D01*
X86727Y-8000D02*X89727D01*
Y-7250D02*Y-8000D01*
X92278Y-7250D02*Y-9500D01*
Y-7250D02*X93028Y-6500D01*
X93778D01*
X94528Y-7250D01*
Y-9500D01*
X91528Y-6500D02*X92278Y-7250D01*
X97080Y-3500D02*Y-8750D01*
X97830Y-9500D01*
X96330Y-5750D02*X97830D01*
X100081Y-9500D02*X102331D01*
X99331Y-8750D02*X100081Y-9500D01*
X99331Y-7250D02*Y-8750D01*
Y-7250D02*X100081Y-6500D01*
X101581D01*
X102331Y-7250D01*
X99331Y-8000D02*X102331D01*
Y-7250D02*Y-8000D01*
X104883Y-7250D02*Y-9500D01*
Y-7250D02*X105633Y-6500D01*
X107133D01*
X104133D02*X104883Y-7250D01*
X108934Y-3500D02*Y-8750D01*
X109684Y-9500D01*
X111186Y-5000D02*Y-5750D01*
Y-7250D02*Y-9500D01*
X113437Y-7250D02*Y-9500D01*
Y-7250D02*X114187Y-6500D01*
X114937D01*
X115687Y-7250D01*
Y-9500D01*
X112687Y-6500D02*X113437Y-7250D01*
X118239Y-9500D02*X120489D01*
X117489Y-8750D02*X118239Y-9500D01*
X117489Y-7250D02*Y-8750D01*
Y-7250D02*X118239Y-6500D01*
X119739D01*
X120489Y-7250D01*
X117489Y-8000D02*X120489D01*
Y-7250D02*Y-8000D01*
X124990Y-7250D02*Y-8750D01*
Y-7250D02*X125740Y-6500D01*
X127240D01*
X127990Y-7250D01*
Y-8750D01*
X127240Y-9500D02*X127990Y-8750D01*
X125740Y-9500D02*X127240D01*
X124990Y-8750D02*X125740Y-9500D01*
X130542Y-4250D02*Y-9500D01*
Y-4250D02*X131292Y-3500D01*
X132042D01*
X129792Y-6500D02*X131292D01*
X136993Y-3500D02*Y-8750D01*
X137743Y-9500D01*
X136243Y-5750D02*X137743D01*
X139245Y-3500D02*Y-9500D01*
Y-7250D02*X139995Y-6500D01*
X141495D01*
X142245Y-7250D01*
Y-9500D01*
X144046Y-5000D02*Y-5750D01*
Y-7250D02*Y-9500D01*
X146298D02*X148548D01*
X149298Y-8750D01*
X148548Y-8000D02*X149298Y-8750D01*
X146298Y-8000D02*X148548D01*
X145548Y-7250D02*X146298Y-8000D01*
X145548Y-7250D02*X146298Y-6500D01*
X148548D01*
X149298Y-7250D01*
X145548Y-8750D02*X146298Y-9500D01*
X154549D02*X156049D01*
X155299Y-3500D02*Y-9500D01*
X153799Y-5000D02*X155299Y-3500D01*
X157851Y-8750D02*X158601Y-9500D01*
X157851Y-4250D02*Y-8750D01*
Y-4250D02*X158601Y-3500D01*
X160101D01*
X160851Y-4250D01*
Y-8750D01*
X160101Y-9500D02*X160851Y-8750D01*
X158601Y-9500D02*X160101D01*
X157851Y-8000D02*X160851Y-5000D01*
X166102Y-7250D02*Y-9500D01*
Y-7250D02*X166852Y-6500D01*
X167602D01*
X168352Y-7250D01*
Y-9500D01*
Y-7250D02*X169102Y-6500D01*
X169852D01*
X170602Y-7250D01*
Y-9500D01*
X165352Y-6500D02*X166102Y-7250D01*
X172404Y-5000D02*Y-5750D01*
Y-7250D02*Y-9500D01*
X173905Y-3500D02*Y-8750D01*
X174655Y-9500D01*
X179607Y-7250D02*Y-9500D01*
Y-7250D02*X180357Y-6500D01*
X181857D01*
X178857D02*X179607Y-7250D01*
X184408Y-9500D02*X186658D01*
X183658Y-8750D02*X184408Y-9500D01*
X183658Y-7250D02*Y-8750D01*
Y-7250D02*X184408Y-6500D01*
X185908D01*
X186658Y-7250D01*
X183658Y-8000D02*X186658D01*
Y-7250D02*Y-8000D01*
X189210Y-6500D02*X191460D01*
X188460Y-7250D02*X189210Y-6500D01*
X188460Y-7250D02*Y-8750D01*
X189210Y-9500D01*
X191460D01*
X194011Y-3500D02*Y-8750D01*
X194761Y-9500D01*
X193261Y-5750D02*X194761D01*
X198513Y-6500D02*X199263Y-7250D01*
X197013Y-6500D02*X198513D01*
X196263Y-7250D02*X197013Y-6500D01*
X196263Y-7250D02*Y-8750D01*
X197013Y-9500D01*
X199263Y-6500D02*Y-8750D01*
X200013Y-9500D01*
X197013D02*X198513D01*
X199263Y-8750D01*
X202564Y-7250D02*Y-9500D01*
Y-7250D02*X203314Y-6500D01*
X204064D01*
X204814Y-7250D01*
Y-9500D01*
X201814Y-6500D02*X202564Y-7250D01*
X208866Y-6500D02*X209616Y-7250D01*
X207366Y-6500D02*X208866D01*
X206616Y-7250D02*X207366Y-6500D01*
X206616Y-7250D02*Y-8750D01*
X207366Y-9500D01*
X208866D01*
X209616Y-8750D01*
X206616Y-11000D02*X207366Y-11750D01*
X208866D01*
X209616Y-11000D01*
Y-6500D02*Y-11000D01*
X211417Y-3500D02*Y-8750D01*
X212167Y-9500D01*
X214419D02*X216669D01*
X213669Y-8750D02*X214419Y-9500D01*
X213669Y-7250D02*Y-8750D01*
Y-7250D02*X214419Y-6500D01*
X215919D01*
X216669Y-7250D01*
X213669Y-8000D02*X216669D01*
Y-7250D02*Y-8000D01*
X221170Y-6500D02*X224170D01*
X228672Y-8750D02*X229422Y-9500D01*
X228672Y-4250D02*Y-8750D01*
Y-4250D02*X229422Y-3500D01*
X230922D01*
X231672Y-4250D01*
Y-8750D01*
X230922Y-9500D02*X231672Y-8750D01*
X229422Y-9500D02*X230922D01*
X228672Y-8000D02*X231672Y-5000D01*
X233473Y-11000D02*X234973Y-9500D01*
X236775Y-8750D02*X237525Y-9500D01*
X236775Y-4250D02*Y-8750D01*
Y-4250D02*X237525Y-3500D01*
X239025D01*
X239775Y-4250D01*
Y-8750D01*
X239025Y-9500D02*X239775Y-8750D01*
X237525Y-9500D02*X239025D01*
X236775Y-8000D02*X239775Y-5000D01*
X245026Y-3500D02*Y-8750D01*
X245776Y-9500D01*
X244276Y-5750D02*X245776D01*
X247278Y-7250D02*Y-8750D01*
Y-7250D02*X248028Y-6500D01*
X249528D01*
X250278Y-7250D01*
Y-8750D01*
X249528Y-9500D02*X250278Y-8750D01*
X248028Y-9500D02*X249528D01*
X247278Y-8750D02*X248028Y-9500D01*
X255529D02*X257029D01*
X256279Y-3500D02*Y-9500D01*
X254779Y-5000D02*X256279Y-3500D01*
X258831Y-8750D02*X259581Y-9500D01*
X258831Y-7250D02*Y-8750D01*
Y-7250D02*X259581Y-6500D01*
X261081D01*
X261831Y-7250D01*
Y-8750D01*
X261081Y-9500D02*X261831Y-8750D01*
X259581Y-9500D02*X261081D01*
X258831Y-5750D02*X259581Y-6500D01*
X258831Y-4250D02*Y-5750D01*
Y-4250D02*X259581Y-3500D01*
X261081D01*
X261831Y-4250D01*
Y-5750D01*
X261081Y-6500D02*X261831Y-5750D01*
X263632Y-3500D02*X266632D01*
X263632D02*Y-6500D01*
X264382Y-5750D01*
X265882D01*
X266632Y-6500D01*
Y-8750D01*
X265882Y-9500D02*X266632Y-8750D01*
X264382Y-9500D02*X265882D01*
X263632Y-8750D02*X264382Y-9500D01*
X268434Y-8750D02*X269184Y-9500D01*
X268434Y-4250D02*Y-8750D01*
Y-4250D02*X269184Y-3500D01*
X270684D01*
X271434Y-4250D01*
Y-8750D01*
X270684Y-9500D02*X271434Y-8750D01*
X269184Y-9500D02*X270684D01*
X268434Y-8000D02*X271434Y-5000D01*
X273235Y-11000D02*X274735Y-9500D01*
X276537Y-4250D02*X277287Y-3500D01*
X279537D01*
X280287Y-4250D01*
Y-5750D01*
X276537Y-9500D02*X280287Y-5750D01*
X276537Y-9500D02*X280287D01*
X282838D02*X284338D01*
X283588Y-3500D02*Y-9500D01*
X282088Y-5000D02*X283588Y-3500D01*
X286140Y-8750D02*X286890Y-9500D01*
X286140Y-4250D02*Y-8750D01*
Y-4250D02*X286890Y-3500D01*
X288390D01*
X289140Y-4250D01*
Y-8750D01*
X288390Y-9500D02*X289140Y-8750D01*
X286890Y-9500D02*X288390D01*
X286140Y-8000D02*X289140Y-5000D01*
X290941Y-8750D02*X291691Y-9500D01*
X290941Y-4250D02*Y-8750D01*
Y-4250D02*X291691Y-3500D01*
X293191D01*
X293941Y-4250D01*
Y-8750D01*
X293191Y-9500D02*X293941Y-8750D01*
X291691Y-9500D02*X293191D01*
X290941Y-8000D02*X293941Y-5000D01*
X299193Y-7250D02*Y-9500D01*
Y-7250D02*X299943Y-6500D01*
X300693D01*
X301443Y-7250D01*
Y-9500D01*
Y-7250D02*X302193Y-6500D01*
X302943D01*
X303693Y-7250D01*
Y-9500D01*
X298443Y-6500D02*X299193Y-7250D01*
X305494Y-5000D02*Y-5750D01*
Y-7250D02*Y-9500D01*
X306996Y-3500D02*Y-8750D01*
X307746Y-9500D01*
X309997D02*X312247D01*
X312997Y-8750D01*
X312247Y-8000D02*X312997Y-8750D01*
X309997Y-8000D02*X312247D01*
X309247Y-7250D02*X309997Y-8000D01*
X309247Y-7250D02*X309997Y-6500D01*
X312247D01*
X312997Y-7250D01*
X309247Y-8750D02*X309997Y-9500D01*
X200750Y238500D02*Y232500D01*
X203000Y238500D02*X203750Y237750D01*
Y233250D01*
X203000Y232500D02*X203750Y233250D01*
X200000Y232500D02*X203000D01*
X200000Y238500D02*X203000D01*
X207801Y235500D02*X208551Y234750D01*
X206301Y235500D02*X207801D01*
X205551Y234750D02*X206301Y235500D01*
X205551Y234750D02*Y233250D01*
X206301Y232500D01*
X208551Y235500D02*Y233250D01*
X209301Y232500D01*
X206301D02*X207801D01*
X208551Y233250D01*
X211853Y238500D02*Y233250D01*
X212603Y232500D01*
X211103Y236250D02*X212603D01*
X214854Y232500D02*X217104D01*
X214104Y233250D02*X214854Y232500D01*
X214104Y234750D02*Y233250D01*
Y234750D02*X214854Y235500D01*
X216354D01*
X217104Y234750D01*
X214104Y234000D02*X217104D01*
Y234750D02*Y234000D01*
X218906Y236250D02*X219656D01*
X218906Y234750D02*X219656D01*
X224157Y238500D02*X227157D01*
X225657D02*Y232500D01*
X228959Y238500D02*Y232500D01*
Y234750D02*X229709Y235500D01*
X231209D01*
X231959Y234750D01*
Y232500D01*
X233760Y235500D02*Y233250D01*
X234510Y232500D01*
X236010D01*
X236760Y233250D01*
Y235500D02*Y233250D01*
X242012Y232500D02*X243512D01*
X242762Y238500D02*Y232500D01*
X241262Y237000D02*X242762Y238500D01*
X245313Y232500D02*X249063Y236250D01*
Y238500D02*Y236250D01*
X245313Y238500D02*X249063D01*
X253565D02*Y232500D01*
Y238500D02*X255815Y236250D01*
X258065Y238500D01*
Y232500D01*
X262116Y235500D02*X262866Y234750D01*
X260616Y235500D02*X262116D01*
X259866Y234750D02*X260616Y235500D01*
X259866Y234750D02*Y233250D01*
X260616Y232500D01*
X262866Y235500D02*Y233250D01*
X263616Y232500D01*
X260616D02*X262116D01*
X262866Y233250D01*
X266168Y234750D02*Y232500D01*
Y234750D02*X266918Y235500D01*
X268418D01*
X265418D02*X266168Y234750D01*
X272919Y237750D02*X273669Y238500D01*
X275919D01*
X276669Y237750D01*
Y236250D01*
X272919Y232500D02*X276669Y236250D01*
X272919Y232500D02*X276669D01*
X278471Y233250D02*X279221Y232500D01*
X278471Y237750D02*Y233250D01*
Y237750D02*X279221Y238500D01*
X280721D01*
X281471Y237750D01*
Y233250D01*
X280721Y232500D02*X281471Y233250D01*
X279221Y232500D02*X280721D01*
X278471Y234000D02*X281471Y237000D01*
X284022Y232500D02*X285522D01*
X284772Y238500D02*Y232500D01*
X283272Y237000D02*X284772Y238500D01*
X288074Y232500D02*X289574D01*
X288824Y238500D02*Y232500D01*
X287324Y237000D02*X288824Y238500D01*
X294825Y232500D02*X296325D01*
X295575Y238500D02*Y232500D01*
X294075Y237000D02*X295575Y238500D01*
X298127Y237750D02*X298877Y238500D01*
X301127D01*
X301877Y237750D01*
Y236250D01*
X298127Y232500D02*X301877Y236250D01*
X298127Y232500D02*X301877D01*
X303678Y236250D02*X304428D01*
X303678Y234750D02*X304428D01*
X306230Y238500D02*X309230D01*
X306230D02*Y235500D01*
X306980Y236250D01*
X308480D01*
X309230Y235500D01*
Y233250D01*
X308480Y232500D02*X309230Y233250D01*
X306980Y232500D02*X308480D01*
X306230Y233250D02*X306980Y232500D01*
X311031Y237750D02*X311781Y238500D01*
X313281D01*
X314031Y237750D01*
Y233250D01*
X313281Y232500D02*X314031Y233250D01*
X311781Y232500D02*X313281D01*
X311031Y233250D02*X311781Y232500D01*
Y235500D02*X314031D01*
X315833Y236250D02*X316583D01*
X315833Y234750D02*X316583D01*
X318384Y233250D02*X319134Y232500D01*
X318384Y237750D02*Y233250D01*
Y237750D02*X319134Y238500D01*
X320634D01*
X321384Y237750D01*
Y233250D01*
X320634Y232500D02*X321384Y233250D01*
X319134Y232500D02*X320634D01*
X318384Y234000D02*X321384Y237000D01*
X323186Y238500D02*X326186D01*
X323186D02*Y235500D01*
X323936Y236250D01*
X325436D01*
X326186Y235500D01*
Y233250D01*
X325436Y232500D02*X326186Y233250D01*
X323936Y232500D02*X325436D01*
X323186Y233250D02*X323936Y232500D01*
X330687Y237750D02*Y232500D01*
Y237750D02*X331437Y238500D01*
X333687D01*
X334437Y237750D01*
Y232500D01*
X330687Y235500D02*X334437D01*
X336239Y238500D02*Y232500D01*
Y238500D02*X338489Y236250D01*
X340739Y238500D01*
Y232500D01*
X348240Y238500D02*X348990Y237750D01*
X345990Y238500D02*X348240D01*
X345240Y237750D02*X345990Y238500D01*
X345240Y237750D02*Y233250D01*
X345990Y232500D01*
X348240D01*
X348990Y233250D01*
Y234750D02*Y233250D01*
X348240Y235500D02*X348990Y234750D01*
X346740Y235500D02*X348240D01*
X350792Y238500D02*Y232500D01*
Y238500D02*X353042Y236250D01*
X355292Y238500D01*
Y232500D01*
X357093Y238500D02*X360093D01*
X358593D02*Y232500D01*
X364595Y238500D02*Y233250D01*
X365345Y232500D01*
X366845D01*
X367595Y233250D01*
Y238500D02*Y233250D01*
X369396Y238500D02*X372396D01*
X370896D02*Y232500D01*
X374948D02*X377198D01*
X374198Y233250D02*X374948Y232500D01*
X374198Y237750D02*Y233250D01*
Y237750D02*X374948Y238500D01*
X377198D01*
X200000Y252750D02*Y247500D01*
Y252750D02*X200750Y253500D01*
X203000D01*
X203750Y252750D01*
Y247500D01*
X200000Y250500D02*X203750D01*
X205551D02*Y248250D01*
X206301Y247500D01*
X207801D01*
X208551Y248250D01*
Y250500D02*Y248250D01*
X211103Y253500D02*Y248250D01*
X211853Y247500D01*
X210353Y251250D02*X211853D01*
X213354Y253500D02*Y247500D01*
Y249750D02*X214104Y250500D01*
X215604D01*
X216354Y249750D01*
Y247500D01*
X218156Y249750D02*Y248250D01*
Y249750D02*X218906Y250500D01*
X220406D01*
X221156Y249750D01*
Y248250D01*
X220406Y247500D02*X221156Y248250D01*
X218906Y247500D02*X220406D01*
X218156Y248250D02*X218906Y247500D01*
X223707Y249750D02*Y247500D01*
Y249750D02*X224457Y250500D01*
X225957D01*
X222957D02*X223707Y249750D01*
X227759Y251250D02*X228509D01*
X227759Y249750D02*X228509D01*
X233010Y253500D02*X235260D01*
Y248250D01*
X234510Y247500D02*X235260Y248250D01*
X233760Y247500D02*X234510D01*
X233010Y248250D02*X233760Y247500D01*
X237062Y249750D02*Y248250D01*
Y249750D02*X237812Y250500D01*
X239312D01*
X240062Y249750D01*
Y248250D01*
X239312Y247500D02*X240062Y248250D01*
X237812Y247500D02*X239312D01*
X237062Y248250D02*X237812Y247500D01*
X242613Y249750D02*Y247500D01*
Y249750D02*X243363Y250500D01*
X244113D01*
X244863Y249750D01*
Y247500D01*
X241863Y250500D02*X242613Y249750D01*
X248915Y250500D02*X249665Y249750D01*
X247415Y250500D02*X248915D01*
X246665Y249750D02*X247415Y250500D01*
X246665Y249750D02*Y248250D01*
X247415Y247500D01*
X249665Y250500D02*Y248250D01*
X250415Y247500D01*
X247415D02*X248915D01*
X249665Y248250D01*
X252966Y253500D02*Y248250D01*
X253716Y247500D01*
X252216Y251250D02*X253716D01*
X255218Y253500D02*Y247500D01*
Y249750D02*X255968Y250500D01*
X257468D01*
X258218Y249750D01*
Y247500D01*
X262269Y250500D02*X263019Y249750D01*
X260769Y250500D02*X262269D01*
X260019Y249750D02*X260769Y250500D01*
X260019Y249750D02*Y248250D01*
X260769Y247500D01*
X263019Y250500D02*Y248250D01*
X263769Y247500D01*
X260769D02*X262269D01*
X263019Y248250D01*
X266321Y249750D02*Y247500D01*
Y249750D02*X267071Y250500D01*
X267821D01*
X268571Y249750D01*
Y247500D01*
X265571Y250500D02*X266321Y249750D01*
X273072Y253500D02*Y247500D01*
X276072D01*
X280124Y250500D02*X280874Y249750D01*
X278624Y250500D02*X280124D01*
X277874Y249750D02*X278624Y250500D01*
X277874Y249750D02*Y248250D01*
X278624Y247500D01*
X280874Y250500D02*Y248250D01*
X281624Y247500D01*
X278624D02*X280124D01*
X280874Y248250D01*
X284175Y249750D02*Y247500D01*
Y249750D02*X284925Y250500D01*
X285675D01*
X286425Y249750D01*
Y247500D01*
Y249750D02*X287175Y250500D01*
X287925D01*
X288675Y249750D01*
Y247500D01*
X283425Y250500D02*X284175Y249750D01*
X290477D02*Y248250D01*
Y249750D02*X291227Y250500D01*
X292727D01*
X293477Y249750D01*
Y248250D01*
X292727Y247500D02*X293477Y248250D01*
X291227Y247500D02*X292727D01*
X290477Y248250D02*X291227Y247500D01*
X296028Y253500D02*Y248250D01*
X296778Y247500D01*
X295278Y251250D02*X296778D01*
X298280Y253500D02*Y247500D01*
Y249750D02*X299030Y250500D01*
X300530D01*
X301280Y249750D01*
Y247500D01*
X303831D02*X306081D01*
X303081Y248250D02*X303831Y247500D01*
X303081Y249750D02*Y248250D01*
Y249750D02*X303831Y250500D01*
X305331D01*
X306081Y249750D01*
X303081Y249000D02*X306081D01*
Y249750D02*Y249000D01*
X200000Y268500D02*X203000D01*
X201500D02*Y262500D01*
X204801Y267000D02*Y266250D01*
Y264750D02*Y262500D01*
X207053Y268500D02*Y263250D01*
X207803Y262500D01*
X206303Y266250D02*X207803D01*
X209304Y268500D02*Y263250D01*
X210054Y262500D01*
X212306D02*X214556D01*
X211556Y263250D02*X212306Y262500D01*
X211556Y264750D02*Y263250D01*
Y264750D02*X212306Y265500D01*
X213806D01*
X214556Y264750D01*
X211556Y264000D02*X214556D01*
Y264750D02*Y264000D01*
X216357Y266250D02*X217107D01*
X216357Y264750D02*X217107D01*
X221609Y263250D02*X222359Y262500D01*
X221609Y267750D02*X222359Y268500D01*
X221609Y267750D02*Y263250D01*
X224160Y265500D02*Y263250D01*
X224910Y262500D01*
X226410D01*
X227160Y263250D01*
Y265500D02*Y263250D01*
X229712Y264750D02*Y262500D01*
Y264750D02*X230462Y265500D01*
X231212D01*
X231962Y264750D01*
Y262500D01*
X228962Y265500D02*X229712Y264750D01*
X233763Y268500D02*Y262500D01*
Y264750D02*X236013Y262500D01*
X233763Y264750D02*X235263Y266250D01*
X238565Y264750D02*Y262500D01*
Y264750D02*X239315Y265500D01*
X240065D01*
X240815Y264750D01*
Y262500D01*
X237815Y265500D02*X238565Y264750D01*
X242616D02*Y263250D01*
Y264750D02*X243366Y265500D01*
X244866D01*
X245616Y264750D01*
Y263250D01*
X244866Y262500D02*X245616Y263250D01*
X243366Y262500D02*X244866D01*
X242616Y263250D02*X243366Y262500D01*
X247418Y265500D02*Y263250D01*
X248168Y262500D01*
X248918D01*
X249668Y263250D01*
Y265500D02*Y263250D01*
X250418Y262500D01*
X251168D01*
X251918Y263250D01*
Y265500D02*Y263250D01*
X254469Y264750D02*Y262500D01*
Y264750D02*X255219Y265500D01*
X255969D01*
X256719Y264750D01*
Y262500D01*
X253719Y265500D02*X254469Y264750D01*
X258521Y268500D02*X259271Y267750D01*
Y263250D01*
X258521Y262500D02*X259271Y263250D01*
X263772Y265500D02*X266772D01*
X271274Y268500D02*Y262500D01*
Y268500D02*X274274D01*
X271274Y265500D02*X273524D01*
X278325D02*X279075Y264750D01*
X276825Y265500D02*X278325D01*
X276075Y264750D02*X276825Y265500D01*
X276075Y264750D02*Y263250D01*
X276825Y262500D01*
X279075Y265500D02*Y263250D01*
X279825Y262500D01*
X276825D02*X278325D01*
X279075Y263250D01*
X281627Y268500D02*Y262500D01*
Y263250D02*X282377Y262500D01*
X283877D01*
X284627Y263250D01*
Y264750D02*Y263250D01*
X283877Y265500D02*X284627Y264750D01*
X282377Y265500D02*X283877D01*
X281627Y264750D02*X282377Y265500D01*
X287178Y264750D02*Y262500D01*
Y264750D02*X287928Y265500D01*
X289428D01*
X286428D02*X287178Y264750D01*
X291230Y267000D02*Y266250D01*
Y264750D02*Y262500D01*
X293481Y265500D02*X295731D01*
X292731Y264750D02*X293481Y265500D01*
X292731Y264750D02*Y263250D01*
X293481Y262500D01*
X295731D01*
X299783Y265500D02*X300533Y264750D01*
X298283Y265500D02*X299783D01*
X297533Y264750D02*X298283Y265500D01*
X297533Y264750D02*Y263250D01*
X298283Y262500D01*
X300533Y265500D02*Y263250D01*
X301283Y262500D01*
X298283D02*X299783D01*
X300533Y263250D01*
X303834Y268500D02*Y263250D01*
X304584Y262500D01*
X303084Y266250D02*X304584D01*
X306086Y267000D02*Y266250D01*
Y264750D02*Y262500D01*
X307587Y264750D02*Y263250D01*
Y264750D02*X308337Y265500D01*
X309837D01*
X310587Y264750D01*
Y263250D01*
X309837Y262500D02*X310587Y263250D01*
X308337Y262500D02*X309837D01*
X307587Y263250D02*X308337Y262500D01*
X313139Y264750D02*Y262500D01*
Y264750D02*X313889Y265500D01*
X314639D01*
X315389Y264750D01*
Y262500D01*
X312389Y265500D02*X313139Y264750D01*
X320640Y268500D02*Y262500D01*
X322890Y268500D02*X323640Y267750D01*
Y263250D01*
X322890Y262500D02*X323640Y263250D01*
X319890Y262500D02*X322890D01*
X319890Y268500D02*X322890D01*
X326192Y264750D02*Y262500D01*
Y264750D02*X326942Y265500D01*
X328442D01*
X325442D02*X326192Y264750D01*
X332493Y265500D02*X333243Y264750D01*
X330993Y265500D02*X332493D01*
X330243Y264750D02*X330993Y265500D01*
X330243Y264750D02*Y263250D01*
X330993Y262500D01*
X333243Y265500D02*Y263250D01*
X333993Y262500D01*
X330993D02*X332493D01*
X333243Y263250D01*
X335795Y265500D02*Y263250D01*
X336545Y262500D01*
X337295D01*
X338045Y263250D01*
Y265500D02*Y263250D01*
X338795Y262500D01*
X339545D01*
X340295Y263250D01*
Y265500D02*Y263250D01*
X342096Y267000D02*Y266250D01*
Y264750D02*Y262500D01*
X344348Y264750D02*Y262500D01*
Y264750D02*X345098Y265500D01*
X345848D01*
X346598Y264750D01*
Y262500D01*
X343598Y265500D02*X344348Y264750D01*
X350649Y265500D02*X351399Y264750D01*
X349149Y265500D02*X350649D01*
X348399Y264750D02*X349149Y265500D01*
X348399Y264750D02*Y263250D01*
X349149Y262500D01*
X350649D01*
X351399Y263250D01*
X348399Y261000D02*X349149Y260250D01*
X350649D01*
X351399Y261000D01*
Y265500D02*Y261000D01*
M02*
