G04 start of page 3 for group 1 idx 1 *
G04 Title: (unknown), layer2 *
G04 Creator: pcb 20091103 *
G04 CreationDate: Tue 15 Mar 2011 11:02:10 PM GMT UTC *
G04 For: jlamothe *
G04 Format: Gerber/RS-274X *
G04 PCB-Dimensions: 185000 210000 *
G04 PCB-Coordinate-Origin: lower left *
%MOIN*%
%FSLAX25Y25*%
%LNBACK*%
%ADD11C,0.0100*%
%ADD12C,0.0200*%
%ADD13C,0.0600*%
%ADD14C,0.0750*%
%ADD15C,0.0787*%
%ADD16C,0.1181*%
%ADD17C,0.0360*%
%ADD20C,0.0380*%
%ADD21C,0.0300*%
%ADD22C,0.0280*%
%ADD23C,0.0394*%
%ADD24C,0.0591*%
G54D11*X133399Y91851D02*Y66501D01*
X136700Y86698D02*Y81448D01*
X160001Y86698D02*X136700D01*
X135499Y64501D02*Y53000D01*
X140000Y34501D02*Y29999D01*
X105500Y10000D02*X100000D01*
X50000Y62909D02*Y9999D01*
X77718Y62909D02*X50000D01*
X77717Y74410D02*Y62908D01*
X83155Y59608D02*X75700D01*
X105499Y57607D02*Y9999D01*
X107000Y57607D02*X105499D01*
X106999Y60000D02*Y57606D01*
X110001Y60000D02*X106999D01*
X125500D02*X120000D01*
X125499D02*Y25499D01*
X174500Y55002D02*Y34500D01*
X174501Y34501D02*X140000D01*
X170001Y25500D02*X125499D01*
X170000Y30000D02*Y25499D01*
X165500Y66502D02*X133399D01*
X165499D02*Y55001D01*
X174501Y55002D02*X165499D01*
X167002Y53001D02*X135499D01*
X174501Y60000D02*X170000D01*
X167001Y53001D02*Y49999D01*
X170001Y50000D02*X167001D01*
X170001Y70000D02*X165499D01*
X60000Y74410D02*Y70313D01*
X60001Y70314D02*X20000D01*
Y70315D02*Y70313D01*
X52001Y73615D02*X51999D01*
X60000Y100000D02*Y74409D01*
X51999Y164300D02*Y73614D01*
X66401Y150902D02*Y150900D01*
X66402Y150902D02*X58499D01*
Y129397D01*
X43302Y134700D02*X8749D01*
X77717Y100000D02*Y74409D01*
X83154Y127397D02*Y59607D01*
X83155Y127397D02*X54001D01*
X133401Y117675D02*X129802D01*
Y108399D01*
X133401Y91851D02*X133399D01*
X135500Y64501D02*X105499D01*
X105500Y106139D02*X103049D01*
X113500Y98452D02*X110000D01*
X133400Y143499D02*Y91850D01*
X140001Y143499D02*X133400D01*
X140000Y150000D02*Y143498D01*
X160000Y150000D02*Y86697D01*
X174500Y180000D02*Y59999D01*
X170001Y150000D02*X165499D01*
Y69999D01*
X170000Y154501D02*Y149999D01*
X170001Y154501D02*X135499D01*
X110000Y150000D02*Y98451D01*
X8749Y171399D02*Y134699D01*
Y205251D02*Y174699D01*
X74450Y147601D02*X61800D01*
X52000Y164300D02*X50700D01*
X46401Y174700D02*X8749D01*
X54001Y196252D02*Y127396D01*
X74449Y147601D02*Y131398D01*
X92298Y131399D02*X74449D01*
X92297Y188503D02*Y131398D01*
X77750Y196252D02*Y134699D01*
X83100Y194750D02*Y146698D01*
X175251Y205251D02*X8749D01*
X54000Y200000D02*Y196251D01*
X74000Y200000D02*Y196251D01*
X175250Y205251D02*Y184500D01*
X175251Y184501D02*X164500D01*
Y156501D01*
X164501Y156502D02*X123000D01*
X174501Y180000D02*X170000D01*
X54002Y196252D02*X54000D01*
X77751D02*X74000D01*
X110001Y194750D02*X83100D01*
X110000Y200000D02*Y194749D01*
X103499Y129398D02*X58499D01*
X160001Y188503D02*X92297D01*
X160000D02*Y179999D01*
X150001Y186502D02*X100198D01*
X150000D02*Y179999D01*
X110001Y180000D02*X105499D01*
X115500Y184501D02*X103498D01*
X100198Y186502D02*Y143397D01*
X115499Y184501D02*Y145499D01*
X105499Y143069D02*Y64500D01*
Y180000D02*Y106138D01*
X103498Y184501D02*Y129397D01*
X123000Y156502D02*Y152998D01*
X123001Y152999D02*X120000D01*
Y149999D01*
X135500Y145500D02*X115499D01*
X135499Y154501D02*Y145499D01*
G54D12*G36*
X167000Y83000D02*Y77000D01*
X173000D01*
Y83000D01*
X167000D01*
G37*
G54D13*X170000Y70000D03*
Y60000D03*
Y50000D03*
Y40000D03*
Y30000D03*
G54D14*Y10000D03*
X160000D03*
X150000D03*
X140000D03*
G54D13*Y30000D03*
Y60000D03*
X130000D03*
X120000D03*
G54D12*G36*
X107000Y33000D02*Y27000D01*
X113000D01*
Y33000D01*
X107000D01*
G37*
G54D13*X120000Y30000D03*
X130000D03*
G54D14*Y10000D03*
X120000D03*
X170000Y200000D03*
X160000D03*
X150000D03*
X140000D03*
X130000D03*
X120000D03*
X110000D03*
X100000D03*
X84000D03*
X74000D03*
X64000D03*
X54000D03*
X44000D03*
X34000D03*
X24000D03*
X14000D03*
G54D12*G36*
X107000Y153000D02*Y147000D01*
X113000D01*
Y153000D01*
X107000D01*
G37*
G54D13*X120000Y150000D03*
X130000D03*
X140000D03*
X150000D03*
X160000D03*
X170000D03*
Y180000D03*
X160000D03*
X150000D03*
X140000D03*
X130000D03*
X120000D03*
X110000D03*
Y60000D03*
G54D12*G36*
X73780Y103937D02*Y96063D01*
X81654D01*
Y103937D01*
X73780D01*
G37*
G54D15*X77717Y74410D03*
G54D14*X100000Y10000D03*
X90000D03*
X80000D03*
X70000D03*
X60000D03*
X50000D03*
G54D15*X60000Y74410D03*
Y100000D03*
G54D12*G36*
X14095Y95905D02*Y84094D01*
X25906D01*
Y95905D01*
X14095D01*
G37*
G54D16*X20000Y70315D03*
G54D17*X43301Y134700D03*
X8749Y171399D03*
X61800Y147601D03*
X50700Y164300D03*
X66401Y150901D03*
X129802Y108400D03*
X133400Y91851D03*
X100198Y143398D03*
X103049Y106139D03*
X113499Y98452D03*
X52000Y73615D03*
X136700Y81449D03*
X46400Y174700D03*
X75700Y59608D03*
X77750Y134700D03*
X83100Y146699D03*
G54D20*G54D21*G54D22*G54D21*G54D22*G54D23*G54D21*G54D23*G54D24*G54D12*M02*
