M48
INCH
T11C0.020
T20C0.028
T22C0.030
T23C0.038
T31C0.051
T32C0.039
%
T11
X009100Y014500
X005500Y015100
X009100Y012500
X005500Y013100
X014600Y013500
X011100Y013600
X009100Y018500
X009100Y016500
X009700Y018500
X006400Y017200
X010100Y016600
X014500Y017100
X013500Y016600
X012500Y016500
X014800Y012600
X000800Y014500
X000800Y012500
X000800Y010500
X000800Y018500
X000800Y016500
X005500Y017100
X006100Y019100
X003400Y017800
X003500Y013800
X002900Y010900
X004100Y013100
X004200Y011100
X004500Y009100
X007500Y009700
X001200Y013700
X001900Y013200
X001200Y009200
X002100Y009100
X009100Y010500
X005500Y011100
X009100Y008500
X005500Y009100
X016600Y007600
X015100Y007100
X009600Y007100
X014900Y008400
X010100Y007700
X014600Y011200
X013900Y007000
X011300Y009500
X011900Y008600
X005300Y006000
X004300Y006300
X008600Y006600
X007100Y004700
X007700Y004100
X008500Y003000
X009400Y002100
X009000Y003700
X000800Y008500
X001400Y004000
X000500Y007100
X000500Y003500
X001400Y007700
X001200Y002200
T20
X010500Y003000
X013500Y006000
X012500Y006000
X011500Y006000
X010500Y006000
X013500Y015000
X013500Y018000
X012500Y018000
X011500Y018000
X010500Y015000
X011500Y015000
X012500Y015000
X010500Y018000
X011500Y003000
X012500Y003000
X013500Y003000
X014500Y003000
X015500Y003000
X016500Y003000
X016500Y006000
X015500Y006000
X014500Y006000
T22
X008500Y001000
X007500Y001000
X006500Y001000
X005500Y001000
X004500Y001000
X011500Y001000
X009500Y001000
X013500Y001000
X012500Y001000
X016500Y001000
X015500Y001000
X014500Y001000
X016500Y020000
X015500Y020000
X014500Y020000
X013500Y020000
X012500Y020000
X011500Y020000
X010500Y020000
X009500Y020000
X007900Y020000
X006900Y020000
X005900Y020000
X004900Y020000
X003900Y020000
X002900Y020000
X001900Y020000
X000900Y020000
T23
X016500Y015000
X016500Y014000
X016500Y013000
X016500Y018000
X016500Y017000
X016500Y016000
T32
X012228Y012000
X012228Y009441
X014000Y009441
X014000Y012000
T31
X002500Y003031
X002500Y005000
M30
