G04 start of page 10 for group -4015 idx -4015 *
G04 Title: (unknown), toppaste *
G04 Creator: pcb 20091103 *
G04 CreationDate: Wed 09 Mar 2011 02:16:16 PM GMT UTC *
G04 For: jlamothe *
G04 Format: Gerber/RS-274X *
G04 PCB-Dimensions: 200000 210000 *
G04 PCB-Coordinate-Origin: lower left *
%MOIN*%
%FSLAX25Y25*%
%LNFRONTPASTE*%
%ADD15R,0.0300X0.0300*%
G54D15*X14000Y135000D02*X15000D01*
X14000Y128900D02*X15000D01*
X14000Y185000D02*X15000D01*
X14000Y178900D02*X15000D01*
X14000Y160000D02*X15000D01*
X14000Y153900D02*X15000D01*
X34000Y135000D02*X35000D01*
X34000Y128900D02*X35000D01*
X34000Y185000D02*X35000D01*
X34000Y178900D02*X35000D01*
X34000Y160000D02*X35000D01*
X34000Y153900D02*X35000D01*
X55000Y160000D02*X56000D01*
X55000Y153900D02*X56000D01*
X54000Y135000D02*X55000D01*
X54000Y128900D02*X55000D01*
X54000Y185000D02*X55000D01*
X54000Y178900D02*X55000D01*
X74000Y185000D02*X75000D01*
X74000Y178900D02*X75000D01*
X74000Y160000D02*X75000D01*
X74000Y153900D02*X75000D01*
X100000Y30000D02*Y29000D01*
X106100Y30000D02*Y29000D01*
X100000Y45000D02*Y44000D01*
X106100Y45000D02*Y44000D01*
X74000Y135000D02*X75000D01*
X74000Y128900D02*X75000D01*
X100000Y60000D02*Y59000D01*
X106100Y60000D02*Y59000D01*
X75000Y30000D02*Y29000D01*
X81100Y30000D02*Y29000D01*
X75000Y45000D02*Y44000D01*
X81100Y45000D02*Y44000D01*
X75000Y60000D02*Y59000D01*
X81100Y60000D02*Y59000D01*
M02*
