G04 start of page 2 for group 0 idx 0 *
G04 Title: (unknown), component *
G04 Creator: pcb 20091103 *
G04 CreationDate: Wed 09 Mar 2011 02:16:16 PM GMT UTC *
G04 For: jlamothe *
G04 Format: Gerber/RS-274X *
G04 PCB-Dimensions: 200000 210000 *
G04 PCB-Coordinate-Origin: lower left *
%MOIN*%
%FSLAX25Y25*%
%LNFRONT*%
%ADD11C,0.0200*%
%ADD12C,0.0600*%
%ADD13C,0.0750*%
%ADD14C,0.0250*%
%ADD15R,0.0300X0.0300*%
%ADD16C,0.0300*%
%ADD17C,0.0280*%
%ADD18C,0.0380*%
%ADD19C,0.0150*%
G54D11*G36*
X112000Y103000D02*Y97000D01*
X118000D01*
Y103000D01*
X112000D01*
G37*
G36*
X92000Y153000D02*Y147000D01*
X98000D01*
Y153000D01*
X92000D01*
G37*
G54D12*X105000Y150000D03*
X115000D03*
X125000Y100000D03*
Y60000D03*
G54D11*G36*
X7000Y48000D02*Y42000D01*
X13000D01*
Y48000D01*
X7000D01*
G37*
G54D12*X20000Y45000D03*
G54D11*G36*
X42000Y48000D02*Y42000D01*
X48000D01*
Y48000D01*
X42000D01*
G37*
G54D12*X55000Y45000D03*
G54D11*G36*
X42000Y103000D02*Y97000D01*
X48000D01*
Y103000D01*
X42000D01*
G37*
G54D12*X55000Y100000D03*
G54D11*G36*
X7000Y103000D02*Y97000D01*
X13000D01*
Y103000D01*
X7000D01*
G37*
G54D12*X20000Y100000D03*
G54D11*G36*
X77000Y103000D02*Y97000D01*
X83000D01*
Y103000D01*
X77000D01*
G37*
G54D12*X90000Y100000D03*
X155000Y30000D03*
Y60000D03*
X145000D03*
X135000D03*
G54D11*G36*
X122000Y33000D02*Y27000D01*
X128000D01*
Y33000D01*
X122000D01*
G37*
G54D12*X135000Y30000D03*
X145000D03*
G54D11*G36*
X182000Y63000D02*Y57000D01*
X188000D01*
Y63000D01*
X182000D01*
G37*
G54D12*X185000Y50000D03*
Y40000D03*
Y30000D03*
Y20000D03*
Y10000D03*
G54D13*X165000D03*
X155000D03*
X145000D03*
X135000D03*
X125000D03*
X115000D03*
X95000D03*
X85000D03*
X75000D03*
X65000D03*
X55000D03*
X45000D03*
G54D12*X125000Y150000D03*
X135000D03*
X145000D03*
X155000D03*
Y180000D03*
X145000D03*
X135000D03*
G54D13*X165000Y200000D03*
X155000D03*
X145000D03*
G54D12*X125000Y180000D03*
X115000D03*
X105000D03*
X95000D03*
G54D13*X135000Y200000D03*
X125000D03*
X115000D03*
X105000D03*
X95000D03*
X79000D03*
X69000D03*
X59000D03*
X49000D03*
X39000D03*
X29000D03*
X19000D03*
X9000D03*
G54D14*X125000Y92749D03*
X55000Y54252D03*
X119750Y54748D03*
X152251Y185751D03*
X105000Y172749D03*
X102250Y169248D03*
X99500Y128900D03*
X109500Y120649D03*
X84249Y179249D03*
X76996Y191999D03*
X70250Y156250D03*
X59501Y38249D03*
X94500D03*
X21751Y151251D03*
X28249Y163000D03*
X37252Y169251D03*
X10250Y141500D03*
X33750Y138750D03*
X30250Y178148D03*
X30002Y92749D03*
X44251Y163000D03*
X48998Y166500D03*
X54000Y169250D03*
X33751Y175150D03*
X40752Y176147D03*
X43503Y120649D03*
X27251Y105250D03*
X12500D03*
X40752Y188750D03*
G54D15*X74000Y135000D02*X75000D01*
X74000Y160000D02*X75000D01*
X74000Y153900D02*X75000D01*
X74000Y128900D02*X75000D01*
X54000Y135000D02*X55000D01*
X34000D02*X35000D01*
X54000Y128900D02*X55000D01*
X34000D02*X35000D01*
X14000Y135000D02*X15000D01*
X14000Y128900D02*X15000D01*
X75000Y45000D02*Y44000D01*
X81100Y45000D02*Y44000D01*
X75000Y30000D02*Y29000D01*
X81100Y30000D02*Y29000D01*
X75000Y60000D02*Y59000D01*
X81100Y60000D02*Y59000D01*
X100000Y60000D02*Y59000D01*
X106100Y60000D02*Y59000D01*
X100000Y45000D02*Y44000D01*
X106100Y45000D02*Y44000D01*
X100000Y30000D02*Y29000D01*
X106100Y30000D02*Y29000D01*
X74000Y185000D02*X75000D01*
X74000Y178900D02*X75000D01*
X54000Y185000D02*X55000D01*
X54000Y178900D02*X55000D01*
Y160000D02*X56000D01*
X55000Y153900D02*X56000D01*
X34000Y160000D02*X35000D01*
X34000Y153900D02*X35000D01*
X14000Y160000D02*X15000D01*
X14000Y153900D02*X15000D01*
X34000Y185000D02*X35000D01*
X34000Y178900D02*X35000D01*
X14000Y185000D02*X15000D01*
X14000Y178900D02*X15000D01*
G54D16*G54D17*G54D16*G54D17*G54D16*G54D17*G54D18*G54D16*G54D17*G54D16*G54D17*G54D16*G54D19*M02*
