M48
INCH
T12C0.020
T18C0.038
T19C0.030
T20C0.028
%
T12
X012290Y011345
X009840Y007669
X009285Y006840
X012380Y012495
X009460Y016519
X009519Y017630
X009295Y014019
X009130Y014970
X011170Y016519
X005700Y014639
X006250Y016269
X006580Y014970
X005040Y018400
X003599Y019144
X000374Y019014
X007369Y015939
X007570Y017769
X007040Y003730
X005370Y013689
X004215Y011345
X004379Y017430
X004640Y003930
X005370Y015099
X005170Y005204
X005630Y005534
X003269Y004419
X006280Y005994
T20
X013500Y006000
X012500Y006000
X011500Y006000
X010500Y006000
X010500Y015000
X010500Y018000
X011500Y015000
X011500Y018000
X012500Y015000
X012500Y018000
X010500Y003000
X011500Y003000
X012500Y003000
X013500Y003000
X013500Y015000
X013500Y018000
X014500Y015000
X015500Y015000
X016500Y015000
X016500Y018000
X015500Y018000
X014500Y018000
T19
X016500Y001000
X015500Y001000
X014500Y001000
X013500Y001000
X012500Y001000
X011500Y001000
X009500Y001000
X008500Y001000
X007500Y001000
X006500Y001000
X005500Y001000
X004500Y001000
X016500Y020000
X015500Y020000
X014500Y020000
X013500Y020000
X012500Y020000
X011500Y020000
X010500Y020000
X009500Y020000
X007900Y020000
X006900Y020000
X005900Y020000
X004900Y020000
X003900Y020000
X002900Y020000
X001900Y020000
X000900Y020000
T18
X016500Y008000
X016500Y007000
X016500Y006000
X016500Y005000
X016500Y004000
X016500Y003000
M30
