G04 start of page 3 for group 1 idx 1 *
G04 Title: (unknown), layer2 *
G04 Creator: pcb 20091103 *
G04 CreationDate: Thu 14 Apr 2011 10:29:27 PM GMT UTC *
G04 For: jlamothe *
G04 Format: Gerber/RS-274X *
G04 PCB-Dimensions: 180000 210000 *
G04 PCB-Coordinate-Origin: lower left *
%MOIN*%
%FSLAX25Y25*%
%LNBACK*%
%ADD11C,0.0200*%
%ADD12C,0.0400*%
%ADD13C,0.0100*%
%ADD14C,0.0750*%
%ADD15C,0.0600*%
%ADD16C,0.0787*%
%ADD17C,0.1024*%
%ADD20C,0.0300*%
%ADD21C,0.0380*%
%ADD22C,0.0280*%
%ADD23C,0.0394*%
%ADD24C,0.0512*%
%ADD25C,0.0350*%
G54D11*G36*
X151750Y72630D02*X153500Y74380D01*
Y64239D01*
X153461Y64229D01*
X152750Y63897D01*
X152107Y63447D01*
X151750Y63090D01*
Y72630D01*
G37*
G36*
Y84630D02*X156500Y89380D01*
Y81622D01*
X151750Y76872D01*
Y84630D01*
G37*
G36*
Y128826D02*X151819Y128974D01*
X151954Y129479D01*
X152000Y130000D01*
X151954Y130521D01*
X151888Y130768D01*
X152500Y131380D01*
Y92622D01*
X151750Y91872D01*
Y128826D01*
G37*
G36*
X167000Y64014D02*Y125986D01*
X167250Y126103D01*
X167893Y126553D01*
X168447Y127107D01*
X168897Y127750D01*
X169229Y128461D01*
X169432Y129219D01*
X169500Y130000D01*
X169432Y130781D01*
X169229Y131539D01*
X168897Y132250D01*
X168447Y132893D01*
X167893Y133447D01*
X167250Y133897D01*
X167000Y134014D01*
Y135986D01*
X167250Y136103D01*
X167893Y136553D01*
X168447Y137107D01*
X168897Y137750D01*
X169229Y138461D01*
X169432Y139219D01*
X169500Y140000D01*
X169432Y140781D01*
X169229Y141539D01*
X168897Y142250D01*
X168447Y142893D01*
X167893Y143447D01*
X167250Y143897D01*
X167000Y144014D01*
Y145986D01*
X167250Y146103D01*
X167893Y146553D01*
X168447Y147107D01*
X168897Y147750D01*
X169229Y148461D01*
X169432Y149219D01*
X169500Y150000D01*
X169432Y150781D01*
X169229Y151539D01*
X168897Y152250D01*
X168447Y152893D01*
X167893Y153447D01*
X167250Y153897D01*
X167000Y154014D01*
Y155986D01*
X167250Y156103D01*
X167893Y156553D01*
X168447Y157107D01*
X168897Y157750D01*
X169229Y158461D01*
X169432Y159219D01*
X169500Y160000D01*
X169432Y160781D01*
X169229Y161539D01*
X168897Y162250D01*
X168447Y162893D01*
X167893Y163447D01*
X167250Y163897D01*
X167000Y164014D01*
Y165879D01*
X170500Y162379D01*
Y37622D01*
X167000Y34122D01*
Y55986D01*
X167250Y56103D01*
X167893Y56553D01*
X168447Y57107D01*
X168897Y57750D01*
X169229Y58461D01*
X169432Y59219D01*
X169500Y60000D01*
X169432Y60781D01*
X169229Y61539D01*
X168897Y62250D01*
X168447Y62893D01*
X167893Y63447D01*
X167250Y63897D01*
X167000Y64014D01*
G37*
G36*
Y210000D02*X180000D01*
Y89000D01*
X179954Y89521D01*
X179819Y90026D01*
X179598Y90500D01*
X179298Y90928D01*
X178928Y91298D01*
X178500Y91598D01*
X178026Y91819D01*
X177521Y91954D01*
X177000Y92000D01*
X176479Y91954D01*
X175974Y91819D01*
X175500Y91598D01*
X175072Y91298D01*
X174702Y90928D01*
X174402Y90500D01*
X174181Y90026D01*
X174046Y89521D01*
X174000Y89000D01*
X174046Y88479D01*
X174181Y87974D01*
X174402Y87500D01*
X174702Y87072D01*
X175072Y86702D01*
X175500Y86402D01*
Y6956D01*
X175000Y7000D01*
X174479Y6954D01*
X173974Y6819D01*
X173500Y6598D01*
X173072Y6298D01*
X172702Y5928D01*
X172402Y5500D01*
X172181Y5026D01*
X172046Y4521D01*
X172000Y4000D01*
X172046Y3479D01*
X172181Y2974D01*
X172402Y2500D01*
X172702Y2072D01*
X173072Y1702D01*
X173500Y1402D01*
X173974Y1181D01*
X174479Y1046D01*
X175000Y1000D01*
X175521Y1046D01*
X176026Y1181D01*
X176500Y1402D01*
X176928Y1702D01*
X177298Y2072D01*
X177598Y2500D01*
X177819Y2974D01*
X177954Y3479D01*
X178000Y4000D01*
X177954Y4521D01*
X177888Y4768D01*
X178060Y4940D01*
X178061Y4939D01*
X178106Y4993D01*
X178149Y5036D01*
X178182Y5084D01*
X178229Y5139D01*
X178265Y5201D01*
X178299Y5250D01*
X178324Y5304D01*
X178360Y5366D01*
X178383Y5430D01*
X178410Y5487D01*
X178427Y5550D01*
X178449Y5612D01*
X178461Y5681D01*
X178477Y5740D01*
X178482Y5796D01*
X178495Y5869D01*
Y5943D01*
X178500Y6000D01*
Y86402D01*
X178928Y86702D01*
X179298Y87072D01*
X179598Y87500D01*
X179819Y87974D01*
X179954Y88479D01*
X180000Y89000D01*
Y0D01*
X167000D01*
Y5711D01*
X167375Y5886D01*
X168053Y6361D01*
X168639Y6947D01*
X169114Y7625D01*
X169464Y8375D01*
X169678Y9175D01*
X169750Y10000D01*
X169678Y10825D01*
X169464Y11625D01*
X169114Y12375D01*
X168639Y13053D01*
X168053Y13639D01*
X167375Y14114D01*
X167000Y14289D01*
Y25986D01*
X167250Y26103D01*
X167893Y26553D01*
X168447Y27107D01*
X168897Y27750D01*
X169229Y28461D01*
X169432Y29219D01*
X169500Y30000D01*
X169432Y30781D01*
X169229Y31539D01*
X169048Y31928D01*
X173060Y35940D01*
X173061Y35939D01*
X173108Y35995D01*
X173149Y36036D01*
X173182Y36083D01*
X173229Y36139D01*
X173266Y36203D01*
X173299Y36250D01*
X173325Y36305D01*
X173360Y36366D01*
X173383Y36429D01*
X173410Y36487D01*
X173427Y36551D01*
X173449Y36612D01*
X173461Y36681D01*
X173477Y36740D01*
X173482Y36796D01*
X173495Y36869D01*
Y36943D01*
X173500Y37000D01*
Y163000D01*
X173494Y163068D01*
Y163131D01*
X173483Y163193D01*
X173477Y163260D01*
X173459Y163329D01*
X173448Y163389D01*
X173429Y163441D01*
X173410Y163513D01*
X173378Y163580D01*
X173359Y163634D01*
X173329Y163686D01*
X173299Y163750D01*
X173259Y163806D01*
X173228Y163861D01*
X173187Y163910D01*
X173149Y163964D01*
X173102Y164011D01*
X173060Y164061D01*
X169048Y168073D01*
X169229Y168461D01*
X169432Y169219D01*
X169500Y170000D01*
X169432Y170781D01*
X169229Y171539D01*
X168897Y172250D01*
X168447Y172893D01*
X167893Y173447D01*
X167250Y173897D01*
X167000Y174014D01*
Y175500D01*
X168000D01*
X168260Y175523D01*
X168513Y175590D01*
X168750Y175701D01*
X168964Y175851D01*
X169149Y176036D01*
X169299Y176250D01*
X169410Y176487D01*
X169477Y176740D01*
X169500Y177000D01*
Y183000D01*
X169477Y183260D01*
X169410Y183513D01*
X169299Y183750D01*
X169149Y183964D01*
X168964Y184149D01*
X168750Y184299D01*
X168513Y184410D01*
X168260Y184477D01*
X168000Y184500D01*
X167000D01*
Y195711D01*
X167375Y195886D01*
X168053Y196361D01*
X168639Y196947D01*
X169114Y197625D01*
X169464Y198375D01*
X169678Y199175D01*
X169750Y200000D01*
X169678Y200825D01*
X169464Y201625D01*
X169114Y202375D01*
X168639Y203053D01*
X168053Y203639D01*
X167375Y204114D01*
X167000Y204289D01*
Y210000D01*
G37*
G36*
Y164014D02*X166539Y164229D01*
X165781Y164432D01*
X165000Y164500D01*
X164219Y164432D01*
X163461Y164229D01*
X162750Y163897D01*
X162107Y163447D01*
X161553Y162893D01*
X161103Y162250D01*
X160771Y161539D01*
X160568Y160781D01*
X160500Y160000D01*
X160568Y159219D01*
X160771Y158461D01*
X160952Y158074D01*
X155500Y152622D01*
Y168380D01*
X162620Y175500D01*
X167000D01*
Y174014D01*
X166539Y174229D01*
X165781Y174432D01*
X165000Y174500D01*
X164219Y174432D01*
X163461Y174229D01*
X162750Y173897D01*
X162107Y173447D01*
X161553Y172893D01*
X161103Y172250D01*
X160771Y171539D01*
X160568Y170781D01*
X160500Y170000D01*
X160568Y169219D01*
X160771Y168461D01*
X161103Y167750D01*
X161553Y167107D01*
X162107Y166553D01*
X162750Y166103D01*
X163461Y165771D01*
X164219Y165568D01*
X165000Y165500D01*
X165781Y165568D01*
X166539Y165771D01*
X166927Y165952D01*
X167000Y165879D01*
Y164014D01*
G37*
G36*
Y154014D02*X166539Y154229D01*
X165781Y154432D01*
X165000Y154500D01*
X164219Y154432D01*
X163461Y154229D01*
X162750Y153897D01*
X162107Y153447D01*
X161553Y152893D01*
X161103Y152250D01*
X160771Y151539D01*
X160568Y150781D01*
X160500Y150000D01*
X160568Y149219D01*
X160771Y148461D01*
X160952Y148074D01*
X157500Y144622D01*
Y150380D01*
X163072Y155952D01*
X163461Y155771D01*
X164219Y155568D01*
X165000Y155500D01*
X165781Y155568D01*
X166539Y155771D01*
X167000Y155986D01*
Y154014D01*
G37*
G36*
Y100000D02*X166954Y100521D01*
X166819Y101026D01*
X166598Y101500D01*
X166298Y101928D01*
X165928Y102298D01*
X165500Y102598D01*
X165026Y102819D01*
X164521Y102954D01*
X164000Y103000D01*
X163479Y102954D01*
X162974Y102819D01*
X162500Y102598D01*
X162072Y102298D01*
X161702Y101928D01*
X161402Y101500D01*
X161181Y101026D01*
X161046Y100521D01*
X161000Y100000D01*
X161046Y99479D01*
X161112Y99234D01*
X159500Y97622D01*
Y142380D01*
X163072Y145952D01*
X163461Y145771D01*
X164219Y145568D01*
X165000Y145500D01*
X165781Y145568D01*
X166539Y145771D01*
X167000Y145986D01*
Y144014D01*
X166539Y144229D01*
X165781Y144432D01*
X165000Y144500D01*
X164219Y144432D01*
X163461Y144229D01*
X162750Y143897D01*
X162107Y143447D01*
X161553Y142893D01*
X161103Y142250D01*
X160771Y141539D01*
X160568Y140781D01*
X160500Y140000D01*
X160568Y139219D01*
X160771Y138461D01*
X161103Y137750D01*
X161553Y137107D01*
X162107Y136553D01*
X162750Y136103D01*
X163461Y135771D01*
X164219Y135568D01*
X165000Y135500D01*
X165781Y135568D01*
X166539Y135771D01*
X167000Y135986D01*
Y134014D01*
X166539Y134229D01*
X165781Y134432D01*
X165000Y134500D01*
X164219Y134432D01*
X163461Y134229D01*
X162750Y133897D01*
X162107Y133447D01*
X161553Y132893D01*
X161103Y132250D01*
X160771Y131539D01*
X160568Y130781D01*
X160500Y130000D01*
X160568Y129219D01*
X160771Y128461D01*
X161103Y127750D01*
X161553Y127107D01*
X162107Y126553D01*
X162750Y126103D01*
X163461Y125771D01*
X164219Y125568D01*
X165000Y125500D01*
X165781Y125568D01*
X166539Y125771D01*
X167000Y125986D01*
Y100000D01*
G37*
G36*
Y0D02*X151750D01*
Y6558D01*
X151947Y6361D01*
X152625Y5886D01*
X153375Y5536D01*
X154175Y5322D01*
X155000Y5250D01*
X155825Y5322D01*
X156625Y5536D01*
X157375Y5886D01*
X158053Y6361D01*
X158639Y6947D01*
X159114Y7625D01*
X159464Y8375D01*
X159678Y9175D01*
X159750Y10000D01*
X159678Y10825D01*
X159464Y11625D01*
X159114Y12375D01*
X158639Y13053D01*
X158053Y13639D01*
X157375Y14114D01*
X156625Y14464D01*
X155825Y14678D01*
X155000Y14750D01*
X154175Y14678D01*
X153375Y14464D01*
X152625Y14114D01*
X151947Y13639D01*
X151750Y13442D01*
Y26910D01*
X152107Y26553D01*
X152750Y26103D01*
X153461Y25771D01*
X154219Y25568D01*
X155000Y25500D01*
X155781Y25568D01*
X156539Y25771D01*
X157250Y26103D01*
X157893Y26553D01*
X158447Y27107D01*
X158897Y27750D01*
X159229Y28461D01*
X159432Y29219D01*
X159500Y30000D01*
X159432Y30781D01*
X159229Y31539D01*
X158897Y32250D01*
X158447Y32893D01*
X157893Y33447D01*
X157250Y33897D01*
X156539Y34229D01*
X155781Y34432D01*
X155000Y34500D01*
X154219Y34432D01*
X153461Y34229D01*
X152750Y33897D01*
X152107Y33447D01*
X151750Y33090D01*
Y56910D01*
X152107Y56553D01*
X152750Y56103D01*
X153461Y55771D01*
X154219Y55568D01*
X155000Y55500D01*
X155781Y55568D01*
X156539Y55771D01*
X157250Y56103D01*
X157893Y56553D01*
X158447Y57107D01*
X158897Y57750D01*
X159229Y58461D01*
X159432Y59219D01*
X159500Y60000D01*
X159432Y60781D01*
X159229Y61539D01*
X158897Y62250D01*
X158447Y62893D01*
X157893Y63447D01*
X157250Y63897D01*
X156539Y64229D01*
X156500Y64239D01*
Y74380D01*
X161060Y78940D01*
X161061Y78939D01*
X161108Y78995D01*
X161149Y79036D01*
X161181Y79082D01*
X161229Y79139D01*
X161265Y79202D01*
X161299Y79250D01*
X161325Y79306D01*
X161360Y79366D01*
X161383Y79429D01*
X161410Y79487D01*
X161426Y79549D01*
X161449Y79612D01*
X161461Y79681D01*
X161477Y79740D01*
X161482Y79798D01*
X161495Y79869D01*
Y79943D01*
X161500Y80000D01*
Y95380D01*
X163232Y97112D01*
X163479Y97046D01*
X164000Y97000D01*
X164521Y97046D01*
X165026Y97181D01*
X165500Y97402D01*
X165928Y97702D01*
X166298Y98072D01*
X166598Y98500D01*
X166819Y98974D01*
X166954Y99479D01*
X167000Y100000D01*
Y64014D01*
X166539Y64229D01*
X165781Y64432D01*
X165000Y64500D01*
X164219Y64432D01*
X163461Y64229D01*
X162750Y63897D01*
X162107Y63447D01*
X161553Y62893D01*
X161103Y62250D01*
X160771Y61539D01*
X160568Y60781D01*
X160500Y60000D01*
X160568Y59219D01*
X160771Y58461D01*
X161103Y57750D01*
X161553Y57107D01*
X162107Y56553D01*
X162750Y56103D01*
X163461Y55771D01*
X164219Y55568D01*
X165000Y55500D01*
X165781Y55568D01*
X166539Y55771D01*
X167000Y55986D01*
Y34122D01*
X166926Y34048D01*
X166539Y34229D01*
X165781Y34432D01*
X165000Y34500D01*
X164219Y34432D01*
X163461Y34229D01*
X162750Y33897D01*
X162107Y33447D01*
X161553Y32893D01*
X161103Y32250D01*
X160771Y31539D01*
X160568Y30781D01*
X160500Y30000D01*
X160568Y29219D01*
X160771Y28461D01*
X161103Y27750D01*
X161553Y27107D01*
X162107Y26553D01*
X162750Y26103D01*
X163461Y25771D01*
X164219Y25568D01*
X165000Y25500D01*
X165781Y25568D01*
X166539Y25771D01*
X167000Y25986D01*
Y14289D01*
X166625Y14464D01*
X165825Y14678D01*
X165000Y14750D01*
X164175Y14678D01*
X163375Y14464D01*
X162625Y14114D01*
X161947Y13639D01*
X161361Y13053D01*
X160886Y12375D01*
X160536Y11625D01*
X160322Y10825D01*
X160250Y10000D01*
X160322Y9175D01*
X160536Y8375D01*
X160886Y7625D01*
X161361Y6947D01*
X161947Y6361D01*
X162625Y5886D01*
X163375Y5536D01*
X164175Y5322D01*
X165000Y5250D01*
X165825Y5322D01*
X166625Y5536D01*
X167000Y5711D01*
Y0D01*
G37*
G36*
X151750Y210000D02*X167000D01*
Y204289D01*
X166625Y204464D01*
X165825Y204678D01*
X165000Y204750D01*
X164175Y204678D01*
X163375Y204464D01*
X162625Y204114D01*
X161947Y203639D01*
X161361Y203053D01*
X160886Y202375D01*
X160536Y201625D01*
X160322Y200825D01*
X160250Y200000D01*
X160322Y199175D01*
X160536Y198375D01*
X160886Y197625D01*
X161361Y196947D01*
X161947Y196361D01*
X162625Y195886D01*
X163375Y195536D01*
X164175Y195322D01*
X165000Y195250D01*
X165825Y195322D01*
X166625Y195536D01*
X167000Y195711D01*
Y184500D01*
X162000D01*
X161740Y184477D01*
X161487Y184410D01*
X161250Y184299D01*
X161036Y184149D01*
X160851Y183964D01*
X160701Y183750D01*
X160590Y183513D01*
X160523Y183260D01*
X160500Y183000D01*
Y177622D01*
X153404Y170526D01*
X153379Y170579D01*
X153359Y170634D01*
X153328Y170687D01*
X153299Y170750D01*
X153260Y170806D01*
X153228Y170861D01*
X153187Y170909D01*
X153149Y170964D01*
X153102Y171011D01*
X153060Y171061D01*
X152888Y171233D01*
X152954Y171479D01*
X153000Y172000D01*
X152954Y172521D01*
X152819Y173026D01*
X152598Y173500D01*
X152298Y173928D01*
X151928Y174298D01*
X151750Y174423D01*
Y196558D01*
X151947Y196361D01*
X152625Y195886D01*
X153375Y195536D01*
X154175Y195322D01*
X155000Y195250D01*
X155825Y195322D01*
X156625Y195536D01*
X157375Y195886D01*
X158053Y196361D01*
X158639Y196947D01*
X159114Y197625D01*
X159464Y198375D01*
X159678Y199175D01*
X159750Y200000D01*
X159678Y200825D01*
X159464Y201625D01*
X159114Y202375D01*
X158639Y203053D01*
X158053Y203639D01*
X157375Y204114D01*
X156625Y204464D01*
X155825Y204678D01*
X155000Y204750D01*
X154175Y204678D01*
X153375Y204464D01*
X152625Y204114D01*
X151947Y203639D01*
X151750Y203442D01*
Y210000D01*
G37*
G36*
X98500Y139257D02*X100000Y137757D01*
Y81244D01*
X98500Y79744D01*
Y139257D01*
G37*
G36*
X145000Y67774D02*X145072Y67702D01*
X145500Y67402D01*
X145974Y67181D01*
X146479Y67046D01*
X147000Y67000D01*
X147521Y67046D01*
X148026Y67181D01*
X148500Y67402D01*
X148928Y67702D01*
X149298Y68072D01*
X149598Y68500D01*
X149819Y68974D01*
X149954Y69479D01*
X150000Y70000D01*
X149954Y70521D01*
X149888Y70768D01*
X151750Y72630D01*
Y63090D01*
X151553Y62893D01*
X151103Y62250D01*
X150771Y61539D01*
X150568Y60781D01*
X150500Y60000D01*
X150568Y59219D01*
X150771Y58461D01*
X151103Y57750D01*
X151553Y57107D01*
X151750Y56910D01*
Y33090D01*
X151553Y32893D01*
X151103Y32250D01*
X150771Y31539D01*
X150568Y30781D01*
X150500Y30000D01*
X150568Y29219D01*
X150771Y28461D01*
X151103Y27750D01*
X151553Y27107D01*
X151750Y26910D01*
Y13442D01*
X151361Y13053D01*
X150886Y12375D01*
X150536Y11625D01*
X150322Y10825D01*
X150250Y10000D01*
X150322Y9175D01*
X150536Y8375D01*
X150886Y7625D01*
X151361Y6947D01*
X151750Y6558D01*
Y0D01*
X145000D01*
Y5250D01*
X145825Y5322D01*
X146625Y5536D01*
X147375Y5886D01*
X148053Y6361D01*
X148639Y6947D01*
X149114Y7625D01*
X149464Y8375D01*
X149678Y9175D01*
X149750Y10000D01*
X149678Y10825D01*
X149464Y11625D01*
X149114Y12375D01*
X148639Y13053D01*
X148053Y13639D01*
X147375Y14114D01*
X146625Y14464D01*
X145825Y14678D01*
X145000Y14750D01*
Y25500D01*
X145781Y25568D01*
X146539Y25771D01*
X147250Y26103D01*
X147893Y26553D01*
X148447Y27107D01*
X148897Y27750D01*
X149229Y28461D01*
X149432Y29219D01*
X149500Y30000D01*
X149432Y30781D01*
X149229Y31539D01*
X148897Y32250D01*
X148447Y32893D01*
X147893Y33447D01*
X147250Y33897D01*
X146539Y34229D01*
X145781Y34432D01*
X145000Y34500D01*
Y55500D01*
X145781Y55568D01*
X146539Y55771D01*
X147250Y56103D01*
X147893Y56553D01*
X148447Y57107D01*
X148897Y57750D01*
X149229Y58461D01*
X149432Y59219D01*
X149500Y60000D01*
X149432Y60781D01*
X149229Y61539D01*
X148897Y62250D01*
X148447Y62893D01*
X147893Y63447D01*
X147250Y63897D01*
X146539Y64229D01*
X145781Y64432D01*
X145000Y64500D01*
Y67774D01*
G37*
G36*
Y76174D02*X145026Y76181D01*
X145500Y76402D01*
X145928Y76702D01*
X146298Y77072D01*
X146598Y77500D01*
X146819Y77974D01*
X146954Y78479D01*
X147000Y79000D01*
X146954Y79521D01*
X146888Y79768D01*
X151750Y84630D01*
Y76872D01*
X147766Y72888D01*
X147521Y72954D01*
X147000Y73000D01*
X146479Y72954D01*
X145974Y72819D01*
X145500Y72598D01*
X145072Y72298D01*
X145000Y72226D01*
Y76174D01*
G37*
G36*
Y83500D02*X146378D01*
X145000Y82122D01*
Y83500D01*
G37*
G36*
X138613Y79481D02*X138928Y79702D01*
X139298Y80072D01*
X139598Y80500D01*
X139819Y80974D01*
X139954Y81479D01*
X140000Y82000D01*
X139954Y82521D01*
X139888Y82768D01*
X140620Y83500D01*
X145000D01*
Y82122D01*
X144766Y81888D01*
X144521Y81954D01*
X144000Y82000D01*
X143479Y81954D01*
X142974Y81819D01*
X142500Y81598D01*
X142072Y81298D01*
X141702Y80928D01*
X141402Y80500D01*
X141181Y80026D01*
X141046Y79521D01*
X141000Y79000D01*
X141046Y78479D01*
X141181Y77974D01*
X141402Y77500D01*
X141702Y77072D01*
X142072Y76702D01*
X142500Y76402D01*
X142974Y76181D01*
X143479Y76046D01*
X144000Y76000D01*
X144521Y76046D01*
X145000Y76174D01*
Y72226D01*
X144702Y71928D01*
X144402Y71500D01*
X144181Y71026D01*
X144046Y70521D01*
X144000Y70000D01*
X144046Y69479D01*
X144181Y68974D01*
X144402Y68500D01*
X144702Y68072D01*
X145000Y67774D01*
Y64500D01*
X144219Y64432D01*
X143461Y64229D01*
X142750Y63897D01*
X142107Y63447D01*
X141553Y62893D01*
X141103Y62250D01*
X140771Y61539D01*
X140568Y60781D01*
X140500Y60000D01*
X140568Y59219D01*
X140771Y58461D01*
X141103Y57750D01*
X141553Y57107D01*
X142107Y56553D01*
X142750Y56103D01*
X143461Y55771D01*
X144219Y55568D01*
X145000Y55500D01*
Y34500D01*
X144219Y34432D01*
X143461Y34229D01*
X142750Y33897D01*
X142107Y33447D01*
X141553Y32893D01*
X141103Y32250D01*
X140771Y31539D01*
X140568Y30781D01*
X140500Y30000D01*
X140568Y29219D01*
X140771Y28461D01*
X141103Y27750D01*
X141553Y27107D01*
X142107Y26553D01*
X142750Y26103D01*
X143461Y25771D01*
X144219Y25568D01*
X145000Y25500D01*
Y14750D01*
X144175Y14678D01*
X143375Y14464D01*
X142625Y14114D01*
X141947Y13639D01*
X141361Y13053D01*
X140886Y12375D01*
X140536Y11625D01*
X140322Y10825D01*
X140250Y10000D01*
X140322Y9175D01*
X140536Y8375D01*
X140886Y7625D01*
X141361Y6947D01*
X141947Y6361D01*
X142625Y5886D01*
X143375Y5536D01*
X144175Y5322D01*
X145000Y5250D01*
Y0D01*
X138613D01*
Y6921D01*
X138639Y6947D01*
X139114Y7625D01*
X139464Y8375D01*
X139678Y9175D01*
X139750Y10000D01*
X139678Y10825D01*
X139464Y11625D01*
X139114Y12375D01*
X138639Y13053D01*
X138613Y13079D01*
Y27344D01*
X138897Y27750D01*
X139229Y28461D01*
X139432Y29219D01*
X139500Y30000D01*
X139432Y30781D01*
X139229Y31539D01*
X138897Y32250D01*
X138613Y32656D01*
Y57860D01*
X138708Y57882D01*
X138829Y57933D01*
X138938Y58005D01*
X139034Y58094D01*
X139113Y58198D01*
X139172Y58315D01*
X139314Y58722D01*
X139417Y59142D01*
X139479Y59569D01*
X139500Y60000D01*
X139479Y60432D01*
X139417Y60859D01*
X139314Y61279D01*
X139172Y61686D01*
X139171D01*
X139112Y61802D01*
X139033Y61907D01*
X138937Y61996D01*
X138828Y62067D01*
X138707Y62118D01*
X138613Y62139D01*
Y79481D01*
G37*
G36*
Y13079D02*X138053Y13639D01*
X137375Y14114D01*
X136625Y14464D01*
X135825Y14678D01*
X135000Y14750D01*
Y25500D01*
X135781Y25568D01*
X136539Y25771D01*
X137250Y26103D01*
X137893Y26553D01*
X138447Y27107D01*
X138613Y27344D01*
Y13079D01*
G37*
G36*
Y0D02*X135000D01*
Y5250D01*
X135825Y5322D01*
X136625Y5536D01*
X137375Y5886D01*
X138053Y6361D01*
X138613Y6921D01*
Y0D01*
G37*
G36*
X135000Y79774D02*X135072Y79702D01*
X135500Y79402D01*
X135974Y79181D01*
X136479Y79046D01*
X137000Y79000D01*
X137521Y79046D01*
X138026Y79181D01*
X138500Y79402D01*
X138613Y79481D01*
Y62139D01*
X138580Y62147D01*
X138450Y62154D01*
X138320Y62138D01*
X138195Y62100D01*
X138079Y62041D01*
X137974Y61962D01*
X137885Y61866D01*
X137814Y61757D01*
X137763Y61636D01*
X137734Y61509D01*
X137727Y61379D01*
X137743Y61249D01*
X137781Y61124D01*
X137876Y60853D01*
X137944Y60573D01*
X137986Y60288D01*
X138000Y60000D01*
X137986Y59713D01*
X137944Y59428D01*
X137876Y59148D01*
X137781Y58877D01*
X137780D01*
X137742Y58752D01*
X137726Y58622D01*
X137733Y58491D01*
X137762Y58364D01*
X137813Y58243D01*
X137885Y58134D01*
X137974Y58038D01*
X138078Y57959D01*
X138195Y57900D01*
X138320Y57862D01*
X138450Y57846D01*
X138581Y57853D01*
X138613Y57860D01*
Y32656D01*
X138447Y32893D01*
X137893Y33447D01*
X137250Y33897D01*
X136539Y34229D01*
X135781Y34432D01*
X135000Y34500D01*
Y55500D01*
X135431Y55521D01*
X135858Y55583D01*
X136278Y55686D01*
X136685Y55828D01*
Y55829D01*
X136801Y55888D01*
X136906Y55967D01*
X136995Y56063D01*
X137066Y56172D01*
X137117Y56293D01*
X137146Y56420D01*
X137153Y56550D01*
X137137Y56680D01*
X137099Y56805D01*
X137040Y56921D01*
X136961Y57026D01*
X136865Y57115D01*
X136756Y57186D01*
X136635Y57237D01*
X136508Y57266D01*
X136378Y57273D01*
X136248Y57257D01*
X136123Y57219D01*
X135852Y57124D01*
X135572Y57056D01*
X135287Y57014D01*
X135000Y57000D01*
Y63000D01*
X135287Y62987D01*
X135572Y62945D01*
X135852Y62877D01*
X136123Y62782D01*
Y62781D01*
X136248Y62743D01*
X136378Y62727D01*
X136509Y62734D01*
X136636Y62763D01*
X136757Y62814D01*
X136866Y62886D01*
X136962Y62975D01*
X137041Y63079D01*
X137100Y63196D01*
X137138Y63321D01*
X137154Y63451D01*
X137147Y63582D01*
X137118Y63709D01*
X137067Y63830D01*
X136995Y63939D01*
X136906Y64035D01*
X136802Y64114D01*
X136685Y64173D01*
X136278Y64315D01*
X135858Y64418D01*
X135431Y64480D01*
X135000Y64500D01*
Y79774D01*
G37*
G36*
X145000Y210000D02*X151750D01*
Y203442D01*
X151361Y203053D01*
X150886Y202375D01*
X150536Y201625D01*
X150322Y200825D01*
X150250Y200000D01*
X150322Y199175D01*
X150536Y198375D01*
X150886Y197625D01*
X151361Y196947D01*
X151750Y196558D01*
Y174423D01*
X151500Y174598D01*
X151026Y174819D01*
X150521Y174954D01*
X150000Y175000D01*
X149479Y174954D01*
X148974Y174819D01*
X148500Y174598D01*
X148072Y174298D01*
X147702Y173928D01*
X147402Y173500D01*
X147181Y173026D01*
X147046Y172521D01*
X147000Y172000D01*
X147046Y171479D01*
X147181Y170974D01*
X147402Y170500D01*
X147702Y170072D01*
X148072Y169702D01*
X148500Y169402D01*
X148974Y169181D01*
X149479Y169046D01*
X150000Y169000D01*
X150500Y169044D01*
Y133622D01*
X149766Y132888D01*
X149521Y132954D01*
X149000Y133000D01*
X148479Y132954D01*
X147974Y132819D01*
X147500Y132598D01*
X147072Y132298D01*
X146702Y131928D01*
X146402Y131500D01*
X146181Y131026D01*
X146046Y130521D01*
X146000Y130000D01*
X146046Y129479D01*
X146181Y128974D01*
X146402Y128500D01*
X146702Y128072D01*
X147072Y127702D01*
X147500Y127402D01*
X147974Y127181D01*
X148479Y127046D01*
X149000Y127000D01*
X149521Y127046D01*
X150026Y127181D01*
X150500Y127402D01*
X150928Y127702D01*
X151298Y128072D01*
X151598Y128500D01*
X151750Y128826D01*
Y91872D01*
X146378Y86500D01*
X145000D01*
Y133774D01*
X145298Y134072D01*
X145598Y134500D01*
X145819Y134974D01*
X145954Y135479D01*
X146000Y136000D01*
X145954Y136521D01*
X145819Y137026D01*
X145598Y137500D01*
X145298Y137928D01*
X145000Y138226D01*
Y195250D01*
X145825Y195322D01*
X146625Y195536D01*
X147375Y195886D01*
X148053Y196361D01*
X148639Y196947D01*
X149114Y197625D01*
X149464Y198375D01*
X149678Y199175D01*
X149750Y200000D01*
X149678Y200825D01*
X149464Y201625D01*
X149114Y202375D01*
X148639Y203053D01*
X148053Y203639D01*
X147375Y204114D01*
X146625Y204464D01*
X145825Y204678D01*
X145000Y204750D01*
Y210000D01*
G37*
G36*
Y86500D02*X140000D01*
X139943Y86495D01*
X139869D01*
X139798Y86482D01*
X139740Y86477D01*
X139681Y86461D01*
X139612Y86449D01*
X139549Y86426D01*
X139487Y86410D01*
X139429Y86383D01*
X139366Y86360D01*
X139306Y86325D01*
X139250Y86299D01*
X139202Y86265D01*
X139139Y86229D01*
X139082Y86181D01*
X139036Y86149D01*
X138995Y86108D01*
X138939Y86061D01*
X138613Y85735D01*
Y89690D01*
X139143Y89548D01*
X140000Y89473D01*
X140857Y89548D01*
X141689Y89771D01*
X142469Y90134D01*
X143173Y90628D01*
X143782Y91237D01*
X144276Y91941D01*
X144639Y92721D01*
X144862Y93553D01*
X144937Y94410D01*
X144862Y95267D01*
X144639Y96099D01*
X144276Y96879D01*
X143782Y97583D01*
X143173Y98192D01*
X142469Y98686D01*
X141689Y99049D01*
X141500Y99100D01*
Y115063D01*
X143937D01*
X144111Y115078D01*
X144279Y115123D01*
X144437Y115197D01*
X144580Y115297D01*
X144703Y115420D01*
X144803Y115563D01*
X144877Y115721D01*
X144922Y115889D01*
X144937Y116063D01*
Y123937D01*
X144922Y124111D01*
X144877Y124279D01*
X144803Y124437D01*
X144703Y124580D01*
X144580Y124703D01*
X144437Y124803D01*
X144279Y124877D01*
X144111Y124922D01*
X143937Y124937D01*
X138613D01*
Y147860D01*
X138708Y147882D01*
X138829Y147933D01*
X138938Y148005D01*
X139034Y148094D01*
X139113Y148198D01*
X139172Y148315D01*
X139314Y148722D01*
X139417Y149142D01*
X139479Y149569D01*
X139500Y150000D01*
X139479Y150432D01*
X139417Y150859D01*
X139314Y151279D01*
X139172Y151686D01*
X139171D01*
X139112Y151802D01*
X139033Y151907D01*
X138937Y151996D01*
X138828Y152067D01*
X138707Y152118D01*
X138613Y152139D01*
Y177344D01*
X138897Y177750D01*
X139229Y178461D01*
X139432Y179219D01*
X139500Y180000D01*
X139432Y180781D01*
X139229Y181539D01*
X138897Y182250D01*
X138613Y182656D01*
Y194266D01*
X141500Y191379D01*
Y138598D01*
X141072Y138298D01*
X140702Y137928D01*
X140402Y137500D01*
X140181Y137026D01*
X140046Y136521D01*
X140000Y136000D01*
X140046Y135479D01*
X140181Y134974D01*
X140402Y134500D01*
X140702Y134072D01*
X141072Y133702D01*
X141500Y133402D01*
X141974Y133181D01*
X142479Y133046D01*
X143000Y133000D01*
X143521Y133046D01*
X144026Y133181D01*
X144500Y133402D01*
X144928Y133702D01*
X145000Y133774D01*
Y86500D01*
G37*
G36*
X138613Y182656D02*X138447Y182893D01*
X137893Y183447D01*
X137250Y183897D01*
X136539Y184229D01*
X135781Y184432D01*
X135000Y184500D01*
Y195250D01*
X135825Y195322D01*
X136625Y195536D01*
X137115Y195764D01*
X138613Y194266D01*
Y182656D01*
G37*
G36*
Y85735D02*X137766Y84888D01*
X137521Y84954D01*
X137000Y85000D01*
X136479Y84954D01*
X135974Y84819D01*
X135500Y84598D01*
X135072Y84298D01*
X135000Y84226D01*
Y145500D01*
X135431Y145521D01*
X135858Y145583D01*
X136278Y145686D01*
X136685Y145828D01*
Y145829D01*
X136801Y145888D01*
X136906Y145967D01*
X136995Y146063D01*
X137066Y146172D01*
X137117Y146293D01*
X137146Y146420D01*
X137153Y146550D01*
X137137Y146680D01*
X137099Y146805D01*
X137040Y146921D01*
X136961Y147026D01*
X136865Y147115D01*
X136756Y147186D01*
X136635Y147237D01*
X136508Y147266D01*
X136378Y147273D01*
X136248Y147257D01*
X136123Y147219D01*
X135852Y147124D01*
X135572Y147056D01*
X135287Y147014D01*
X135000Y147000D01*
Y153000D01*
X135287Y152987D01*
X135572Y152945D01*
X135852Y152877D01*
X136123Y152782D01*
Y152781D01*
X136248Y152743D01*
X136378Y152727D01*
X136509Y152734D01*
X136636Y152763D01*
X136757Y152814D01*
X136866Y152886D01*
X136962Y152975D01*
X137041Y153079D01*
X137100Y153196D01*
X137138Y153321D01*
X137154Y153451D01*
X137147Y153582D01*
X137118Y153709D01*
X137067Y153830D01*
X136995Y153939D01*
X136906Y154035D01*
X136802Y154114D01*
X136685Y154173D01*
X136278Y154315D01*
X135858Y154418D01*
X135431Y154480D01*
X135000Y154500D01*
Y175500D01*
X135781Y175568D01*
X136539Y175771D01*
X137250Y176103D01*
X137893Y176553D01*
X138447Y177107D01*
X138613Y177344D01*
Y152139D01*
X138580Y152147D01*
X138450Y152154D01*
X138320Y152138D01*
X138195Y152100D01*
X138079Y152041D01*
X137974Y151962D01*
X137885Y151866D01*
X137814Y151757D01*
X137763Y151636D01*
X137734Y151509D01*
X137727Y151379D01*
X137743Y151249D01*
X137781Y151124D01*
X137876Y150853D01*
X137944Y150573D01*
X137986Y150288D01*
X138000Y150000D01*
X137986Y149713D01*
X137944Y149428D01*
X137876Y149148D01*
X137781Y148877D01*
X137780D01*
X137742Y148752D01*
X137726Y148622D01*
X137733Y148491D01*
X137762Y148364D01*
X137813Y148243D01*
X137885Y148134D01*
X137974Y148038D01*
X138078Y147959D01*
X138195Y147900D01*
X138320Y147862D01*
X138450Y147846D01*
X138581Y147853D01*
X138613Y147860D01*
Y124937D01*
X136063D01*
X135889Y124922D01*
X135721Y124877D01*
X135563Y124803D01*
X135420Y124703D01*
X135297Y124580D01*
X135197Y124437D01*
X135123Y124279D01*
X135078Y124111D01*
X135063Y123937D01*
Y116063D01*
X135078Y115889D01*
X135123Y115721D01*
X135197Y115563D01*
X135297Y115420D01*
X135420Y115297D01*
X135563Y115197D01*
X135721Y115123D01*
X135889Y115078D01*
X136063Y115063D01*
X138500D01*
Y99100D01*
X138311Y99049D01*
X137531Y98686D01*
X136827Y98192D01*
X136218Y97583D01*
X135724Y96879D01*
X135361Y96099D01*
X135138Y95267D01*
X135063Y94410D01*
X135138Y93553D01*
X135361Y92721D01*
X135724Y91941D01*
X136218Y91237D01*
X136827Y90628D01*
X137531Y90134D01*
X138311Y89771D01*
X138613Y89690D01*
Y85735D01*
G37*
G36*
X135000Y210000D02*X145000D01*
Y204750D01*
X144175Y204678D01*
X143375Y204464D01*
X142625Y204114D01*
X141947Y203639D01*
X141361Y203053D01*
X140886Y202375D01*
X140536Y201625D01*
X140322Y200825D01*
X140250Y200000D01*
X140322Y199175D01*
X140536Y198375D01*
X140886Y197625D01*
X141361Y196947D01*
X141947Y196361D01*
X142625Y195886D01*
X143375Y195536D01*
X144175Y195322D01*
X145000Y195250D01*
Y138226D01*
X144928Y138298D01*
X144500Y138598D01*
Y192000D01*
X144494Y192068D01*
Y192131D01*
X144483Y192193D01*
X144477Y192260D01*
X144459Y192329D01*
X144448Y192389D01*
X144429Y192441D01*
X144410Y192513D01*
X144378Y192580D01*
X144359Y192634D01*
X144329Y192686D01*
X144299Y192750D01*
X144259Y192806D01*
X144228Y192861D01*
X144187Y192910D01*
X144149Y192964D01*
X144102Y193011D01*
X144060Y193061D01*
X139236Y197885D01*
X139464Y198375D01*
X139678Y199175D01*
X139750Y200000D01*
X139678Y200825D01*
X139464Y201625D01*
X139114Y202375D01*
X138639Y203053D01*
X138053Y203639D01*
X137375Y204114D01*
X136625Y204464D01*
X135825Y204678D01*
X135000Y204750D01*
Y210000D01*
G37*
G36*
Y184500D02*X134219Y184432D01*
X133461Y184229D01*
X132750Y183897D01*
X132107Y183447D01*
X131553Y182893D01*
X131387Y182656D01*
Y196921D01*
X131947Y196361D01*
X132625Y195886D01*
X133375Y195536D01*
X134175Y195322D01*
X135000Y195250D01*
Y184500D01*
G37*
G36*
Y14750D02*X134175Y14678D01*
X133375Y14464D01*
X132625Y14114D01*
X131947Y13639D01*
X131387Y13079D01*
Y27344D01*
X131553Y27107D01*
X132107Y26553D01*
X132750Y26103D01*
X133461Y25771D01*
X134219Y25568D01*
X135000Y25500D01*
Y14750D01*
G37*
G36*
Y0D02*X131387D01*
Y6921D01*
X131947Y6361D01*
X132625Y5886D01*
X133375Y5536D01*
X134175Y5322D01*
X135000Y5250D01*
Y0D01*
G37*
G36*
Y84226D02*X134702Y83928D01*
X134402Y83500D01*
X134181Y83026D01*
X134046Y82521D01*
X134000Y82000D01*
X134046Y81479D01*
X134181Y80974D01*
X134402Y80500D01*
X134702Y80072D01*
X135000Y79774D01*
Y64500D01*
X134568Y64480D01*
X134141Y64418D01*
X133721Y64315D01*
X133314Y64173D01*
Y64172D01*
X133198Y64113D01*
X133093Y64034D01*
X133004Y63938D01*
X132933Y63829D01*
X132882Y63708D01*
X132853Y63581D01*
X132846Y63451D01*
X132862Y63321D01*
X132900Y63196D01*
X132959Y63080D01*
X133038Y62975D01*
X133134Y62886D01*
X133243Y62815D01*
X133364Y62764D01*
X133491Y62735D01*
X133621Y62728D01*
X133751Y62744D01*
X133876Y62782D01*
X134147Y62877D01*
X134427Y62945D01*
X134712Y62987D01*
X135000Y63000D01*
Y57000D01*
X134999D01*
X134712Y57014D01*
X134427Y57056D01*
X134147Y57124D01*
X133876Y57219D01*
Y57220D01*
X133751Y57258D01*
X133621Y57274D01*
X133490Y57267D01*
X133363Y57238D01*
X133242Y57187D01*
X133133Y57115D01*
X133037Y57026D01*
X132958Y56922D01*
X132899Y56805D01*
X132861Y56680D01*
X132845Y56550D01*
X132852Y56419D01*
X132881Y56292D01*
X132932Y56171D01*
X133004Y56062D01*
X133093Y55966D01*
X133197Y55887D01*
X133314Y55828D01*
X133721Y55686D01*
X134141Y55583D01*
X134568Y55521D01*
X134999Y55500D01*
X135000D01*
Y34500D01*
X134219Y34432D01*
X133461Y34229D01*
X132750Y33897D01*
X132107Y33447D01*
X131553Y32893D01*
X131387Y32656D01*
Y57861D01*
X131419Y57854D01*
X131549Y57847D01*
X131679Y57863D01*
X131804Y57901D01*
X131920Y57960D01*
X132025Y58039D01*
X132114Y58135D01*
X132185Y58244D01*
X132236Y58365D01*
X132265Y58492D01*
X132272Y58622D01*
X132256Y58752D01*
X132218Y58877D01*
X132123Y59148D01*
X132055Y59428D01*
X132013Y59713D01*
X132000Y60001D01*
X132013Y60288D01*
X132055Y60573D01*
X132123Y60853D01*
X132218Y61124D01*
X132219D01*
X132257Y61249D01*
X132273Y61379D01*
X132266Y61510D01*
X132237Y61637D01*
X132186Y61758D01*
X132114Y61867D01*
X132025Y61963D01*
X131921Y62042D01*
X131804Y62101D01*
X131679Y62139D01*
X131549Y62155D01*
X131418Y62148D01*
X131387Y62141D01*
Y147861D01*
X131419Y147854D01*
X131549Y147847D01*
X131679Y147863D01*
X131804Y147901D01*
X131920Y147960D01*
X132025Y148039D01*
X132114Y148135D01*
X132185Y148244D01*
X132236Y148365D01*
X132265Y148492D01*
X132272Y148622D01*
X132256Y148752D01*
X132218Y148877D01*
X132123Y149148D01*
X132055Y149428D01*
X132013Y149713D01*
X132000Y150001D01*
X132013Y150288D01*
X132055Y150573D01*
X132123Y150853D01*
X132218Y151124D01*
X132219D01*
X132257Y151249D01*
X132273Y151379D01*
X132266Y151510D01*
X132237Y151637D01*
X132186Y151758D01*
X132114Y151867D01*
X132025Y151963D01*
X131921Y152042D01*
X131804Y152101D01*
X131679Y152139D01*
X131549Y152155D01*
X131418Y152148D01*
X131387Y152141D01*
Y177344D01*
X131553Y177107D01*
X132107Y176553D01*
X132750Y176103D01*
X133461Y175771D01*
X134219Y175568D01*
X135000Y175500D01*
Y154500D01*
X134568Y154480D01*
X134141Y154418D01*
X133721Y154315D01*
X133314Y154173D01*
Y154172D01*
X133198Y154113D01*
X133093Y154034D01*
X133004Y153938D01*
X132933Y153829D01*
X132882Y153708D01*
X132853Y153581D01*
X132846Y153451D01*
X132862Y153321D01*
X132900Y153196D01*
X132959Y153080D01*
X133038Y152975D01*
X133134Y152886D01*
X133243Y152815D01*
X133364Y152764D01*
X133491Y152735D01*
X133621Y152728D01*
X133751Y152744D01*
X133876Y152782D01*
X134147Y152877D01*
X134427Y152945D01*
X134712Y152987D01*
X135000Y153000D01*
Y147000D01*
X134999D01*
X134712Y147014D01*
X134427Y147056D01*
X134147Y147124D01*
X133876Y147219D01*
Y147220D01*
X133751Y147258D01*
X133621Y147274D01*
X133490Y147267D01*
X133363Y147238D01*
X133242Y147187D01*
X133133Y147115D01*
X133037Y147026D01*
X132958Y146922D01*
X132899Y146805D01*
X132861Y146680D01*
X132845Y146550D01*
X132852Y146419D01*
X132881Y146292D01*
X132932Y146171D01*
X133004Y146062D01*
X133093Y145966D01*
X133197Y145887D01*
X133314Y145828D01*
X133721Y145686D01*
X134141Y145583D01*
X134568Y145521D01*
X134999Y145500D01*
X135000D01*
Y84226D01*
G37*
G36*
X131387Y210000D02*X135000D01*
Y204750D01*
X134175Y204678D01*
X133375Y204464D01*
X132625Y204114D01*
X131947Y203639D01*
X131387Y203079D01*
Y210000D01*
G37*
G36*
X126383D02*X131387D01*
Y203079D01*
X131361Y203053D01*
X130886Y202375D01*
X130536Y201625D01*
X130322Y200825D01*
X130250Y200000D01*
X130322Y199175D01*
X130536Y198375D01*
X130886Y197625D01*
X131361Y196947D01*
X131387Y196921D01*
Y182656D01*
X131103Y182250D01*
X130771Y181539D01*
X130568Y180781D01*
X130500Y180000D01*
X130568Y179219D01*
X130771Y178461D01*
X131103Y177750D01*
X131387Y177344D01*
Y152141D01*
X131291Y152119D01*
X131170Y152068D01*
X131061Y151996D01*
X130965Y151907D01*
X130886Y151803D01*
X130827Y151686D01*
X130685Y151279D01*
X130582Y150859D01*
X130520Y150432D01*
X130500Y150001D01*
X130520Y149569D01*
X130582Y149142D01*
X130685Y148722D01*
X130827Y148315D01*
X130828D01*
X130887Y148199D01*
X130966Y148094D01*
X131062Y148005D01*
X131171Y147934D01*
X131292Y147883D01*
X131387Y147861D01*
Y62141D01*
X131291Y62119D01*
X131170Y62068D01*
X131061Y61996D01*
X130965Y61907D01*
X130886Y61803D01*
X130827Y61686D01*
X130685Y61279D01*
X130582Y60859D01*
X130520Y60432D01*
X130500Y60001D01*
X130520Y59569D01*
X130582Y59142D01*
X130685Y58722D01*
X130827Y58315D01*
X130828D01*
X130887Y58199D01*
X130966Y58094D01*
X131062Y58005D01*
X131171Y57934D01*
X131292Y57883D01*
X131387Y57861D01*
Y32656D01*
X131103Y32250D01*
X130771Y31539D01*
X130568Y30781D01*
X130500Y30000D01*
X130568Y29219D01*
X130771Y28461D01*
X131103Y27750D01*
X131387Y27344D01*
Y13079D01*
X131361Y13053D01*
X130886Y12375D01*
X130536Y11625D01*
X130322Y10825D01*
X130250Y10000D01*
X130322Y9175D01*
X130536Y8375D01*
X130886Y7625D01*
X131361Y6947D01*
X131387Y6921D01*
Y0D01*
X126383D01*
Y5471D01*
X126625Y5536D01*
X127375Y5886D01*
X128053Y6361D01*
X128639Y6947D01*
X129114Y7625D01*
X129464Y8375D01*
X129678Y9175D01*
X129750Y10000D01*
X129678Y10825D01*
X129464Y11625D01*
X129114Y12375D01*
X128639Y13053D01*
X128053Y13639D01*
X127375Y14114D01*
X126625Y14464D01*
X126383Y14529D01*
Y25729D01*
X126539Y25771D01*
X127250Y26103D01*
X127893Y26553D01*
X128447Y27107D01*
X128897Y27750D01*
X129229Y28461D01*
X129432Y29219D01*
X129500Y30000D01*
X129432Y30781D01*
X129229Y31539D01*
X128897Y32250D01*
X128447Y32893D01*
X127893Y33447D01*
X127250Y33897D01*
X126539Y34229D01*
X126383Y34271D01*
Y55729D01*
X126539Y55771D01*
X127250Y56103D01*
X127893Y56553D01*
X128447Y57107D01*
X128897Y57750D01*
X129229Y58461D01*
X129432Y59219D01*
X129500Y60000D01*
X129432Y60781D01*
X129229Y61539D01*
X128897Y62250D01*
X128447Y62893D01*
X127893Y63447D01*
X127250Y63897D01*
X126539Y64229D01*
X126383Y64271D01*
Y91693D01*
X126417Y91724D01*
X126469Y91794D01*
X126694Y92195D01*
X126881Y92614D01*
X127028Y93050D01*
X127134Y93497D01*
X127198Y93952D01*
X127220Y94410D01*
X127198Y94869D01*
X127134Y95324D01*
X127028Y95771D01*
X126881Y96207D01*
X126694Y96626D01*
X126469Y97027D01*
X126417Y97097D01*
X126383Y97128D01*
Y117283D01*
X126417Y117314D01*
X126469Y117384D01*
X126694Y117785D01*
X126881Y118204D01*
X127028Y118640D01*
X127134Y119087D01*
X127198Y119542D01*
X127220Y120000D01*
X127198Y120459D01*
X127134Y120914D01*
X127028Y121361D01*
X126881Y121797D01*
X126694Y122216D01*
X126469Y122617D01*
X126417Y122687D01*
X126383Y122718D01*
Y145729D01*
X126539Y145771D01*
X127250Y146103D01*
X127893Y146553D01*
X128447Y147107D01*
X128897Y147750D01*
X129229Y148461D01*
X129432Y149219D01*
X129500Y150000D01*
X129432Y150781D01*
X129229Y151539D01*
X128897Y152250D01*
X128447Y152893D01*
X127893Y153447D01*
X127250Y153897D01*
X126539Y154229D01*
X126383Y154271D01*
Y175729D01*
X126539Y175771D01*
X127250Y176103D01*
X127893Y176553D01*
X128447Y177107D01*
X128897Y177750D01*
X129229Y178461D01*
X129432Y179219D01*
X129500Y180000D01*
X129432Y180781D01*
X129229Y181539D01*
X128897Y182250D01*
X128447Y182893D01*
X127893Y183447D01*
X127250Y183897D01*
X126539Y184229D01*
X126383Y184271D01*
Y195471D01*
X126625Y195536D01*
X127375Y195886D01*
X128053Y196361D01*
X128639Y196947D01*
X129114Y197625D01*
X129464Y198375D01*
X129678Y199175D01*
X129750Y200000D01*
X129678Y200825D01*
X129464Y201625D01*
X129114Y202375D01*
X128639Y203053D01*
X128053Y203639D01*
X127375Y204114D01*
X126625Y204464D01*
X126383Y204529D01*
Y210000D01*
G37*
G36*
Y184271D02*X125781Y184432D01*
X125000Y184500D01*
Y195250D01*
X125825Y195322D01*
X126383Y195471D01*
Y184271D01*
G37*
G36*
Y154271D02*X125781Y154432D01*
X125000Y154500D01*
Y175500D01*
X125781Y175568D01*
X126383Y175729D01*
Y154271D01*
G37*
G36*
Y64271D02*X125781Y64432D01*
X125000Y64500D01*
Y65774D01*
X125298Y66072D01*
X125598Y66500D01*
X125819Y66974D01*
X125954Y67479D01*
X126000Y68000D01*
X125954Y68521D01*
X125819Y69026D01*
X125598Y69500D01*
X125298Y69928D01*
X125000Y70226D01*
Y90310D01*
X125028Y90340D01*
X125075Y90413D01*
X125110Y90494D01*
X125129Y90578D01*
X125134Y90665D01*
X125123Y90752D01*
X125098Y90835D01*
X125058Y90913D01*
X125006Y90983D01*
X125000Y90989D01*
Y97832D01*
X125006Y97838D01*
X125058Y97908D01*
X125098Y97986D01*
X125123Y98069D01*
X125134Y98156D01*
X125129Y98243D01*
X125110Y98327D01*
X125075Y98408D01*
X125028Y98481D01*
X125000Y98511D01*
Y115900D01*
X125028Y115930D01*
X125075Y116003D01*
X125110Y116084D01*
X125129Y116168D01*
X125134Y116255D01*
X125123Y116342D01*
X125098Y116425D01*
X125058Y116503D01*
X125006Y116573D01*
X125000Y116579D01*
Y123422D01*
X125006Y123428D01*
X125058Y123498D01*
X125098Y123576D01*
X125123Y123659D01*
X125134Y123746D01*
X125129Y123833D01*
X125110Y123917D01*
X125075Y123998D01*
X125028Y124071D01*
X125000Y124101D01*
Y145500D01*
X125781Y145568D01*
X126383Y145729D01*
Y122718D01*
X126353Y122746D01*
X126280Y122793D01*
X126199Y122828D01*
X126115Y122847D01*
X126028Y122852D01*
X125941Y122841D01*
X125858Y122816D01*
X125780Y122776D01*
X125710Y122724D01*
X125651Y122660D01*
X125604Y122587D01*
X125569Y122506D01*
X125550Y122422D01*
X125545Y122335D01*
X125556Y122248D01*
X125581Y122165D01*
X125621Y122087D01*
X125801Y121767D01*
X125950Y121433D01*
X126067Y121086D01*
X126151Y120729D01*
X126202Y120366D01*
X126220Y120001D01*
X126202Y119635D01*
X126151Y119272D01*
X126067Y118915D01*
X125950Y118568D01*
X125801Y118234D01*
X125621Y117914D01*
X125581Y117836D01*
X125556Y117753D01*
X125545Y117666D01*
X125550Y117579D01*
X125569Y117495D01*
X125604Y117414D01*
X125651Y117341D01*
X125710Y117277D01*
X125780Y117225D01*
X125858Y117185D01*
X125941Y117160D01*
X126028Y117149D01*
X126115Y117154D01*
X126199Y117173D01*
X126280Y117208D01*
X126353Y117255D01*
X126383Y117283D01*
Y97128D01*
X126353Y97156D01*
X126280Y97203D01*
X126199Y97238D01*
X126115Y97257D01*
X126028Y97262D01*
X125941Y97251D01*
X125858Y97226D01*
X125780Y97186D01*
X125710Y97134D01*
X125651Y97070D01*
X125604Y96997D01*
X125569Y96916D01*
X125550Y96832D01*
X125545Y96745D01*
X125556Y96658D01*
X125581Y96575D01*
X125621Y96497D01*
X125801Y96177D01*
X125950Y95843D01*
X126067Y95496D01*
X126151Y95139D01*
X126202Y94776D01*
X126220Y94411D01*
X126202Y94045D01*
X126151Y93682D01*
X126067Y93325D01*
X125950Y92978D01*
X125801Y92644D01*
X125621Y92324D01*
X125581Y92246D01*
X125556Y92163D01*
X125545Y92076D01*
X125550Y91989D01*
X125569Y91905D01*
X125604Y91824D01*
X125651Y91751D01*
X125710Y91687D01*
X125780Y91635D01*
X125858Y91595D01*
X125941Y91570D01*
X126028Y91559D01*
X126115Y91564D01*
X126199Y91583D01*
X126280Y91618D01*
X126353Y91665D01*
X126383Y91693D01*
Y64271D01*
G37*
G36*
Y34271D02*X125781Y34432D01*
X125000Y34500D01*
Y55500D01*
X125781Y55568D01*
X126383Y55729D01*
Y34271D01*
G37*
G36*
Y14529D02*X125825Y14678D01*
X125000Y14750D01*
Y25500D01*
X125781Y25568D01*
X126383Y25729D01*
Y14529D01*
G37*
G36*
Y0D02*X125000D01*
Y5250D01*
X125825Y5322D01*
X126383Y5471D01*
Y0D01*
G37*
G36*
X125000Y210000D02*X126383D01*
Y204529D01*
X125825Y204678D01*
X125000Y204750D01*
Y210000D01*
G37*
G36*
Y64500D02*X124219Y64432D01*
X123461Y64229D01*
X123073Y64048D01*
X121910Y65211D01*
X121974Y65181D01*
X122479Y65046D01*
X123000Y65000D01*
X123521Y65046D01*
X124026Y65181D01*
X124500Y65402D01*
X124928Y65702D01*
X125000Y65774D01*
Y64500D01*
G37*
G36*
X115000Y67879D02*X120952Y61927D01*
X120771Y61539D01*
X120568Y60781D01*
X120500Y60000D01*
X120568Y59219D01*
X120771Y58461D01*
X121103Y57750D01*
X121553Y57107D01*
X122107Y56553D01*
X122750Y56103D01*
X123461Y55771D01*
X124219Y55568D01*
X125000Y55500D01*
Y34500D01*
X124219Y34432D01*
X123461Y34229D01*
X122750Y33897D01*
X122107Y33447D01*
X121553Y32893D01*
X121103Y32250D01*
X120771Y31539D01*
X120568Y30781D01*
X120500Y30000D01*
X120568Y29219D01*
X120771Y28461D01*
X121103Y27750D01*
X121553Y27107D01*
X122107Y26553D01*
X122750Y26103D01*
X123461Y25771D01*
X124219Y25568D01*
X125000Y25500D01*
Y14750D01*
X124175Y14678D01*
X123375Y14464D01*
X122625Y14114D01*
X121947Y13639D01*
X121361Y13053D01*
X120886Y12375D01*
X120536Y11625D01*
X120322Y10825D01*
X120250Y10000D01*
X120322Y9175D01*
X120536Y8375D01*
X120886Y7625D01*
X121361Y6947D01*
X121947Y6361D01*
X122625Y5886D01*
X123375Y5536D01*
X124175Y5322D01*
X125000Y5250D01*
Y0D01*
X115000D01*
Y5250D01*
X115825Y5322D01*
X116625Y5536D01*
X117375Y5886D01*
X118053Y6361D01*
X118639Y6947D01*
X119114Y7625D01*
X119464Y8375D01*
X119678Y9175D01*
X119750Y10000D01*
X119678Y10825D01*
X119464Y11625D01*
X119114Y12375D01*
X118639Y13053D01*
X118053Y13639D01*
X117375Y14114D01*
X116625Y14464D01*
X115825Y14678D01*
X115000Y14750D01*
Y25500D01*
X115781Y25568D01*
X116539Y25771D01*
X117250Y26103D01*
X117893Y26553D01*
X118447Y27107D01*
X118897Y27750D01*
X119229Y28461D01*
X119432Y29219D01*
X119500Y30000D01*
X119432Y30781D01*
X119229Y31539D01*
X118897Y32250D01*
X118447Y32893D01*
X117893Y33447D01*
X117250Y33897D01*
X116539Y34229D01*
X115781Y34432D01*
X115000Y34500D01*
Y55500D01*
X115781Y55568D01*
X116539Y55771D01*
X117250Y56103D01*
X117893Y56553D01*
X118447Y57107D01*
X118897Y57750D01*
X119229Y58461D01*
X119432Y59219D01*
X119500Y60000D01*
X119432Y60781D01*
X119229Y61539D01*
X118897Y62250D01*
X118447Y62893D01*
X117893Y63447D01*
X117250Y63897D01*
X116539Y64229D01*
X115781Y64432D01*
X115000Y64500D01*
Y67879D01*
G37*
G36*
X118183Y168254D02*X118500Y168402D01*
X118928Y168702D01*
X119298Y169072D01*
X119598Y169500D01*
X119819Y169974D01*
X119954Y170479D01*
X120000Y171000D01*
X119954Y171521D01*
X119888Y171768D01*
X123800Y175680D01*
X124219Y175568D01*
X125000Y175500D01*
Y154500D01*
X124219Y154432D01*
X123461Y154229D01*
X122750Y153897D01*
X122107Y153447D01*
X121553Y152893D01*
X121103Y152250D01*
X120771Y151539D01*
X120568Y150781D01*
X120500Y150000D01*
X120568Y149219D01*
X120771Y148461D01*
X121103Y147750D01*
X121553Y147107D01*
X122107Y146553D01*
X122750Y146103D01*
X123461Y145771D01*
X124219Y145568D01*
X125000Y145500D01*
Y124101D01*
X124969Y124135D01*
X124899Y124187D01*
X124498Y124412D01*
X124079Y124599D01*
X123643Y124746D01*
X123196Y124852D01*
X122741Y124916D01*
X122282Y124937D01*
X121824Y124916D01*
X121369Y124852D01*
X120922Y124746D01*
X120486Y124599D01*
X120067Y124412D01*
X119666Y124187D01*
X119596Y124135D01*
X119537Y124071D01*
X119490Y123998D01*
X119455Y123917D01*
X119436Y123833D01*
X119431Y123746D01*
X119442Y123659D01*
X119467Y123576D01*
X119507Y123498D01*
X119559Y123428D01*
X119623Y123369D01*
X119696Y123322D01*
X119777Y123287D01*
X119861Y123268D01*
X119948Y123263D01*
X120035Y123274D01*
X120118Y123299D01*
X120196Y123339D01*
X120516Y123519D01*
X120850Y123668D01*
X121197Y123785D01*
X121554Y123869D01*
X121917Y123920D01*
X122283Y123937D01*
X122648Y123920D01*
X123011Y123869D01*
X123368Y123785D01*
X123715Y123668D01*
X124049Y123519D01*
X124369Y123339D01*
X124447Y123299D01*
X124530Y123274D01*
X124617Y123263D01*
X124704Y123268D01*
X124788Y123287D01*
X124869Y123322D01*
X124942Y123369D01*
X125000Y123422D01*
Y116579D01*
X124942Y116632D01*
X124869Y116679D01*
X124788Y116714D01*
X124704Y116733D01*
X124617Y116738D01*
X124530Y116727D01*
X124447Y116702D01*
X124369Y116662D01*
X124049Y116482D01*
X123715Y116333D01*
X123368Y116216D01*
X123011Y116132D01*
X122648Y116081D01*
X122282Y116063D01*
X121917Y116081D01*
X121554Y116132D01*
X121197Y116216D01*
X120850Y116333D01*
X120516Y116482D01*
X120196Y116662D01*
X120118Y116702D01*
X120035Y116727D01*
X119948Y116738D01*
X119861Y116733D01*
X119777Y116714D01*
X119696Y116679D01*
X119623Y116632D01*
X119559Y116573D01*
X119507Y116503D01*
X119467Y116425D01*
X119442Y116342D01*
X119431Y116255D01*
X119436Y116168D01*
X119455Y116084D01*
X119490Y116003D01*
X119537Y115930D01*
X119596Y115866D01*
X119666Y115814D01*
X120067Y115589D01*
X120486Y115402D01*
X120922Y115255D01*
X121369Y115149D01*
X121824Y115085D01*
X122283Y115063D01*
X122741Y115085D01*
X123196Y115149D01*
X123643Y115255D01*
X124079Y115402D01*
X124498Y115589D01*
X124899Y115814D01*
X124969Y115866D01*
X125000Y115900D01*
Y98511D01*
X124969Y98545D01*
X124899Y98597D01*
X124498Y98822D01*
X124079Y99009D01*
X123643Y99156D01*
X123196Y99262D01*
X122741Y99326D01*
X122282Y99347D01*
X121824Y99326D01*
X121369Y99262D01*
X120922Y99156D01*
X120486Y99009D01*
X120067Y98822D01*
X119666Y98597D01*
X119596Y98545D01*
X119537Y98481D01*
X119490Y98408D01*
X119455Y98327D01*
X119436Y98243D01*
X119431Y98156D01*
X119442Y98069D01*
X119467Y97986D01*
X119507Y97908D01*
X119559Y97838D01*
X119623Y97779D01*
X119696Y97732D01*
X119777Y97697D01*
X119861Y97678D01*
X119948Y97673D01*
X120035Y97684D01*
X120118Y97709D01*
X120196Y97749D01*
X120516Y97929D01*
X120850Y98078D01*
X121197Y98195D01*
X121554Y98279D01*
X121917Y98330D01*
X122283Y98347D01*
X122648Y98330D01*
X123011Y98279D01*
X123368Y98195D01*
X123715Y98078D01*
X124049Y97929D01*
X124369Y97749D01*
X124447Y97709D01*
X124530Y97684D01*
X124617Y97673D01*
X124704Y97678D01*
X124788Y97697D01*
X124869Y97732D01*
X124942Y97779D01*
X125000Y97832D01*
Y90989D01*
X124942Y91042D01*
X124869Y91089D01*
X124788Y91124D01*
X124704Y91143D01*
X124617Y91148D01*
X124530Y91137D01*
X124447Y91112D01*
X124369Y91072D01*
X124049Y90892D01*
X123715Y90743D01*
X123368Y90626D01*
X123011Y90542D01*
X122648Y90491D01*
X122282Y90473D01*
X121917Y90491D01*
X121554Y90542D01*
X121197Y90626D01*
X120850Y90743D01*
X120516Y90892D01*
X120196Y91072D01*
X120118Y91112D01*
X120035Y91137D01*
X119948Y91148D01*
X119861Y91143D01*
X119777Y91124D01*
X119696Y91089D01*
X119623Y91042D01*
X119559Y90983D01*
X119507Y90913D01*
X119467Y90835D01*
X119442Y90752D01*
X119431Y90665D01*
X119436Y90578D01*
X119455Y90494D01*
X119490Y90413D01*
X119537Y90340D01*
X119596Y90276D01*
X119666Y90224D01*
X120067Y89999D01*
X120486Y89812D01*
X120922Y89665D01*
X121369Y89559D01*
X121824Y89495D01*
X122283Y89473D01*
X122741Y89495D01*
X123196Y89559D01*
X123643Y89665D01*
X124079Y89812D01*
X124498Y89999D01*
X124899Y90224D01*
X124969Y90276D01*
X125000Y90310D01*
Y70226D01*
X124928Y70298D01*
X124500Y70598D01*
X124026Y70819D01*
X123521Y70954D01*
X123000Y71000D01*
X122479Y70954D01*
X122233Y70888D01*
X118183Y74938D01*
Y91692D01*
X118212Y91665D01*
X118285Y91618D01*
X118366Y91583D01*
X118450Y91564D01*
X118537Y91559D01*
X118624Y91570D01*
X118707Y91595D01*
X118785Y91635D01*
X118855Y91687D01*
X118914Y91751D01*
X118961Y91824D01*
X118996Y91905D01*
X119015Y91989D01*
X119020Y92076D01*
X119009Y92163D01*
X118984Y92246D01*
X118944Y92324D01*
X118764Y92644D01*
X118615Y92978D01*
X118498Y93325D01*
X118414Y93682D01*
X118363Y94045D01*
X118346Y94411D01*
X118363Y94776D01*
X118414Y95139D01*
X118498Y95496D01*
X118615Y95843D01*
X118764Y96177D01*
X118944Y96497D01*
X118984Y96575D01*
X119009Y96658D01*
X119020Y96745D01*
X119015Y96832D01*
X118996Y96916D01*
X118961Y96997D01*
X118914Y97070D01*
X118855Y97134D01*
X118785Y97186D01*
X118707Y97226D01*
X118624Y97251D01*
X118537Y97262D01*
X118450Y97257D01*
X118366Y97238D01*
X118285Y97203D01*
X118212Y97156D01*
X118183Y97129D01*
Y117282D01*
X118212Y117255D01*
X118285Y117208D01*
X118366Y117173D01*
X118450Y117154D01*
X118537Y117149D01*
X118624Y117160D01*
X118707Y117185D01*
X118785Y117225D01*
X118855Y117277D01*
X118914Y117341D01*
X118961Y117414D01*
X118996Y117495D01*
X119015Y117579D01*
X119020Y117666D01*
X119009Y117753D01*
X118984Y117836D01*
X118944Y117914D01*
X118764Y118234D01*
X118615Y118568D01*
X118498Y118915D01*
X118414Y119272D01*
X118363Y119635D01*
X118346Y120001D01*
X118363Y120366D01*
X118414Y120729D01*
X118498Y121086D01*
X118615Y121433D01*
X118764Y121767D01*
X118944Y122087D01*
X118984Y122165D01*
X119009Y122248D01*
X119020Y122335D01*
X119015Y122422D01*
X118996Y122506D01*
X118961Y122587D01*
X118914Y122660D01*
X118855Y122724D01*
X118785Y122776D01*
X118707Y122816D01*
X118624Y122841D01*
X118537Y122852D01*
X118450Y122847D01*
X118366Y122828D01*
X118285Y122793D01*
X118212Y122746D01*
X118183Y122719D01*
Y146843D01*
X118447Y147107D01*
X118897Y147750D01*
X119229Y148461D01*
X119432Y149219D01*
X119500Y150000D01*
X119432Y150781D01*
X119229Y151539D01*
X118897Y152250D01*
X118447Y152893D01*
X118183Y153157D01*
Y168254D01*
G37*
G36*
Y74938D02*X117500Y75621D01*
Y89000D01*
X117494Y89068D01*
Y89131D01*
X117483Y89194D01*
X117477Y89260D01*
X117459Y89329D01*
X117448Y89389D01*
X117429Y89441D01*
X117410Y89513D01*
X117379Y89580D01*
X117359Y89634D01*
X117329Y89686D01*
X117299Y89750D01*
X117260Y89806D01*
X117228Y89861D01*
X117187Y89909D01*
X117149Y89964D01*
X117102Y90011D01*
X117060Y90061D01*
X115000Y92121D01*
Y111174D01*
X115026Y111181D01*
X115500Y111402D01*
X115928Y111702D01*
X116298Y112072D01*
X116598Y112500D01*
X116819Y112974D01*
X116954Y113479D01*
X117000Y114000D01*
X116954Y114521D01*
X116819Y115026D01*
X116598Y115500D01*
X116298Y115928D01*
X115928Y116298D01*
X115500Y116598D01*
X115026Y116819D01*
X115000Y116826D01*
Y145500D01*
X115781Y145568D01*
X116539Y145771D01*
X117250Y146103D01*
X117893Y146553D01*
X118183Y146843D01*
Y122719D01*
X118148Y122687D01*
X118096Y122617D01*
X117871Y122216D01*
X117684Y121797D01*
X117537Y121361D01*
X117431Y120914D01*
X117367Y120459D01*
X117346Y120000D01*
X117367Y119542D01*
X117431Y119087D01*
X117537Y118640D01*
X117684Y118204D01*
X117871Y117785D01*
X118096Y117384D01*
X118148Y117314D01*
X118183Y117282D01*
Y97129D01*
X118148Y97097D01*
X118096Y97027D01*
X117871Y96626D01*
X117684Y96207D01*
X117537Y95771D01*
X117431Y95324D01*
X117367Y94869D01*
X117346Y94410D01*
X117367Y93952D01*
X117431Y93497D01*
X117537Y93050D01*
X117684Y92614D01*
X117871Y92195D01*
X118096Y91794D01*
X118148Y91724D01*
X118183Y91692D01*
Y74938D01*
G37*
G36*
X115000Y168774D02*X115072Y168702D01*
X115500Y168402D01*
X115974Y168181D01*
X116479Y168046D01*
X117000Y168000D01*
X117521Y168046D01*
X118026Y168181D01*
X118183Y168254D01*
Y153157D01*
X117893Y153447D01*
X117250Y153897D01*
X116539Y154229D01*
X115781Y154432D01*
X115000Y154500D01*
Y168774D01*
G37*
G36*
Y210000D02*X125000D01*
Y204750D01*
X124175Y204678D01*
X123375Y204464D01*
X122625Y204114D01*
X121947Y203639D01*
X121361Y203053D01*
X120886Y202375D01*
X120536Y201625D01*
X120322Y200825D01*
X120250Y200000D01*
X120322Y199175D01*
X120536Y198375D01*
X120886Y197625D01*
X121361Y196947D01*
X121947Y196361D01*
X122625Y195886D01*
X123375Y195536D01*
X124175Y195322D01*
X125000Y195250D01*
Y184500D01*
X124219Y184432D01*
X123461Y184229D01*
X122750Y183897D01*
X122107Y183447D01*
X121553Y182893D01*
X121103Y182250D01*
X120771Y181539D01*
X120568Y180781D01*
X120500Y180000D01*
X120568Y179219D01*
X120771Y178461D01*
X121103Y177750D01*
X121319Y177441D01*
X117766Y173888D01*
X117521Y173954D01*
X117000Y174000D01*
X116479Y173954D01*
X115974Y173819D01*
X115500Y173598D01*
X115072Y173298D01*
X115000Y173226D01*
Y175500D01*
X115781Y175568D01*
X116539Y175771D01*
X117250Y176103D01*
X117893Y176553D01*
X118447Y177107D01*
X118897Y177750D01*
X119229Y178461D01*
X119432Y179219D01*
X119500Y180000D01*
X119432Y180781D01*
X119229Y181539D01*
X118897Y182250D01*
X118447Y182893D01*
X117893Y183447D01*
X117250Y183897D01*
X116539Y184229D01*
X115781Y184432D01*
X115000Y184500D01*
Y195250D01*
X115825Y195322D01*
X116625Y195536D01*
X117375Y195886D01*
X118053Y196361D01*
X118639Y196947D01*
X119114Y197625D01*
X119464Y198375D01*
X119678Y199175D01*
X119750Y200000D01*
X119678Y200825D01*
X119464Y201625D01*
X119114Y202375D01*
X118639Y203053D01*
X118053Y203639D01*
X117375Y204114D01*
X116625Y204464D01*
X115825Y204678D01*
X115000Y204750D01*
Y210000D01*
G37*
G36*
Y92121D02*X112500Y94621D01*
Y110380D01*
X113232Y111112D01*
X113479Y111046D01*
X114000Y111000D01*
X114521Y111046D01*
X115000Y111174D01*
Y92121D01*
G37*
G36*
X106250Y138826D02*X106402Y138500D01*
X106702Y138072D01*
X107072Y137702D01*
X107500Y137402D01*
Y93000D01*
X107506Y92932D01*
Y92870D01*
X107517Y92807D01*
X107523Y92740D01*
X107540Y92675D01*
X107551Y92613D01*
X107572Y92556D01*
Y92555D01*
X107590Y92487D01*
X107619Y92424D01*
X107640Y92367D01*
X107672Y92311D01*
X107701Y92250D01*
X107738Y92197D01*
X107771Y92140D01*
X107813Y92090D01*
X107851Y92036D01*
X107897Y91990D01*
X107939Y91940D01*
X112500Y87379D01*
Y71000D01*
X112506Y70932D01*
Y70870D01*
X112517Y70807D01*
X112523Y70740D01*
X112540Y70676D01*
X112551Y70613D01*
X112572Y70555D01*
X112590Y70487D01*
X112619Y70425D01*
X112640Y70367D01*
X112673Y70310D01*
X112701Y70250D01*
X112738Y70197D01*
X112771Y70140D01*
X112814Y70089D01*
X112851Y70036D01*
X112897Y69990D01*
X112939Y69940D01*
X115000Y67879D01*
Y64500D01*
X114219Y64432D01*
X113461Y64229D01*
X112750Y63897D01*
X112107Y63447D01*
X111553Y62893D01*
X111103Y62250D01*
X110771Y61539D01*
X110568Y60781D01*
X110500Y60000D01*
X110568Y59219D01*
X110771Y58461D01*
X111103Y57750D01*
X111553Y57107D01*
X112107Y56553D01*
X112750Y56103D01*
X113461Y55771D01*
X114219Y55568D01*
X115000Y55500D01*
Y34500D01*
X114219Y34432D01*
X113461Y34229D01*
X112750Y33897D01*
X112107Y33447D01*
X111553Y32893D01*
X111103Y32250D01*
X110771Y31539D01*
X110568Y30781D01*
X110500Y30000D01*
X110568Y29219D01*
X110771Y28461D01*
X111103Y27750D01*
X111553Y27107D01*
X112107Y26553D01*
X112750Y26103D01*
X113461Y25771D01*
X114219Y25568D01*
X115000Y25500D01*
Y14750D01*
X114175Y14678D01*
X113375Y14464D01*
X112625Y14114D01*
X111947Y13639D01*
X111361Y13053D01*
X110886Y12375D01*
X110536Y11625D01*
X110322Y10825D01*
X110250Y10000D01*
X110322Y9175D01*
X110536Y8375D01*
X110886Y7625D01*
X111361Y6947D01*
X111947Y6361D01*
X112625Y5886D01*
X113375Y5536D01*
X114175Y5322D01*
X115000Y5250D01*
Y0D01*
X106250D01*
Y25500D01*
X108000D01*
X108260Y25523D01*
X108513Y25590D01*
X108750Y25701D01*
X108964Y25851D01*
X109149Y26036D01*
X109299Y26250D01*
X109410Y26487D01*
X109477Y26740D01*
X109500Y27000D01*
Y33000D01*
X109477Y33260D01*
X109410Y33513D01*
X109299Y33750D01*
X109149Y33964D01*
X108964Y34149D01*
X108750Y34299D01*
X108513Y34410D01*
X108260Y34477D01*
X108000Y34500D01*
X106500D01*
Y36000D01*
X106494Y36068D01*
Y36131D01*
X106483Y36193D01*
X106477Y36260D01*
X106459Y36329D01*
X106448Y36389D01*
X106429Y36441D01*
X106410Y36513D01*
X106378Y36580D01*
X106359Y36634D01*
X106329Y36686D01*
X106299Y36750D01*
X106259Y36806D01*
X106250Y36822D01*
Y55694D01*
X106539Y55771D01*
X107250Y56103D01*
X107893Y56553D01*
X108447Y57107D01*
X108897Y57750D01*
X109229Y58461D01*
X109432Y59219D01*
X109500Y60000D01*
X109432Y60781D01*
X109229Y61539D01*
X108897Y62250D01*
X108447Y62893D01*
X107893Y63447D01*
X107250Y63897D01*
X106539Y64229D01*
X106500Y64239D01*
Y66380D01*
X108232Y68112D01*
X108479Y68046D01*
X109000Y68000D01*
X109521Y68046D01*
X110026Y68181D01*
X110500Y68402D01*
X110928Y68702D01*
X111298Y69072D01*
X111598Y69500D01*
X111819Y69974D01*
X111954Y70479D01*
X112000Y71000D01*
X111954Y71521D01*
X111819Y72026D01*
X111598Y72500D01*
X111298Y72928D01*
X110928Y73298D01*
X110500Y73598D01*
X110026Y73819D01*
X109521Y73954D01*
X109000Y74000D01*
X108479Y73954D01*
X107974Y73819D01*
X107500Y73598D01*
X107072Y73298D01*
X106702Y72928D01*
X106402Y72500D01*
X106250Y72174D01*
Y74130D01*
X110060Y77940D01*
X110061Y77939D01*
X110108Y77995D01*
X110149Y78036D01*
X110182Y78083D01*
X110229Y78139D01*
X110266Y78203D01*
X110299Y78250D01*
X110325Y78305D01*
X110360Y78366D01*
X110382Y78428D01*
X110410Y78487D01*
X110427Y78551D01*
X110449Y78612D01*
X110461Y78681D01*
X110477Y78740D01*
X110482Y78796D01*
X110495Y78869D01*
Y78943D01*
X110500Y79000D01*
Y82402D01*
X110928Y82702D01*
X111298Y83072D01*
X111598Y83500D01*
X111819Y83974D01*
X111954Y84479D01*
X112000Y85000D01*
X111954Y85521D01*
X111819Y86026D01*
X111598Y86500D01*
X111298Y86928D01*
X110928Y87298D01*
X110500Y87598D01*
X110026Y87819D01*
X109521Y87954D01*
X109000Y88000D01*
X108479Y87954D01*
X107974Y87819D01*
X107500Y87598D01*
X107072Y87298D01*
X106702Y86928D01*
X106402Y86500D01*
X106250Y86174D01*
Y138826D01*
G37*
G36*
X115000Y173226D02*X114702Y172928D01*
X114402Y172500D01*
X114181Y172026D01*
X114046Y171521D01*
X114000Y171000D01*
X114046Y170479D01*
X114181Y169974D01*
X114402Y169500D01*
X114702Y169072D01*
X115000Y168774D01*
Y154500D01*
X114219Y154432D01*
X113461Y154229D01*
X112750Y153897D01*
X112107Y153447D01*
X111553Y152893D01*
X111103Y152250D01*
X110771Y151539D01*
X110568Y150781D01*
X110500Y150000D01*
X110568Y149219D01*
X110771Y148461D01*
X111103Y147750D01*
X111553Y147107D01*
X112107Y146553D01*
X112750Y146103D01*
X113461Y145771D01*
X114219Y145568D01*
X115000Y145500D01*
Y116826D01*
X114521Y116954D01*
X114000Y117000D01*
X113479Y116954D01*
X112974Y116819D01*
X112500Y116598D01*
X112072Y116298D01*
X111702Y115928D01*
X111402Y115500D01*
X111181Y115026D01*
X111046Y114521D01*
X111000Y114000D01*
X111046Y113479D01*
X111112Y113234D01*
X110500Y112622D01*
Y137402D01*
X110928Y137702D01*
X111298Y138072D01*
X111598Y138500D01*
X111819Y138974D01*
X111954Y139479D01*
X112000Y140000D01*
X111954Y140521D01*
X111819Y141026D01*
X111598Y141500D01*
X111298Y141928D01*
X110928Y142298D01*
X110500Y142598D01*
X110026Y142819D01*
X109521Y142954D01*
X109000Y143000D01*
X108479Y142954D01*
X107974Y142819D01*
X107500Y142598D01*
X107072Y142298D01*
X106702Y141928D01*
X106402Y141500D01*
X106250Y141174D01*
Y145500D01*
X108000D01*
X108260Y145523D01*
X108513Y145590D01*
X108750Y145701D01*
X108964Y145851D01*
X109149Y146036D01*
X109299Y146250D01*
X109410Y146487D01*
X109477Y146740D01*
X109500Y147000D01*
Y153000D01*
X109477Y153260D01*
X109410Y153513D01*
X109299Y153750D01*
X109149Y153964D01*
X108964Y154149D01*
X108750Y154299D01*
X108513Y154410D01*
X108260Y154477D01*
X108000Y154500D01*
X106250D01*
Y175694D01*
X106539Y175771D01*
X107250Y176103D01*
X107893Y176553D01*
X108447Y177107D01*
X108897Y177750D01*
X109229Y178461D01*
X109432Y179219D01*
X109500Y180000D01*
X109432Y180781D01*
X109229Y181539D01*
X108897Y182250D01*
X108447Y182893D01*
X107893Y183447D01*
X107250Y183897D01*
X106539Y184229D01*
X106250Y184306D01*
Y189130D01*
X112885Y195765D01*
X113375Y195536D01*
X114175Y195322D01*
X115000Y195250D01*
Y184500D01*
X114219Y184432D01*
X113461Y184229D01*
X112750Y183897D01*
X112107Y183447D01*
X111553Y182893D01*
X111103Y182250D01*
X110771Y181539D01*
X110568Y180781D01*
X110500Y180000D01*
X110568Y179219D01*
X110771Y178461D01*
X111103Y177750D01*
X111553Y177107D01*
X112107Y176553D01*
X112750Y176103D01*
X113461Y175771D01*
X114219Y175568D01*
X115000Y175500D01*
Y173226D01*
G37*
G36*
X106250Y184306D02*X105781Y184432D01*
X105000Y184500D01*
X104219Y184432D01*
X103461Y184229D01*
X102750Y183897D01*
X102107Y183447D01*
X101553Y182893D01*
X101103Y182250D01*
X100771Y181539D01*
X100568Y180781D01*
X100500Y180000D01*
X100521Y179765D01*
X98500Y177744D01*
Y181380D01*
X106250Y189130D01*
Y184306D01*
G37*
G36*
Y154500D02*X102000D01*
X101740Y154477D01*
X101487Y154410D01*
X101250Y154299D01*
X101036Y154149D01*
X101000Y154113D01*
Y171758D01*
X104763Y175521D01*
X105000Y175500D01*
X105781Y175568D01*
X106250Y175694D01*
Y154500D01*
G37*
G36*
Y36822D02*X106228Y36861D01*
X106187Y36910D01*
X106149Y36964D01*
X106102Y37011D01*
X106060Y37061D01*
X98500Y44621D01*
Y66380D01*
X106250Y74130D01*
Y72174D01*
X106181Y72026D01*
X106046Y71521D01*
X106000Y71000D01*
X106046Y70479D01*
X106112Y70234D01*
X103939Y68061D01*
X103940Y68060D01*
X103903Y68016D01*
X103851Y67964D01*
X103809Y67904D01*
X103772Y67860D01*
X103743Y67810D01*
X103701Y67750D01*
X103671Y67686D01*
X103641Y67634D01*
X103622Y67581D01*
X103590Y67513D01*
X103570Y67437D01*
X103552Y67388D01*
X103542Y67333D01*
X103523Y67260D01*
X103516Y67185D01*
X103507Y67131D01*
Y67079D01*
X103500Y67000D01*
Y64239D01*
X103461Y64229D01*
X102750Y63897D01*
X102107Y63447D01*
X101553Y62893D01*
X101103Y62250D01*
X100771Y61539D01*
X100568Y60781D01*
X100500Y60000D01*
X100568Y59219D01*
X100771Y58461D01*
X101103Y57750D01*
X101553Y57107D01*
X102107Y56553D01*
X102750Y56103D01*
X103461Y55771D01*
X104219Y55568D01*
X105000Y55500D01*
X105781Y55568D01*
X106250Y55694D01*
Y36822D01*
G37*
G36*
Y0D02*X98500D01*
Y6808D01*
X98639Y6947D01*
X99114Y7625D01*
X99464Y8375D01*
X99678Y9175D01*
X99750Y10000D01*
X99678Y10825D01*
X99464Y11625D01*
X99114Y12375D01*
X98639Y13053D01*
X98500Y13192D01*
Y40379D01*
X103500Y35379D01*
Y34500D01*
X102000D01*
X101740Y34477D01*
X101487Y34410D01*
X101250Y34299D01*
X101036Y34149D01*
X100851Y33964D01*
X100701Y33750D01*
X100590Y33513D01*
X100523Y33260D01*
X100500Y33000D01*
Y27000D01*
X100523Y26740D01*
X100590Y26487D01*
X100701Y26250D01*
X100851Y26036D01*
X101036Y25851D01*
X101250Y25701D01*
X101487Y25590D01*
X101740Y25523D01*
X102000Y25500D01*
X106250D01*
Y0D01*
G37*
G36*
Y141174D02*X106181Y141026D01*
X106046Y140521D01*
X106000Y140000D01*
X106046Y139479D01*
X106181Y138974D01*
X106250Y138826D01*
Y86174D01*
X106181Y86026D01*
X106046Y85521D01*
X106000Y85000D01*
Y139000D01*
X105989Y139125D01*
Y139262D01*
X105965Y139399D01*
X105954Y139521D01*
X105923Y139639D01*
X105898Y139777D01*
X105852Y139902D01*
X105851Y139906D01*
X105819Y140026D01*
X105765Y140142D01*
X105719Y140269D01*
X105652Y140383D01*
Y140384D01*
X105598Y140500D01*
X105521Y140610D01*
X105457Y140721D01*
X105372Y140823D01*
X105298Y140928D01*
X105210Y141016D01*
X105121Y141122D01*
X101000Y145243D01*
Y145887D01*
X101036Y145851D01*
X101250Y145701D01*
X101487Y145590D01*
X101740Y145523D01*
X102000Y145500D01*
X106250D01*
Y141174D01*
G37*
G36*
X105000Y210000D02*X115000D01*
Y204750D01*
X114175Y204678D01*
X113375Y204464D01*
X112625Y204114D01*
X111947Y203639D01*
X111361Y203053D01*
X110886Y202375D01*
X110536Y201625D01*
X110322Y200825D01*
X110250Y200000D01*
X110322Y199175D01*
X110536Y198375D01*
X110764Y197886D01*
X105000Y192122D01*
Y195250D01*
X105825Y195322D01*
X106625Y195536D01*
X107375Y195886D01*
X108053Y196361D01*
X108639Y196947D01*
X109114Y197625D01*
X109464Y198375D01*
X109678Y199175D01*
X109750Y200000D01*
X109678Y200825D01*
X109464Y201625D01*
X109114Y202375D01*
X108639Y203053D01*
X108053Y203639D01*
X107375Y204114D01*
X106625Y204464D01*
X105825Y204678D01*
X105000Y204750D01*
Y210000D01*
G37*
G36*
X98500D02*X105000D01*
Y204750D01*
X104175Y204678D01*
X103375Y204464D01*
X102625Y204114D01*
X101947Y203639D01*
X101361Y203053D01*
X100886Y202375D01*
X100536Y201625D01*
X100322Y200825D01*
X100250Y200000D01*
X100322Y199175D01*
X100536Y198375D01*
X100886Y197625D01*
X101361Y196947D01*
X101947Y196361D01*
X102625Y195886D01*
X103375Y195536D01*
X104175Y195322D01*
X105000Y195250D01*
Y192122D01*
X98500Y185622D01*
Y196808D01*
X98639Y196947D01*
X99114Y197625D01*
X99464Y198375D01*
X99678Y199175D01*
X99750Y200000D01*
X99678Y200825D01*
X99464Y201625D01*
X99114Y202375D01*
X98639Y203053D01*
X98500Y203192D01*
Y210000D01*
G37*
G36*
Y44621D02*X95500Y47621D01*
Y63380D01*
X98500Y66380D01*
Y44621D01*
G37*
G36*
Y13192D02*X98053Y13639D01*
X98000Y13676D01*
Y39000D01*
X97989Y39125D01*
Y39262D01*
X97965Y39399D01*
X97954Y39521D01*
X97923Y39639D01*
X97898Y39777D01*
X97851Y39906D01*
X97819Y40026D01*
X97766Y40139D01*
X97719Y40269D01*
X97651Y40386D01*
X97598Y40500D01*
X97522Y40608D01*
X97457Y40721D01*
X97372Y40823D01*
X97298Y40928D01*
X97210Y41016D01*
X97121Y41122D01*
X92977Y45266D01*
X92939Y45695D01*
X92846Y46043D01*
X92851Y46036D01*
X92897Y45990D01*
X92939Y45940D01*
X98500Y40379D01*
Y13192D01*
G37*
G36*
X12000Y79879D02*X13500Y78379D01*
Y75622D01*
X12000Y74122D01*
Y74774D01*
X12298Y75072D01*
X12598Y75500D01*
X12819Y75974D01*
X12954Y76479D01*
X13000Y77000D01*
X12954Y77521D01*
X12819Y78026D01*
X12598Y78500D01*
X12298Y78928D01*
X12000Y79226D01*
Y79879D01*
G37*
G36*
X88927Y40830D02*X92000Y37757D01*
Y13676D01*
X91947Y13639D01*
X91361Y13053D01*
X90886Y12375D01*
X90536Y11625D01*
X90322Y10825D01*
X90250Y10000D01*
X90322Y9175D01*
X90536Y8375D01*
X90886Y7625D01*
X91361Y6947D01*
X91947Y6361D01*
X92625Y5886D01*
X93375Y5536D01*
X94175Y5322D01*
X95000Y5250D01*
X95825Y5322D01*
X96625Y5536D01*
X97375Y5886D01*
X98053Y6361D01*
X98500Y6808D01*
Y0D01*
X88927D01*
Y7403D01*
X88957Y7423D01*
X89020Y7483D01*
X89071Y7554D01*
X89278Y7937D01*
X89449Y8337D01*
X89582Y8751D01*
X89677Y9176D01*
X89733Y9607D01*
X89749Y10042D01*
X89726Y10476D01*
X89662Y10907D01*
X89560Y11330D01*
X89419Y11741D01*
X89241Y12138D01*
X89028Y12518D01*
X88976Y12588D01*
X88927Y12633D01*
Y40830D01*
G37*
G36*
X87591Y41260D02*X87632Y41241D01*
X88305Y41061D01*
X88734Y41023D01*
X88927Y40830D01*
Y12633D01*
X88912Y12647D01*
X88839Y12694D01*
X88758Y12729D01*
X88674Y12748D01*
X88587Y12753D01*
X88500Y12742D01*
X88417Y12717D01*
X88339Y12677D01*
X88269Y12625D01*
X88210Y12561D01*
X88163Y12488D01*
X88128Y12407D01*
X88109Y12323D01*
X88104Y12236D01*
X88115Y12149D01*
X88140Y12066D01*
X88180Y11988D01*
X88348Y11688D01*
X88489Y11375D01*
X88600Y11050D01*
X88681Y10716D01*
X88731Y10376D01*
X88749Y10033D01*
X88737Y9690D01*
X88693Y9349D01*
X88617Y9014D01*
X88512Y8687D01*
X88377Y8371D01*
X88214Y8069D01*
X88213Y8070D01*
X88175Y7992D01*
X88151Y7908D01*
X88141Y7821D01*
X88148Y7734D01*
X88169Y7649D01*
X88204Y7569D01*
X88253Y7497D01*
X88313Y7434D01*
X88384Y7383D01*
X88462Y7345D01*
X88546Y7321D01*
X88633Y7311D01*
X88720Y7318D01*
X88805Y7339D01*
X88885Y7374D01*
X88927Y7403D01*
Y0D01*
X87591D01*
Y6028D01*
X87646Y6088D01*
X87693Y6161D01*
X87728Y6242D01*
X87747Y6326D01*
X87752Y6413D01*
X87741Y6500D01*
X87716Y6583D01*
X87676Y6661D01*
X87624Y6731D01*
X87591Y6761D01*
Y13349D01*
X87617Y13385D01*
X87655Y13463D01*
X87679Y13547D01*
X87689Y13634D01*
X87682Y13721D01*
X87661Y13806D01*
X87626Y13886D01*
X87591Y13937D01*
Y41260D01*
G37*
G36*
X92409Y176466D02*X92500Y176402D01*
X92974Y176181D01*
X93479Y176046D01*
X94000Y176000D01*
X94521Y176046D01*
X95026Y176181D01*
X95500Y176402D01*
X95928Y176702D01*
X96298Y177072D01*
X96598Y177500D01*
X96819Y177974D01*
X96954Y178479D01*
X97000Y179000D01*
X96954Y179521D01*
X96888Y179768D01*
X98500Y181380D01*
Y177744D01*
X95878Y175122D01*
X95879Y175121D01*
X95797Y175023D01*
X95702Y174928D01*
X95624Y174816D01*
X95543Y174720D01*
X95480Y174611D01*
X95402Y174500D01*
X95347Y174381D01*
X95281Y174268D01*
X95236Y174145D01*
X95181Y174026D01*
X95146Y173894D01*
X95103Y173776D01*
X95081Y173651D01*
X95046Y173521D01*
X95034Y173386D01*
X95012Y173261D01*
Y173136D01*
X95000Y173000D01*
Y144000D01*
X95011Y143875D01*
Y143739D01*
X95035Y143602D01*
X95046Y143479D01*
X95078Y143358D01*
X95102Y143224D01*
X95147Y143102D01*
X95181Y142974D01*
X95237Y142855D01*
X95281Y142733D01*
X95347Y142618D01*
X95402Y142500D01*
X95476Y142394D01*
X95542Y142280D01*
X95628Y142177D01*
X95702Y142072D01*
X95790Y141984D01*
X95878Y141879D01*
X98500Y139257D01*
Y79744D01*
X92409Y73653D01*
Y83574D01*
X92472Y83588D01*
X92552Y83622D01*
X92625Y83670D01*
X92689Y83730D01*
X92741Y83799D01*
X92781Y83877D01*
X92876Y84148D01*
X92944Y84428D01*
X92986Y84713D01*
X93000Y85000D01*
X92986Y85288D01*
X92944Y85573D01*
X92876Y85853D01*
X92781Y86124D01*
X92780D01*
X92740Y86202D01*
X92688Y86271D01*
X92624Y86330D01*
X92551Y86378D01*
X92471Y86412D01*
X92409Y86426D01*
Y103574D01*
X92472Y103588D01*
X92552Y103622D01*
X92625Y103670D01*
X92689Y103730D01*
X92741Y103799D01*
X92781Y103877D01*
X92876Y104148D01*
X92944Y104428D01*
X92986Y104713D01*
X93000Y105000D01*
X92986Y105288D01*
X92944Y105573D01*
X92876Y105853D01*
X92781Y106124D01*
X92780D01*
X92740Y106202D01*
X92688Y106271D01*
X92624Y106330D01*
X92551Y106378D01*
X92471Y106412D01*
X92409Y106426D01*
Y123574D01*
X92472Y123588D01*
X92552Y123622D01*
X92625Y123670D01*
X92689Y123730D01*
X92741Y123799D01*
X92781Y123877D01*
X92876Y124148D01*
X92944Y124428D01*
X92986Y124713D01*
X93000Y125000D01*
X92986Y125288D01*
X92944Y125573D01*
X92876Y125853D01*
X92781Y126124D01*
X92780D01*
X92740Y126202D01*
X92688Y126271D01*
X92624Y126330D01*
X92551Y126378D01*
X92471Y126412D01*
X92409Y126426D01*
Y143574D01*
X92472Y143588D01*
X92552Y143622D01*
X92625Y143670D01*
X92689Y143730D01*
X92741Y143799D01*
X92781Y143877D01*
X92876Y144148D01*
X92944Y144428D01*
X92986Y144713D01*
X93000Y145000D01*
X92986Y145288D01*
X92944Y145573D01*
X92876Y145853D01*
X92781Y146124D01*
X92780D01*
X92740Y146202D01*
X92688Y146271D01*
X92624Y146330D01*
X92551Y146378D01*
X92471Y146412D01*
X92409Y146426D01*
Y163574D01*
X92472Y163588D01*
X92552Y163622D01*
X92625Y163670D01*
X92689Y163730D01*
X92741Y163799D01*
X92781Y163877D01*
X92876Y164148D01*
X92944Y164428D01*
X92986Y164713D01*
X93000Y165000D01*
X92986Y165288D01*
X92944Y165573D01*
X92876Y165853D01*
X92781Y166124D01*
X92780D01*
X92740Y166202D01*
X92688Y166271D01*
X92624Y166330D01*
X92551Y166378D01*
X92471Y166412D01*
X92409Y166426D01*
Y176466D01*
G37*
G36*
Y196037D02*X92625Y195886D01*
X93375Y195536D01*
X94175Y195322D01*
X95000Y195250D01*
X95825Y195322D01*
X96625Y195536D01*
X97375Y195886D01*
X98053Y196361D01*
X98500Y196808D01*
Y185622D01*
X94766Y181888D01*
X94521Y181954D01*
X94000Y182000D01*
X93479Y181954D01*
X92974Y181819D01*
X92500Y181598D01*
X92409Y181534D01*
Y183574D01*
X92472Y183588D01*
X92552Y183622D01*
X92625Y183670D01*
X92689Y183730D01*
X92741Y183799D01*
X92781Y183877D01*
X92876Y184148D01*
X92944Y184428D01*
X92986Y184713D01*
X93000Y185000D01*
X92986Y185288D01*
X92944Y185573D01*
X92876Y185853D01*
X92781Y186124D01*
X92780D01*
X92740Y186202D01*
X92688Y186271D01*
X92624Y186330D01*
X92551Y186378D01*
X92471Y186412D01*
X92409Y186426D01*
Y196037D01*
G37*
G36*
Y210000D02*X98500D01*
Y203192D01*
X98053Y203639D01*
X97375Y204114D01*
X96625Y204464D01*
X95825Y204678D01*
X95000Y204750D01*
X94175Y204678D01*
X93375Y204464D01*
X92625Y204114D01*
X92409Y203963D01*
Y210000D01*
G37*
G36*
X90000D02*X92409D01*
Y203963D01*
X91947Y203639D01*
X91361Y203053D01*
X90886Y202375D01*
X90536Y201625D01*
X90322Y200825D01*
X90250Y200000D01*
X90322Y199175D01*
X90536Y198375D01*
X90886Y197625D01*
X91361Y196947D01*
X91947Y196361D01*
X92409Y196037D01*
Y186426D01*
X92387Y186431D01*
X92300Y186436D01*
X92213Y186425D01*
X92130Y186400D01*
X92052Y186360D01*
X91983Y186308D01*
X91924Y186244D01*
X91876Y186171D01*
X91842Y186091D01*
X91823Y186007D01*
X91818Y185920D01*
X91829Y185833D01*
X91854Y185750D01*
X91917Y185569D01*
X91963Y185382D01*
X91990Y185192D01*
X92000Y185000D01*
X91990Y184809D01*
X91963Y184619D01*
X91917Y184432D01*
X91854Y184251D01*
X91853D01*
X91828Y184168D01*
X91817Y184081D01*
X91822Y183994D01*
X91841Y183909D01*
X91875Y183829D01*
X91923Y183756D01*
X91983Y183692D01*
X92052Y183640D01*
X92130Y183600D01*
X92213Y183575D01*
X92300Y183564D01*
X92387Y183569D01*
X92409Y183574D01*
Y181534D01*
X92072Y181298D01*
X91702Y180928D01*
X91402Y180500D01*
X91181Y180026D01*
X91046Y179521D01*
X91000Y179000D01*
X91046Y178479D01*
X91181Y177974D01*
X91402Y177500D01*
X91702Y177072D01*
X92072Y176702D01*
X92409Y176466D01*
Y166426D01*
X92387Y166431D01*
X92300Y166436D01*
X92213Y166425D01*
X92130Y166400D01*
X92052Y166360D01*
X91983Y166308D01*
X91924Y166244D01*
X91876Y166171D01*
X91842Y166091D01*
X91823Y166007D01*
X91818Y165920D01*
X91829Y165833D01*
X91854Y165750D01*
X91917Y165569D01*
X91963Y165382D01*
X91990Y165192D01*
X92000Y165000D01*
X91990Y164809D01*
X91963Y164619D01*
X91917Y164432D01*
X91854Y164251D01*
X91853D01*
X91828Y164168D01*
X91817Y164081D01*
X91822Y163994D01*
X91841Y163909D01*
X91875Y163829D01*
X91923Y163756D01*
X91983Y163692D01*
X92052Y163640D01*
X92130Y163600D01*
X92213Y163575D01*
X92300Y163564D01*
X92387Y163569D01*
X92409Y163574D01*
Y146426D01*
X92387Y146431D01*
X92300Y146436D01*
X92213Y146425D01*
X92130Y146400D01*
X92052Y146360D01*
X91983Y146308D01*
X91924Y146244D01*
X91876Y146171D01*
X91842Y146091D01*
X91823Y146007D01*
X91818Y145920D01*
X91829Y145833D01*
X91854Y145750D01*
X91917Y145569D01*
X91963Y145382D01*
X91990Y145192D01*
X92000Y145000D01*
X91990Y144809D01*
X91963Y144619D01*
X91917Y144432D01*
X91854Y144251D01*
X91853D01*
X91828Y144168D01*
X91817Y144081D01*
X91822Y143994D01*
X91841Y143909D01*
X91875Y143829D01*
X91923Y143756D01*
X91983Y143692D01*
X92052Y143640D01*
X92130Y143600D01*
X92213Y143575D01*
X92300Y143564D01*
X92387Y143569D01*
X92409Y143574D01*
Y126426D01*
X92387Y126431D01*
X92300Y126436D01*
X92213Y126425D01*
X92130Y126400D01*
X92052Y126360D01*
X91983Y126308D01*
X91924Y126244D01*
X91876Y126171D01*
X91842Y126091D01*
X91823Y126007D01*
X91818Y125920D01*
X91829Y125833D01*
X91854Y125750D01*
X91917Y125569D01*
X91963Y125382D01*
X91990Y125192D01*
X92000Y125000D01*
X91990Y124809D01*
X91963Y124619D01*
X91917Y124432D01*
X91854Y124251D01*
X91853D01*
X91828Y124168D01*
X91817Y124081D01*
X91822Y123994D01*
X91841Y123909D01*
X91875Y123829D01*
X91923Y123756D01*
X91983Y123692D01*
X92052Y123640D01*
X92130Y123600D01*
X92213Y123575D01*
X92300Y123564D01*
X92387Y123569D01*
X92409Y123574D01*
Y106426D01*
X92387Y106431D01*
X92300Y106436D01*
X92213Y106425D01*
X92130Y106400D01*
X92052Y106360D01*
X91983Y106308D01*
X91924Y106244D01*
X91876Y106171D01*
X91842Y106091D01*
X91823Y106007D01*
X91818Y105920D01*
X91829Y105833D01*
X91854Y105750D01*
X91917Y105569D01*
X91963Y105382D01*
X91990Y105192D01*
X92000Y105000D01*
X91990Y104809D01*
X91963Y104619D01*
X91917Y104432D01*
X91854Y104251D01*
X91853D01*
X91828Y104168D01*
X91817Y104081D01*
X91822Y103994D01*
X91841Y103909D01*
X91875Y103829D01*
X91923Y103756D01*
X91983Y103692D01*
X92052Y103640D01*
X92130Y103600D01*
X92213Y103575D01*
X92300Y103564D01*
X92387Y103569D01*
X92409Y103574D01*
Y86426D01*
X92387Y86431D01*
X92300Y86436D01*
X92213Y86425D01*
X92130Y86400D01*
X92052Y86360D01*
X91983Y86308D01*
X91924Y86244D01*
X91876Y86171D01*
X91842Y86091D01*
X91823Y86007D01*
X91818Y85920D01*
X91829Y85833D01*
X91854Y85750D01*
X91917Y85569D01*
X91963Y85382D01*
X91990Y85192D01*
X92000Y85000D01*
X91990Y84809D01*
X91963Y84619D01*
X91917Y84432D01*
X91854Y84251D01*
X91853D01*
X91828Y84168D01*
X91817Y84081D01*
X91822Y83994D01*
X91841Y83909D01*
X91875Y83829D01*
X91923Y83756D01*
X91983Y83692D01*
X92052Y83640D01*
X92130Y83600D01*
X92213Y83575D01*
X92300Y83564D01*
X92387Y83569D01*
X92409Y83574D01*
Y73653D01*
X90000Y71244D01*
Y82000D01*
X90287Y82014D01*
X90572Y82056D01*
X90852Y82124D01*
X91123Y82219D01*
Y82220D01*
X91201Y82260D01*
X91270Y82312D01*
X91329Y82376D01*
X91377Y82449D01*
X91411Y82529D01*
X91430Y82613D01*
X91435Y82700D01*
X91424Y82787D01*
X91399Y82870D01*
X91359Y82948D01*
X91307Y83017D01*
X91243Y83076D01*
X91170Y83124D01*
X91090Y83158D01*
X91006Y83177D01*
X90919Y83182D01*
X90832Y83171D01*
X90749Y83146D01*
X90568Y83083D01*
X90381Y83037D01*
X90191Y83010D01*
X90000Y83000D01*
Y87000D01*
X90191Y86991D01*
X90381Y86964D01*
X90568Y86918D01*
X90749Y86855D01*
Y86854D01*
X90832Y86829D01*
X90919Y86818D01*
X91006Y86823D01*
X91091Y86842D01*
X91171Y86876D01*
X91244Y86924D01*
X91308Y86984D01*
X91360Y87053D01*
X91400Y87131D01*
X91425Y87214D01*
X91436Y87301D01*
X91431Y87388D01*
X91412Y87473D01*
X91378Y87553D01*
X91330Y87626D01*
X91270Y87690D01*
X91201Y87742D01*
X91123Y87782D01*
X90852Y87877D01*
X90572Y87945D01*
X90287Y87987D01*
X90000Y88000D01*
Y102000D01*
X90287Y102014D01*
X90572Y102056D01*
X90852Y102124D01*
X91123Y102219D01*
Y102220D01*
X91201Y102260D01*
X91270Y102312D01*
X91329Y102376D01*
X91377Y102449D01*
X91411Y102529D01*
X91430Y102613D01*
X91435Y102700D01*
X91424Y102787D01*
X91399Y102870D01*
X91359Y102948D01*
X91307Y103017D01*
X91243Y103076D01*
X91170Y103124D01*
X91090Y103158D01*
X91006Y103177D01*
X90919Y103182D01*
X90832Y103171D01*
X90749Y103146D01*
X90568Y103083D01*
X90381Y103037D01*
X90191Y103010D01*
X90000Y103000D01*
Y107000D01*
X90191Y106991D01*
X90381Y106964D01*
X90568Y106918D01*
X90749Y106855D01*
Y106854D01*
X90832Y106829D01*
X90919Y106818D01*
X91006Y106823D01*
X91091Y106842D01*
X91171Y106876D01*
X91244Y106924D01*
X91308Y106984D01*
X91360Y107053D01*
X91400Y107131D01*
X91425Y107214D01*
X91436Y107301D01*
X91431Y107388D01*
X91412Y107473D01*
X91378Y107553D01*
X91330Y107626D01*
X91270Y107690D01*
X91201Y107742D01*
X91123Y107782D01*
X90852Y107877D01*
X90572Y107945D01*
X90287Y107987D01*
X90000Y108000D01*
Y122000D01*
X90287Y122014D01*
X90572Y122056D01*
X90852Y122124D01*
X91123Y122219D01*
Y122220D01*
X91201Y122260D01*
X91270Y122312D01*
X91329Y122376D01*
X91377Y122449D01*
X91411Y122529D01*
X91430Y122613D01*
X91435Y122700D01*
X91424Y122787D01*
X91399Y122870D01*
X91359Y122948D01*
X91307Y123017D01*
X91243Y123076D01*
X91170Y123124D01*
X91090Y123158D01*
X91006Y123177D01*
X90919Y123182D01*
X90832Y123171D01*
X90749Y123146D01*
X90568Y123083D01*
X90381Y123037D01*
X90191Y123010D01*
X90000Y123000D01*
Y127000D01*
X90191Y126991D01*
X90381Y126964D01*
X90568Y126918D01*
X90749Y126855D01*
Y126854D01*
X90832Y126829D01*
X90919Y126818D01*
X91006Y126823D01*
X91091Y126842D01*
X91171Y126876D01*
X91244Y126924D01*
X91308Y126984D01*
X91360Y127053D01*
X91400Y127131D01*
X91425Y127214D01*
X91436Y127301D01*
X91431Y127388D01*
X91412Y127473D01*
X91378Y127553D01*
X91330Y127626D01*
X91270Y127690D01*
X91201Y127742D01*
X91123Y127782D01*
X90852Y127877D01*
X90572Y127945D01*
X90287Y127987D01*
X90000Y128000D01*
Y142000D01*
X90287Y142014D01*
X90572Y142056D01*
X90852Y142124D01*
X91123Y142219D01*
Y142220D01*
X91201Y142260D01*
X91270Y142312D01*
X91329Y142376D01*
X91377Y142449D01*
X91411Y142529D01*
X91430Y142613D01*
X91435Y142700D01*
X91424Y142787D01*
X91399Y142870D01*
X91359Y142948D01*
X91307Y143017D01*
X91243Y143076D01*
X91170Y143124D01*
X91090Y143158D01*
X91006Y143177D01*
X90919Y143182D01*
X90832Y143171D01*
X90749Y143146D01*
X90568Y143083D01*
X90381Y143037D01*
X90191Y143010D01*
X90000Y143000D01*
Y147000D01*
X90191Y146991D01*
X90381Y146964D01*
X90568Y146918D01*
X90749Y146855D01*
Y146854D01*
X90832Y146829D01*
X90919Y146818D01*
X91006Y146823D01*
X91091Y146842D01*
X91171Y146876D01*
X91244Y146924D01*
X91308Y146984D01*
X91360Y147053D01*
X91400Y147131D01*
X91425Y147214D01*
X91436Y147301D01*
X91431Y147388D01*
X91412Y147473D01*
X91378Y147553D01*
X91330Y147626D01*
X91270Y147690D01*
X91201Y147742D01*
X91123Y147782D01*
X90852Y147877D01*
X90572Y147945D01*
X90287Y147987D01*
X90000Y148000D01*
Y162000D01*
X90287Y162014D01*
X90572Y162056D01*
X90852Y162124D01*
X91123Y162219D01*
Y162220D01*
X91201Y162260D01*
X91270Y162312D01*
X91329Y162376D01*
X91377Y162449D01*
X91411Y162529D01*
X91430Y162613D01*
X91435Y162700D01*
X91424Y162787D01*
X91399Y162870D01*
X91359Y162948D01*
X91307Y163017D01*
X91243Y163076D01*
X91170Y163124D01*
X91090Y163158D01*
X91006Y163177D01*
X90919Y163182D01*
X90832Y163171D01*
X90749Y163146D01*
X90568Y163083D01*
X90381Y163037D01*
X90191Y163010D01*
X90000Y163000D01*
Y167000D01*
X90191Y166991D01*
X90381Y166964D01*
X90568Y166918D01*
X90749Y166855D01*
Y166854D01*
X90832Y166829D01*
X90919Y166818D01*
X91006Y166823D01*
X91091Y166842D01*
X91171Y166876D01*
X91244Y166924D01*
X91308Y166984D01*
X91360Y167053D01*
X91400Y167131D01*
X91425Y167214D01*
X91436Y167301D01*
X91431Y167388D01*
X91412Y167473D01*
X91378Y167553D01*
X91330Y167626D01*
X91270Y167690D01*
X91201Y167742D01*
X91123Y167782D01*
X90852Y167877D01*
X90572Y167945D01*
X90287Y167987D01*
X90000Y168000D01*
Y182000D01*
X90287Y182014D01*
X90572Y182056D01*
X90852Y182124D01*
X91123Y182219D01*
Y182220D01*
X91201Y182260D01*
X91270Y182312D01*
X91329Y182376D01*
X91377Y182449D01*
X91411Y182529D01*
X91430Y182613D01*
X91435Y182700D01*
X91424Y182787D01*
X91399Y182870D01*
X91359Y182948D01*
X91307Y183017D01*
X91243Y183076D01*
X91170Y183124D01*
X91090Y183158D01*
X91006Y183177D01*
X90919Y183182D01*
X90832Y183171D01*
X90749Y183146D01*
X90568Y183083D01*
X90381Y183037D01*
X90191Y183010D01*
X90000Y183000D01*
Y187000D01*
X90191Y186991D01*
X90381Y186964D01*
X90568Y186918D01*
X90749Y186855D01*
Y186854D01*
X90832Y186829D01*
X90919Y186818D01*
X91006Y186823D01*
X91091Y186842D01*
X91171Y186876D01*
X91244Y186924D01*
X91308Y186984D01*
X91360Y187053D01*
X91400Y187131D01*
X91425Y187214D01*
X91436Y187301D01*
X91431Y187388D01*
X91412Y187473D01*
X91378Y187553D01*
X91330Y187626D01*
X91270Y187690D01*
X91201Y187742D01*
X91123Y187782D01*
X90852Y187877D01*
X90572Y187945D01*
X90287Y187987D01*
X90000Y188000D01*
Y210000D01*
G37*
G36*
X87591D02*X90000D01*
Y188000D01*
X89712Y187987D01*
X89427Y187945D01*
X89147Y187877D01*
X88876Y187782D01*
Y187781D01*
X88798Y187741D01*
X88729Y187689D01*
X88670Y187625D01*
X88622Y187552D01*
X88588Y187472D01*
X88569Y187388D01*
X88564Y187301D01*
X88575Y187214D01*
X88600Y187131D01*
X88640Y187053D01*
X88692Y186984D01*
X88756Y186925D01*
X88829Y186877D01*
X88909Y186843D01*
X88993Y186824D01*
X89080Y186819D01*
X89167Y186830D01*
X89250Y186855D01*
X89431Y186918D01*
X89618Y186964D01*
X89808Y186991D01*
X90000Y187000D01*
Y183000D01*
X89999D01*
X89808Y183010D01*
X89618Y183037D01*
X89431Y183083D01*
X89250Y183146D01*
Y183147D01*
X89167Y183172D01*
X89080Y183183D01*
X88993Y183178D01*
X88908Y183159D01*
X88828Y183125D01*
X88755Y183077D01*
X88691Y183017D01*
X88639Y182948D01*
X88599Y182870D01*
X88574Y182787D01*
X88563Y182700D01*
X88568Y182613D01*
X88587Y182528D01*
X88621Y182448D01*
X88669Y182375D01*
X88729Y182311D01*
X88798Y182259D01*
X88876Y182219D01*
X89147Y182124D01*
X89427Y182056D01*
X89712Y182014D01*
X89999Y182000D01*
X90000D01*
Y168000D01*
X89712Y167987D01*
X89427Y167945D01*
X89147Y167877D01*
X88876Y167782D01*
Y167781D01*
X88798Y167741D01*
X88729Y167689D01*
X88670Y167625D01*
X88622Y167552D01*
X88588Y167472D01*
X88569Y167388D01*
X88564Y167301D01*
X88575Y167214D01*
X88600Y167131D01*
X88640Y167053D01*
X88692Y166984D01*
X88756Y166925D01*
X88829Y166877D01*
X88909Y166843D01*
X88993Y166824D01*
X89080Y166819D01*
X89167Y166830D01*
X89250Y166855D01*
X89431Y166918D01*
X89618Y166964D01*
X89808Y166991D01*
X90000Y167000D01*
Y163000D01*
X89999D01*
X89808Y163010D01*
X89618Y163037D01*
X89431Y163083D01*
X89250Y163146D01*
Y163147D01*
X89167Y163172D01*
X89080Y163183D01*
X88993Y163178D01*
X88908Y163159D01*
X88828Y163125D01*
X88755Y163077D01*
X88691Y163017D01*
X88639Y162948D01*
X88599Y162870D01*
X88574Y162787D01*
X88563Y162700D01*
X88568Y162613D01*
X88587Y162528D01*
X88621Y162448D01*
X88669Y162375D01*
X88729Y162311D01*
X88798Y162259D01*
X88876Y162219D01*
X89147Y162124D01*
X89427Y162056D01*
X89712Y162014D01*
X89999Y162000D01*
X90000D01*
Y148000D01*
X89712Y147987D01*
X89427Y147945D01*
X89147Y147877D01*
X88876Y147782D01*
Y147781D01*
X88798Y147741D01*
X88729Y147689D01*
X88670Y147625D01*
X88622Y147552D01*
X88588Y147472D01*
X88569Y147388D01*
X88564Y147301D01*
X88575Y147214D01*
X88600Y147131D01*
X88640Y147053D01*
X88692Y146984D01*
X88756Y146925D01*
X88829Y146877D01*
X88909Y146843D01*
X88993Y146824D01*
X89080Y146819D01*
X89167Y146830D01*
X89250Y146855D01*
X89431Y146918D01*
X89618Y146964D01*
X89808Y146991D01*
X90000Y147000D01*
Y143000D01*
X89999D01*
X89808Y143010D01*
X89618Y143037D01*
X89431Y143083D01*
X89250Y143146D01*
Y143147D01*
X89167Y143172D01*
X89080Y143183D01*
X88993Y143178D01*
X88908Y143159D01*
X88828Y143125D01*
X88755Y143077D01*
X88691Y143017D01*
X88639Y142948D01*
X88599Y142870D01*
X88574Y142787D01*
X88563Y142700D01*
X88568Y142613D01*
X88587Y142528D01*
X88621Y142448D01*
X88669Y142375D01*
X88729Y142311D01*
X88798Y142259D01*
X88876Y142219D01*
X89147Y142124D01*
X89427Y142056D01*
X89712Y142014D01*
X89999Y142000D01*
X90000D01*
Y128000D01*
X89712Y127987D01*
X89427Y127945D01*
X89147Y127877D01*
X88876Y127782D01*
Y127781D01*
X88798Y127741D01*
X88729Y127689D01*
X88670Y127625D01*
X88622Y127552D01*
X88588Y127472D01*
X88569Y127388D01*
X88564Y127301D01*
X88575Y127214D01*
X88600Y127131D01*
X88640Y127053D01*
X88692Y126984D01*
X88756Y126925D01*
X88829Y126877D01*
X88909Y126843D01*
X88993Y126824D01*
X89080Y126819D01*
X89167Y126830D01*
X89250Y126855D01*
X89431Y126918D01*
X89618Y126964D01*
X89808Y126991D01*
X90000Y127000D01*
Y123000D01*
X89999D01*
X89808Y123010D01*
X89618Y123037D01*
X89431Y123083D01*
X89250Y123146D01*
Y123147D01*
X89167Y123172D01*
X89080Y123183D01*
X88993Y123178D01*
X88908Y123159D01*
X88828Y123125D01*
X88755Y123077D01*
X88691Y123017D01*
X88639Y122948D01*
X88599Y122870D01*
X88574Y122787D01*
X88563Y122700D01*
X88568Y122613D01*
X88587Y122528D01*
X88621Y122448D01*
X88669Y122375D01*
X88729Y122311D01*
X88798Y122259D01*
X88876Y122219D01*
X89147Y122124D01*
X89427Y122056D01*
X89712Y122014D01*
X89999Y122000D01*
X90000D01*
Y108000D01*
X89712Y107987D01*
X89427Y107945D01*
X89147Y107877D01*
X88876Y107782D01*
Y107781D01*
X88798Y107741D01*
X88729Y107689D01*
X88670Y107625D01*
X88622Y107552D01*
X88588Y107472D01*
X88569Y107388D01*
X88564Y107301D01*
X88575Y107214D01*
X88600Y107131D01*
X88640Y107053D01*
X88692Y106984D01*
X88756Y106925D01*
X88829Y106877D01*
X88909Y106843D01*
X88993Y106824D01*
X89080Y106819D01*
X89167Y106830D01*
X89250Y106855D01*
X89431Y106918D01*
X89618Y106964D01*
X89808Y106991D01*
X90000Y107000D01*
Y103000D01*
X89999D01*
X89808Y103010D01*
X89618Y103037D01*
X89431Y103083D01*
X89250Y103146D01*
Y103147D01*
X89167Y103172D01*
X89080Y103183D01*
X88993Y103178D01*
X88908Y103159D01*
X88828Y103125D01*
X88755Y103077D01*
X88691Y103017D01*
X88639Y102948D01*
X88599Y102870D01*
X88574Y102787D01*
X88563Y102700D01*
X88568Y102613D01*
X88587Y102528D01*
X88621Y102448D01*
X88669Y102375D01*
X88729Y102311D01*
X88798Y102259D01*
X88876Y102219D01*
X89147Y102124D01*
X89427Y102056D01*
X89712Y102014D01*
X89999Y102000D01*
X90000D01*
Y88000D01*
X89712Y87987D01*
X89427Y87945D01*
X89147Y87877D01*
X88876Y87782D01*
Y87781D01*
X88798Y87741D01*
X88729Y87689D01*
X88670Y87625D01*
X88622Y87552D01*
X88588Y87472D01*
X88569Y87388D01*
X88564Y87301D01*
X88575Y87214D01*
X88600Y87131D01*
X88640Y87053D01*
X88692Y86984D01*
X88756Y86925D01*
X88829Y86877D01*
X88909Y86843D01*
X88993Y86824D01*
X89080Y86819D01*
X89167Y86830D01*
X89250Y86855D01*
X89431Y86918D01*
X89618Y86964D01*
X89808Y86991D01*
X90000Y87000D01*
Y83000D01*
X89999D01*
X89808Y83010D01*
X89618Y83037D01*
X89431Y83083D01*
X89250Y83146D01*
Y83147D01*
X89167Y83172D01*
X89080Y83183D01*
X88993Y83178D01*
X88908Y83159D01*
X88828Y83125D01*
X88755Y83077D01*
X88691Y83017D01*
X88639Y82948D01*
X88599Y82870D01*
X88574Y82787D01*
X88563Y82700D01*
X88568Y82613D01*
X88587Y82528D01*
X88621Y82448D01*
X88669Y82375D01*
X88729Y82311D01*
X88798Y82259D01*
X88876Y82219D01*
X89147Y82124D01*
X89427Y82056D01*
X89712Y82014D01*
X89999Y82000D01*
X90000D01*
Y71244D01*
X87591Y68835D01*
Y83575D01*
X87612Y83570D01*
X87699Y83565D01*
X87786Y83576D01*
X87869Y83601D01*
X87947Y83641D01*
X88016Y83693D01*
X88075Y83757D01*
X88123Y83830D01*
X88157Y83910D01*
X88176Y83994D01*
X88181Y84081D01*
X88170Y84168D01*
X88145Y84251D01*
X88082Y84432D01*
X88036Y84619D01*
X88009Y84809D01*
X88000Y85001D01*
X88009Y85192D01*
X88036Y85382D01*
X88082Y85569D01*
X88145Y85750D01*
X88146D01*
X88171Y85833D01*
X88182Y85920D01*
X88177Y86007D01*
X88158Y86092D01*
X88124Y86172D01*
X88076Y86245D01*
X88016Y86309D01*
X87947Y86361D01*
X87869Y86401D01*
X87786Y86426D01*
X87699Y86437D01*
X87612Y86432D01*
X87591Y86427D01*
Y103575D01*
X87612Y103570D01*
X87699Y103565D01*
X87786Y103576D01*
X87869Y103601D01*
X87947Y103641D01*
X88016Y103693D01*
X88075Y103757D01*
X88123Y103830D01*
X88157Y103910D01*
X88176Y103994D01*
X88181Y104081D01*
X88170Y104168D01*
X88145Y104251D01*
X88082Y104432D01*
X88036Y104619D01*
X88009Y104809D01*
X88000Y105001D01*
X88009Y105192D01*
X88036Y105382D01*
X88082Y105569D01*
X88145Y105750D01*
X88146D01*
X88171Y105833D01*
X88182Y105920D01*
X88177Y106007D01*
X88158Y106092D01*
X88124Y106172D01*
X88076Y106245D01*
X88016Y106309D01*
X87947Y106361D01*
X87869Y106401D01*
X87786Y106426D01*
X87699Y106437D01*
X87612Y106432D01*
X87591Y106427D01*
Y123575D01*
X87612Y123570D01*
X87699Y123565D01*
X87786Y123576D01*
X87869Y123601D01*
X87947Y123641D01*
X88016Y123693D01*
X88075Y123757D01*
X88123Y123830D01*
X88157Y123910D01*
X88176Y123994D01*
X88181Y124081D01*
X88170Y124168D01*
X88145Y124251D01*
X88082Y124432D01*
X88036Y124619D01*
X88009Y124809D01*
X88000Y125001D01*
X88009Y125192D01*
X88036Y125382D01*
X88082Y125569D01*
X88145Y125750D01*
X88146D01*
X88171Y125833D01*
X88182Y125920D01*
X88177Y126007D01*
X88158Y126092D01*
X88124Y126172D01*
X88076Y126245D01*
X88016Y126309D01*
X87947Y126361D01*
X87869Y126401D01*
X87786Y126426D01*
X87699Y126437D01*
X87612Y126432D01*
X87591Y126427D01*
Y143575D01*
X87612Y143570D01*
X87699Y143565D01*
X87786Y143576D01*
X87869Y143601D01*
X87947Y143641D01*
X88016Y143693D01*
X88075Y143757D01*
X88123Y143830D01*
X88157Y143910D01*
X88176Y143994D01*
X88181Y144081D01*
X88170Y144168D01*
X88145Y144251D01*
X88082Y144432D01*
X88036Y144619D01*
X88009Y144809D01*
X88000Y145001D01*
X88009Y145192D01*
X88036Y145382D01*
X88082Y145569D01*
X88145Y145750D01*
X88146D01*
X88171Y145833D01*
X88182Y145920D01*
X88177Y146007D01*
X88158Y146092D01*
X88124Y146172D01*
X88076Y146245D01*
X88016Y146309D01*
X87947Y146361D01*
X87869Y146401D01*
X87786Y146426D01*
X87699Y146437D01*
X87612Y146432D01*
X87591Y146427D01*
Y163575D01*
X87612Y163570D01*
X87699Y163565D01*
X87786Y163576D01*
X87869Y163601D01*
X87947Y163641D01*
X88016Y163693D01*
X88075Y163757D01*
X88123Y163830D01*
X88157Y163910D01*
X88176Y163994D01*
X88181Y164081D01*
X88170Y164168D01*
X88145Y164251D01*
X88082Y164432D01*
X88036Y164619D01*
X88009Y164809D01*
X88000Y165001D01*
X88009Y165192D01*
X88036Y165382D01*
X88082Y165569D01*
X88145Y165750D01*
X88146D01*
X88171Y165833D01*
X88182Y165920D01*
X88177Y166007D01*
X88158Y166092D01*
X88124Y166172D01*
X88076Y166245D01*
X88016Y166309D01*
X87947Y166361D01*
X87869Y166401D01*
X87786Y166426D01*
X87699Y166437D01*
X87612Y166432D01*
X87591Y166427D01*
Y183575D01*
X87612Y183570D01*
X87699Y183565D01*
X87786Y183576D01*
X87869Y183601D01*
X87947Y183641D01*
X88016Y183693D01*
X88075Y183757D01*
X88123Y183830D01*
X88157Y183910D01*
X88176Y183994D01*
X88181Y184081D01*
X88170Y184168D01*
X88145Y184251D01*
X88082Y184432D01*
X88036Y184619D01*
X88009Y184809D01*
X88000Y185001D01*
X88009Y185192D01*
X88036Y185382D01*
X88082Y185569D01*
X88145Y185750D01*
X88146D01*
X88171Y185833D01*
X88182Y185920D01*
X88177Y186007D01*
X88158Y186092D01*
X88124Y186172D01*
X88076Y186245D01*
X88016Y186309D01*
X87947Y186361D01*
X87869Y186401D01*
X87786Y186426D01*
X87699Y186437D01*
X87612Y186432D01*
X87591Y186427D01*
Y210000D01*
G37*
G36*
X81073D02*X87591D01*
Y186427D01*
X87527Y186413D01*
X87447Y186379D01*
X87374Y186331D01*
X87310Y186271D01*
X87258Y186202D01*
X87218Y186124D01*
X87123Y185853D01*
X87055Y185573D01*
X87013Y185288D01*
X87000Y185001D01*
X87013Y184713D01*
X87055Y184428D01*
X87123Y184148D01*
X87218Y183877D01*
X87219D01*
X87259Y183799D01*
X87311Y183730D01*
X87375Y183671D01*
X87448Y183623D01*
X87528Y183589D01*
X87591Y183575D01*
Y166427D01*
X87527Y166413D01*
X87447Y166379D01*
X87374Y166331D01*
X87310Y166271D01*
X87258Y166202D01*
X87218Y166124D01*
X87123Y165853D01*
X87055Y165573D01*
X87013Y165288D01*
X87000Y165001D01*
X87013Y164713D01*
X87055Y164428D01*
X87123Y164148D01*
X87218Y163877D01*
X87219D01*
X87259Y163799D01*
X87311Y163730D01*
X87375Y163671D01*
X87448Y163623D01*
X87528Y163589D01*
X87591Y163575D01*
Y146427D01*
X87527Y146413D01*
X87447Y146379D01*
X87374Y146331D01*
X87310Y146271D01*
X87258Y146202D01*
X87218Y146124D01*
X87123Y145853D01*
X87055Y145573D01*
X87013Y145288D01*
X87000Y145001D01*
X87013Y144713D01*
X87055Y144428D01*
X87123Y144148D01*
X87218Y143877D01*
X87219D01*
X87259Y143799D01*
X87311Y143730D01*
X87375Y143671D01*
X87448Y143623D01*
X87528Y143589D01*
X87591Y143575D01*
Y126427D01*
X87527Y126413D01*
X87447Y126379D01*
X87374Y126331D01*
X87310Y126271D01*
X87258Y126202D01*
X87218Y126124D01*
X87123Y125853D01*
X87055Y125573D01*
X87013Y125288D01*
X87000Y125001D01*
X87013Y124713D01*
X87055Y124428D01*
X87123Y124148D01*
X87218Y123877D01*
X87219D01*
X87259Y123799D01*
X87311Y123730D01*
X87375Y123671D01*
X87448Y123623D01*
X87528Y123589D01*
X87591Y123575D01*
Y106427D01*
X87527Y106413D01*
X87447Y106379D01*
X87374Y106331D01*
X87310Y106271D01*
X87258Y106202D01*
X87218Y106124D01*
X87123Y105853D01*
X87055Y105573D01*
X87013Y105288D01*
X87000Y105001D01*
X87013Y104713D01*
X87055Y104428D01*
X87123Y104148D01*
X87218Y103877D01*
X87219D01*
X87259Y103799D01*
X87311Y103730D01*
X87375Y103671D01*
X87448Y103623D01*
X87528Y103589D01*
X87591Y103575D01*
Y86427D01*
X87527Y86413D01*
X87447Y86379D01*
X87374Y86331D01*
X87310Y86271D01*
X87258Y86202D01*
X87218Y86124D01*
X87123Y85853D01*
X87055Y85573D01*
X87013Y85288D01*
X87000Y85001D01*
X87013Y84713D01*
X87055Y84428D01*
X87123Y84148D01*
X87218Y83877D01*
X87219D01*
X87259Y83799D01*
X87311Y83730D01*
X87375Y83671D01*
X87448Y83623D01*
X87528Y83589D01*
X87591Y83575D01*
Y68835D01*
X86878Y68122D01*
X86879Y68121D01*
X86796Y68022D01*
X86702Y67928D01*
X86624Y67817D01*
X86543Y67720D01*
X86480Y67611D01*
X86402Y67500D01*
X86347Y67382D01*
X86281Y67268D01*
X86237Y67145D01*
X86181Y67026D01*
X86145Y66891D01*
X86103Y66776D01*
X86081Y66653D01*
X86046Y66521D01*
X86034Y66387D01*
X86012Y66261D01*
Y66136D01*
X86000Y66000D01*
Y47635D01*
X85936Y47571D01*
X85536Y47000D01*
X85241Y46368D01*
X85061Y45695D01*
X85000Y45000D01*
X85061Y44305D01*
X85241Y43632D01*
X85536Y43000D01*
X85936Y42429D01*
X86429Y41936D01*
X87000Y41536D01*
X87591Y41260D01*
Y13937D01*
X87577Y13958D01*
X87517Y14021D01*
X87446Y14072D01*
X87063Y14279D01*
X86663Y14450D01*
X86249Y14583D01*
X85824Y14678D01*
X85393Y14734D01*
X84958Y14750D01*
X84524Y14727D01*
X84093Y14663D01*
X83670Y14561D01*
X83259Y14420D01*
X82862Y14242D01*
X82482Y14029D01*
X82412Y13977D01*
X82353Y13913D01*
X82306Y13840D01*
X82271Y13759D01*
X82252Y13675D01*
X82247Y13588D01*
X82258Y13501D01*
X82283Y13418D01*
X82323Y13340D01*
X82375Y13270D01*
X82439Y13211D01*
X82512Y13164D01*
X82593Y13129D01*
X82677Y13110D01*
X82764Y13105D01*
X82851Y13116D01*
X82934Y13141D01*
X83012Y13181D01*
X83312Y13349D01*
X83625Y13490D01*
X83950Y13601D01*
X84284Y13682D01*
X84624Y13732D01*
X84967Y13750D01*
X85310Y13738D01*
X85651Y13694D01*
X85986Y13618D01*
X86313Y13513D01*
X86629Y13378D01*
X86931Y13215D01*
X86930Y13214D01*
X87008Y13176D01*
X87092Y13152D01*
X87179Y13142D01*
X87266Y13149D01*
X87351Y13170D01*
X87431Y13205D01*
X87503Y13254D01*
X87566Y13314D01*
X87591Y13349D01*
Y6761D01*
X87560Y6790D01*
X87487Y6837D01*
X87406Y6872D01*
X87322Y6891D01*
X87235Y6896D01*
X87148Y6885D01*
X87065Y6860D01*
X86987Y6820D01*
X86687Y6652D01*
X86374Y6511D01*
X86049Y6400D01*
X85715Y6319D01*
X85375Y6269D01*
X85032Y6251D01*
X84689Y6263D01*
X84348Y6307D01*
X84013Y6383D01*
X83686Y6488D01*
X83370Y6623D01*
X83068Y6786D01*
X83069Y6787D01*
X82991Y6825D01*
X82907Y6849D01*
X82820Y6859D01*
X82733Y6852D01*
X82648Y6831D01*
X82568Y6796D01*
X82496Y6747D01*
X82433Y6687D01*
X82382Y6616D01*
X82344Y6538D01*
X82320Y6454D01*
X82310Y6367D01*
X82317Y6280D01*
X82338Y6195D01*
X82373Y6115D01*
X82422Y6043D01*
X82482Y5980D01*
X82553Y5929D01*
X82936Y5722D01*
X83336Y5551D01*
X83750Y5418D01*
X84175Y5323D01*
X84606Y5267D01*
X85041Y5251D01*
X85475Y5274D01*
X85906Y5338D01*
X86329Y5440D01*
X86740Y5581D01*
X87137Y5759D01*
X87517Y5972D01*
X87587Y6024D01*
X87591Y6028D01*
Y0D01*
X81073D01*
Y7367D01*
X81087Y7354D01*
X81160Y7307D01*
X81241Y7272D01*
X81325Y7253D01*
X81412Y7248D01*
X81499Y7259D01*
X81582Y7284D01*
X81660Y7324D01*
X81730Y7376D01*
X81789Y7440D01*
X81836Y7513D01*
X81871Y7594D01*
X81890Y7678D01*
X81895Y7765D01*
X81884Y7852D01*
X81859Y7935D01*
X81819Y8013D01*
X81651Y8313D01*
X81510Y8626D01*
X81399Y8951D01*
X81318Y9285D01*
X81268Y9625D01*
X81250Y9968D01*
X81262Y10311D01*
X81306Y10652D01*
X81382Y10987D01*
X81487Y11314D01*
X81622Y11630D01*
X81785Y11932D01*
X81786Y11931D01*
X81824Y12009D01*
X81848Y12093D01*
X81858Y12180D01*
X81851Y12267D01*
X81830Y12352D01*
X81795Y12432D01*
X81746Y12504D01*
X81686Y12567D01*
X81615Y12618D01*
X81537Y12656D01*
X81453Y12680D01*
X81366Y12690D01*
X81279Y12683D01*
X81194Y12662D01*
X81114Y12627D01*
X81073Y12599D01*
Y53006D01*
X81521Y53046D01*
X82026Y53181D01*
X82500Y53402D01*
X82928Y53702D01*
X83298Y54072D01*
X83598Y54500D01*
X83819Y54974D01*
X83954Y55479D01*
X84000Y56000D01*
X83954Y56521D01*
X83819Y57026D01*
X83598Y57500D01*
X83298Y57928D01*
X82928Y58298D01*
X82500Y58598D01*
X82026Y58819D01*
X81521Y58954D01*
X81073Y58994D01*
Y195745D01*
X81375Y195886D01*
X82053Y196361D01*
X82639Y196947D01*
X83114Y197625D01*
X83464Y198375D01*
X83678Y199175D01*
X83750Y200000D01*
X83678Y200825D01*
X83464Y201625D01*
X83114Y202375D01*
X82639Y203053D01*
X82053Y203639D01*
X81375Y204114D01*
X81073Y204255D01*
Y210000D01*
G37*
G36*
Y58994D02*X81000Y59000D01*
X80479Y58954D01*
X80233Y58888D01*
X77500Y61621D01*
Y195503D01*
X78175Y195322D01*
X79000Y195250D01*
X79825Y195322D01*
X80625Y195536D01*
X81073Y195745D01*
Y58994D01*
G37*
G36*
Y0D02*X78927D01*
Y7403D01*
X78957Y7423D01*
X79020Y7483D01*
X79071Y7554D01*
X79278Y7937D01*
X79449Y8337D01*
X79582Y8751D01*
X79677Y9176D01*
X79733Y9607D01*
X79749Y10042D01*
X79726Y10476D01*
X79662Y10907D01*
X79560Y11330D01*
X79419Y11741D01*
X79241Y12138D01*
X79028Y12518D01*
X78976Y12588D01*
X78927Y12633D01*
Y53847D01*
X79072Y53702D01*
X79500Y53402D01*
X79974Y53181D01*
X80479Y53046D01*
X81000Y53000D01*
X81073Y53006D01*
Y12599D01*
X81042Y12578D01*
X80979Y12518D01*
X80928Y12447D01*
X80721Y12064D01*
X80550Y11664D01*
X80417Y11250D01*
X80322Y10825D01*
X80266Y10394D01*
X80250Y9959D01*
X80273Y9525D01*
X80337Y9094D01*
X80439Y8671D01*
X80580Y8260D01*
X80758Y7863D01*
X80971Y7483D01*
X81023Y7413D01*
X81073Y7367D01*
Y0D01*
G37*
G36*
X78927D02*X77500D01*
Y5962D01*
X77517Y5972D01*
X77587Y6024D01*
X77646Y6088D01*
X77693Y6161D01*
X77728Y6242D01*
X77747Y6326D01*
X77752Y6413D01*
X77741Y6500D01*
X77716Y6583D01*
X77676Y6661D01*
X77624Y6731D01*
X77560Y6790D01*
X77500Y6829D01*
Y13252D01*
X77503Y13254D01*
X77566Y13314D01*
X77617Y13385D01*
X77655Y13463D01*
X77679Y13547D01*
X77689Y13634D01*
X77682Y13721D01*
X77661Y13806D01*
X77626Y13886D01*
X77577Y13958D01*
X77517Y14021D01*
X77500Y14033D01*
Y57379D01*
X78112Y56767D01*
X78046Y56521D01*
X78000Y56000D01*
X78046Y55479D01*
X78181Y54974D01*
X78402Y54500D01*
X78702Y54072D01*
X78927Y53847D01*
Y12633D01*
X78912Y12647D01*
X78839Y12694D01*
X78758Y12729D01*
X78674Y12748D01*
X78587Y12753D01*
X78500Y12742D01*
X78417Y12717D01*
X78339Y12677D01*
X78269Y12625D01*
X78210Y12561D01*
X78163Y12488D01*
X78128Y12407D01*
X78109Y12323D01*
X78104Y12236D01*
X78115Y12149D01*
X78140Y12066D01*
X78180Y11988D01*
X78348Y11688D01*
X78489Y11375D01*
X78600Y11050D01*
X78681Y10716D01*
X78731Y10376D01*
X78749Y10033D01*
X78737Y9690D01*
X78693Y9349D01*
X78617Y9014D01*
X78512Y8687D01*
X78377Y8371D01*
X78214Y8069D01*
X78213Y8070D01*
X78175Y7992D01*
X78151Y7908D01*
X78141Y7821D01*
X78148Y7734D01*
X78169Y7649D01*
X78204Y7569D01*
X78253Y7497D01*
X78313Y7434D01*
X78384Y7383D01*
X78462Y7345D01*
X78546Y7321D01*
X78633Y7311D01*
X78720Y7318D01*
X78805Y7339D01*
X78885Y7374D01*
X78927Y7403D01*
Y0D01*
G37*
G36*
X77500Y210000D02*X81073D01*
Y204255D01*
X80625Y204464D01*
X79825Y204678D01*
X79000Y204750D01*
X78175Y204678D01*
X77500Y204497D01*
Y210000D01*
G37*
G36*
X42000Y140000D02*X42500Y140044D01*
Y107000D01*
X42494Y107068D01*
Y107131D01*
X42483Y107193D01*
X42477Y107260D01*
X42459Y107329D01*
X42448Y107389D01*
X42429Y107441D01*
X42410Y107513D01*
X42378Y107580D01*
X42359Y107634D01*
X42329Y107686D01*
X42299Y107750D01*
X42259Y107806D01*
X42228Y107861D01*
X42187Y107910D01*
X42149Y107964D01*
X42102Y108011D01*
X42060Y108061D01*
X42000Y108121D01*
Y140000D01*
G37*
G36*
X55000Y145880D02*X57500Y148380D01*
Y132622D01*
X55000Y130122D01*
Y145880D01*
G37*
G36*
Y163880D02*X55500Y164380D01*
Y150622D01*
X55000Y150122D01*
Y163880D01*
G37*
G36*
X71073Y96378D02*X71181Y95974D01*
X71402Y95500D01*
X71702Y95072D01*
X72072Y94702D01*
X72500Y94402D01*
Y63000D01*
X72506Y62932D01*
Y62870D01*
X72517Y62807D01*
X72523Y62740D01*
X72540Y62676D01*
X72551Y62613D01*
X72572Y62555D01*
X72590Y62487D01*
X72619Y62425D01*
X72640Y62367D01*
X72673Y62310D01*
X72701Y62250D01*
X72738Y62197D01*
X72771Y62140D01*
X72814Y62089D01*
X72851Y62036D01*
X72897Y61990D01*
X72939Y61940D01*
X77500Y57379D01*
Y14033D01*
X77446Y14072D01*
X77063Y14279D01*
X76663Y14450D01*
X76249Y14583D01*
X75824Y14678D01*
X75393Y14734D01*
X74958Y14750D01*
X74524Y14727D01*
X74093Y14663D01*
X73670Y14561D01*
X73259Y14420D01*
X72862Y14242D01*
X72482Y14029D01*
X72412Y13977D01*
X72353Y13913D01*
X72306Y13840D01*
X72271Y13759D01*
X72252Y13675D01*
X72247Y13588D01*
X72258Y13501D01*
X72283Y13418D01*
X72323Y13340D01*
X72375Y13270D01*
X72439Y13211D01*
X72512Y13164D01*
X72593Y13129D01*
X72677Y13110D01*
X72764Y13105D01*
X72851Y13116D01*
X72934Y13141D01*
X73012Y13181D01*
X73312Y13349D01*
X73625Y13490D01*
X73950Y13601D01*
X74284Y13682D01*
X74624Y13732D01*
X74967Y13750D01*
X75310Y13738D01*
X75651Y13694D01*
X75986Y13618D01*
X76313Y13513D01*
X76629Y13378D01*
X76931Y13215D01*
X76930Y13214D01*
X77008Y13176D01*
X77092Y13152D01*
X77179Y13142D01*
X77266Y13149D01*
X77351Y13170D01*
X77431Y13205D01*
X77500Y13252D01*
Y6829D01*
X77487Y6837D01*
X77406Y6872D01*
X77322Y6891D01*
X77235Y6896D01*
X77148Y6885D01*
X77065Y6860D01*
X76987Y6820D01*
X76687Y6652D01*
X76374Y6511D01*
X76049Y6400D01*
X75715Y6319D01*
X75375Y6269D01*
X75032Y6251D01*
X74689Y6263D01*
X74348Y6307D01*
X74013Y6383D01*
X73686Y6488D01*
X73370Y6623D01*
X73068Y6786D01*
X73069Y6787D01*
X72991Y6825D01*
X72907Y6849D01*
X72820Y6859D01*
X72733Y6852D01*
X72648Y6831D01*
X72568Y6796D01*
X72496Y6747D01*
X72433Y6687D01*
X72382Y6616D01*
X72344Y6538D01*
X72320Y6454D01*
X72310Y6367D01*
X72317Y6280D01*
X72338Y6195D01*
X72373Y6115D01*
X72422Y6043D01*
X72482Y5980D01*
X72553Y5929D01*
X72936Y5722D01*
X73336Y5551D01*
X73750Y5418D01*
X74175Y5323D01*
X74606Y5267D01*
X75041Y5251D01*
X75475Y5274D01*
X75906Y5338D01*
X76329Y5440D01*
X76740Y5581D01*
X77137Y5759D01*
X77500Y5962D01*
Y0D01*
X71073D01*
Y7367D01*
X71087Y7354D01*
X71160Y7307D01*
X71241Y7272D01*
X71325Y7253D01*
X71412Y7248D01*
X71499Y7259D01*
X71582Y7284D01*
X71660Y7324D01*
X71730Y7376D01*
X71789Y7440D01*
X71836Y7513D01*
X71871Y7594D01*
X71890Y7678D01*
X71895Y7765D01*
X71884Y7852D01*
X71859Y7935D01*
X71819Y8013D01*
X71651Y8313D01*
X71510Y8626D01*
X71399Y8951D01*
X71318Y9285D01*
X71268Y9625D01*
X71250Y9968D01*
X71262Y10311D01*
X71306Y10652D01*
X71382Y10987D01*
X71487Y11314D01*
X71622Y11630D01*
X71785Y11932D01*
X71786Y11931D01*
X71824Y12009D01*
X71848Y12093D01*
X71858Y12180D01*
X71851Y12267D01*
X71830Y12352D01*
X71795Y12432D01*
X71746Y12504D01*
X71686Y12567D01*
X71615Y12618D01*
X71537Y12656D01*
X71453Y12680D01*
X71366Y12690D01*
X71279Y12683D01*
X71194Y12662D01*
X71114Y12627D01*
X71073Y12599D01*
Y65847D01*
X71298Y66072D01*
X71598Y66500D01*
X71819Y66974D01*
X71954Y67479D01*
X72000Y68000D01*
X71954Y68521D01*
X71819Y69026D01*
X71598Y69500D01*
X71298Y69928D01*
X71073Y70153D01*
Y96378D01*
G37*
G36*
Y210000D02*X77500D01*
Y204497D01*
X77375Y204464D01*
X76625Y204114D01*
X75947Y203639D01*
X75361Y203053D01*
X74886Y202375D01*
X74536Y201625D01*
X74322Y200825D01*
X74250Y200000D01*
X74322Y199175D01*
X74536Y198375D01*
X74886Y197625D01*
X75361Y196947D01*
X75947Y196361D01*
X76625Y195886D01*
X77375Y195536D01*
X77500Y195503D01*
Y61621D01*
X75500Y63621D01*
Y94402D01*
X75928Y94702D01*
X76298Y95072D01*
X76598Y95500D01*
X76819Y95974D01*
X76954Y96479D01*
X77000Y97000D01*
X76954Y97521D01*
X76819Y98026D01*
X76598Y98500D01*
X76298Y98928D01*
X75928Y99298D01*
X75500Y99598D01*
X75026Y99819D01*
X74521Y99954D01*
X74000Y100000D01*
X73479Y99954D01*
X72974Y99819D01*
X72500Y99598D01*
X72072Y99298D01*
X71702Y98928D01*
X71402Y98500D01*
X71181Y98026D01*
X71073Y97622D01*
Y174847D01*
X71298Y175072D01*
X71598Y175500D01*
X71819Y175974D01*
X71954Y176479D01*
X72000Y177000D01*
X71954Y177521D01*
X71819Y178026D01*
X71598Y178500D01*
X71298Y178928D01*
X71073Y179153D01*
Y195745D01*
X71375Y195886D01*
X72053Y196361D01*
X72639Y196947D01*
X73114Y197625D01*
X73464Y198375D01*
X73678Y199175D01*
X73750Y200000D01*
X73678Y200825D01*
X73464Y201625D01*
X73114Y202375D01*
X72639Y203053D01*
X72053Y203639D01*
X71375Y204114D01*
X71073Y204255D01*
Y210000D01*
G37*
G36*
Y179153D02*X70928Y179298D01*
X70500Y179598D01*
X70026Y179819D01*
X69521Y179954D01*
X69000Y180000D01*
X68479Y179954D01*
X67974Y179819D01*
X67500Y179598D01*
X67072Y179298D01*
X66702Y178928D01*
X66402Y178500D01*
X66181Y178026D01*
X66046Y177521D01*
X66000Y177000D01*
X66046Y176479D01*
X66112Y176234D01*
X58500Y168622D01*
Y180380D01*
X67232Y189112D01*
X67479Y189046D01*
X68000Y189000D01*
X68521Y189046D01*
X69026Y189181D01*
X69500Y189402D01*
X69928Y189702D01*
X70298Y190072D01*
X70598Y190500D01*
X70819Y190974D01*
X70954Y191479D01*
X71000Y192000D01*
X70954Y192521D01*
X70819Y193026D01*
X70598Y193500D01*
X70298Y193928D01*
X69928Y194298D01*
X69500Y194598D01*
X69026Y194819D01*
X68521Y194954D01*
X68000Y195000D01*
X67479Y194954D01*
X66974Y194819D01*
X66500Y194598D01*
X66072Y194298D01*
X65702Y193928D01*
X65402Y193500D01*
X65181Y193026D01*
X65046Y192521D01*
X65000Y192000D01*
X65046Y191479D01*
X65112Y191234D01*
X56500Y182622D01*
Y185380D01*
X66885Y195765D01*
X67375Y195536D01*
X68175Y195322D01*
X69000Y195250D01*
X69825Y195322D01*
X70625Y195536D01*
X71073Y195745D01*
Y179153D01*
G37*
G36*
Y0D02*X65000D01*
Y5250D01*
X65825Y5322D01*
X66625Y5536D01*
X67375Y5886D01*
X68053Y6361D01*
X68639Y6947D01*
X69114Y7625D01*
X69464Y8375D01*
X69678Y9175D01*
X69750Y10000D01*
X69678Y10825D01*
X69464Y11625D01*
X69114Y12375D01*
X68639Y13053D01*
X68053Y13639D01*
X67375Y14114D01*
X66625Y14464D01*
X65825Y14678D01*
X65000Y14750D01*
Y114880D01*
X66060Y115940D01*
X66061Y115939D01*
X66108Y115995D01*
X66149Y116036D01*
X66182Y116083D01*
X66229Y116139D01*
X66266Y116203D01*
X66299Y116250D01*
X66325Y116305D01*
X66360Y116366D01*
X66383Y116429D01*
X66410Y116487D01*
X66427Y116550D01*
X66449Y116612D01*
X66461Y116681D01*
X66477Y116740D01*
X66482Y116796D01*
X66495Y116869D01*
Y116943D01*
X66500Y117000D01*
Y128402D01*
X66928Y128702D01*
X67298Y129072D01*
X67500Y129360D01*
Y70598D01*
X67072Y70298D01*
X66702Y69928D01*
X66402Y69500D01*
X66181Y69026D01*
X66046Y68521D01*
X66000Y68000D01*
X66046Y67479D01*
X66181Y66974D01*
X66402Y66500D01*
X66702Y66072D01*
X67072Y65702D01*
X67500Y65402D01*
X67974Y65181D01*
X68479Y65046D01*
X69000Y65000D01*
X69521Y65046D01*
X70026Y65181D01*
X70500Y65402D01*
X70928Y65702D01*
X71073Y65847D01*
Y12599D01*
X71042Y12578D01*
X70979Y12518D01*
X70928Y12447D01*
X70721Y12064D01*
X70550Y11664D01*
X70417Y11250D01*
X70322Y10825D01*
X70266Y10394D01*
X70250Y9959D01*
X70273Y9525D01*
X70337Y9094D01*
X70439Y8671D01*
X70580Y8260D01*
X70758Y7863D01*
X70971Y7483D01*
X71023Y7413D01*
X71073Y7367D01*
Y0D01*
G37*
G36*
X65000D02*X55000D01*
Y5250D01*
X55825Y5322D01*
X56625Y5536D01*
X57375Y5886D01*
X58053Y6361D01*
X58639Y6947D01*
X59114Y7625D01*
X59464Y8375D01*
X59678Y9175D01*
X59750Y10000D01*
X59678Y10825D01*
X59464Y11625D01*
X59114Y12375D01*
X58639Y13053D01*
X58053Y13639D01*
X57375Y14114D01*
X56625Y14464D01*
X55825Y14678D01*
X55000Y14750D01*
Y39174D01*
X55026Y39181D01*
X55500Y39402D01*
X55928Y39702D01*
X56298Y40072D01*
X56598Y40500D01*
X56819Y40974D01*
X56954Y41479D01*
X57000Y42000D01*
X56954Y42521D01*
X56819Y43026D01*
X56598Y43500D01*
X56298Y43928D01*
X55928Y44298D01*
X55500Y44598D01*
Y74000D01*
X55494Y74068D01*
Y74131D01*
X55483Y74193D01*
X55477Y74260D01*
X55459Y74329D01*
X55448Y74389D01*
X55429Y74441D01*
X55410Y74513D01*
X55378Y74580D01*
X55359Y74634D01*
X55329Y74686D01*
X55299Y74750D01*
X55259Y74806D01*
X55228Y74861D01*
X55187Y74910D01*
X55149Y74964D01*
X55102Y75011D01*
X55060Y75061D01*
X55000Y75121D01*
Y104880D01*
X65000Y114880D01*
Y14750D01*
X64175Y14678D01*
X63375Y14464D01*
X62625Y14114D01*
X61947Y13639D01*
X61361Y13053D01*
X60886Y12375D01*
X60536Y11625D01*
X60322Y10825D01*
X60250Y10000D01*
X60322Y9175D01*
X60536Y8375D01*
X60886Y7625D01*
X61361Y6947D01*
X61947Y6361D01*
X62625Y5886D01*
X63375Y5536D01*
X64175Y5322D01*
X65000Y5250D01*
Y0D01*
G37*
G36*
X71073Y97622D02*X71046Y97521D01*
X71000Y97000D01*
X71046Y96479D01*
X71073Y96378D01*
Y70153D01*
X70928Y70298D01*
X70500Y70598D01*
Y138000D01*
X70494Y138068D01*
Y138131D01*
X70483Y138193D01*
X70477Y138260D01*
X70459Y138329D01*
X70448Y138389D01*
X70429Y138441D01*
X70410Y138513D01*
X70378Y138580D01*
X70359Y138634D01*
X70329Y138686D01*
X70299Y138750D01*
X70259Y138806D01*
X70228Y138861D01*
X70187Y138910D01*
X70149Y138964D01*
X70102Y139011D01*
X70060Y139061D01*
X69888Y139233D01*
X69954Y139479D01*
X70000Y140000D01*
X69954Y140521D01*
X69819Y141026D01*
X69598Y141500D01*
X69298Y141928D01*
X68928Y142298D01*
X68500Y142598D01*
X68026Y142819D01*
X67521Y142954D01*
X67000Y143000D01*
X66479Y142954D01*
X65974Y142819D01*
X65500Y142598D01*
X65072Y142298D01*
X64702Y141928D01*
X64402Y141500D01*
X64181Y141026D01*
X64046Y140521D01*
X64000Y140000D01*
X64046Y139479D01*
X64181Y138974D01*
X64402Y138500D01*
X64702Y138072D01*
X65072Y137702D01*
X65500Y137402D01*
X65974Y137181D01*
X66479Y137046D01*
X67000Y137000D01*
X67500Y137044D01*
Y132640D01*
X67298Y132928D01*
X66928Y133298D01*
X66500Y133598D01*
X66026Y133819D01*
X65521Y133954D01*
X65000Y134000D01*
X64479Y133954D01*
X63974Y133819D01*
X63500Y133598D01*
X63072Y133298D01*
X62702Y132928D01*
X62402Y132500D01*
X62181Y132026D01*
X62046Y131521D01*
X62000Y131000D01*
X62046Y130479D01*
X62181Y129974D01*
X62402Y129500D01*
X62702Y129072D01*
X63072Y128702D01*
X63500Y128402D01*
Y117622D01*
X55000Y109122D01*
Y125880D01*
X60060Y130940D01*
X60061Y130939D01*
X60108Y130995D01*
X60149Y131036D01*
X60182Y131083D01*
X60229Y131139D01*
X60266Y131203D01*
X60299Y131250D01*
X60325Y131305D01*
X60360Y131366D01*
X60383Y131429D01*
X60410Y131487D01*
X60427Y131550D01*
X60449Y131612D01*
X60461Y131681D01*
X60477Y131740D01*
X60482Y131796D01*
X60495Y131869D01*
Y131943D01*
X60500Y132000D01*
Y166380D01*
X68232Y174112D01*
X68479Y174046D01*
X69000Y174000D01*
X69521Y174046D01*
X70026Y174181D01*
X70500Y174402D01*
X70928Y174702D01*
X71073Y174847D01*
Y97622D01*
G37*
G36*
X55000Y210000D02*X71073D01*
Y204255D01*
X70625Y204464D01*
X69825Y204678D01*
X69000Y204750D01*
X68175Y204678D01*
X67375Y204464D01*
X66625Y204114D01*
X65947Y203639D01*
X65361Y203053D01*
X64886Y202375D01*
X64536Y201625D01*
X64322Y200825D01*
X64250Y200000D01*
X64322Y199175D01*
X64536Y198375D01*
X64764Y197886D01*
X55000Y188122D01*
Y193880D01*
X56885Y195765D01*
X57375Y195536D01*
X58175Y195322D01*
X59000Y195250D01*
X59825Y195322D01*
X60625Y195536D01*
X61375Y195886D01*
X62053Y196361D01*
X62639Y196947D01*
X63114Y197625D01*
X63464Y198375D01*
X63678Y199175D01*
X63750Y200000D01*
X63678Y200825D01*
X63464Y201625D01*
X63114Y202375D01*
X62639Y203053D01*
X62053Y203639D01*
X61375Y204114D01*
X60625Y204464D01*
X59825Y204678D01*
X59000Y204750D01*
X58175Y204678D01*
X57375Y204464D01*
X56625Y204114D01*
X55947Y203639D01*
X55361Y203053D01*
X55000Y202538D01*
Y210000D01*
G37*
G36*
Y0D02*X42000D01*
Y6324D01*
X42625Y5886D01*
X43375Y5536D01*
X44175Y5322D01*
X45000Y5250D01*
X45825Y5322D01*
X46625Y5536D01*
X47375Y5886D01*
X48053Y6361D01*
X48639Y6947D01*
X49114Y7625D01*
X49464Y8375D01*
X49678Y9175D01*
X49750Y10000D01*
X49678Y10825D01*
X49464Y11625D01*
X49114Y12375D01*
X48639Y13053D01*
X48053Y13639D01*
X47375Y14114D01*
X46625Y14464D01*
X45825Y14678D01*
X45000Y14750D01*
X44175Y14678D01*
X43375Y14464D01*
X42625Y14114D01*
X42000Y13676D01*
Y19000D01*
X42521Y19046D01*
X43026Y19181D01*
X43500Y19402D01*
X43928Y19702D01*
X44298Y20072D01*
X44598Y20500D01*
X44819Y20974D01*
X44954Y21479D01*
X45000Y22000D01*
X44954Y22521D01*
X44819Y23026D01*
X44598Y23500D01*
X44298Y23928D01*
X43928Y24298D01*
X43500Y24598D01*
Y59000D01*
X43494Y59068D01*
Y59131D01*
X43483Y59194D01*
X43477Y59260D01*
X43459Y59328D01*
X43448Y59389D01*
X43429Y59440D01*
X43410Y59513D01*
X43378Y59580D01*
X43359Y59634D01*
X43330Y59684D01*
X43299Y59750D01*
X43259Y59806D01*
X43228Y59861D01*
X43187Y59910D01*
X43149Y59964D01*
X43102Y60011D01*
X43060Y60061D01*
X42000Y61121D01*
Y67174D01*
X42026Y67181D01*
X42500Y67402D01*
X42928Y67702D01*
X43298Y68072D01*
X43598Y68500D01*
X43819Y68974D01*
X43954Y69479D01*
X44000Y70000D01*
X43954Y70521D01*
X43819Y71026D01*
X43598Y71500D01*
X43298Y71928D01*
X42928Y72298D01*
X42500Y72598D01*
Y79000D01*
X42506Y78932D01*
Y78870D01*
X42517Y78807D01*
X42523Y78740D01*
X42540Y78676D01*
X42551Y78613D01*
X42572Y78555D01*
X42590Y78487D01*
X42619Y78425D01*
X42640Y78367D01*
X42673Y78310D01*
X42701Y78250D01*
X42738Y78197D01*
X42771Y78140D01*
X42814Y78089D01*
X42851Y78036D01*
X42897Y77990D01*
X42939Y77940D01*
X45500Y75379D01*
Y66598D01*
X45072Y66298D01*
X44702Y65928D01*
X44402Y65500D01*
X44181Y65026D01*
X44046Y64521D01*
X44000Y64000D01*
X44046Y63479D01*
X44181Y62974D01*
X44402Y62500D01*
X44702Y62072D01*
X45072Y61702D01*
X45500Y61402D01*
X45974Y61181D01*
X46479Y61046D01*
X47000Y61000D01*
X47521Y61046D01*
X48026Y61181D01*
X48500Y61402D01*
X48928Y61702D01*
X49298Y62072D01*
X49598Y62500D01*
X49819Y62974D01*
X49954Y63479D01*
X50000Y64000D01*
X49954Y64521D01*
X49819Y65026D01*
X49598Y65500D01*
X49298Y65928D01*
X48928Y66298D01*
X48500Y66598D01*
Y75402D01*
X48974Y75181D01*
X49479Y75046D01*
X50000Y75000D01*
X50521Y75046D01*
X50767Y75112D01*
X52500Y73379D01*
Y44598D01*
X52072Y44298D01*
X51702Y43928D01*
X51402Y43500D01*
X51181Y43026D01*
X51046Y42521D01*
X51000Y42000D01*
X51046Y41479D01*
X51181Y40974D01*
X51402Y40500D01*
X51702Y40072D01*
X52072Y39702D01*
X52500Y39402D01*
X52974Y39181D01*
X53479Y39046D01*
X54000Y39000D01*
X54521Y39046D01*
X55000Y39174D01*
Y14750D01*
X54175Y14678D01*
X53375Y14464D01*
X52625Y14114D01*
X51947Y13639D01*
X51361Y13053D01*
X50886Y12375D01*
X50536Y11625D01*
X50322Y10825D01*
X50250Y10000D01*
X50322Y9175D01*
X50536Y8375D01*
X50886Y7625D01*
X51361Y6947D01*
X51947Y6361D01*
X52625Y5886D01*
X53375Y5536D01*
X54175Y5322D01*
X55000Y5250D01*
Y0D01*
G37*
G36*
X49000Y88174D02*X49479Y88046D01*
X50000Y88000D01*
X50521Y88046D01*
X51026Y88181D01*
X51500Y88402D01*
X51928Y88702D01*
X52298Y89072D01*
X52598Y89500D01*
X52819Y89974D01*
X52954Y90479D01*
X53000Y91000D01*
X52954Y91521D01*
X52819Y92026D01*
X52598Y92500D01*
X52298Y92928D01*
X51928Y93298D01*
X51500Y93598D01*
Y101380D01*
X55000Y104880D01*
Y75121D01*
X52888Y77233D01*
X52954Y77479D01*
X53000Y78000D01*
X52954Y78521D01*
X52819Y79026D01*
X52598Y79500D01*
X52298Y79928D01*
X51928Y80298D01*
X51500Y80598D01*
X51026Y80819D01*
X50521Y80954D01*
X50000Y81000D01*
X49479Y80954D01*
X49000Y80826D01*
Y88174D01*
G37*
G36*
Y108174D02*X49479Y108046D01*
X50000Y108000D01*
X50521Y108046D01*
X51026Y108181D01*
X51500Y108402D01*
X51928Y108702D01*
X52298Y109072D01*
X52598Y109500D01*
X52819Y109974D01*
X52954Y110479D01*
X53000Y111000D01*
X52954Y111521D01*
X52819Y112026D01*
X52598Y112500D01*
X52298Y112928D01*
X51928Y113298D01*
X51500Y113598D01*
Y122380D01*
X55000Y125880D01*
Y109122D01*
X49000Y103122D01*
Y108174D01*
G37*
G36*
Y128174D02*X49479Y128046D01*
X50000Y128000D01*
X50521Y128046D01*
X51026Y128181D01*
X51500Y128402D01*
X51928Y128702D01*
X52298Y129072D01*
X52598Y129500D01*
X52819Y129974D01*
X52954Y130479D01*
X53000Y131000D01*
X52954Y131521D01*
X52819Y132026D01*
X52598Y132500D01*
X52298Y132928D01*
X51928Y133298D01*
X51500Y133598D01*
Y142380D01*
X55000Y145880D01*
Y130122D01*
X49000Y124122D01*
Y128174D01*
G37*
G36*
Y148174D02*X49479Y148046D01*
X50000Y148000D01*
X50521Y148046D01*
X51026Y148181D01*
X51500Y148402D01*
X51928Y148702D01*
X52298Y149072D01*
X52598Y149500D01*
X52819Y149974D01*
X52954Y150479D01*
X53000Y151000D01*
X52954Y151521D01*
X52819Y152026D01*
X52598Y152500D01*
X52298Y152928D01*
X51928Y153298D01*
X51500Y153598D01*
Y160380D01*
X55000Y163880D01*
Y150122D01*
X49000Y144122D01*
Y148174D01*
G37*
G36*
Y168174D02*X49479Y168046D01*
X50000Y168000D01*
X50521Y168046D01*
X51026Y168181D01*
X51500Y168402D01*
X51928Y168702D01*
X52298Y169072D01*
X52598Y169500D01*
X52819Y169974D01*
X52954Y170479D01*
X53000Y171000D01*
X52954Y171521D01*
X52819Y172026D01*
X52598Y172500D01*
X52298Y172928D01*
X51928Y173298D01*
X51500Y173598D01*
Y190380D01*
X55000Y193880D01*
Y188122D01*
X53939Y187061D01*
X53940Y187060D01*
X53903Y187016D01*
X53851Y186964D01*
X53809Y186904D01*
X53772Y186860D01*
X53743Y186811D01*
X53701Y186750D01*
X53671Y186685D01*
X53641Y186634D01*
X53621Y186578D01*
X53590Y186513D01*
X53570Y186439D01*
X53552Y186388D01*
X53543Y186334D01*
X53523Y186260D01*
X53516Y186184D01*
X53507Y186131D01*
Y186081D01*
X53500Y186000D01*
Y166622D01*
X49000Y162122D01*
Y168174D01*
G37*
G36*
Y210000D02*X55000D01*
Y202538D01*
X54886Y202375D01*
X54536Y201625D01*
X54322Y200825D01*
X54250Y200000D01*
X54322Y199175D01*
X54536Y198375D01*
X54764Y197886D01*
X49000Y192122D01*
Y195250D01*
X49825Y195322D01*
X50625Y195536D01*
X51375Y195886D01*
X52053Y196361D01*
X52639Y196947D01*
X53114Y197625D01*
X53464Y198375D01*
X53678Y199175D01*
X53750Y200000D01*
X53678Y200825D01*
X53464Y201625D01*
X53114Y202375D01*
X52639Y203053D01*
X52053Y203639D01*
X51375Y204114D01*
X50625Y204464D01*
X49825Y204678D01*
X49000Y204750D01*
Y210000D01*
G37*
G36*
X42000D02*X49000D01*
Y204750D01*
X48175Y204678D01*
X47375Y204464D01*
X46625Y204114D01*
X45947Y203639D01*
X45361Y203053D01*
X44886Y202375D01*
X44536Y201625D01*
X44322Y200825D01*
X44250Y200000D01*
X44322Y199175D01*
X44536Y198375D01*
X44886Y197625D01*
X45361Y196947D01*
X45947Y196361D01*
X46625Y195886D01*
X47375Y195536D01*
X48175Y195322D01*
X49000Y195250D01*
Y192122D01*
X48939Y192061D01*
X48940Y192060D01*
X48903Y192016D01*
X48851Y191964D01*
X48809Y191904D01*
X48772Y191860D01*
X48743Y191810D01*
X48701Y191750D01*
X48671Y191686D01*
X48641Y191634D01*
X48622Y191581D01*
X48590Y191513D01*
X48570Y191437D01*
X48552Y191388D01*
X48542Y191333D01*
X48523Y191260D01*
X48516Y191185D01*
X48507Y191131D01*
Y191079D01*
X48500Y191000D01*
Y173598D01*
X48072Y173298D01*
X47702Y172928D01*
X47402Y172500D01*
X47181Y172026D01*
X47046Y171521D01*
X47000Y171000D01*
X47046Y170479D01*
X47181Y169974D01*
X47402Y169500D01*
X47702Y169072D01*
X48072Y168702D01*
X48500Y168402D01*
X48974Y168181D01*
X49000Y168174D01*
Y162122D01*
X48939Y162061D01*
X48940Y162060D01*
X48903Y162016D01*
X48851Y161964D01*
X48809Y161904D01*
X48772Y161860D01*
X48743Y161810D01*
X48701Y161750D01*
X48671Y161686D01*
X48641Y161634D01*
X48622Y161581D01*
X48590Y161513D01*
X48570Y161437D01*
X48552Y161388D01*
X48542Y161333D01*
X48523Y161260D01*
X48516Y161185D01*
X48507Y161131D01*
Y161079D01*
X48500Y161000D01*
Y153598D01*
X48072Y153298D01*
X47702Y152928D01*
X47402Y152500D01*
X47181Y152026D01*
X47046Y151521D01*
X47000Y151000D01*
X47046Y150479D01*
X47181Y149974D01*
X47402Y149500D01*
X47702Y149072D01*
X48072Y148702D01*
X48500Y148402D01*
X48974Y148181D01*
X49000Y148174D01*
Y144122D01*
X48939Y144061D01*
X48940Y144060D01*
X48903Y144016D01*
X48851Y143964D01*
X48809Y143904D01*
X48772Y143860D01*
X48743Y143811D01*
X48701Y143750D01*
X48671Y143685D01*
X48641Y143634D01*
X48621Y143580D01*
X48590Y143513D01*
X48570Y143437D01*
X48552Y143388D01*
X48542Y143333D01*
X48523Y143260D01*
X48516Y143184D01*
X48507Y143131D01*
Y143081D01*
X48500Y143000D01*
Y133598D01*
X48072Y133298D01*
X47702Y132928D01*
X47402Y132500D01*
X47181Y132026D01*
X47046Y131521D01*
X47000Y131000D01*
X47046Y130479D01*
X47181Y129974D01*
X47402Y129500D01*
X47702Y129072D01*
X48072Y128702D01*
X48500Y128402D01*
X48974Y128181D01*
X49000Y128174D01*
Y124122D01*
X48939Y124061D01*
X48940Y124060D01*
X48903Y124016D01*
X48851Y123964D01*
X48809Y123904D01*
X48772Y123860D01*
X48743Y123811D01*
X48701Y123750D01*
X48671Y123685D01*
X48641Y123634D01*
X48621Y123578D01*
X48590Y123513D01*
X48570Y123439D01*
X48552Y123388D01*
X48543Y123334D01*
X48523Y123260D01*
X48516Y123184D01*
X48507Y123131D01*
Y123081D01*
X48500Y123000D01*
Y113598D01*
X48072Y113298D01*
X47702Y112928D01*
X47402Y112500D01*
X47181Y112026D01*
X47046Y111521D01*
X47000Y111000D01*
X47046Y110479D01*
X47181Y109974D01*
X47402Y109500D01*
X47702Y109072D01*
X48072Y108702D01*
X48500Y108402D01*
X48974Y108181D01*
X49000Y108174D01*
Y103122D01*
X48939Y103061D01*
X48940Y103060D01*
X48903Y103016D01*
X48851Y102964D01*
X48809Y102904D01*
X48772Y102860D01*
X48743Y102810D01*
X48701Y102750D01*
X48670Y102684D01*
X48641Y102634D01*
X48621Y102580D01*
X48590Y102513D01*
X48570Y102439D01*
X48552Y102388D01*
X48543Y102334D01*
X48523Y102260D01*
X48516Y102184D01*
X48507Y102131D01*
Y102081D01*
X48500Y102000D01*
Y93598D01*
X48072Y93298D01*
X47702Y92928D01*
X47402Y92500D01*
X47181Y92026D01*
X47046Y91521D01*
X47000Y91000D01*
X47046Y90479D01*
X47181Y89974D01*
X47402Y89500D01*
X47702Y89072D01*
X48072Y88702D01*
X48500Y88402D01*
X48974Y88181D01*
X49000Y88174D01*
Y80826D01*
X48974Y80819D01*
X48500Y80598D01*
X48072Y80298D01*
X47702Y79928D01*
X47402Y79500D01*
X47181Y79026D01*
X47046Y78521D01*
X47010Y78111D01*
X45500Y79621D01*
Y141000D01*
X45494Y141068D01*
Y141131D01*
X45483Y141193D01*
X45477Y141260D01*
X45459Y141329D01*
X45448Y141389D01*
X45429Y141441D01*
X45410Y141513D01*
X45378Y141580D01*
X45359Y141634D01*
X45329Y141686D01*
X45299Y141750D01*
X45259Y141806D01*
X45228Y141861D01*
X45187Y141910D01*
X45149Y141964D01*
X45102Y142011D01*
X45060Y142061D01*
X44888Y142233D01*
X44954Y142479D01*
X45000Y143000D01*
X44954Y143521D01*
X44819Y144026D01*
X44598Y144500D01*
X44298Y144928D01*
X43928Y145298D01*
X43500Y145598D01*
X43026Y145819D01*
X42521Y145954D01*
X42000Y146000D01*
Y196324D01*
X42053Y196361D01*
X42639Y196947D01*
X43114Y197625D01*
X43464Y198375D01*
X43678Y199175D01*
X43750Y200000D01*
X43678Y200825D01*
X43464Y201625D01*
X43114Y202375D01*
X42639Y203053D01*
X42053Y203639D01*
X42000Y203676D01*
Y210000D01*
G37*
G36*
Y61121D02*X36500Y66621D01*
Y71380D01*
X39500Y74380D01*
Y72598D01*
X39072Y72298D01*
X38702Y71928D01*
X38402Y71500D01*
X38181Y71026D01*
X38046Y70521D01*
X38000Y70000D01*
X38046Y69479D01*
X38181Y68974D01*
X38402Y68500D01*
X38702Y68072D01*
X39072Y67702D01*
X39500Y67402D01*
X39974Y67181D01*
X40479Y67046D01*
X41000Y67000D01*
X41521Y67046D01*
X42000Y67174D01*
Y61121D01*
G37*
G36*
X30770Y65109D02*X38500Y57379D01*
Y32622D01*
X36766Y30888D01*
X36521Y30954D01*
X36000Y31000D01*
X35479Y30954D01*
X34974Y30819D01*
X34500Y30598D01*
X34072Y30298D01*
X33702Y29928D01*
X33402Y29500D01*
X33181Y29026D01*
X33046Y28521D01*
X33000Y28000D01*
X33046Y27479D01*
X33181Y26974D01*
X33402Y26500D01*
X33702Y26072D01*
X34072Y25702D01*
X34500Y25402D01*
X34974Y25181D01*
X35479Y25046D01*
X36000Y25000D01*
X36521Y25046D01*
X37026Y25181D01*
X37500Y25402D01*
X37928Y25702D01*
X38298Y26072D01*
X38598Y26500D01*
X38819Y26974D01*
X38954Y27479D01*
X39000Y28000D01*
X38954Y28521D01*
X38888Y28768D01*
X40500Y30380D01*
Y24598D01*
X40072Y24298D01*
X39702Y23928D01*
X39402Y23500D01*
X39181Y23026D01*
X39046Y22521D01*
X39000Y22000D01*
X39046Y21479D01*
X39181Y20974D01*
X39402Y20500D01*
X39702Y20072D01*
X40072Y19702D01*
X40500Y19402D01*
X40974Y19181D01*
X41479Y19046D01*
X42000Y19000D01*
Y13676D01*
X41947Y13639D01*
X41361Y13053D01*
X40886Y12375D01*
X40536Y11625D01*
X40322Y10825D01*
X40250Y10000D01*
X40322Y9175D01*
X40536Y8375D01*
X40886Y7625D01*
X41361Y6947D01*
X41947Y6361D01*
X42000Y6324D01*
Y0D01*
X30770D01*
Y26702D01*
X30884Y26741D01*
X31034Y26824D01*
X31168Y26932D01*
X31281Y27062D01*
X31369Y27209D01*
X31629Y27810D01*
X31832Y28434D01*
X31977Y29073D01*
X32062Y29722D01*
X32086Y30377D01*
X32050Y31032D01*
X31954Y31680D01*
X31798Y32316D01*
X31584Y32936D01*
X31314Y33533D01*
X31313D01*
X31222Y33678D01*
X31107Y33806D01*
X30972Y33912D01*
X30820Y33992D01*
X30770Y34008D01*
Y43026D01*
X30791Y43032D01*
X31103Y43177D01*
X31384Y43374D01*
X31626Y43616D01*
X31823Y43897D01*
X31968Y44209D01*
X32057Y44540D01*
X32087Y44882D01*
Y55118D01*
X32057Y55460D01*
X31968Y55791D01*
X31823Y56103D01*
X31626Y56384D01*
X31384Y56626D01*
X31103Y56823D01*
X30791Y56968D01*
X30770Y56974D01*
Y65109D01*
G37*
G36*
Y95109D02*X37500Y88379D01*
Y76622D01*
X33939Y73061D01*
X33940Y73060D01*
X33903Y73016D01*
X33851Y72964D01*
X33809Y72904D01*
X33772Y72860D01*
X33743Y72811D01*
X33701Y72750D01*
X33671Y72685D01*
X33641Y72634D01*
X33621Y72578D01*
X33590Y72513D01*
X33570Y72439D01*
X33552Y72388D01*
X33543Y72334D01*
X33523Y72260D01*
X33516Y72184D01*
X33507Y72131D01*
Y72081D01*
X33500Y72000D01*
Y66621D01*
X31500Y68621D01*
Y75402D01*
X31928Y75702D01*
X32298Y76072D01*
X32598Y76500D01*
X32819Y76974D01*
X32954Y77479D01*
X33000Y78000D01*
X32954Y78521D01*
X32819Y79026D01*
X32598Y79500D01*
X32298Y79928D01*
X31928Y80298D01*
X31500Y80598D01*
X31026Y80819D01*
X30770Y80887D01*
Y95109D01*
G37*
G36*
Y115109D02*X39500Y106379D01*
Y90621D01*
X32888Y97233D01*
X32954Y97479D01*
X33000Y98000D01*
X32954Y98521D01*
X32819Y99026D01*
X32598Y99500D01*
X32298Y99928D01*
X31928Y100298D01*
X31500Y100598D01*
X31026Y100819D01*
X30770Y100887D01*
Y115109D01*
G37*
G36*
Y210000D02*X42000D01*
Y203676D01*
X41375Y204114D01*
X40625Y204464D01*
X39825Y204678D01*
X39000Y204750D01*
X38175Y204678D01*
X37375Y204464D01*
X36625Y204114D01*
X35947Y203639D01*
X35361Y203053D01*
X34886Y202375D01*
X34536Y201625D01*
X34322Y200825D01*
X34250Y200000D01*
X34322Y199175D01*
X34536Y198375D01*
X34886Y197625D01*
X35361Y196947D01*
X35947Y196361D01*
X36625Y195886D01*
X37375Y195536D01*
X38175Y195322D01*
X39000Y195250D01*
X39825Y195322D01*
X40625Y195536D01*
X41375Y195886D01*
X42000Y196324D01*
Y146000D01*
X41479Y145954D01*
X40974Y145819D01*
X40500Y145598D01*
X40072Y145298D01*
X39702Y144928D01*
X39402Y144500D01*
X39181Y144026D01*
X39046Y143521D01*
X39000Y143000D01*
X39046Y142479D01*
X39181Y141974D01*
X39402Y141500D01*
X39702Y141072D01*
X40072Y140702D01*
X40500Y140402D01*
X40974Y140181D01*
X41479Y140046D01*
X42000Y140000D01*
Y108121D01*
X32888Y117233D01*
X32954Y117479D01*
X33000Y118000D01*
X32954Y118521D01*
X32819Y119026D01*
X32598Y119500D01*
X32298Y119928D01*
X31928Y120298D01*
X31500Y120598D01*
X31026Y120819D01*
X30770Y120887D01*
Y195604D01*
X31375Y195886D01*
X32053Y196361D01*
X32639Y196947D01*
X33114Y197625D01*
X33464Y198375D01*
X33678Y199175D01*
X33750Y200000D01*
X33678Y200825D01*
X33464Y201625D01*
X33114Y202375D01*
X32639Y203053D01*
X32053Y203639D01*
X31375Y204114D01*
X30770Y204396D01*
Y210000D01*
G37*
G36*
Y0D02*X25000D01*
Y23231D01*
X25061Y23229D01*
X25716Y23265D01*
X26364Y23361D01*
X27000Y23517D01*
X27620Y23731D01*
X28217Y24001D01*
Y24002D01*
X28362Y24093D01*
X28490Y24208D01*
X28596Y24343D01*
X28676Y24495D01*
X28729Y24658D01*
X28753Y24828D01*
X28747Y24999D01*
X28711Y25167D01*
X28647Y25326D01*
X28556Y25471D01*
X28441Y25599D01*
X28306Y25705D01*
X28154Y25785D01*
X27991Y25838D01*
X27821Y25862D01*
X27650Y25856D01*
X27482Y25820D01*
X27323Y25756D01*
X26891Y25561D01*
X26444Y25407D01*
X25985Y25294D01*
X25517Y25225D01*
X25044Y25199D01*
X25000Y25201D01*
Y35430D01*
X25428Y35415D01*
X25897Y35353D01*
X26358Y35249D01*
X26808Y35102D01*
X27243Y34915D01*
X27242D01*
X27402Y34853D01*
X27571Y34821D01*
X27742Y34818D01*
X27912Y34844D01*
X28074Y34900D01*
X28224Y34983D01*
X28358Y35091D01*
X28471Y35221D01*
X28559Y35368D01*
X28621Y35528D01*
X28653Y35697D01*
X28656Y35868D01*
X28630Y36038D01*
X28574Y36200D01*
X28491Y36350D01*
X28383Y36484D01*
X28253Y36597D01*
X28106Y36685D01*
X27505Y36945D01*
X26881Y37148D01*
X26242Y37293D01*
X25593Y37378D01*
X25000Y37400D01*
Y42913D01*
X30118D01*
X30460Y42943D01*
X30770Y43026D01*
Y34008D01*
X30657Y34045D01*
X30487Y34069D01*
X30316Y34063D01*
X30148Y34027D01*
X29989Y33963D01*
X29844Y33872D01*
X29716Y33757D01*
X29610Y33622D01*
X29530Y33470D01*
X29477Y33307D01*
X29453Y33137D01*
X29459Y32966D01*
X29495Y32798D01*
X29559Y32639D01*
X29754Y32207D01*
X29908Y31760D01*
X30021Y31301D01*
X30090Y30833D01*
X30116Y30360D01*
X30099Y29887D01*
X30037Y29418D01*
X29933Y28957D01*
X29786Y28507D01*
X29599Y28072D01*
Y28073D01*
X29537Y27913D01*
X29505Y27744D01*
X29502Y27573D01*
X29528Y27403D01*
X29584Y27241D01*
X29667Y27091D01*
X29775Y26957D01*
X29905Y26844D01*
X30052Y26756D01*
X30212Y26694D01*
X30381Y26662D01*
X30552Y26659D01*
X30722Y26685D01*
X30770Y26702D01*
Y0D01*
G37*
G36*
Y120887D02*X30521Y120954D01*
X30000Y121000D01*
X29479Y120954D01*
X28974Y120819D01*
X28500Y120598D01*
X28072Y120298D01*
X27702Y119928D01*
X27402Y119500D01*
X27181Y119026D01*
X27046Y118521D01*
X27000Y118000D01*
X27046Y117479D01*
X27181Y116974D01*
X27402Y116500D01*
X27702Y116072D01*
X28072Y115702D01*
X28500Y115402D01*
X28974Y115181D01*
X29479Y115046D01*
X30000Y115000D01*
X30521Y115046D01*
X30767Y115112D01*
X30770Y115109D01*
Y100887D01*
X30521Y100954D01*
X30000Y101000D01*
X29479Y100954D01*
X28974Y100819D01*
X28500Y100598D01*
X28072Y100298D01*
X27702Y99928D01*
X27402Y99500D01*
X27181Y99026D01*
X27046Y98521D01*
X27000Y98000D01*
X27046Y97479D01*
X27181Y96974D01*
X27402Y96500D01*
X27702Y96072D01*
X28072Y95702D01*
X28500Y95402D01*
X28974Y95181D01*
X29479Y95046D01*
X30000Y95000D01*
X30521Y95046D01*
X30767Y95112D01*
X30770Y95109D01*
Y80887D01*
X30521Y80954D01*
X30000Y81000D01*
X29479Y80954D01*
X28974Y80819D01*
X28500Y80598D01*
X28072Y80298D01*
X27702Y79928D01*
X27402Y79500D01*
X27181Y79026D01*
X27046Y78521D01*
X27000Y78000D01*
X27046Y77479D01*
X27181Y76974D01*
X27402Y76500D01*
X27702Y76072D01*
X28072Y75702D01*
X28500Y75402D01*
Y68000D01*
X28506Y67932D01*
Y67870D01*
X28517Y67807D01*
X28523Y67740D01*
X28540Y67676D01*
X28551Y67613D01*
X28572Y67555D01*
X28590Y67487D01*
X28619Y67425D01*
X28640Y67367D01*
X28673Y67310D01*
X28701Y67250D01*
X28738Y67197D01*
X28771Y67140D01*
X28814Y67089D01*
X28851Y67036D01*
X28897Y66990D01*
X28939Y66940D01*
X30770Y65109D01*
Y56974D01*
X30460Y57057D01*
X30118Y57087D01*
X25000D01*
Y197462D01*
X25361Y196947D01*
X25947Y196361D01*
X26625Y195886D01*
X27375Y195536D01*
X28175Y195322D01*
X29000Y195250D01*
X29825Y195322D01*
X30625Y195536D01*
X30770Y195604D01*
Y120887D01*
G37*
G36*
X25000Y210000D02*X30770D01*
Y204396D01*
X30625Y204464D01*
X29825Y204678D01*
X29000Y204750D01*
X28175Y204678D01*
X27375Y204464D01*
X26625Y204114D01*
X25947Y203639D01*
X25361Y203053D01*
X25000Y202538D01*
Y210000D01*
G37*
G36*
X18968Y43144D02*X19209Y43032D01*
X19540Y42943D01*
X19882Y42913D01*
X25000D01*
Y37400D01*
X24938Y37402D01*
X24283Y37366D01*
X23635Y37270D01*
X22999Y37114D01*
X22379Y36900D01*
X21782Y36630D01*
Y36629D01*
X21637Y36538D01*
X21509Y36423D01*
X21403Y36288D01*
X21323Y36136D01*
X21270Y35973D01*
X21246Y35803D01*
X21252Y35632D01*
X21288Y35464D01*
X21352Y35305D01*
X21443Y35160D01*
X21558Y35032D01*
X21693Y34926D01*
X21845Y34846D01*
X22008Y34793D01*
X22178Y34769D01*
X22349Y34775D01*
X22517Y34811D01*
X22676Y34875D01*
X23108Y35070D01*
X23555Y35224D01*
X24014Y35337D01*
X24482Y35406D01*
X24955Y35432D01*
X25000Y35430D01*
Y25201D01*
X24571Y25216D01*
X24102Y25278D01*
X23641Y25382D01*
X23191Y25529D01*
X22756Y25716D01*
X22757D01*
X22597Y25778D01*
X22428Y25810D01*
X22257Y25813D01*
X22087Y25787D01*
X21925Y25731D01*
X21775Y25648D01*
X21641Y25540D01*
X21528Y25410D01*
X21440Y25263D01*
X21378Y25103D01*
X21346Y24934D01*
X21343Y24763D01*
X21369Y24593D01*
X21425Y24431D01*
X21508Y24281D01*
X21616Y24147D01*
X21746Y24034D01*
X21893Y23946D01*
X22494Y23686D01*
X23118Y23483D01*
X23757Y23338D01*
X24406Y23253D01*
X25000Y23231D01*
Y0D01*
X18968D01*
Y26765D01*
X19027Y26719D01*
X19179Y26639D01*
X19342Y26586D01*
X19512Y26562D01*
X19683Y26568D01*
X19851Y26604D01*
X20010Y26668D01*
X20155Y26759D01*
X20283Y26874D01*
X20389Y27009D01*
X20469Y27161D01*
X20522Y27324D01*
X20546Y27494D01*
X20540Y27665D01*
X20504Y27833D01*
X20440Y27992D01*
X20245Y28424D01*
X20091Y28871D01*
X19978Y29330D01*
X19909Y29798D01*
X19883Y30271D01*
X19900Y30744D01*
X19962Y31213D01*
X20066Y31674D01*
X20213Y32124D01*
X20400Y32559D01*
Y32558D01*
X20462Y32718D01*
X20494Y32887D01*
X20497Y33058D01*
X20471Y33228D01*
X20415Y33390D01*
X20332Y33540D01*
X20224Y33674D01*
X20094Y33787D01*
X19947Y33875D01*
X19787Y33937D01*
X19618Y33969D01*
X19447Y33972D01*
X19277Y33946D01*
X19115Y33890D01*
X18968Y33809D01*
Y43144D01*
G37*
G36*
X22927Y210000D02*X25000D01*
Y202538D01*
X24886Y202375D01*
X24536Y201625D01*
X24322Y200825D01*
X24250Y200000D01*
X24322Y199175D01*
X24536Y198375D01*
X24886Y197625D01*
X25000Y197462D01*
Y57087D01*
X22927D01*
Y197403D01*
X22957Y197423D01*
X23020Y197483D01*
X23071Y197554D01*
X23278Y197937D01*
X23449Y198337D01*
X23582Y198751D01*
X23677Y199176D01*
X23733Y199607D01*
X23749Y200042D01*
X23726Y200476D01*
X23662Y200907D01*
X23560Y201330D01*
X23419Y201741D01*
X23241Y202138D01*
X23028Y202518D01*
X22976Y202588D01*
X22927Y202633D01*
Y210000D01*
G37*
G36*
X18968D02*X22927D01*
Y202633D01*
X22912Y202647D01*
X22839Y202694D01*
X22758Y202729D01*
X22674Y202748D01*
X22587Y202753D01*
X22500Y202742D01*
X22417Y202717D01*
X22339Y202677D01*
X22269Y202625D01*
X22210Y202561D01*
X22163Y202488D01*
X22128Y202407D01*
X22109Y202323D01*
X22104Y202236D01*
X22115Y202149D01*
X22140Y202066D01*
X22180Y201988D01*
X22348Y201688D01*
X22489Y201375D01*
X22600Y201050D01*
X22681Y200716D01*
X22731Y200376D01*
X22749Y200033D01*
X22737Y199690D01*
X22693Y199349D01*
X22617Y199014D01*
X22512Y198687D01*
X22377Y198371D01*
X22214Y198069D01*
X22213Y198070D01*
X22175Y197992D01*
X22151Y197908D01*
X22141Y197821D01*
X22148Y197734D01*
X22169Y197649D01*
X22204Y197569D01*
X22253Y197497D01*
X22313Y197434D01*
X22384Y197383D01*
X22462Y197345D01*
X22546Y197321D01*
X22633Y197311D01*
X22720Y197318D01*
X22805Y197339D01*
X22885Y197374D01*
X22927Y197403D01*
Y57087D01*
X19882D01*
X19540Y57057D01*
X19209Y56968D01*
X18968Y56856D01*
Y195254D01*
X19041Y195251D01*
X19475Y195274D01*
X19906Y195338D01*
X20329Y195440D01*
X20740Y195581D01*
X21137Y195759D01*
X21517Y195972D01*
X21587Y196024D01*
X21646Y196088D01*
X21693Y196161D01*
X21728Y196242D01*
X21747Y196326D01*
X21752Y196413D01*
X21741Y196500D01*
X21716Y196583D01*
X21676Y196661D01*
X21624Y196731D01*
X21560Y196790D01*
X21487Y196837D01*
X21406Y196872D01*
X21322Y196891D01*
X21235Y196896D01*
X21148Y196885D01*
X21065Y196860D01*
X20987Y196820D01*
X20687Y196652D01*
X20374Y196511D01*
X20049Y196400D01*
X19715Y196319D01*
X19375Y196269D01*
X19032Y196251D01*
X18968Y196253D01*
Y203750D01*
X19310Y203738D01*
X19651Y203694D01*
X19986Y203618D01*
X20313Y203513D01*
X20629Y203378D01*
X20931Y203215D01*
X20930Y203214D01*
X21008Y203176D01*
X21092Y203152D01*
X21179Y203142D01*
X21266Y203149D01*
X21351Y203170D01*
X21431Y203205D01*
X21503Y203254D01*
X21566Y203314D01*
X21617Y203385D01*
X21655Y203463D01*
X21679Y203547D01*
X21689Y203634D01*
X21682Y203721D01*
X21661Y203806D01*
X21626Y203886D01*
X21577Y203958D01*
X21517Y204021D01*
X21446Y204072D01*
X21063Y204279D01*
X20663Y204450D01*
X20249Y204583D01*
X19824Y204678D01*
X19393Y204734D01*
X18968Y204750D01*
Y210000D01*
G37*
G36*
X15073D02*X18968D01*
Y204750D01*
X18958D01*
X18524Y204727D01*
X18093Y204663D01*
X17670Y204561D01*
X17259Y204420D01*
X16862Y204242D01*
X16482Y204029D01*
X16412Y203977D01*
X16353Y203913D01*
X16306Y203840D01*
X16271Y203759D01*
X16252Y203675D01*
X16247Y203588D01*
X16258Y203501D01*
X16283Y203418D01*
X16323Y203340D01*
X16375Y203270D01*
X16439Y203211D01*
X16512Y203164D01*
X16593Y203129D01*
X16677Y203110D01*
X16764Y203105D01*
X16851Y203116D01*
X16934Y203141D01*
X17012Y203181D01*
X17312Y203349D01*
X17625Y203490D01*
X17950Y203601D01*
X18284Y203682D01*
X18624Y203732D01*
X18967Y203750D01*
X18968D01*
Y196253D01*
X18689Y196263D01*
X18348Y196307D01*
X18013Y196383D01*
X17686Y196488D01*
X17370Y196623D01*
X17068Y196786D01*
X17069Y196787D01*
X16991Y196825D01*
X16907Y196849D01*
X16820Y196859D01*
X16733Y196852D01*
X16648Y196831D01*
X16568Y196796D01*
X16496Y196747D01*
X16433Y196687D01*
X16382Y196616D01*
X16344Y196538D01*
X16320Y196454D01*
X16310Y196367D01*
X16317Y196280D01*
X16338Y196195D01*
X16373Y196115D01*
X16422Y196043D01*
X16482Y195980D01*
X16553Y195929D01*
X16936Y195722D01*
X17336Y195551D01*
X17750Y195418D01*
X18175Y195323D01*
X18606Y195267D01*
X18968Y195254D01*
Y56856D01*
X18897Y56823D01*
X18616Y56626D01*
X18374Y56384D01*
X18177Y56103D01*
X18032Y55791D01*
X17943Y55460D01*
X17913Y55118D01*
Y44882D01*
X17943Y44540D01*
X18032Y44209D01*
X18177Y43897D01*
X18374Y43616D01*
X18616Y43374D01*
X18897Y43177D01*
X18968Y43144D01*
Y33809D01*
X18965Y33807D01*
X18831Y33699D01*
X18718Y33569D01*
X18630Y33422D01*
X18370Y32821D01*
X18167Y32197D01*
X18022Y31558D01*
X17937Y30909D01*
X17913Y30254D01*
X17949Y29599D01*
X18045Y28951D01*
X18201Y28315D01*
X18415Y27695D01*
X18685Y27098D01*
X18686D01*
X18777Y26953D01*
X18892Y26825D01*
X18968Y26765D01*
Y0D01*
X15073D01*
Y37847D01*
X15298Y38072D01*
X15598Y38500D01*
X15819Y38974D01*
X15954Y39479D01*
X16000Y40000D01*
X15954Y40521D01*
X15819Y41026D01*
X15598Y41500D01*
X15298Y41928D01*
X15073Y42153D01*
Y55203D01*
X15500Y55402D01*
X15928Y55702D01*
X16298Y56072D01*
X16598Y56500D01*
X16819Y56974D01*
X16954Y57479D01*
X17000Y58000D01*
X16954Y58521D01*
X16819Y59026D01*
X16598Y59500D01*
X16298Y59928D01*
X15928Y60298D01*
X15500Y60598D01*
X15073Y60797D01*
Y72953D01*
X16060Y73940D01*
X16061Y73939D01*
X16108Y73995D01*
X16149Y74036D01*
X16181Y74082D01*
X16229Y74139D01*
X16265Y74202D01*
X16299Y74250D01*
X16325Y74306D01*
X16360Y74366D01*
X16383Y74429D01*
X16410Y74487D01*
X16426Y74549D01*
X16449Y74612D01*
X16461Y74681D01*
X16477Y74740D01*
X16482Y74798D01*
X16495Y74869D01*
Y74943D01*
X16500Y75000D01*
Y79000D01*
X16494Y79068D01*
Y79131D01*
X16483Y79194D01*
X16477Y79260D01*
X16459Y79329D01*
X16448Y79389D01*
X16429Y79441D01*
X16410Y79513D01*
X16379Y79580D01*
X16359Y79634D01*
X16329Y79686D01*
X16299Y79750D01*
X16260Y79806D01*
X16228Y79861D01*
X16187Y79909D01*
X16149Y79964D01*
X16102Y80011D01*
X16060Y80061D01*
X15073Y81048D01*
Y197367D01*
X15087Y197354D01*
X15160Y197307D01*
X15241Y197272D01*
X15325Y197253D01*
X15412Y197248D01*
X15499Y197259D01*
X15582Y197284D01*
X15660Y197324D01*
X15730Y197376D01*
X15789Y197440D01*
X15836Y197513D01*
X15871Y197594D01*
X15890Y197678D01*
X15895Y197765D01*
X15884Y197852D01*
X15859Y197935D01*
X15819Y198013D01*
X15651Y198313D01*
X15510Y198626D01*
X15399Y198951D01*
X15318Y199285D01*
X15268Y199625D01*
X15250Y199968D01*
X15262Y200311D01*
X15306Y200652D01*
X15382Y200987D01*
X15487Y201314D01*
X15622Y201630D01*
X15785Y201932D01*
X15786Y201931D01*
X15824Y202009D01*
X15848Y202093D01*
X15858Y202180D01*
X15851Y202267D01*
X15830Y202352D01*
X15795Y202432D01*
X15746Y202504D01*
X15686Y202567D01*
X15615Y202618D01*
X15537Y202656D01*
X15453Y202680D01*
X15366Y202690D01*
X15279Y202683D01*
X15194Y202662D01*
X15114Y202627D01*
X15073Y202599D01*
Y210000D01*
G37*
G36*
Y60797D02*X15026Y60819D01*
X14521Y60954D01*
X14000Y61000D01*
X13500Y60956D01*
Y71380D01*
X15073Y72953D01*
Y60797D01*
G37*
G36*
Y42153D02*X14928Y42298D01*
X14500Y42598D01*
X14026Y42819D01*
X13521Y42954D01*
X13000Y43000D01*
X12479Y42954D01*
X12233Y42888D01*
X12000Y43121D01*
Y55774D01*
X12072Y55702D01*
X12500Y55402D01*
X12974Y55181D01*
X13479Y55046D01*
X14000Y55000D01*
X14521Y55046D01*
X15026Y55181D01*
X15073Y55203D01*
Y42153D01*
G37*
G36*
Y0D02*X12000D01*
Y37174D01*
X12479Y37046D01*
X13000Y37000D01*
X13521Y37046D01*
X14026Y37181D01*
X14500Y37402D01*
X14928Y37702D01*
X15073Y37847D01*
Y0D01*
G37*
G36*
X12000Y210000D02*X15073D01*
Y202599D01*
X15042Y202578D01*
X14979Y202518D01*
X14928Y202447D01*
X14721Y202064D01*
X14550Y201664D01*
X14417Y201250D01*
X14322Y200825D01*
X14266Y200394D01*
X14250Y199959D01*
X14273Y199525D01*
X14337Y199094D01*
X14439Y198671D01*
X14580Y198260D01*
X14758Y197863D01*
X14971Y197483D01*
X15023Y197413D01*
X15073Y197367D01*
Y81048D01*
X12000Y84121D01*
Y94774D01*
X12298Y95072D01*
X12598Y95500D01*
X12819Y95974D01*
X12954Y96479D01*
X13000Y97000D01*
X12954Y97521D01*
X12819Y98026D01*
X12598Y98500D01*
X12298Y98928D01*
X12000Y99226D01*
Y196324D01*
X12053Y196361D01*
X12639Y196947D01*
X13114Y197625D01*
X13464Y198375D01*
X13678Y199175D01*
X13750Y200000D01*
X13678Y200825D01*
X13464Y201625D01*
X13114Y202375D01*
X12639Y203053D01*
X12053Y203639D01*
X12000Y203676D01*
Y210000D01*
G37*
G36*
Y84121D02*X11500Y84621D01*
Y94402D01*
X11928Y94702D01*
X12000Y94774D01*
Y84121D01*
G37*
G36*
Y43121D02*X11500Y43621D01*
Y56360D01*
X11702Y56072D01*
X12000Y55774D01*
Y43121D01*
G37*
G36*
Y74122D02*X11500Y73622D01*
Y74402D01*
X11928Y74702D01*
X12000Y74774D01*
Y74122D01*
G37*
G36*
X6409Y196037D02*X6625Y195886D01*
X7375Y195536D01*
X8175Y195322D01*
X9000Y195250D01*
X9825Y195322D01*
X10625Y195536D01*
X11375Y195886D01*
X12000Y196324D01*
Y99226D01*
X11928Y99298D01*
X11500Y99598D01*
X11026Y99819D01*
X10521Y99954D01*
X10000Y100000D01*
X9479Y99954D01*
X8974Y99819D01*
X8500Y99598D01*
X8072Y99298D01*
X7702Y98928D01*
X7402Y98500D01*
X7181Y98026D01*
X7046Y97521D01*
X7000Y97000D01*
X7046Y96479D01*
X7181Y95974D01*
X7402Y95500D01*
X7702Y95072D01*
X8072Y94702D01*
X8500Y94402D01*
Y84000D01*
X8506Y83932D01*
Y83870D01*
X8517Y83807D01*
X8523Y83740D01*
X8540Y83676D01*
X8551Y83613D01*
X8572Y83555D01*
X8590Y83487D01*
X8619Y83425D01*
X8640Y83367D01*
X8673Y83310D01*
X8701Y83250D01*
X8738Y83197D01*
X8771Y83140D01*
X8814Y83089D01*
X8851Y83036D01*
X8897Y82990D01*
X8939Y82940D01*
X12000Y79879D01*
Y79226D01*
X11928Y79298D01*
X11500Y79598D01*
X11026Y79819D01*
X10521Y79954D01*
X10000Y80000D01*
X9479Y79954D01*
X8974Y79819D01*
X8500Y79598D01*
X8072Y79298D01*
X7702Y78928D01*
X7402Y78500D01*
X7181Y78026D01*
X7046Y77521D01*
X7000Y77000D01*
X7046Y76479D01*
X7181Y75974D01*
X7402Y75500D01*
X7702Y75072D01*
X8072Y74702D01*
X8500Y74402D01*
Y43000D01*
X8506Y42932D01*
Y42870D01*
X8517Y42807D01*
X8523Y42740D01*
X8540Y42675D01*
X8551Y42613D01*
X8572Y42556D01*
Y42555D01*
X8590Y42487D01*
X8619Y42424D01*
X8640Y42367D01*
X8672Y42311D01*
X8701Y42250D01*
X8738Y42197D01*
X8771Y42140D01*
X8813Y42090D01*
X8851Y42036D01*
X8897Y41990D01*
X8939Y41940D01*
X10112Y40767D01*
X10046Y40521D01*
X10000Y40000D01*
X10046Y39479D01*
X10181Y38974D01*
X10402Y38500D01*
X10702Y38072D01*
X11072Y37702D01*
X11500Y37402D01*
X11974Y37181D01*
X12000Y37174D01*
Y0D01*
X6409D01*
Y83574D01*
X6472Y83588D01*
X6552Y83622D01*
X6625Y83670D01*
X6689Y83730D01*
X6741Y83799D01*
X6781Y83877D01*
X6876Y84148D01*
X6944Y84428D01*
X6986Y84713D01*
X7000Y85000D01*
X6986Y85288D01*
X6944Y85573D01*
X6876Y85853D01*
X6781Y86124D01*
X6780D01*
X6740Y86202D01*
X6688Y86271D01*
X6624Y86330D01*
X6551Y86378D01*
X6471Y86412D01*
X6409Y86426D01*
Y103574D01*
X6472Y103588D01*
X6552Y103622D01*
X6625Y103670D01*
X6689Y103730D01*
X6741Y103799D01*
X6781Y103877D01*
X6876Y104148D01*
X6944Y104428D01*
X6986Y104713D01*
X7000Y105000D01*
X6986Y105288D01*
X6944Y105573D01*
X6876Y105853D01*
X6781Y106124D01*
X6780D01*
X6740Y106202D01*
X6688Y106271D01*
X6624Y106330D01*
X6551Y106378D01*
X6471Y106412D01*
X6409Y106426D01*
Y123574D01*
X6472Y123588D01*
X6552Y123622D01*
X6625Y123670D01*
X6689Y123730D01*
X6741Y123799D01*
X6781Y123877D01*
X6876Y124148D01*
X6944Y124428D01*
X6986Y124713D01*
X7000Y125000D01*
X6986Y125288D01*
X6944Y125573D01*
X6876Y125853D01*
X6781Y126124D01*
X6780D01*
X6740Y126202D01*
X6688Y126271D01*
X6624Y126330D01*
X6551Y126378D01*
X6471Y126412D01*
X6409Y126426D01*
Y143574D01*
X6472Y143588D01*
X6552Y143622D01*
X6625Y143670D01*
X6689Y143730D01*
X6741Y143799D01*
X6781Y143877D01*
X6876Y144148D01*
X6944Y144428D01*
X6986Y144713D01*
X7000Y145000D01*
X6986Y145288D01*
X6944Y145573D01*
X6876Y145853D01*
X6781Y146124D01*
X6780D01*
X6740Y146202D01*
X6688Y146271D01*
X6624Y146330D01*
X6551Y146378D01*
X6471Y146412D01*
X6409Y146426D01*
Y163574D01*
X6472Y163588D01*
X6552Y163622D01*
X6625Y163670D01*
X6689Y163730D01*
X6741Y163799D01*
X6781Y163877D01*
X6876Y164148D01*
X6944Y164428D01*
X6986Y164713D01*
X7000Y165000D01*
X6986Y165288D01*
X6944Y165573D01*
X6876Y165853D01*
X6781Y166124D01*
X6780D01*
X6740Y166202D01*
X6688Y166271D01*
X6624Y166330D01*
X6551Y166378D01*
X6471Y166412D01*
X6409Y166426D01*
Y183574D01*
X6472Y183588D01*
X6552Y183622D01*
X6625Y183670D01*
X6689Y183730D01*
X6741Y183799D01*
X6781Y183877D01*
X6876Y184148D01*
X6944Y184428D01*
X6986Y184713D01*
X7000Y185000D01*
X6986Y185288D01*
X6944Y185573D01*
X6876Y185853D01*
X6781Y186124D01*
X6780D01*
X6740Y186202D01*
X6688Y186271D01*
X6624Y186330D01*
X6551Y186378D01*
X6471Y186412D01*
X6409Y186426D01*
Y196037D01*
G37*
G36*
Y210000D02*X12000D01*
Y203676D01*
X11375Y204114D01*
X10625Y204464D01*
X9825Y204678D01*
X9000Y204750D01*
X8175Y204678D01*
X7375Y204464D01*
X6625Y204114D01*
X6409Y203963D01*
Y210000D01*
G37*
G36*
X4000D02*X6409D01*
Y203963D01*
X5947Y203639D01*
X5361Y203053D01*
X4886Y202375D01*
X4536Y201625D01*
X4322Y200825D01*
X4250Y200000D01*
X4322Y199175D01*
X4536Y198375D01*
X4886Y197625D01*
X5361Y196947D01*
X5947Y196361D01*
X6409Y196037D01*
Y186426D01*
X6387Y186431D01*
X6300Y186436D01*
X6213Y186425D01*
X6130Y186400D01*
X6052Y186360D01*
X5983Y186308D01*
X5924Y186244D01*
X5876Y186171D01*
X5842Y186091D01*
X5823Y186007D01*
X5818Y185920D01*
X5829Y185833D01*
X5854Y185750D01*
X5917Y185569D01*
X5963Y185382D01*
X5990Y185192D01*
X6000Y185000D01*
X5990Y184809D01*
X5963Y184619D01*
X5917Y184432D01*
X5854Y184251D01*
X5853D01*
X5828Y184168D01*
X5817Y184081D01*
X5822Y183994D01*
X5841Y183909D01*
X5875Y183829D01*
X5923Y183756D01*
X5983Y183692D01*
X6052Y183640D01*
X6130Y183600D01*
X6213Y183575D01*
X6300Y183564D01*
X6387Y183569D01*
X6409Y183574D01*
Y166426D01*
X6387Y166431D01*
X6300Y166436D01*
X6213Y166425D01*
X6130Y166400D01*
X6052Y166360D01*
X5983Y166308D01*
X5924Y166244D01*
X5876Y166171D01*
X5842Y166091D01*
X5823Y166007D01*
X5818Y165920D01*
X5829Y165833D01*
X5854Y165750D01*
X5917Y165569D01*
X5963Y165382D01*
X5990Y165192D01*
X6000Y165000D01*
X5990Y164809D01*
X5963Y164619D01*
X5917Y164432D01*
X5854Y164251D01*
X5853D01*
X5828Y164168D01*
X5817Y164081D01*
X5822Y163994D01*
X5841Y163909D01*
X5875Y163829D01*
X5923Y163756D01*
X5983Y163692D01*
X6052Y163640D01*
X6130Y163600D01*
X6213Y163575D01*
X6300Y163564D01*
X6387Y163569D01*
X6409Y163574D01*
Y146426D01*
X6387Y146431D01*
X6300Y146436D01*
X6213Y146425D01*
X6130Y146400D01*
X6052Y146360D01*
X5983Y146308D01*
X5924Y146244D01*
X5876Y146171D01*
X5842Y146091D01*
X5823Y146007D01*
X5818Y145920D01*
X5829Y145833D01*
X5854Y145750D01*
X5917Y145569D01*
X5963Y145382D01*
X5990Y145192D01*
X6000Y145000D01*
X5990Y144809D01*
X5963Y144619D01*
X5917Y144432D01*
X5854Y144251D01*
X5853D01*
X5828Y144168D01*
X5817Y144081D01*
X5822Y143994D01*
X5841Y143909D01*
X5875Y143829D01*
X5923Y143756D01*
X5983Y143692D01*
X6052Y143640D01*
X6130Y143600D01*
X6213Y143575D01*
X6300Y143564D01*
X6387Y143569D01*
X6409Y143574D01*
Y126426D01*
X6387Y126431D01*
X6300Y126436D01*
X6213Y126425D01*
X6130Y126400D01*
X6052Y126360D01*
X5983Y126308D01*
X5924Y126244D01*
X5876Y126171D01*
X5842Y126091D01*
X5823Y126007D01*
X5818Y125920D01*
X5829Y125833D01*
X5854Y125750D01*
X5917Y125569D01*
X5963Y125382D01*
X5990Y125192D01*
X6000Y125000D01*
X5990Y124809D01*
X5963Y124619D01*
X5917Y124432D01*
X5854Y124251D01*
X5853D01*
X5828Y124168D01*
X5817Y124081D01*
X5822Y123994D01*
X5841Y123909D01*
X5875Y123829D01*
X5923Y123756D01*
X5983Y123692D01*
X6052Y123640D01*
X6130Y123600D01*
X6213Y123575D01*
X6300Y123564D01*
X6387Y123569D01*
X6409Y123574D01*
Y106426D01*
X6387Y106431D01*
X6300Y106436D01*
X6213Y106425D01*
X6130Y106400D01*
X6052Y106360D01*
X5983Y106308D01*
X5924Y106244D01*
X5876Y106171D01*
X5842Y106091D01*
X5823Y106007D01*
X5818Y105920D01*
X5829Y105833D01*
X5854Y105750D01*
X5917Y105569D01*
X5963Y105382D01*
X5990Y105192D01*
X6000Y105000D01*
X5990Y104809D01*
X5963Y104619D01*
X5917Y104432D01*
X5854Y104251D01*
X5853D01*
X5828Y104168D01*
X5817Y104081D01*
X5822Y103994D01*
X5841Y103909D01*
X5875Y103829D01*
X5923Y103756D01*
X5983Y103692D01*
X6052Y103640D01*
X6130Y103600D01*
X6213Y103575D01*
X6300Y103564D01*
X6387Y103569D01*
X6409Y103574D01*
Y86426D01*
X6387Y86431D01*
X6300Y86436D01*
X6213Y86425D01*
X6130Y86400D01*
X6052Y86360D01*
X5983Y86308D01*
X5924Y86244D01*
X5876Y86171D01*
X5842Y86091D01*
X5823Y86007D01*
X5818Y85920D01*
X5829Y85833D01*
X5854Y85750D01*
X5917Y85569D01*
X5963Y85382D01*
X5990Y85192D01*
X6000Y85000D01*
X5990Y84809D01*
X5963Y84619D01*
X5917Y84432D01*
X5854Y84251D01*
X5853D01*
X5828Y84168D01*
X5817Y84081D01*
X5822Y83994D01*
X5841Y83909D01*
X5875Y83829D01*
X5923Y83756D01*
X5983Y83692D01*
X6052Y83640D01*
X6130Y83600D01*
X6213Y83575D01*
X6300Y83564D01*
X6387Y83569D01*
X6409Y83574D01*
Y0D01*
X4000D01*
Y82000D01*
X4287Y82014D01*
X4572Y82056D01*
X4852Y82124D01*
X5123Y82219D01*
Y82220D01*
X5201Y82260D01*
X5270Y82312D01*
X5329Y82376D01*
X5377Y82449D01*
X5411Y82529D01*
X5430Y82613D01*
X5435Y82700D01*
X5424Y82787D01*
X5399Y82870D01*
X5359Y82948D01*
X5307Y83017D01*
X5243Y83076D01*
X5170Y83124D01*
X5090Y83158D01*
X5006Y83177D01*
X4919Y83182D01*
X4832Y83171D01*
X4749Y83146D01*
X4568Y83083D01*
X4381Y83037D01*
X4191Y83010D01*
X4000Y83000D01*
Y87000D01*
X4191Y86991D01*
X4381Y86964D01*
X4568Y86918D01*
X4749Y86855D01*
Y86854D01*
X4832Y86829D01*
X4919Y86818D01*
X5006Y86823D01*
X5091Y86842D01*
X5171Y86876D01*
X5244Y86924D01*
X5308Y86984D01*
X5360Y87053D01*
X5400Y87131D01*
X5425Y87214D01*
X5436Y87301D01*
X5431Y87388D01*
X5412Y87473D01*
X5378Y87553D01*
X5330Y87626D01*
X5270Y87690D01*
X5201Y87742D01*
X5123Y87782D01*
X4852Y87877D01*
X4572Y87945D01*
X4287Y87987D01*
X4000Y88000D01*
Y102000D01*
X4287Y102014D01*
X4572Y102056D01*
X4852Y102124D01*
X5123Y102219D01*
Y102220D01*
X5201Y102260D01*
X5270Y102312D01*
X5329Y102376D01*
X5377Y102449D01*
X5411Y102529D01*
X5430Y102613D01*
X5435Y102700D01*
X5424Y102787D01*
X5399Y102870D01*
X5359Y102948D01*
X5307Y103017D01*
X5243Y103076D01*
X5170Y103124D01*
X5090Y103158D01*
X5006Y103177D01*
X4919Y103182D01*
X4832Y103171D01*
X4749Y103146D01*
X4568Y103083D01*
X4381Y103037D01*
X4191Y103010D01*
X4000Y103000D01*
Y107000D01*
X4191Y106991D01*
X4381Y106964D01*
X4568Y106918D01*
X4749Y106855D01*
Y106854D01*
X4832Y106829D01*
X4919Y106818D01*
X5006Y106823D01*
X5091Y106842D01*
X5171Y106876D01*
X5244Y106924D01*
X5308Y106984D01*
X5360Y107053D01*
X5400Y107131D01*
X5425Y107214D01*
X5436Y107301D01*
X5431Y107388D01*
X5412Y107473D01*
X5378Y107553D01*
X5330Y107626D01*
X5270Y107690D01*
X5201Y107742D01*
X5123Y107782D01*
X4852Y107877D01*
X4572Y107945D01*
X4287Y107987D01*
X4000Y108000D01*
Y122000D01*
X4287Y122014D01*
X4572Y122056D01*
X4852Y122124D01*
X5123Y122219D01*
Y122220D01*
X5201Y122260D01*
X5270Y122312D01*
X5329Y122376D01*
X5377Y122449D01*
X5411Y122529D01*
X5430Y122613D01*
X5435Y122700D01*
X5424Y122787D01*
X5399Y122870D01*
X5359Y122948D01*
X5307Y123017D01*
X5243Y123076D01*
X5170Y123124D01*
X5090Y123158D01*
X5006Y123177D01*
X4919Y123182D01*
X4832Y123171D01*
X4749Y123146D01*
X4568Y123083D01*
X4381Y123037D01*
X4191Y123010D01*
X4000Y123000D01*
Y127000D01*
X4191Y126991D01*
X4381Y126964D01*
X4568Y126918D01*
X4749Y126855D01*
Y126854D01*
X4832Y126829D01*
X4919Y126818D01*
X5006Y126823D01*
X5091Y126842D01*
X5171Y126876D01*
X5244Y126924D01*
X5308Y126984D01*
X5360Y127053D01*
X5400Y127131D01*
X5425Y127214D01*
X5436Y127301D01*
X5431Y127388D01*
X5412Y127473D01*
X5378Y127553D01*
X5330Y127626D01*
X5270Y127690D01*
X5201Y127742D01*
X5123Y127782D01*
X4852Y127877D01*
X4572Y127945D01*
X4287Y127987D01*
X4000Y128000D01*
Y142000D01*
X4287Y142014D01*
X4572Y142056D01*
X4852Y142124D01*
X5123Y142219D01*
Y142220D01*
X5201Y142260D01*
X5270Y142312D01*
X5329Y142376D01*
X5377Y142449D01*
X5411Y142529D01*
X5430Y142613D01*
X5435Y142700D01*
X5424Y142787D01*
X5399Y142870D01*
X5359Y142948D01*
X5307Y143017D01*
X5243Y143076D01*
X5170Y143124D01*
X5090Y143158D01*
X5006Y143177D01*
X4919Y143182D01*
X4832Y143171D01*
X4749Y143146D01*
X4568Y143083D01*
X4381Y143037D01*
X4191Y143010D01*
X4000Y143000D01*
Y147000D01*
X4191Y146991D01*
X4381Y146964D01*
X4568Y146918D01*
X4749Y146855D01*
Y146854D01*
X4832Y146829D01*
X4919Y146818D01*
X5006Y146823D01*
X5091Y146842D01*
X5171Y146876D01*
X5244Y146924D01*
X5308Y146984D01*
X5360Y147053D01*
X5400Y147131D01*
X5425Y147214D01*
X5436Y147301D01*
X5431Y147388D01*
X5412Y147473D01*
X5378Y147553D01*
X5330Y147626D01*
X5270Y147690D01*
X5201Y147742D01*
X5123Y147782D01*
X4852Y147877D01*
X4572Y147945D01*
X4287Y147987D01*
X4000Y148000D01*
Y162000D01*
X4287Y162014D01*
X4572Y162056D01*
X4852Y162124D01*
X5123Y162219D01*
Y162220D01*
X5201Y162260D01*
X5270Y162312D01*
X5329Y162376D01*
X5377Y162449D01*
X5411Y162529D01*
X5430Y162613D01*
X5435Y162700D01*
X5424Y162787D01*
X5399Y162870D01*
X5359Y162948D01*
X5307Y163017D01*
X5243Y163076D01*
X5170Y163124D01*
X5090Y163158D01*
X5006Y163177D01*
X4919Y163182D01*
X4832Y163171D01*
X4749Y163146D01*
X4568Y163083D01*
X4381Y163037D01*
X4191Y163010D01*
X4000Y163000D01*
Y167000D01*
X4191Y166991D01*
X4381Y166964D01*
X4568Y166918D01*
X4749Y166855D01*
Y166854D01*
X4832Y166829D01*
X4919Y166818D01*
X5006Y166823D01*
X5091Y166842D01*
X5171Y166876D01*
X5244Y166924D01*
X5308Y166984D01*
X5360Y167053D01*
X5400Y167131D01*
X5425Y167214D01*
X5436Y167301D01*
X5431Y167388D01*
X5412Y167473D01*
X5378Y167553D01*
X5330Y167626D01*
X5270Y167690D01*
X5201Y167742D01*
X5123Y167782D01*
X4852Y167877D01*
X4572Y167945D01*
X4287Y167987D01*
X4000Y168000D01*
Y182000D01*
X4287Y182014D01*
X4572Y182056D01*
X4852Y182124D01*
X5123Y182219D01*
Y182220D01*
X5201Y182260D01*
X5270Y182312D01*
X5329Y182376D01*
X5377Y182449D01*
X5411Y182529D01*
X5430Y182613D01*
X5435Y182700D01*
X5424Y182787D01*
X5399Y182870D01*
X5359Y182948D01*
X5307Y183017D01*
X5243Y183076D01*
X5170Y183124D01*
X5090Y183158D01*
X5006Y183177D01*
X4919Y183182D01*
X4832Y183171D01*
X4749Y183146D01*
X4568Y183083D01*
X4381Y183037D01*
X4191Y183010D01*
X4000Y183000D01*
Y187000D01*
X4191Y186991D01*
X4381Y186964D01*
X4568Y186918D01*
X4749Y186855D01*
Y186854D01*
X4832Y186829D01*
X4919Y186818D01*
X5006Y186823D01*
X5091Y186842D01*
X5171Y186876D01*
X5244Y186924D01*
X5308Y186984D01*
X5360Y187053D01*
X5400Y187131D01*
X5425Y187214D01*
X5436Y187301D01*
X5431Y187388D01*
X5412Y187473D01*
X5378Y187553D01*
X5330Y187626D01*
X5270Y187690D01*
X5201Y187742D01*
X5123Y187782D01*
X4852Y187877D01*
X4572Y187945D01*
X4287Y187987D01*
X4000Y188000D01*
Y210000D01*
G37*
G36*
X1591D02*X4000D01*
Y188000D01*
X3712Y187987D01*
X3427Y187945D01*
X3147Y187877D01*
X2876Y187782D01*
Y187781D01*
X2798Y187741D01*
X2729Y187689D01*
X2670Y187625D01*
X2622Y187552D01*
X2588Y187472D01*
X2569Y187388D01*
X2564Y187301D01*
X2575Y187214D01*
X2600Y187131D01*
X2640Y187053D01*
X2692Y186984D01*
X2756Y186925D01*
X2829Y186877D01*
X2909Y186843D01*
X2993Y186824D01*
X3080Y186819D01*
X3167Y186830D01*
X3250Y186855D01*
X3431Y186918D01*
X3618Y186964D01*
X3808Y186991D01*
X4000Y187000D01*
Y183000D01*
X3999D01*
X3808Y183010D01*
X3618Y183037D01*
X3431Y183083D01*
X3250Y183146D01*
Y183147D01*
X3167Y183172D01*
X3080Y183183D01*
X2993Y183178D01*
X2908Y183159D01*
X2828Y183125D01*
X2755Y183077D01*
X2691Y183017D01*
X2639Y182948D01*
X2599Y182870D01*
X2574Y182787D01*
X2563Y182700D01*
X2568Y182613D01*
X2587Y182528D01*
X2621Y182448D01*
X2669Y182375D01*
X2729Y182311D01*
X2798Y182259D01*
X2876Y182219D01*
X3147Y182124D01*
X3427Y182056D01*
X3712Y182014D01*
X3999Y182000D01*
X4000D01*
Y168000D01*
X3712Y167987D01*
X3427Y167945D01*
X3147Y167877D01*
X2876Y167782D01*
Y167781D01*
X2798Y167741D01*
X2729Y167689D01*
X2670Y167625D01*
X2622Y167552D01*
X2588Y167472D01*
X2569Y167388D01*
X2564Y167301D01*
X2575Y167214D01*
X2600Y167131D01*
X2640Y167053D01*
X2692Y166984D01*
X2756Y166925D01*
X2829Y166877D01*
X2909Y166843D01*
X2993Y166824D01*
X3080Y166819D01*
X3167Y166830D01*
X3250Y166855D01*
X3431Y166918D01*
X3618Y166964D01*
X3808Y166991D01*
X4000Y167000D01*
Y163000D01*
X3999D01*
X3808Y163010D01*
X3618Y163037D01*
X3431Y163083D01*
X3250Y163146D01*
Y163147D01*
X3167Y163172D01*
X3080Y163183D01*
X2993Y163178D01*
X2908Y163159D01*
X2828Y163125D01*
X2755Y163077D01*
X2691Y163017D01*
X2639Y162948D01*
X2599Y162870D01*
X2574Y162787D01*
X2563Y162700D01*
X2568Y162613D01*
X2587Y162528D01*
X2621Y162448D01*
X2669Y162375D01*
X2729Y162311D01*
X2798Y162259D01*
X2876Y162219D01*
X3147Y162124D01*
X3427Y162056D01*
X3712Y162014D01*
X3999Y162000D01*
X4000D01*
Y148000D01*
X3712Y147987D01*
X3427Y147945D01*
X3147Y147877D01*
X2876Y147782D01*
Y147781D01*
X2798Y147741D01*
X2729Y147689D01*
X2670Y147625D01*
X2622Y147552D01*
X2588Y147472D01*
X2569Y147388D01*
X2564Y147301D01*
X2575Y147214D01*
X2600Y147131D01*
X2640Y147053D01*
X2692Y146984D01*
X2756Y146925D01*
X2829Y146877D01*
X2909Y146843D01*
X2993Y146824D01*
X3080Y146819D01*
X3167Y146830D01*
X3250Y146855D01*
X3431Y146918D01*
X3618Y146964D01*
X3808Y146991D01*
X4000Y147000D01*
Y143000D01*
X3999D01*
X3808Y143010D01*
X3618Y143037D01*
X3431Y143083D01*
X3250Y143146D01*
Y143147D01*
X3167Y143172D01*
X3080Y143183D01*
X2993Y143178D01*
X2908Y143159D01*
X2828Y143125D01*
X2755Y143077D01*
X2691Y143017D01*
X2639Y142948D01*
X2599Y142870D01*
X2574Y142787D01*
X2563Y142700D01*
X2568Y142613D01*
X2587Y142528D01*
X2621Y142448D01*
X2669Y142375D01*
X2729Y142311D01*
X2798Y142259D01*
X2876Y142219D01*
X3147Y142124D01*
X3427Y142056D01*
X3712Y142014D01*
X3999Y142000D01*
X4000D01*
Y128000D01*
X3712Y127987D01*
X3427Y127945D01*
X3147Y127877D01*
X2876Y127782D01*
Y127781D01*
X2798Y127741D01*
X2729Y127689D01*
X2670Y127625D01*
X2622Y127552D01*
X2588Y127472D01*
X2569Y127388D01*
X2564Y127301D01*
X2575Y127214D01*
X2600Y127131D01*
X2640Y127053D01*
X2692Y126984D01*
X2756Y126925D01*
X2829Y126877D01*
X2909Y126843D01*
X2993Y126824D01*
X3080Y126819D01*
X3167Y126830D01*
X3250Y126855D01*
X3431Y126918D01*
X3618Y126964D01*
X3808Y126991D01*
X4000Y127000D01*
Y123000D01*
X3999D01*
X3808Y123010D01*
X3618Y123037D01*
X3431Y123083D01*
X3250Y123146D01*
Y123147D01*
X3167Y123172D01*
X3080Y123183D01*
X2993Y123178D01*
X2908Y123159D01*
X2828Y123125D01*
X2755Y123077D01*
X2691Y123017D01*
X2639Y122948D01*
X2599Y122870D01*
X2574Y122787D01*
X2563Y122700D01*
X2568Y122613D01*
X2587Y122528D01*
X2621Y122448D01*
X2669Y122375D01*
X2729Y122311D01*
X2798Y122259D01*
X2876Y122219D01*
X3147Y122124D01*
X3427Y122056D01*
X3712Y122014D01*
X3999Y122000D01*
X4000D01*
Y108000D01*
X3712Y107987D01*
X3427Y107945D01*
X3147Y107877D01*
X2876Y107782D01*
Y107781D01*
X2798Y107741D01*
X2729Y107689D01*
X2670Y107625D01*
X2622Y107552D01*
X2588Y107472D01*
X2569Y107388D01*
X2564Y107301D01*
X2575Y107214D01*
X2600Y107131D01*
X2640Y107053D01*
X2692Y106984D01*
X2756Y106925D01*
X2829Y106877D01*
X2909Y106843D01*
X2993Y106824D01*
X3080Y106819D01*
X3167Y106830D01*
X3250Y106855D01*
X3431Y106918D01*
X3618Y106964D01*
X3808Y106991D01*
X4000Y107000D01*
Y103000D01*
X3999D01*
X3808Y103010D01*
X3618Y103037D01*
X3431Y103083D01*
X3250Y103146D01*
Y103147D01*
X3167Y103172D01*
X3080Y103183D01*
X2993Y103178D01*
X2908Y103159D01*
X2828Y103125D01*
X2755Y103077D01*
X2691Y103017D01*
X2639Y102948D01*
X2599Y102870D01*
X2574Y102787D01*
X2563Y102700D01*
X2568Y102613D01*
X2587Y102528D01*
X2621Y102448D01*
X2669Y102375D01*
X2729Y102311D01*
X2798Y102259D01*
X2876Y102219D01*
X3147Y102124D01*
X3427Y102056D01*
X3712Y102014D01*
X3999Y102000D01*
X4000D01*
Y88000D01*
X3712Y87987D01*
X3427Y87945D01*
X3147Y87877D01*
X2876Y87782D01*
Y87781D01*
X2798Y87741D01*
X2729Y87689D01*
X2670Y87625D01*
X2622Y87552D01*
X2588Y87472D01*
X2569Y87388D01*
X2564Y87301D01*
X2575Y87214D01*
X2600Y87131D01*
X2640Y87053D01*
X2692Y86984D01*
X2756Y86925D01*
X2829Y86877D01*
X2909Y86843D01*
X2993Y86824D01*
X3080Y86819D01*
X3167Y86830D01*
X3250Y86855D01*
X3431Y86918D01*
X3618Y86964D01*
X3808Y86991D01*
X4000Y87000D01*
Y83000D01*
X3999D01*
X3808Y83010D01*
X3618Y83037D01*
X3431Y83083D01*
X3250Y83146D01*
Y83147D01*
X3167Y83172D01*
X3080Y83183D01*
X2993Y83178D01*
X2908Y83159D01*
X2828Y83125D01*
X2755Y83077D01*
X2691Y83017D01*
X2639Y82948D01*
X2599Y82870D01*
X2574Y82787D01*
X2563Y82700D01*
X2568Y82613D01*
X2587Y82528D01*
X2621Y82448D01*
X2669Y82375D01*
X2729Y82311D01*
X2798Y82259D01*
X2876Y82219D01*
X3147Y82124D01*
X3427Y82056D01*
X3712Y82014D01*
X3999Y82000D01*
X4000D01*
Y0D01*
X1591D01*
Y83575D01*
X1612Y83570D01*
X1699Y83565D01*
X1786Y83576D01*
X1869Y83601D01*
X1947Y83641D01*
X2016Y83693D01*
X2075Y83757D01*
X2123Y83830D01*
X2157Y83910D01*
X2176Y83994D01*
X2181Y84081D01*
X2170Y84168D01*
X2145Y84251D01*
X2082Y84432D01*
X2036Y84619D01*
X2009Y84809D01*
X2000Y85001D01*
X2009Y85192D01*
X2036Y85382D01*
X2082Y85569D01*
X2145Y85750D01*
X2146D01*
X2171Y85833D01*
X2182Y85920D01*
X2177Y86007D01*
X2158Y86092D01*
X2124Y86172D01*
X2076Y86245D01*
X2016Y86309D01*
X1947Y86361D01*
X1869Y86401D01*
X1786Y86426D01*
X1699Y86437D01*
X1612Y86432D01*
X1591Y86427D01*
Y103575D01*
X1612Y103570D01*
X1699Y103565D01*
X1786Y103576D01*
X1869Y103601D01*
X1947Y103641D01*
X2016Y103693D01*
X2075Y103757D01*
X2123Y103830D01*
X2157Y103910D01*
X2176Y103994D01*
X2181Y104081D01*
X2170Y104168D01*
X2145Y104251D01*
X2082Y104432D01*
X2036Y104619D01*
X2009Y104809D01*
X2000Y105001D01*
X2009Y105192D01*
X2036Y105382D01*
X2082Y105569D01*
X2145Y105750D01*
X2146D01*
X2171Y105833D01*
X2182Y105920D01*
X2177Y106007D01*
X2158Y106092D01*
X2124Y106172D01*
X2076Y106245D01*
X2016Y106309D01*
X1947Y106361D01*
X1869Y106401D01*
X1786Y106426D01*
X1699Y106437D01*
X1612Y106432D01*
X1591Y106427D01*
Y123575D01*
X1612Y123570D01*
X1699Y123565D01*
X1786Y123576D01*
X1869Y123601D01*
X1947Y123641D01*
X2016Y123693D01*
X2075Y123757D01*
X2123Y123830D01*
X2157Y123910D01*
X2176Y123994D01*
X2181Y124081D01*
X2170Y124168D01*
X2145Y124251D01*
X2082Y124432D01*
X2036Y124619D01*
X2009Y124809D01*
X2000Y125001D01*
X2009Y125192D01*
X2036Y125382D01*
X2082Y125569D01*
X2145Y125750D01*
X2146D01*
X2171Y125833D01*
X2182Y125920D01*
X2177Y126007D01*
X2158Y126092D01*
X2124Y126172D01*
X2076Y126245D01*
X2016Y126309D01*
X1947Y126361D01*
X1869Y126401D01*
X1786Y126426D01*
X1699Y126437D01*
X1612Y126432D01*
X1591Y126427D01*
Y143575D01*
X1612Y143570D01*
X1699Y143565D01*
X1786Y143576D01*
X1869Y143601D01*
X1947Y143641D01*
X2016Y143693D01*
X2075Y143757D01*
X2123Y143830D01*
X2157Y143910D01*
X2176Y143994D01*
X2181Y144081D01*
X2170Y144168D01*
X2145Y144251D01*
X2082Y144432D01*
X2036Y144619D01*
X2009Y144809D01*
X2000Y145001D01*
X2009Y145192D01*
X2036Y145382D01*
X2082Y145569D01*
X2145Y145750D01*
X2146D01*
X2171Y145833D01*
X2182Y145920D01*
X2177Y146007D01*
X2158Y146092D01*
X2124Y146172D01*
X2076Y146245D01*
X2016Y146309D01*
X1947Y146361D01*
X1869Y146401D01*
X1786Y146426D01*
X1699Y146437D01*
X1612Y146432D01*
X1591Y146427D01*
Y163575D01*
X1612Y163570D01*
X1699Y163565D01*
X1786Y163576D01*
X1869Y163601D01*
X1947Y163641D01*
X2016Y163693D01*
X2075Y163757D01*
X2123Y163830D01*
X2157Y163910D01*
X2176Y163994D01*
X2181Y164081D01*
X2170Y164168D01*
X2145Y164251D01*
X2082Y164432D01*
X2036Y164619D01*
X2009Y164809D01*
X2000Y165001D01*
X2009Y165192D01*
X2036Y165382D01*
X2082Y165569D01*
X2145Y165750D01*
X2146D01*
X2171Y165833D01*
X2182Y165920D01*
X2177Y166007D01*
X2158Y166092D01*
X2124Y166172D01*
X2076Y166245D01*
X2016Y166309D01*
X1947Y166361D01*
X1869Y166401D01*
X1786Y166426D01*
X1699Y166437D01*
X1612Y166432D01*
X1591Y166427D01*
Y183575D01*
X1612Y183570D01*
X1699Y183565D01*
X1786Y183576D01*
X1869Y183601D01*
X1947Y183641D01*
X2016Y183693D01*
X2075Y183757D01*
X2123Y183830D01*
X2157Y183910D01*
X2176Y183994D01*
X2181Y184081D01*
X2170Y184168D01*
X2145Y184251D01*
X2082Y184432D01*
X2036Y184619D01*
X2009Y184809D01*
X2000Y185001D01*
X2009Y185192D01*
X2036Y185382D01*
X2082Y185569D01*
X2145Y185750D01*
X2146D01*
X2171Y185833D01*
X2182Y185920D01*
X2177Y186007D01*
X2158Y186092D01*
X2124Y186172D01*
X2076Y186245D01*
X2016Y186309D01*
X1947Y186361D01*
X1869Y186401D01*
X1786Y186426D01*
X1699Y186437D01*
X1612Y186432D01*
X1591Y186427D01*
Y210000D01*
G37*
G36*
X0Y0D02*Y210000D01*
X1591D01*
Y186427D01*
X1527Y186413D01*
X1447Y186379D01*
X1374Y186331D01*
X1310Y186271D01*
X1258Y186202D01*
X1218Y186124D01*
X1123Y185853D01*
X1055Y185573D01*
X1013Y185288D01*
X1000Y185001D01*
X1013Y184713D01*
X1055Y184428D01*
X1123Y184148D01*
X1218Y183877D01*
X1219D01*
X1259Y183799D01*
X1311Y183730D01*
X1375Y183671D01*
X1448Y183623D01*
X1528Y183589D01*
X1591Y183575D01*
Y166427D01*
X1527Y166413D01*
X1447Y166379D01*
X1374Y166331D01*
X1310Y166271D01*
X1258Y166202D01*
X1218Y166124D01*
X1123Y165853D01*
X1055Y165573D01*
X1013Y165288D01*
X1000Y165001D01*
X1013Y164713D01*
X1055Y164428D01*
X1123Y164148D01*
X1218Y163877D01*
X1219D01*
X1259Y163799D01*
X1311Y163730D01*
X1375Y163671D01*
X1448Y163623D01*
X1528Y163589D01*
X1591Y163575D01*
Y146427D01*
X1527Y146413D01*
X1447Y146379D01*
X1374Y146331D01*
X1310Y146271D01*
X1258Y146202D01*
X1218Y146124D01*
X1123Y145853D01*
X1055Y145573D01*
X1013Y145288D01*
X1000Y145001D01*
X1013Y144713D01*
X1055Y144428D01*
X1123Y144148D01*
X1218Y143877D01*
X1219D01*
X1259Y143799D01*
X1311Y143730D01*
X1375Y143671D01*
X1448Y143623D01*
X1528Y143589D01*
X1591Y143575D01*
Y126427D01*
X1527Y126413D01*
X1447Y126379D01*
X1374Y126331D01*
X1310Y126271D01*
X1258Y126202D01*
X1218Y126124D01*
X1123Y125853D01*
X1055Y125573D01*
X1013Y125288D01*
X1000Y125001D01*
X1013Y124713D01*
X1055Y124428D01*
X1123Y124148D01*
X1218Y123877D01*
X1219D01*
X1259Y123799D01*
X1311Y123730D01*
X1375Y123671D01*
X1448Y123623D01*
X1528Y123589D01*
X1591Y123575D01*
Y106427D01*
X1527Y106413D01*
X1447Y106379D01*
X1374Y106331D01*
X1310Y106271D01*
X1258Y106202D01*
X1218Y106124D01*
X1123Y105853D01*
X1055Y105573D01*
X1013Y105288D01*
X1000Y105001D01*
X1013Y104713D01*
X1055Y104428D01*
X1123Y104148D01*
X1218Y103877D01*
X1219D01*
X1259Y103799D01*
X1311Y103730D01*
X1375Y103671D01*
X1448Y103623D01*
X1528Y103589D01*
X1591Y103575D01*
Y86427D01*
X1527Y86413D01*
X1447Y86379D01*
X1374Y86331D01*
X1310Y86271D01*
X1258Y86202D01*
X1218Y86124D01*
X1123Y85853D01*
X1055Y85573D01*
X1013Y85288D01*
X1000Y85001D01*
X1013Y84713D01*
X1055Y84428D01*
X1123Y84148D01*
X1218Y83877D01*
X1219D01*
X1259Y83799D01*
X1311Y83730D01*
X1375Y83671D01*
X1448Y83623D01*
X1528Y83589D01*
X1591Y83575D01*
Y0D01*
X0D01*
G37*
G54D12*X103000Y80000D02*Y139000D01*
X98000Y144000D01*
Y173000D01*
G54D13*X109000Y140000D02*Y93000D01*
X114000Y114000D02*X111000Y111000D01*
Y94000D01*
X50000Y131000D02*Y143000D01*
Y111000D02*Y123000D01*
Y91000D02*Y102000D01*
X44000Y79000D02*Y141000D01*
X42000Y143000D01*
X41000Y70000D02*Y107000D01*
X39000Y89000D02*Y76000D01*
X41000Y107000D02*X30000Y118000D01*
Y98000D02*X39000Y89000D01*
X30000Y78000D02*Y68000D01*
X40000Y58000D01*
X74000Y97000D02*Y63000D01*
X81000Y56000D01*
X69000Y68000D02*Y138000D01*
X67000Y140000D01*
X137000Y82000D02*X140000Y85000D01*
X165000Y30000D02*X172000Y37000D01*
X177000Y89000D02*Y6000D01*
X175000Y4000D01*
X164000Y100000D02*X160000Y96000D01*
Y80000D01*
X155000Y75000D01*
Y60000D01*
X40000Y32000D02*X36000Y28000D01*
X42000Y59000D02*Y22000D01*
X40000Y58000D02*Y32000D01*
X47000Y76000D02*X44000Y79000D01*
X39000Y76000D02*X35000Y72000D01*
Y66000D01*
X10000Y77000D02*Y43000D01*
X13000Y40000D01*
X12000Y72000D02*Y60000D01*
X14000Y58000D01*
X35000Y66000D02*X42000Y59000D01*
X47000Y64000D02*Y76000D01*
X54000Y42000D02*Y74000D01*
X50000Y78000D01*
X10000Y97000D02*Y84000D01*
X15000Y79000D01*
Y75000D01*
X12000Y72000D01*
G54D12*X95000Y10000D02*Y39000D01*
X89000Y45000D01*
Y66000D01*
X103000Y80000D01*
G54D13*X94000Y47000D02*Y64000D01*
X105000Y60000D02*Y67000D01*
Y30000D02*Y36000D01*
X94000Y47000D01*
Y64000D02*X109000Y79000D01*
X105000Y67000D02*X109000Y71000D01*
X114000D02*X125000Y60000D01*
X116000Y75000D02*X123000Y68000D01*
X109000Y79000D02*Y85000D01*
Y93000D02*X114000Y88000D01*
Y71000D01*
X111000Y94000D02*X116000Y89000D01*
Y75000D01*
G54D12*X98000Y173000D02*X105000Y180000D01*
G54D13*X94000Y179000D02*X115000Y200000D01*
X143000Y136000D02*Y192000D01*
X135000Y200000D01*
X125000Y180000D02*Y179000D01*
X117000Y171000D01*
X50000D02*Y191000D01*
X59000Y200000D01*
X57000Y181000D02*X68000Y192000D01*
X55000Y186000D02*X69000Y200000D01*
X59000Y167000D02*X69000Y177000D01*
X50000Y151000D02*Y161000D01*
X55000Y166000D01*
X57000Y150000D02*Y181000D01*
X55000Y166000D02*Y186000D01*
X50000Y143000D02*X57000Y150000D01*
X50000Y123000D02*X59000Y132000D01*
Y167000D01*
X50000Y102000D02*X65000Y117000D01*
Y131000D01*
X147000Y70000D02*X158000Y81000D01*
X144000Y79000D02*X156000Y91000D01*
X158000Y81000D02*Y143000D01*
X156000Y91000D02*Y151000D01*
X172000Y37000D02*Y163000D01*
X154000Y92000D02*Y169000D01*
X165000Y180000D01*
X158000Y143000D02*X165000Y150000D01*
X156000Y151000D02*X165000Y160000D01*
X172000Y163000D02*X165000Y170000D01*
X150000Y172000D02*X152000Y170000D01*
Y133000D01*
X149000Y130000D01*
X140000Y85000D02*X147000D01*
X154000Y92000D01*
X140000Y94410D02*Y120000D01*
G54D14*X165000Y10000D03*
X155000D03*
X145000D03*
X135000D03*
G54D11*G36*
X162000Y183000D02*Y177000D01*
X168000D01*
Y183000D01*
X162000D01*
G37*
G54D15*X165000Y170000D03*
Y160000D03*
Y150000D03*
Y140000D03*
Y130000D03*
G54D14*Y200000D03*
X155000D03*
G54D15*X135000Y180000D03*
X125000D03*
X115000D03*
X105000D03*
G54D16*X122283Y94410D03*
X140000D03*
X122283Y120000D03*
G54D11*G36*
X102000Y153000D02*Y147000D01*
X108000D01*
Y153000D01*
X102000D01*
G37*
G54D15*X115000Y150000D03*
X125000D03*
X135000D03*
G54D11*G36*
X136063Y123937D02*Y116063D01*
X143937D01*
Y123937D01*
X136063D01*
G37*
G54D14*X145000Y200000D03*
X135000D03*
X125000D03*
X115000D03*
X105000D03*
X95000D03*
X79000D03*
X69000D03*
X59000D03*
X49000D03*
X39000D03*
X29000D03*
X19000D03*
X9000D03*
X85000Y10000D03*
X75000D03*
X65000D03*
X55000D03*
X45000D03*
G54D11*G36*
X19882Y55118D02*Y44882D01*
X30118D01*
Y55118D01*
X19882D01*
G37*
G54D17*X25000Y30315D03*
G54D14*X125000Y10000D03*
X115000D03*
X95000D03*
G54D11*G36*
X102000Y33000D02*Y27000D01*
X108000D01*
Y33000D01*
X102000D01*
G37*
G54D15*X115000Y30000D03*
X125000D03*
X135000D03*
X145000D03*
X155000D03*
X165000D03*
Y60000D03*
X155000D03*
X145000D03*
X135000D03*
X125000D03*
X115000D03*
X105000D03*
G54D12*X147000Y70000D03*
X175000Y4000D03*
X144000Y79000D03*
X137000Y82000D03*
X177000Y89000D03*
X109000Y85000D03*
Y71000D03*
X123000Y68000D03*
X164000Y100000D03*
X4000Y105000D03*
Y85000D03*
Y185000D03*
Y165000D03*
Y145000D03*
Y125000D03*
X10000Y77000D03*
X13000Y40000D03*
X14000Y58000D03*
X10000Y97000D03*
X90000Y145000D03*
X143000Y136000D03*
X109000Y140000D03*
X150000Y172000D03*
X149000Y130000D03*
X117000Y171000D03*
X114000Y114000D03*
X90000Y125000D03*
G54D15*X89000Y45000D03*
G54D12*X90000Y85000D03*
Y105000D03*
X30000Y118000D03*
Y98000D03*
X42000Y22000D03*
X30000Y78000D03*
X36000Y28000D03*
X50000Y111000D03*
Y91000D03*
X47000Y64000D03*
X41000Y70000D03*
X50000Y78000D03*
X54000Y42000D03*
X74000Y97000D03*
X81000Y56000D03*
X69000Y68000D03*
X90000Y165000D03*
X50000Y171000D03*
X90000Y185000D03*
X68000Y192000D03*
X69000Y177000D03*
X94000Y179000D03*
X50000Y151000D03*
Y131000D03*
X65000D03*
X42000Y143000D03*
X67000Y140000D03*
G54D20*G54D21*G54D20*G54D22*G54D23*G54D22*G54D23*G54D20*G54D24*G54D20*G54D22*G54D11*G54D25*G54D11*M02*
