M48
INCH
T11C0.020
T20C0.030
T21C0.028
T23C0.038
T31C0.039
T32C0.059
%
T11
X000400Y018500
X000400Y016500
X000400Y014500
X000400Y012500
X004900Y015700
X006100Y019000
X002800Y017200
X002000Y017200
X004300Y012500
X004500Y015100
X005000Y013700
X000900Y013500
X000400Y010500
X000400Y008500
X003000Y009800
X002900Y011800
X002200Y006900
X008900Y014400
X008700Y004300
X009900Y004300
X008600Y005100
X009900Y005100
X014500Y013700
X014400Y014700
X005900Y003700
X016200Y004500
X007600Y005800
X006900Y012000
X008000Y006900
X008900Y008400
X008900Y010400
X007600Y009800
X008900Y012400
X010000Y013300
X010500Y013800
X013000Y014300
X008900Y016400
X004300Y016300
X011800Y016900
X008900Y018400
X015300Y017800
T21
X013500Y015000
X013500Y018000
X012500Y018000
X011500Y018000
X010500Y015000
X011500Y015000
X012500Y015000
X010500Y018000
X010500Y003000
X011500Y003000
X012500Y003000
X013500Y003000
X013500Y006000
X012500Y006000
X011500Y006000
X010500Y006000
X014500Y003000
X015500Y003000
X016500Y003000
X016500Y006000
X015500Y006000
X014500Y006000
T20
X016500Y001000
X015500Y001000
X014500Y001000
X013500Y001000
X012500Y001000
X016500Y020000
X015500Y020000
X014500Y020000
X013500Y020000
X012500Y020000
X011500Y020000
X010500Y020000
X009500Y020000
X007900Y020000
X006900Y020000
X005900Y020000
X004900Y020000
X003900Y020000
X002900Y020000
X001900Y020000
X000900Y020000
X011500Y001000
X009500Y001000
X008500Y001000
X006500Y001000
X005500Y001000
X004500Y001000
X007500Y001000
T23
X016500Y018000
X016500Y017000
X016500Y016000
X016500Y015000
X016500Y014000
X016500Y013000
T31
X011728Y009391
X011728Y011950
X013500Y011950
X013500Y009391
T32
X002500Y005000
X002500Y003031
M30
