M48
INCH
T16C0.030
T17C0.028
T18C0.038
T19C0.015
%
T19
X012500Y009274
X005500Y005425
X011975Y005474
X015225Y018575
X010500Y017274
X010225Y016924
X009950Y012890
X010950Y012064
X008424Y017924
X007699Y019199
X007025Y015625
X005950Y003824
X009450Y003824
X002175Y015125
X002824Y016300
X003725Y016925
X001025Y014150
X003375Y013875
X003025Y017814
X003000Y009274
X004425Y016300
X004899Y016650
X005400Y016925
X003375Y017515
X004075Y017614
X004350Y012064
X002725Y010525
X001250Y010525
X004075Y018875
T17
X009500Y015000
X010500Y015000
X011500Y015000
X012500Y006000
X015500Y003000
X015500Y006000
X014500Y006000
X013500Y006000
X012500Y003000
X013500Y003000
X014500Y003000
X012500Y015000
X013500Y015000
X014500Y015000
X015500Y015000
X015500Y018000
X014500Y018000
X013500Y018000
X012500Y018000
X011500Y018000
X010500Y018000
X009500Y018000
T16
X011500Y010000
X012500Y010000
X001000Y004500
X002000Y004500
X004500Y004500
X005500Y004500
X004500Y010000
X005500Y010000
X001000Y010000
X002000Y010000
X008000Y010000
X009000Y010000
X016500Y001000
X015500Y001000
X014500Y001000
X013500Y001000
X012500Y001000
X011500Y001000
X009500Y001000
X008500Y001000
X007500Y001000
X006500Y001000
X005500Y001000
X004500Y001000
X016500Y020000
X015500Y020000
X014500Y020000
X013500Y020000
X012500Y020000
X011500Y020000
X010500Y020000
X009500Y020000
X007900Y020000
X006900Y020000
X005900Y020000
X004900Y020000
X003900Y020000
X002900Y020000
X001900Y020000
X000900Y020000
T18
X018500Y006000
X018500Y005000
X018500Y004000
X018500Y003000
X018500Y002000
X018500Y001000
M30
