G04 start of page 4 for group -4063 idx -4063 *
G04 Title: (unknown), componentmask *
G04 Creator: pcb 20091103 *
G04 CreationDate: Thu 17 Mar 2011 12:59:32 AM GMT UTC *
G04 For: jlamothe *
G04 Format: Gerber/RS-274X *
G04 PCB-Dimensions: 185000 210000 *
G04 PCB-Coordinate-Origin: lower left *
%MOIN*%
%FSLAX25Y25*%
%LNFRONTMASK*%
%ADD11C,0.0200*%
%ADD25C,0.1241*%
%ADD26C,0.0810*%
%ADD27C,0.0660*%
%ADD28C,0.0847*%
%ADD29R,0.0490X0.0490*%
%ADD30R,0.0360X0.0360*%
G54D11*G36*
X101700Y33300D02*Y26700D01*
X108300D01*
Y33300D01*
X101700D01*
G37*
G36*
X13795Y46205D02*Y33795D01*
X26205D01*
Y46205D01*
X13795D01*
G37*
G54D25*X20000Y20315D03*
G54D26*X85000Y10000D03*
X75000D03*
X65000D03*
X55000D03*
X45000D03*
G54D27*X135000Y150000D03*
Y180000D03*
X125000D03*
X115000D03*
G54D11*G36*
X101700Y153300D02*Y146700D01*
X108300D01*
Y153300D01*
X101700D01*
G37*
G54D27*X115000Y150000D03*
X125000D03*
X105000Y180000D03*
X165000Y160000D03*
Y150000D03*
Y140000D03*
Y130000D03*
G54D28*X115000Y89410D03*
Y115000D03*
G54D11*G36*
X128480Y119237D02*Y110763D01*
X136954D01*
Y119237D01*
X128480D01*
G37*
G54D28*X132717Y89410D03*
G54D27*X115000Y30000D03*
G54D26*Y10000D03*
X95000D03*
G54D27*X125000Y30000D03*
X135000D03*
X145000D03*
G54D26*X135000Y10000D03*
X125000D03*
G54D27*X155000Y30000D03*
X165000D03*
Y60000D03*
X155000D03*
G54D26*X165000Y10000D03*
X155000D03*
G54D27*X145000Y60000D03*
G54D26*Y10000D03*
G54D27*X135000Y60000D03*
X125000D03*
X115000D03*
X105000D03*
G54D11*G36*
X161700Y183300D02*Y176700D01*
X168300D01*
Y183300D01*
X161700D01*
G37*
G54D27*X165000Y170000D03*
G54D26*Y200000D03*
X155000D03*
X145000D03*
X135000D03*
X125000D03*
X115000D03*
X105000D03*
X95000D03*
X79000D03*
X69000D03*
X59000D03*
X49000D03*
X39000D03*
X29000D03*
X19000D03*
X9000D03*
G54D29*X75000Y165000D02*Y163400D01*
X82900Y165000D02*Y163400D01*
G54D30*X56100Y165000D02*Y164000D01*
G54D29*X75000Y105000D02*Y103400D01*
Y145000D02*Y143400D01*
Y125000D02*Y123400D01*
Y85000D02*Y83400D01*
X82900Y105000D02*Y103400D01*
Y145000D02*Y143400D01*
Y125000D02*Y123400D01*
Y85000D02*Y83400D01*
X75000Y185000D02*Y183400D01*
X82900Y185000D02*Y183400D01*
G54D30*X50000Y185000D02*Y184000D01*
X56100Y185000D02*Y184000D01*
X50000Y105000D02*Y104000D01*
Y145000D02*Y144000D01*
Y125000D02*Y124000D01*
X56100Y105000D02*Y104000D01*
Y145000D02*Y144000D01*
Y125000D02*Y124000D01*
X50000Y165000D02*Y164000D01*
X10000Y165000D02*Y164000D01*
X16100Y165000D02*Y164000D01*
X30000Y165000D02*Y164000D01*
X36100Y165000D02*Y164000D01*
X10000Y185000D02*Y184000D01*
Y145000D02*Y144000D01*
X16100Y145000D02*Y144000D01*
X30000Y145000D02*Y144000D01*
X36100Y145000D02*Y144000D01*
X16100Y185000D02*Y184000D01*
X30000Y185000D02*Y184000D01*
X36100Y185000D02*Y184000D01*
X10000Y85000D02*Y84000D01*
Y125000D02*Y124000D01*
Y105000D02*Y104000D01*
X16100Y85000D02*Y84000D01*
Y125000D02*Y124000D01*
Y105000D02*Y104000D01*
X30000Y85000D02*Y84000D01*
X36100Y85000D02*Y84000D01*
X50000Y85000D02*Y84000D01*
X56100Y85000D02*Y84000D01*
X30000Y125000D02*Y124000D01*
X36100Y125000D02*Y124000D01*
X30000Y105000D02*Y104000D01*
X36100Y105000D02*Y104000D01*
M02*
