G04 start of page 7 for group -4079 idx -4079 *
G04 Title: (unknown), topsilk *
G04 Creator: pcb 20091103 *
G04 CreationDate: Tue 15 Mar 2011 11:02:10 PM GMT UTC *
G04 For: jlamothe *
G04 Format: Gerber/RS-274X *
G04 PCB-Dimensions: 185000 210000 *
G04 PCB-Coordinate-Origin: lower left *
%MOIN*%
%FSLAX25Y25*%
%LNFRONTSILK*%
%ADD11C,0.0100*%
%ADD33C,0.0080*%
G54D11*X160000Y81000D02*X160500Y81500D01*
X161500D01*
X162000Y81000D01*
Y78000D01*
X161500Y77500D02*X162000Y78000D01*
X160500Y77500D02*X161500D01*
X160000Y78000D02*X160500Y77500D01*
Y79500D02*X162000D01*
X160000Y71500D02*X162000D01*
X160000D02*Y69500D01*
X160500Y70000D01*
X161500D01*
X162000Y69500D01*
Y68000D01*
X161500Y67500D02*X162000Y68000D01*
X160500Y67500D02*X161500D01*
X160000Y68000D02*X160500Y67500D01*
X161500Y61500D02*X162000Y61000D01*
X160500Y61500D02*X161500D01*
X160000Y61000D02*X160500Y61500D01*
X160000Y61000D02*Y58000D01*
X160500Y57500D01*
X161500Y59500D02*X162000Y59000D01*
X160000Y59500D02*X161500D01*
X160500Y57500D02*X161500D01*
X162000Y58000D01*
Y59000D02*Y58000D01*
X160000Y47500D02*X162000Y49500D01*
Y51000D02*Y49500D01*
X161500Y51500D02*X162000Y51000D01*
X160500Y51500D02*X161500D01*
X160000Y51000D02*X160500Y51500D01*
X160000Y51000D02*Y50000D01*
X160500Y49500D01*
X162000D01*
X158000Y37500D02*X159000D01*
X158500Y41500D02*Y37500D01*
X157500Y40500D02*X158500Y41500D01*
X160201Y38000D02*X160701Y37500D01*
X160201Y41000D02*Y38000D01*
Y41000D02*X160701Y41500D01*
X161701D01*
X162201Y41000D01*
Y38000D01*
X161701Y37500D02*X162201Y38000D01*
X160701Y37500D02*X161701D01*
X160201Y38500D02*X162201Y40500D01*
X158000Y27500D02*X159000D01*
X158500Y31500D02*Y27500D01*
X157500Y30500D02*X158500Y31500D01*
X160701Y27500D02*X161701D01*
X161201Y31500D02*Y27500D01*
X160201Y30500D02*X161201Y31500D01*
X154500Y42500D02*X155000Y43000D01*
X151500Y42500D02*X154500D01*
X151500D02*X151000Y43000D01*
Y44000D02*Y43000D01*
Y44000D02*X151500Y44500D01*
X154500D01*
X155000Y44000D02*X154500Y44500D01*
X155000Y44000D02*Y43000D01*
X154000Y42500D02*X152000Y44500D01*
X153000Y47701D02*Y45701D01*
X155000Y50402D02*Y49402D01*
X151000Y49902D02*X155000D01*
X152000Y48902D02*X151000Y49902D01*
X154500Y51603D02*X155000Y52103D01*
X151500Y51603D02*X154500D01*
X151500D02*X151000Y52103D01*
Y53103D02*Y52103D01*
Y53103D02*X151500Y53603D01*
X154500D01*
X155000Y53103D02*X154500Y53603D01*
X155000Y53103D02*Y52103D01*
X154000Y51603D02*X152000Y53603D01*
X151000Y54804D02*X154000D01*
X155000Y55804D01*
X154000Y56804D01*
X151000D02*X154000D01*
X151500Y59805D02*X154500D01*
X151500D02*X151000Y60305D01*
Y61305D02*Y60305D01*
Y61305D02*X151500Y61805D01*
X154500D01*
X155000Y61305D02*X154500Y61805D01*
X155000Y61305D02*Y60305D01*
X154500Y59805D02*X155000Y60305D01*
X151000Y63006D02*X154500D01*
X155000Y63506D01*
Y64506D02*Y63506D01*
Y64506D02*X154500Y65006D01*
X151000D02*X154500D01*
X151000Y68207D02*Y66207D01*
Y67207D02*X155000D01*
X17500Y104500D02*X19500D01*
X18500Y105500D02*Y103500D01*
X17500Y57000D02*X19500D01*
X8000Y107500D02*X9000D01*
X8500Y111500D02*Y107500D01*
X7500Y110500D02*X8500Y111500D01*
X10201Y111000D02*X10701Y111500D01*
X12201D01*
X12701Y111000D01*
Y110000D01*
X10201Y107500D02*X12701Y110000D01*
X10201Y107500D02*X12701D01*
X13902Y111500D02*Y108500D01*
X14902Y107500D01*
X15902Y108500D01*
Y111500D02*Y108500D01*
X17603Y111500D02*Y107500D01*
X19103Y111500D02*X19603Y111000D01*
Y108000D01*
X19103Y107500D02*X19603Y108000D01*
X17103Y107500D02*X19103D01*
X17103Y111500D02*X19103D01*
X21304Y107500D02*X22804D01*
X20804Y108000D02*X21304Y107500D01*
X20804Y111000D02*Y108000D01*
Y111000D02*X21304Y111500D01*
X22804D01*
X25805D02*X26805D01*
X26305D02*Y107500D01*
X25805D02*X26805D01*
X28006Y111500D02*Y107500D01*
Y111500D02*Y111000D01*
X30506Y108500D01*
Y111500D02*Y107500D01*
X105000Y65000D02*Y50000D01*
Y40000D02*Y25000D01*
Y65000D02*X145000D01*
Y25000D01*
X105000D02*X145000D01*
X105000Y40000D02*G75*G03X105000Y50000I0J5000D01*G01*
G54D33*X137400Y93600D02*Y84800D01*
X151500Y93600D02*X136400D01*
X151500Y84800D02*Y93600D01*
X136400Y84800D02*X151500D01*
X136400Y93600D02*Y84800D01*
G54D11*X175000Y75000D02*Y85000D01*
X165000Y75000D02*X175000D01*
Y85000D02*X165000D01*
X175000Y25000D02*Y85000D01*
X165000Y25000D02*X175000D01*
X165000Y85000D02*Y25000D01*
G54D33*X137400Y113600D02*Y104800D01*
X151500Y113600D02*X136400D01*
X151500Y104800D02*Y113600D01*
X136400Y104800D02*X151500D01*
X136400Y113600D02*Y104800D01*
X107400Y113600D02*Y104800D01*
X121500Y113600D02*X106400D01*
X121500Y104800D02*Y113600D01*
X106400Y104800D02*X121500D01*
X106400Y113600D02*Y104800D01*
X89100Y123000D02*X77000D01*
X89100Y116000D02*Y123000D01*
X77000Y116000D02*X89100D01*
X77000Y123000D02*Y116000D01*
X107400Y93600D02*Y84800D01*
X121500Y93600D02*X106400D01*
X121500Y84800D02*Y93600D01*
X106400Y84800D02*X121500D01*
X106400Y93600D02*Y84800D01*
G54D11*X45000Y15000D02*X105000D01*
X45000Y5000D02*Y15000D01*
X105000Y5000D02*X45000D01*
X105000Y15000D02*Y5000D01*
X115000Y15000D02*X175000D01*
X115000Y5000D02*Y15000D01*
X175000Y5000D02*X115000D01*
X175000Y15000D02*Y5000D01*
X9000Y205000D02*X89000D01*
X9000Y195000D02*Y205000D01*
X89000Y195000D02*X9000D01*
X89000Y205000D02*Y195000D01*
X175000Y205000D02*X95000D01*
X175000Y195000D02*Y205000D01*
X95000Y195000D02*X175000D01*
X95000Y205000D02*Y195000D01*
X77717Y94095D02*X60000D01*
X77717Y80315D02*Y94095D01*
X60000Y80315D02*X77717D01*
X60000Y94095D02*Y80315D01*
G54D33*X89100Y143000D02*X77000D01*
X89100Y136000D02*Y143000D01*
X77000Y136000D02*X89100D01*
X77000Y143000D02*Y136000D01*
X69100Y163000D02*X57000D01*
X69100Y156000D02*Y163000D01*
X57000Y156000D02*X69100D01*
X57000Y163000D02*Y156000D01*
X89100Y163000D02*X77000D01*
X89100Y156000D02*Y163000D01*
X77000Y156000D02*X89100D01*
X77000Y163000D02*Y156000D01*
X137400Y133600D02*Y124800D01*
X151500Y133600D02*X136400D01*
X151500Y124800D02*Y133600D01*
X136400Y124800D02*X151500D01*
X136400Y133600D02*Y124800D01*
X49100Y183000D02*X37000D01*
X49100Y176000D02*Y183000D01*
X37000Y176000D02*X49100D01*
X37000Y183000D02*Y176000D01*
X69100Y183000D02*X57000D01*
X69100Y176000D02*Y183000D01*
X57000Y176000D02*X69100D01*
X57000Y183000D02*Y176000D01*
X107400Y133600D02*Y124800D01*
X121500Y133600D02*X106400D01*
X121500Y124800D02*Y133600D01*
X106400Y124800D02*X121500D01*
X106400Y133600D02*Y124800D01*
X49100Y63000D02*X37000D01*
X49100Y56000D02*Y63000D01*
X37000Y56000D02*X49100D01*
X37000Y63000D02*Y56000D01*
X69100Y63000D02*X57000D01*
X69100Y56000D02*Y63000D01*
X57000Y56000D02*X69100D01*
X57000Y63000D02*Y56000D01*
X89100Y63000D02*X77000D01*
X89100Y56000D02*Y63000D01*
X77000Y56000D02*X89100D01*
X77000Y63000D02*Y56000D01*
X49100Y43000D02*X37000D01*
X49100Y36000D02*Y43000D01*
X37000Y36000D02*X49100D01*
X37000Y43000D02*Y36000D01*
X69100Y43000D02*X57000D01*
X69100Y36000D02*Y43000D01*
X57000Y36000D02*X69100D01*
X57000Y43000D02*Y36000D01*
X89100Y43000D02*X77000D01*
X89100Y36000D02*Y43000D01*
X77000Y36000D02*X89100D01*
X77000Y43000D02*Y36000D01*
G54D11*X105000Y185000D02*Y170000D01*
Y160000D02*Y145000D01*
Y185000D02*X175000D01*
Y145000D01*
X105000D02*X175000D01*
X105000Y160000D02*G75*G03X105000Y170000I0J5000D01*G01*
G54D33*X89100Y183000D02*X77000D01*
X89100Y176000D02*Y183000D01*
X77000Y176000D02*X89100D01*
X77000Y183000D02*Y176000D01*
X49100Y123000D02*X37000D01*
X49100Y116000D02*Y123000D01*
X37000Y116000D02*X49100D01*
X37000Y123000D02*Y116000D01*
X49100Y143000D02*X37000D01*
X49100Y136000D02*Y143000D01*
X37000Y136000D02*X49100D01*
X37000Y143000D02*Y136000D01*
X69100Y123000D02*X57000D01*
X69100Y116000D02*Y123000D01*
X57000Y116000D02*X69100D01*
X57000Y123000D02*Y116000D01*
X69100Y143000D02*X57000D01*
X69100Y136000D02*Y143000D01*
X57000Y136000D02*X69100D01*
X57000Y143000D02*Y136000D01*
G54D11*X3465Y60473D02*X32992D01*
Y99843D02*Y60473D01*
X3465Y99843D02*X32992D01*
X3465D02*Y60473D01*
G54D33*X49100Y163000D02*X37000D01*
X49100Y156000D02*Y163000D01*
X37000Y156000D02*X49100D01*
X37000Y163000D02*Y156000D01*
G54D11*X115000Y46000D02*Y42500D01*
X115500Y42000D01*
X116500D01*
X117000Y42500D01*
Y46000D02*Y42500D01*
X118201Y45500D02*X118701Y46000D01*
X119701D01*
X120201Y45500D01*
Y42500D01*
X119701Y42000D02*X120201Y42500D01*
X118701Y42000D02*X119701D01*
X118201Y42500D02*X118701Y42000D01*
Y44000D02*X120201D01*
X121402Y42500D02*X121902Y42000D01*
X121402Y45500D02*Y42500D01*
Y45500D02*X121902Y46000D01*
X122902D01*
X123402Y45500D01*
Y42500D01*
X122902Y42000D02*X123402Y42500D01*
X121902Y42000D02*X122902D01*
X121402Y43000D02*X123402Y45000D01*
X125103Y42000D02*X126103D01*
X125603Y46000D02*Y42000D01*
X124603Y45000D02*X125603Y46000D01*
X143600Y78300D02*X145100D01*
X143100Y78800D02*X143600Y78300D01*
X143100Y81800D02*Y78800D01*
Y81800D02*X143600Y82300D01*
X145100D01*
X146301Y81800D02*X146801Y82300D01*
X147801D01*
X148301Y81800D01*
Y78800D01*
X147801Y78300D02*X148301Y78800D01*
X146801Y78300D02*X147801D01*
X146301Y78800D02*X146801Y78300D01*
Y80300D02*X148301D01*
X149502Y78800D02*X150002Y78300D01*
X149502Y81800D02*Y78800D01*
Y81800D02*X150002Y82300D01*
X151002D01*
X151502Y81800D01*
Y78800D01*
X151002Y78300D02*X151502Y78800D01*
X150002Y78300D02*X151002D01*
X149502Y79300D02*X151502Y81300D01*
X152703Y81800D02*X153203Y82300D01*
X154703D01*
X155203Y81800D01*
Y80800D01*
X152703Y78300D02*X155203Y80800D01*
X152703Y78300D02*X155203D01*
X176000Y84500D02*Y83000D01*
X176500Y85000D02*X176000Y84500D01*
X176500Y85000D02*X179500D01*
X180000Y84500D01*
Y83000D01*
X176500Y81799D02*X179500D01*
X180000Y81299D01*
Y80299D01*
X179500Y79799D01*
X176500D02*X179500D01*
X176000Y80299D02*X176500Y79799D01*
X176000Y81299D02*Y80299D01*
X176500Y81799D02*X176000Y81299D01*
Y78598D02*X180000D01*
X179500D02*X180000D01*
X179500D02*X177000Y76098D01*
X176000D02*X180000D01*
X176000Y74897D02*X180000D01*
X179500D02*X180000D01*
X179500D02*X177000Y72397D01*
X176000D02*X180000D01*
X176000Y70696D02*Y69696D01*
Y70196D02*X180000D01*
X179000Y71196D02*X180000Y70196D01*
X176500Y68495D02*X176000Y67995D01*
X176500Y68495D02*X179500D01*
X180000Y67995D01*
Y66995D01*
X179500Y66495D01*
X176500D02*X179500D01*
X176000Y66995D02*X176500Y66495D01*
X176000Y67995D02*Y66995D01*
X177000Y68495D02*X179000Y66495D01*
X176000Y64794D02*Y63794D01*
Y64294D02*X180000D01*
X179000Y65294D02*X180000Y64294D01*
X113600Y78300D02*X115100D01*
X113100Y78800D02*X113600Y78300D01*
X113100Y81800D02*Y78800D01*
Y81800D02*X113600Y82300D01*
X115100D01*
X116301Y81800D02*X116801Y82300D01*
X117801D01*
X118301Y81800D01*
Y78800D01*
X117801Y78300D02*X118301Y78800D01*
X116801Y78300D02*X117801D01*
X116301Y78800D02*X116801Y78300D01*
Y80300D02*X118301D01*
X119502Y78800D02*X120002Y78300D01*
X119502Y81800D02*Y78800D01*
Y81800D02*X120002Y82300D01*
X121002D01*
X121502Y81800D01*
Y78800D01*
X121002Y78300D02*X121502Y78800D01*
X120002Y78300D02*X121002D01*
X119502Y79300D02*X121502Y81300D01*
X123203Y78300D02*X124203D01*
X123703Y82300D02*Y78300D01*
X122703Y81300D02*X123703Y82300D01*
X143600Y98300D02*X145100D01*
X143100Y98800D02*X143600Y98300D01*
X143100Y101800D02*Y98800D01*
Y101800D02*X143600Y102300D01*
X145100D01*
X146301Y101800D02*X146801Y102300D01*
X148301D01*
X148801Y101800D01*
Y100800D01*
X146301Y98300D02*X148801Y100800D01*
X146301Y98300D02*X148801D01*
X150002Y98800D02*X150502Y98300D01*
X150002Y101800D02*Y98800D01*
Y101800D02*X150502Y102300D01*
X151502D01*
X152002Y101800D01*
Y98800D01*
X151502Y98300D02*X152002Y98800D01*
X150502Y98300D02*X151502D01*
X150002Y99300D02*X152002Y101300D01*
X153203Y100300D02*X155203Y102300D01*
X153203Y100300D02*X155703D01*
X155203Y102300D02*Y98300D01*
X113600D02*X115100D01*
X113100Y98800D02*X113600Y98300D01*
X113100Y101800D02*Y98800D01*
Y101800D02*X113600Y102300D01*
X115100D01*
X116301Y101800D02*X116801Y102300D01*
X118301D01*
X118801Y101800D01*
Y100800D01*
X116301Y98300D02*X118801Y100800D01*
X116301Y98300D02*X118801D01*
X120002Y98800D02*X120502Y98300D01*
X120002Y101800D02*Y98800D01*
Y101800D02*X120502Y102300D01*
X121502D01*
X122002Y101800D01*
Y98800D01*
X121502Y98300D02*X122002Y98800D01*
X120502Y98300D02*X121502D01*
X120002Y99300D02*X122002Y101300D01*
X123203Y101800D02*X123703Y102300D01*
X124703D01*
X125203Y101800D01*
Y98800D01*
X124703Y98300D02*X125203Y98800D01*
X123703Y98300D02*X124703D01*
X123203Y98800D02*X123703Y98300D01*
Y100300D02*X125203D01*
X143600Y118300D02*X145100D01*
X143100Y118800D02*X143600Y118300D01*
X143100Y121800D02*Y118800D01*
Y121800D02*X143600Y122300D01*
X145100D01*
X146301Y121800D02*X146801Y122300D01*
X148301D01*
X148801Y121800D01*
Y120800D01*
X146301Y118300D02*X148801Y120800D01*
X146301Y118300D02*X148801D01*
X150002Y118800D02*X150502Y118300D01*
X150002Y121800D02*Y118800D01*
Y121800D02*X150502Y122300D01*
X151502D01*
X152002Y121800D01*
Y118800D01*
X151502Y118300D02*X152002Y118800D01*
X150502Y118300D02*X151502D01*
X150002Y119300D02*X152002Y121300D01*
X153203Y121800D02*X153703Y122300D01*
X155203D01*
X155703Y121800D01*
Y120800D01*
X153203Y118300D02*X155703Y120800D01*
X153203Y118300D02*X155703D01*
X113600D02*X115100D01*
X113100Y118800D02*X113600Y118300D01*
X113100Y121800D02*Y118800D01*
Y121800D02*X113600Y122300D01*
X115100D01*
X116301Y121800D02*X116801Y122300D01*
X118301D01*
X118801Y121800D01*
Y120800D01*
X116301Y118300D02*X118801Y120800D01*
X116301Y118300D02*X118801D01*
X120002Y118800D02*X120502Y118300D01*
X120002Y121800D02*Y118800D01*
Y121800D02*X120502Y122300D01*
X121502D01*
X122002Y121800D01*
Y118800D01*
X121502Y118300D02*X122002Y118800D01*
X120502Y118300D02*X121502D01*
X120002Y119300D02*X122002Y121300D01*
X123703Y118300D02*X124703D01*
X124203Y122300D02*Y118300D01*
X123203Y121300D02*X124203Y122300D01*
X82500Y53500D02*X84500D01*
X85000Y53000D01*
Y52000D01*
X84500Y51500D02*X85000Y52000D01*
X83000Y51500D02*X84500D01*
X83000Y53500D02*Y49500D01*
Y51500D02*X85000Y49500D01*
X86201Y53000D02*X86701Y53500D01*
X87701D01*
X88201Y53000D01*
Y50000D01*
X87701Y49500D02*X88201Y50000D01*
X86701Y49500D02*X87701D01*
X86201Y50000D02*X86701Y49500D01*
Y51500D02*X88201D01*
X89402Y50000D02*X89902Y49500D01*
X89402Y53000D02*Y50000D01*
Y53000D02*X89902Y53500D01*
X90902D01*
X91402Y53000D01*
Y50000D01*
X90902Y49500D02*X91402Y50000D01*
X89902Y49500D02*X90902D01*
X89402Y50500D02*X91402Y52500D01*
X92603Y51500D02*X94603Y53500D01*
X92603Y51500D02*X95103D01*
X94603Y53500D02*Y49500D01*
X42500Y33500D02*X44500D01*
X45000Y33000D01*
Y32000D01*
X44500Y31500D02*X45000Y32000D01*
X43000Y31500D02*X44500D01*
X43000Y33500D02*Y29500D01*
Y31500D02*X45000Y29500D01*
X46201Y33000D02*X46701Y33500D01*
X47701D01*
X48201Y33000D01*
Y30000D01*
X47701Y29500D02*X48201Y30000D01*
X46701Y29500D02*X47701D01*
X46201Y30000D02*X46701Y29500D01*
Y31500D02*X48201D01*
X49402Y30000D02*X49902Y29500D01*
X49402Y33000D02*Y30000D01*
Y33000D02*X49902Y33500D01*
X50902D01*
X51402Y33000D01*
Y30000D01*
X50902Y29500D02*X51402Y30000D01*
X49902Y29500D02*X50902D01*
X49402Y30500D02*X51402Y32500D01*
X52603Y33000D02*X53103Y33500D01*
X54103D01*
X54603Y33000D01*
Y30000D01*
X54103Y29500D02*X54603Y30000D01*
X53103Y29500D02*X54103D01*
X52603Y30000D02*X53103Y29500D01*
Y31500D02*X54603D01*
X62500Y33500D02*X64500D01*
X65000Y33000D01*
Y32000D01*
X64500Y31500D02*X65000Y32000D01*
X63000Y31500D02*X64500D01*
X63000Y33500D02*Y29500D01*
Y31500D02*X65000Y29500D01*
X66201Y33000D02*X66701Y33500D01*
X67701D01*
X68201Y33000D01*
Y30000D01*
X67701Y29500D02*X68201Y30000D01*
X66701Y29500D02*X67701D01*
X66201Y30000D02*X66701Y29500D01*
Y31500D02*X68201D01*
X69402Y30000D02*X69902Y29500D01*
X69402Y33000D02*Y30000D01*
Y33000D02*X69902Y33500D01*
X70902D01*
X71402Y33000D01*
Y30000D01*
X70902Y29500D02*X71402Y30000D01*
X69902Y29500D02*X70902D01*
X69402Y30500D02*X71402Y32500D01*
X72603Y33000D02*X73103Y33500D01*
X74603D01*
X75103Y33000D01*
Y32000D01*
X72603Y29500D02*X75103Y32000D01*
X72603Y29500D02*X75103D01*
X82500Y33500D02*X84500D01*
X85000Y33000D01*
Y32000D01*
X84500Y31500D02*X85000Y32000D01*
X83000Y31500D02*X84500D01*
X83000Y33500D02*Y29500D01*
Y31500D02*X85000Y29500D01*
X86201Y33000D02*X86701Y33500D01*
X87701D01*
X88201Y33000D01*
Y30000D01*
X87701Y29500D02*X88201Y30000D01*
X86701Y29500D02*X87701D01*
X86201Y30000D02*X86701Y29500D01*
Y31500D02*X88201D01*
X89402Y30000D02*X89902Y29500D01*
X89402Y33000D02*Y30000D01*
Y33000D02*X89902Y33500D01*
X90902D01*
X91402Y33000D01*
Y30000D01*
X90902Y29500D02*X91402Y30000D01*
X89902Y29500D02*X90902D01*
X89402Y30500D02*X91402Y32500D01*
X93103Y29500D02*X94103D01*
X93603Y33500D02*Y29500D01*
X92603Y32500D02*X93603Y33500D01*
X50000Y21500D02*Y18000D01*
X50500Y17500D01*
X51500D01*
X52000Y18000D01*
Y21500D02*Y18000D01*
X53701Y17500D02*X54701D01*
X54201Y21500D02*Y17500D01*
X53201Y20500D02*X54201Y21500D01*
X55902Y18000D02*X56402Y17500D01*
X55902Y21000D02*Y18000D01*
Y21000D02*X56402Y21500D01*
X57402D01*
X57902Y21000D01*
Y18000D01*
X57402Y17500D02*X57902Y18000D01*
X56402Y17500D02*X57402D01*
X55902Y18500D02*X57902Y20500D01*
X59603Y17500D02*X60603D01*
X60103Y21500D02*Y17500D01*
X59103Y20500D02*X60103Y21500D01*
X84717Y89000D02*X85217Y88500D01*
X83217Y89000D02*X84717D01*
X82717Y88500D02*X83217Y89000D01*
X82717Y88500D02*Y87500D01*
X83217Y87000D01*
X84717D01*
X85217Y86500D01*
Y85500D01*
X84717Y85000D02*X85217Y85500D01*
X83217Y85000D02*X84717D01*
X82717Y85500D02*X83217Y85000D01*
X86418Y89000D02*Y85000D01*
X87918Y86500D01*
X89418Y85000D01*
Y89000D02*Y85000D01*
X91119D02*X92119D01*
X91619Y89000D02*Y85000D01*
X90619Y88000D02*X91619Y89000D01*
X93320Y85500D02*X93820Y85000D01*
X93320Y88500D02*Y85500D01*
Y88500D02*X93820Y89000D01*
X94820D01*
X95320Y88500D01*
Y85500D01*
X94820Y85000D02*X95320Y85500D01*
X93820Y85000D02*X94820D01*
X93320Y86000D02*X95320Y88000D01*
X97021Y85000D02*X98021D01*
X97521Y89000D02*Y85000D01*
X96521Y88000D02*X97521Y89000D01*
X37000Y99500D02*Y98000D01*
X37500Y100000D02*X37000Y99500D01*
X37500Y100000D02*X40500D01*
X41000Y99500D01*
Y98000D01*
X37500Y96799D02*X40500D01*
X41000Y96299D01*
Y95299D01*
X40500Y94799D01*
X37500D02*X40500D01*
X37000Y95299D02*X37500Y94799D01*
X37000Y96299D02*Y95299D01*
X37500Y96799D02*X37000Y96299D01*
Y93598D02*X41000D01*
X40500D02*X41000D01*
X40500D02*X38000Y91098D01*
X37000D02*X41000D01*
X37000Y89897D02*X41000D01*
X40500D02*X41000D01*
X40500D02*X38000Y87397D01*
X37000D02*X41000D01*
X37000Y85696D02*Y84696D01*
Y85196D02*X41000D01*
X40000Y86196D02*X41000Y85196D01*
X37500Y83495D02*X37000Y82995D01*
X37500Y83495D02*X40500D01*
X41000Y82995D01*
Y81995D01*
X40500Y81495D01*
X37500D02*X40500D01*
X37000Y81995D02*X37500Y81495D01*
X37000Y82995D02*Y81995D01*
X38000Y83495D02*X40000Y81495D01*
X40500Y80294D02*X41000Y79794D01*
Y78294D01*
X40500Y77794D01*
X39500D02*X40500D01*
X37000Y80294D02*X39500Y77794D01*
X37000Y80294D02*Y77794D01*
X42500Y53500D02*X44500D01*
X45000Y53000D01*
Y52000D01*
X44500Y51500D02*X45000Y52000D01*
X43000Y51500D02*X44500D01*
X43000Y53500D02*Y49500D01*
Y51500D02*X45000Y49500D01*
X46201Y53000D02*X46701Y53500D01*
X47701D01*
X48201Y53000D01*
Y50000D01*
X47701Y49500D02*X48201Y50000D01*
X46701Y49500D02*X47701D01*
X46201Y50000D02*X46701Y49500D01*
Y51500D02*X48201D01*
X49402Y50000D02*X49902Y49500D01*
X49402Y53000D02*Y50000D01*
Y53000D02*X49902Y53500D01*
X50902D01*
X51402Y53000D01*
Y50000D01*
X50902Y49500D02*X51402Y50000D01*
X49902Y49500D02*X50902D01*
X49402Y50500D02*X51402Y52500D01*
X54103Y53500D02*X54603Y53000D01*
X53103Y53500D02*X54103D01*
X52603Y53000D02*X53103Y53500D01*
X52603Y53000D02*Y50000D01*
X53103Y49500D01*
X54103Y51500D02*X54603Y51000D01*
X52603Y51500D02*X54103D01*
X53103Y49500D02*X54103D01*
X54603Y50000D01*
Y51000D02*Y50000D01*
X62500Y53500D02*X64500D01*
X65000Y53000D01*
Y52000D01*
X64500Y51500D02*X65000Y52000D01*
X63000Y51500D02*X64500D01*
X63000Y53500D02*Y49500D01*
Y51500D02*X65000Y49500D01*
X66201Y53000D02*X66701Y53500D01*
X67701D01*
X68201Y53000D01*
Y50000D01*
X67701Y49500D02*X68201Y50000D01*
X66701Y49500D02*X67701D01*
X66201Y50000D02*X66701Y49500D01*
Y51500D02*X68201D01*
X69402Y50000D02*X69902Y49500D01*
X69402Y53000D02*Y50000D01*
Y53000D02*X69902Y53500D01*
X70902D01*
X71402Y53000D01*
Y50000D01*
X70902Y49500D02*X71402Y50000D01*
X69902Y49500D02*X70902D01*
X69402Y50500D02*X71402Y52500D01*
X72603Y53500D02*X74603D01*
X72603D02*Y51500D01*
X73103Y52000D01*
X74103D01*
X74603Y51500D01*
Y50000D01*
X74103Y49500D02*X74603Y50000D01*
X73103Y49500D02*X74103D01*
X72603Y50000D02*X73103Y49500D01*
X42500Y113500D02*X44500D01*
X45000Y113000D01*
Y112000D01*
X44500Y111500D02*X45000Y112000D01*
X43000Y111500D02*X44500D01*
X43000Y113500D02*Y109500D01*
Y111500D02*X45000Y109500D01*
X46201Y113000D02*X46701Y113500D01*
X48201D01*
X48701Y113000D01*
Y112000D01*
X46201Y109500D02*X48701Y112000D01*
X46201Y109500D02*X48701D01*
X50402D02*X51402D01*
X50902Y113500D02*Y109500D01*
X49902Y112500D02*X50902Y113500D01*
X52603Y113000D02*X53103Y113500D01*
X54603D01*
X55103Y113000D01*
Y112000D01*
X52603Y109500D02*X55103Y112000D01*
X52603Y109500D02*X55103D01*
X42500Y133500D02*X44500D01*
X45000Y133000D01*
Y132000D01*
X44500Y131500D02*X45000Y132000D01*
X43000Y131500D02*X44500D01*
X43000Y133500D02*Y129500D01*
Y131500D02*X45000Y129500D01*
X46201Y133000D02*X46701Y133500D01*
X48201D01*
X48701Y133000D01*
Y132000D01*
X46201Y129500D02*X48701Y132000D01*
X46201Y129500D02*X48701D01*
X49902Y130000D02*X50402Y129500D01*
X49902Y133000D02*Y130000D01*
Y133000D02*X50402Y133500D01*
X51402D01*
X51902Y133000D01*
Y130000D01*
X51402Y129500D02*X51902Y130000D01*
X50402Y129500D02*X51402D01*
X49902Y130500D02*X51902Y132500D01*
X53103Y129500D02*X55103Y131500D01*
Y133000D02*Y131500D01*
X54603Y133500D02*X55103Y133000D01*
X53603Y133500D02*X54603D01*
X53103Y133000D02*X53603Y133500D01*
X53103Y133000D02*Y132000D01*
X53603Y131500D01*
X55103D01*
X62500Y133500D02*X64500D01*
X65000Y133000D01*
Y132000D01*
X64500Y131500D02*X65000Y132000D01*
X63000Y131500D02*X64500D01*
X63000Y133500D02*Y129500D01*
Y131500D02*X65000Y129500D01*
X66201Y133000D02*X66701Y133500D01*
X68201D01*
X68701Y133000D01*
Y132000D01*
X66201Y129500D02*X68701Y132000D01*
X66201Y129500D02*X68701D01*
X69902Y130000D02*X70402Y129500D01*
X69902Y133000D02*Y130000D01*
Y133000D02*X70402Y133500D01*
X71402D01*
X71902Y133000D01*
Y130000D01*
X71402Y129500D02*X71902Y130000D01*
X70402Y129500D02*X71402D01*
X69902Y130500D02*X71902Y132500D01*
X73103Y130000D02*X73603Y129500D01*
X73103Y131000D02*Y130000D01*
Y131000D02*X73603Y131500D01*
X74603D01*
X75103Y131000D01*
Y130000D01*
X74603Y129500D02*X75103Y130000D01*
X73603Y129500D02*X74603D01*
X73103Y132000D02*X73603Y131500D01*
X73103Y133000D02*Y132000D01*
Y133000D02*X73603Y133500D01*
X74603D01*
X75103Y133000D01*
Y132000D01*
X74603Y131500D02*X75103Y132000D01*
X42500Y153500D02*X44500D01*
X45000Y153000D01*
Y152000D01*
X44500Y151500D02*X45000Y152000D01*
X43000Y151500D02*X44500D01*
X43000Y153500D02*Y149500D01*
Y151500D02*X45000Y149500D01*
X46201Y153000D02*X46701Y153500D01*
X48201D01*
X48701Y153000D01*
Y152000D01*
X46201Y149500D02*X48701Y152000D01*
X46201Y149500D02*X48701D01*
X49902Y150000D02*X50402Y149500D01*
X49902Y153000D02*Y150000D01*
Y153000D02*X50402Y153500D01*
X51402D01*
X51902Y153000D01*
Y150000D01*
X51402Y149500D02*X51902Y150000D01*
X50402Y149500D02*X51402D01*
X49902Y150500D02*X51902Y152500D01*
X54603Y153500D02*X55103Y153000D01*
X53603Y153500D02*X54603D01*
X53103Y153000D02*X53603Y153500D01*
X53103Y153000D02*Y150000D01*
X53603Y149500D01*
X54603Y151500D02*X55103Y151000D01*
X53103Y151500D02*X54603D01*
X53603Y149500D02*X54603D01*
X55103Y150000D01*
Y151000D02*Y150000D01*
X62500Y153500D02*X64500D01*
X65000Y153000D01*
Y152000D01*
X64500Y151500D02*X65000Y152000D01*
X63000Y151500D02*X64500D01*
X63000Y153500D02*Y149500D01*
Y151500D02*X65000Y149500D01*
X66201Y153000D02*X66701Y153500D01*
X68201D01*
X68701Y153000D01*
Y152000D01*
X66201Y149500D02*X68701Y152000D01*
X66201Y149500D02*X68701D01*
X69902Y150000D02*X70402Y149500D01*
X69902Y153000D02*Y150000D01*
Y153000D02*X70402Y153500D01*
X71402D01*
X71902Y153000D01*
Y150000D01*
X71402Y149500D02*X71902Y150000D01*
X70402Y149500D02*X71402D01*
X69902Y150500D02*X71902Y152500D01*
X73103Y153500D02*X75103D01*
X73103D02*Y151500D01*
X73603Y152000D01*
X74603D01*
X75103Y151500D01*
Y150000D01*
X74603Y149500D02*X75103Y150000D01*
X73603Y149500D02*X74603D01*
X73103Y150000D02*X73603Y149500D01*
X62500Y113500D02*X64500D01*
X65000Y113000D01*
Y112000D01*
X64500Y111500D02*X65000Y112000D01*
X63000Y111500D02*X64500D01*
X63000Y113500D02*Y109500D01*
Y111500D02*X65000Y109500D01*
X66201Y113000D02*X66701Y113500D01*
X68201D01*
X68701Y113000D01*
Y112000D01*
X66201Y109500D02*X68701Y112000D01*
X66201Y109500D02*X68701D01*
X70402D02*X71402D01*
X70902Y113500D02*Y109500D01*
X69902Y112500D02*X70902Y113500D01*
X73103Y109500D02*X74103D01*
X73603Y113500D02*Y109500D01*
X72603Y112500D02*X73603Y113500D01*
X82500D02*X84500D01*
X85000Y113000D01*
Y112000D01*
X84500Y111500D02*X85000Y112000D01*
X83000Y111500D02*X84500D01*
X83000Y113500D02*Y109500D01*
Y111500D02*X85000Y109500D01*
X86201Y113000D02*X86701Y113500D01*
X88201D01*
X88701Y113000D01*
Y112000D01*
X86201Y109500D02*X88701Y112000D01*
X86201Y109500D02*X88701D01*
X90402D02*X91402D01*
X90902Y113500D02*Y109500D01*
X89902Y112500D02*X90902Y113500D01*
X92603Y110000D02*X93103Y109500D01*
X92603Y113000D02*Y110000D01*
Y113000D02*X93103Y113500D01*
X94103D01*
X94603Y113000D01*
Y110000D01*
X94103Y109500D02*X94603Y110000D01*
X93103Y109500D02*X94103D01*
X92603Y110500D02*X94603Y112500D01*
X115000Y166000D02*Y162500D01*
X115500Y162000D01*
X116500D01*
X117000Y162500D01*
Y166000D02*Y162500D01*
X118201Y165500D02*X118701Y166000D01*
X120201D01*
X120701Y165500D01*
Y164500D01*
X118201Y162000D02*X120701Y164500D01*
X118201Y162000D02*X120701D01*
X121902Y162500D02*X122402Y162000D01*
X121902Y165500D02*Y162500D01*
Y165500D02*X122402Y166000D01*
X123402D01*
X123902Y165500D01*
Y162500D01*
X123402Y162000D02*X123902Y162500D01*
X122402Y162000D02*X123402D01*
X121902Y163000D02*X123902Y165000D01*
X125603Y162000D02*X126603D01*
X126103Y166000D02*Y162000D01*
X125103Y165000D02*X126103Y166000D01*
X82500Y173500D02*X84500D01*
X85000Y173000D01*
Y172000D01*
X84500Y171500D02*X85000Y172000D01*
X83000Y171500D02*X84500D01*
X83000Y173500D02*Y169500D01*
Y171500D02*X85000Y169500D01*
X86201Y173000D02*X86701Y173500D01*
X88201D01*
X88701Y173000D01*
Y172000D01*
X86201Y169500D02*X88701Y172000D01*
X86201Y169500D02*X88701D01*
X89902Y170000D02*X90402Y169500D01*
X89902Y173000D02*Y170000D01*
Y173000D02*X90402Y173500D01*
X91402D01*
X91902Y173000D01*
Y170000D01*
X91402Y169500D02*X91902Y170000D01*
X90402Y169500D02*X91402D01*
X89902Y170500D02*X91902Y172500D01*
X93603Y169500D02*X94603D01*
X94103Y173500D02*Y169500D01*
X93103Y172500D02*X94103Y173500D01*
X42500D02*X44500D01*
X45000Y173000D01*
Y172000D01*
X44500Y171500D02*X45000Y172000D01*
X43000Y171500D02*X44500D01*
X43000Y173500D02*Y169500D01*
Y171500D02*X45000Y169500D01*
X46201Y173000D02*X46701Y173500D01*
X48201D01*
X48701Y173000D01*
Y172000D01*
X46201Y169500D02*X48701Y172000D01*
X46201Y169500D02*X48701D01*
X49902Y170000D02*X50402Y169500D01*
X49902Y173000D02*Y170000D01*
Y173000D02*X50402Y173500D01*
X51402D01*
X51902Y173000D01*
Y170000D01*
X51402Y169500D02*X51902Y170000D01*
X50402Y169500D02*X51402D01*
X49902Y170500D02*X51902Y172500D01*
X53103Y173000D02*X53603Y173500D01*
X54603D01*
X55103Y173000D01*
Y170000D01*
X54603Y169500D02*X55103Y170000D01*
X53603Y169500D02*X54603D01*
X53103Y170000D02*X53603Y169500D01*
Y171500D02*X55103D01*
X62500Y173500D02*X64500D01*
X65000Y173000D01*
Y172000D01*
X64500Y171500D02*X65000Y172000D01*
X63000Y171500D02*X64500D01*
X63000Y173500D02*Y169500D01*
Y171500D02*X65000Y169500D01*
X66201Y173000D02*X66701Y173500D01*
X68201D01*
X68701Y173000D01*
Y172000D01*
X66201Y169500D02*X68701Y172000D01*
X66201Y169500D02*X68701D01*
X69902Y170000D02*X70402Y169500D01*
X69902Y173000D02*Y170000D01*
Y173000D02*X70402Y173500D01*
X71402D01*
X71902Y173000D01*
Y170000D01*
X71402Y169500D02*X71902Y170000D01*
X70402Y169500D02*X71402D01*
X69902Y170500D02*X71902Y172500D01*
X73103Y173000D02*X73603Y173500D01*
X75103D01*
X75603Y173000D01*
Y172000D01*
X73103Y169500D02*X75603Y172000D01*
X73103Y169500D02*X75603D01*
X82500Y133500D02*X84500D01*
X85000Y133000D01*
Y132000D01*
X84500Y131500D02*X85000Y132000D01*
X83000Y131500D02*X84500D01*
X83000Y133500D02*Y129500D01*
Y131500D02*X85000Y129500D01*
X86201Y133000D02*X86701Y133500D01*
X88201D01*
X88701Y133000D01*
Y132000D01*
X86201Y129500D02*X88701Y132000D01*
X86201Y129500D02*X88701D01*
X89902Y130000D02*X90402Y129500D01*
X89902Y133000D02*Y130000D01*
Y133000D02*X90402Y133500D01*
X91402D01*
X91902Y133000D01*
Y130000D01*
X91402Y129500D02*X91902Y130000D01*
X90402Y129500D02*X91402D01*
X89902Y130500D02*X91902Y132500D01*
X93103Y129500D02*X95603Y132000D01*
Y133500D02*Y132000D01*
X93103Y133500D02*X95603D01*
X82500Y153500D02*X84500D01*
X85000Y153000D01*
Y152000D01*
X84500Y151500D02*X85000Y152000D01*
X83000Y151500D02*X84500D01*
X83000Y153500D02*Y149500D01*
Y151500D02*X85000Y149500D01*
X86201Y153000D02*X86701Y153500D01*
X88201D01*
X88701Y153000D01*
Y152000D01*
X86201Y149500D02*X88701Y152000D01*
X86201Y149500D02*X88701D01*
X89902Y150000D02*X90402Y149500D01*
X89902Y153000D02*Y150000D01*
Y153000D02*X90402Y153500D01*
X91402D01*
X91902Y153000D01*
Y150000D01*
X91402Y149500D02*X91902Y150000D01*
X90402Y149500D02*X91402D01*
X89902Y150500D02*X91902Y152500D01*
X93103Y151500D02*X95103Y153500D01*
X93103Y151500D02*X95603D01*
X95103Y153500D02*Y149500D01*
M02*
