G04 start of page 7 for group -4079 idx -4079 *
G04 Title: (unknown), topsilk *
G04 Creator: pcb 20091103 *
G04 CreationDate: Sat 12 Mar 2011 05:15:37 PM GMT UTC *
G04 For: jlamothe *
G04 Format: Gerber/RS-274X *
G04 PCB-Dimensions: 180000 210000 *
G04 PCB-Coordinate-Origin: lower left *
%MOIN*%
%FSLAX25Y25*%
%LNFRONTSILK*%
%ADD11C,0.0100*%
%ADD25C,0.0080*%
G54D11*X149500Y40000D02*X150000Y40500D01*
X146500Y40000D02*X149500D01*
X146500D02*X146000Y40500D01*
Y41500D02*Y40500D01*
Y41500D02*X146500Y42000D01*
X149500D01*
X150000Y41500D02*X149500Y42000D01*
X150000Y41500D02*Y40500D01*
X149000Y40000D02*X147000Y42000D01*
X148000Y45201D02*Y43201D01*
X150000Y47902D02*Y46902D01*
X146000Y47402D02*X150000D01*
X147000Y46402D02*X146000Y47402D01*
X149500Y49103D02*X150000Y49603D01*
X146500Y49103D02*X149500D01*
X146500D02*X146000Y49603D01*
Y50603D02*Y49603D01*
Y50603D02*X146500Y51103D01*
X149500D01*
X150000Y50603D02*X149500Y51103D01*
X150000Y50603D02*Y49603D01*
X149000Y49103D02*X147000Y51103D01*
X146000Y52304D02*X149000D01*
X150000Y53304D01*
X149000Y54304D01*
X146000D02*X149000D01*
X146500Y57305D02*X149500D01*
X146500D02*X146000Y57805D01*
Y58805D02*Y57805D01*
Y58805D02*X146500Y59305D01*
X149500D01*
X150000Y58805D02*X149500Y59305D01*
X150000Y58805D02*Y57805D01*
X149500Y57305D02*X150000Y57805D01*
X146000Y60506D02*X149500D01*
X150000Y61006D01*
Y62006D02*Y61006D01*
Y62006D02*X149500Y62506D01*
X146000D02*X149500D01*
X146000Y65707D02*Y63707D01*
Y64707D02*X150000D01*
X155000Y81000D02*X155500Y81500D01*
X156500D01*
X157000Y81000D01*
Y78000D01*
X156500Y77500D02*X157000Y78000D01*
X155500Y77500D02*X156500D01*
X155000Y78000D02*X155500Y77500D01*
Y79500D02*X157000D01*
X155000Y71500D02*X157000D01*
X155000D02*Y69500D01*
X155500Y70000D01*
X156500D01*
X157000Y69500D01*
Y68000D01*
X156500Y67500D02*X157000Y68000D01*
X155500Y67500D02*X156500D01*
X155000Y68000D02*X155500Y67500D01*
X156500Y61500D02*X157000Y61000D01*
X155500Y61500D02*X156500D01*
X155000Y61000D02*X155500Y61500D01*
X155000Y61000D02*Y58000D01*
X155500Y57500D01*
X156500Y59500D02*X157000Y59000D01*
X155000Y59500D02*X156500D01*
X155500Y57500D02*X156500D01*
X157000Y58000D01*
Y59000D02*Y58000D01*
X155000Y47500D02*X157000Y49500D01*
Y51000D02*Y49500D01*
X156500Y51500D02*X157000Y51000D01*
X155500Y51500D02*X156500D01*
X155000Y51000D02*X155500Y51500D01*
X155000Y51000D02*Y50000D01*
X155500Y49500D01*
X157000D01*
X153000Y37500D02*X154000D01*
X153500Y41500D02*Y37500D01*
X152500Y40500D02*X153500Y41500D01*
X155201Y38000D02*X155701Y37500D01*
X155201Y41000D02*Y38000D01*
Y41000D02*X155701Y41500D01*
X156701D01*
X157201Y41000D01*
Y38000D01*
X156701Y37500D02*X157201Y38000D01*
X155701Y37500D02*X156701D01*
X155201Y38500D02*X157201Y40500D01*
X153000Y27500D02*X154000D01*
X153500Y31500D02*Y27500D01*
X152500Y30500D02*X153500Y31500D01*
X155701Y27500D02*X156701D01*
X156201Y31500D02*Y27500D01*
X155201Y30500D02*X156201Y31500D01*
X37500Y86500D02*Y82500D01*
X39500D01*
X40701Y86500D02*X41701D01*
X41201D02*Y82500D01*
X40701D02*X41701D01*
X43402D02*X44902D01*
X42902Y83000D02*X43402Y82500D01*
X42902Y86000D02*Y83000D01*
Y86000D02*X43402Y86500D01*
X44902D01*
X46103Y84500D02*X47603D01*
X46103Y82500D02*X48103D01*
X46103Y86500D02*Y82500D01*
Y86500D02*X48103D01*
X49304D02*Y82500D01*
Y86500D02*Y86000D01*
X51804Y83500D01*
Y86500D02*Y82500D01*
X55005Y86500D02*X55505Y86000D01*
X53505Y86500D02*X55005D01*
X53005Y86000D02*X53505Y86500D01*
X53005Y86000D02*Y85000D01*
X53505Y84500D01*
X55005D01*
X55505Y84000D01*
Y83000D01*
X55005Y82500D02*X55505Y83000D01*
X53505Y82500D02*X55005D01*
X53005Y83000D02*X53505Y82500D01*
X56706Y84500D02*X58206D01*
X56706Y82500D02*X58706D01*
X56706Y86500D02*Y82500D01*
Y86500D02*X58706D01*
X60407D02*Y82500D01*
X61907Y86500D02*X62407Y86000D01*
Y83000D01*
X61907Y82500D02*X62407Y83000D01*
X59907Y82500D02*X61907D01*
X59907Y86500D02*X61907D01*
X65408D02*Y83000D01*
X65908Y82500D01*
X66908D01*
X67408Y83000D01*
Y86500D02*Y83000D01*
X68609Y86500D02*Y82500D01*
Y86500D02*Y86000D01*
X71109Y83500D01*
Y86500D02*Y82500D01*
X72810Y86500D02*Y82500D01*
X74310Y86500D02*X74810Y86000D01*
Y83000D01*
X74310Y82500D02*X74810Y83000D01*
X72310Y82500D02*X74310D01*
X72310Y86500D02*X74310D01*
X76011Y84500D02*X77511D01*
X76011Y82500D02*X78011D01*
X76011Y86500D02*Y82500D01*
Y86500D02*X78011D01*
X79212D02*X81212D01*
X81712Y86000D01*
Y85000D01*
X81212Y84500D02*X81712Y85000D01*
X79712Y84500D02*X81212D01*
X79712Y86500D02*Y82500D01*
Y84500D02*X81712Y82500D01*
X86713Y86500D02*X87213Y86000D01*
X85213Y86500D02*X86713D01*
X84713Y86000D02*X85213Y86500D01*
X84713Y86000D02*Y83000D01*
X85213Y82500D01*
X86713D01*
X87213Y83000D01*
Y84000D02*Y83000D01*
X86713Y84500D02*X87213Y84000D01*
X85713Y84500D02*X86713D01*
X88914Y86500D02*Y82500D01*
X88414Y86500D02*X90414D01*
X90914Y86000D01*
Y85000D01*
X90414Y84500D02*X90914Y85000D01*
X88914Y84500D02*X90414D01*
X92115Y86500D02*Y82500D01*
X94115D01*
X95316Y84500D02*Y83500D01*
X96316Y82500D01*
X97316Y83500D01*
Y84500D02*Y83500D01*
X98517Y86000D02*X99017Y86500D01*
X100017D01*
X100517Y86000D01*
Y83000D01*
X100017Y82500D02*X100517Y83000D01*
X99017Y82500D02*X100017D01*
X98517Y83000D02*X99017Y82500D01*
Y84500D02*X100517D01*
X103518Y83000D02*X104018Y82500D01*
X103518Y86000D02*X104018Y86500D01*
X103518Y86000D02*Y83000D01*
X105219Y86000D02*Y83000D01*
Y86000D02*X105719Y86500D01*
X106719D01*
X107219Y86000D01*
Y83000D01*
X106719Y82500D02*X107219Y83000D01*
X105719Y82500D02*X106719D01*
X105219Y83000D02*X105719Y82500D01*
X108420Y86500D02*X110420D01*
X110920Y86000D01*
Y85000D01*
X110420Y84500D02*X110920Y85000D01*
X108920Y84500D02*X110420D01*
X108920Y86500D02*Y82500D01*
Y84500D02*X110920Y82500D01*
X113921Y86500D02*Y82500D01*
X115921D01*
X117122Y86000D02*Y82500D01*
Y86000D02*X117622Y86500D01*
X119122D01*
X119622Y86000D01*
Y82500D01*
X117122Y84500D02*X119622D01*
X120823Y86500D02*X122823D01*
X121823D02*Y82500D01*
X124024Y84500D02*X125524D01*
X124024Y82500D02*X126024D01*
X124024Y86500D02*Y82500D01*
Y86500D02*X126024D01*
X127225D02*X129225D01*
X129725Y86000D01*
Y85000D01*
X129225Y84500D02*X129725Y85000D01*
X127725Y84500D02*X129225D01*
X127725Y86500D02*Y82500D01*
Y84500D02*X129725Y82500D01*
X130926Y86500D02*X131426Y86000D01*
Y83000D01*
X130926Y82500D02*X131426Y83000D01*
X37500Y92000D02*X38500Y93000D01*
X37500Y92000D02*X38500Y91000D01*
X39701Y94000D02*X41201D01*
Y90500D01*
X40701Y90000D02*X41201Y90500D01*
X40201Y90000D02*X40701D01*
X39701Y90500D02*X40201Y90000D01*
X42402Y93500D02*Y90500D01*
Y93500D02*X42902Y94000D01*
X43902D01*
X44402Y93500D01*
Y90500D01*
X43902Y90000D02*X44402Y90500D01*
X42902Y90000D02*X43902D01*
X42402Y90500D02*X42902Y90000D01*
X45603Y94000D02*Y90000D01*
Y94000D02*Y93500D01*
X48103Y91000D01*
Y94000D02*Y90000D01*
X49304Y93500D02*Y90000D01*
Y93500D02*X49804Y94000D01*
X51304D01*
X51804Y93500D01*
Y90000D01*
X49304Y92000D02*X51804D01*
X53005Y94000D02*X55005D01*
X54005D02*Y90000D01*
X56206Y94000D02*Y90000D01*
X58706Y94000D02*Y90000D01*
X56206Y92000D02*X58706D01*
X59907Y93500D02*Y90000D01*
Y93500D02*X60407Y94000D01*
X61907D01*
X62407Y93500D01*
Y90000D01*
X59907Y92000D02*X62407D01*
X63608Y94000D02*Y90000D01*
Y94000D02*Y93500D01*
X66108Y91000D01*
Y94000D02*Y90000D01*
X67309Y94000D02*Y91000D01*
X68309Y90000D01*
X71309D01*
X72309Y94000D02*Y91500D01*
Y94000D02*X71309Y95000D01*
X68309D02*X71309D01*
X68309D02*X67309Y94000D01*
X68809Y93000D02*Y92000D01*
X69309Y91500D01*
X70309D01*
X70809Y92000D01*
X71309Y91500D01*
X70809Y93500D02*Y92000D01*
Y93000D02*X70309Y93500D01*
X69309D02*X70309D01*
X69309D02*X68809Y93000D01*
X71309Y91500D02*X72309D01*
X73510Y94000D02*X75010D01*
Y90500D01*
X74510Y90000D02*X75010Y90500D01*
X74010Y90000D02*X74510D01*
X73510Y90500D02*X74010Y90000D01*
X76211Y94000D02*Y90000D01*
X78211D01*
X79412Y93500D02*Y90000D01*
Y93500D02*X79912Y94000D01*
X81412D01*
X81912Y93500D01*
Y90000D01*
X79412Y92000D02*X81912D01*
X83113Y94000D02*Y90000D01*
Y94000D02*X84613Y92500D01*
X86113Y94000D01*
Y90000D01*
X87314Y93500D02*Y90500D01*
Y93500D02*X87814Y94000D01*
X88814D01*
X89314Y93500D01*
Y90500D01*
X88814Y90000D02*X89314Y90500D01*
X87814Y90000D02*X88814D01*
X87314Y90500D02*X87814Y90000D01*
X90515Y94000D02*X92515D01*
X91515D02*Y90000D01*
X93716Y94000D02*Y90000D01*
X96216Y94000D02*Y90000D01*
X93716Y92000D02*X96216D01*
X97417D02*X98917D01*
X97417Y90000D02*X99417D01*
X97417Y94000D02*Y90000D01*
Y94000D02*X99417D01*
X100618Y90000D02*X101118D01*
X102319Y94000D02*Y90000D01*
Y94000D02*Y93500D01*
X104819Y91000D01*
Y94000D02*Y90000D01*
X106020Y92000D02*X107520D01*
X106020Y90000D02*X108020D01*
X106020Y94000D02*Y90000D01*
Y94000D02*X108020D01*
X109221D02*X111221D01*
X110221D02*Y90000D01*
X112422Y93000D02*X113422Y92000D01*
X112422Y91000D02*X113422Y92000D01*
X38000Y97500D02*X39500D01*
X37500Y98000D02*X38000Y97500D01*
X37500Y101000D02*Y98000D01*
Y101000D02*X38000Y101500D01*
X39500D01*
X40701Y101000D02*Y98000D01*
Y101000D02*X41201Y101500D01*
X42201D01*
X42701Y101000D01*
Y98000D01*
X42201Y97500D02*X42701Y98000D01*
X41201Y97500D02*X42201D01*
X40701Y98000D02*X41201Y97500D01*
X44402Y101500D02*Y97500D01*
X43902Y101500D02*X45902D01*
X46402Y101000D01*
Y100000D01*
X45902Y99500D02*X46402Y100000D01*
X44402Y99500D02*X45902D01*
X47603Y101500D02*Y101000D01*
X48603Y100000D01*
X49603Y101000D01*
Y101500D02*Y101000D01*
X48603Y100000D02*Y97500D01*
X50804Y101500D02*X52804D01*
X53304Y101000D01*
Y100000D01*
X52804Y99500D02*X53304Y100000D01*
X51304Y99500D02*X52804D01*
X51304Y101500D02*Y97500D01*
Y99500D02*X53304Y97500D01*
X54505Y101500D02*X55505D01*
X55005D02*Y97500D01*
X54505D02*X55505D01*
X58706Y101500D02*X59206Y101000D01*
X57206Y101500D02*X58706D01*
X56706Y101000D02*X57206Y101500D01*
X56706Y101000D02*Y98000D01*
X57206Y97500D01*
X58706D01*
X59206Y98000D01*
Y99000D02*Y98000D01*
X58706Y99500D02*X59206Y99000D01*
X57706Y99500D02*X58706D01*
X60407Y101500D02*Y97500D01*
X62907Y101500D02*Y97500D01*
X60407Y99500D02*X62907D01*
X64108Y101500D02*X66108D01*
X65108D02*Y97500D01*
X69109Y98000D02*X69609Y97500D01*
X69109Y101000D02*X69609Y101500D01*
X69109Y101000D02*Y98000D01*
X71310Y97500D02*X72810D01*
X70810Y98000D02*X71310Y97500D01*
X70810Y101000D02*Y98000D01*
Y101000D02*X71310Y101500D01*
X72810D01*
X74011D02*X74511Y101000D01*
Y98000D01*
X74011Y97500D02*X74511Y98000D01*
X77512Y101000D02*X78012Y101500D01*
X79512D01*
X80012Y101000D01*
Y100000D01*
X77512Y97500D02*X80012Y100000D01*
X77512Y97500D02*X80012D01*
X81213Y98000D02*X81713Y97500D01*
X81213Y101000D02*Y98000D01*
Y101000D02*X81713Y101500D01*
X82713D01*
X83213Y101000D01*
Y98000D01*
X82713Y97500D02*X83213Y98000D01*
X81713Y97500D02*X82713D01*
X81213Y98500D02*X83213Y100500D01*
X84914Y97500D02*X85914D01*
X85414Y101500D02*Y97500D01*
X84414Y100500D02*X85414Y101500D01*
X87615Y97500D02*X88615D01*
X88115Y101500D02*Y97500D01*
X87115Y100500D02*X88115Y101500D01*
X91616D02*X93116D01*
Y98000D01*
X92616Y97500D02*X93116Y98000D01*
X92116Y97500D02*X92616D01*
X91616Y98000D02*X92116Y97500D01*
X94317Y101000D02*Y98000D01*
Y101000D02*X94817Y101500D01*
X95817D01*
X96317Y101000D01*
Y98000D01*
X95817Y97500D02*X96317Y98000D01*
X94817Y97500D02*X95817D01*
X94317Y98000D02*X94817Y97500D01*
X97518Y101500D02*Y97500D01*
Y101500D02*Y101000D01*
X100018Y98500D01*
Y101500D02*Y97500D01*
X101219Y101000D02*Y97500D01*
Y101000D02*X101719Y101500D01*
X103219D01*
X103719Y101000D01*
Y97500D01*
X101219Y99500D02*X103719D01*
X104920Y101500D02*X106920D01*
X105920D02*Y97500D01*
X108121Y101500D02*Y97500D01*
X110621Y101500D02*Y97500D01*
X108121Y99500D02*X110621D01*
X111822Y101000D02*Y97500D01*
Y101000D02*X112322Y101500D01*
X113822D01*
X114322Y101000D01*
Y97500D01*
X111822Y99500D02*X114322D01*
X115523Y101500D02*Y97500D01*
Y101500D02*Y101000D01*
X118023Y98500D01*
Y101500D02*Y97500D01*
X121024Y101500D02*Y97500D01*
X123024D01*
X124225Y101000D02*Y97500D01*
Y101000D02*X124725Y101500D01*
X126225D01*
X126725Y101000D01*
Y97500D01*
X124225Y99500D02*X126725D01*
X127926Y101500D02*Y97500D01*
Y101500D02*X129426Y100000D01*
X130926Y101500D01*
Y97500D01*
X132127Y101000D02*Y98000D01*
Y101000D02*X132627Y101500D01*
X133627D01*
X134127Y101000D01*
Y98000D01*
X133627Y97500D02*X134127Y98000D01*
X132627Y97500D02*X133627D01*
X132127Y98000D02*X132627Y97500D01*
X135328Y101500D02*X137328D01*
X136328D02*Y97500D01*
X138529Y101500D02*Y97500D01*
X141029Y101500D02*Y97500D01*
X138529Y99500D02*X141029D01*
X142230D02*X143730D01*
X142230Y97500D02*X144230D01*
X142230Y101500D02*Y97500D01*
Y101500D02*X144230D01*
G54D25*X62400Y123600D02*Y114800D01*
X76500Y123600D02*X61400D01*
X76500Y114800D02*Y123600D01*
X61400Y114800D02*X76500D01*
X61400Y123600D02*Y114800D01*
X87400Y123600D02*Y114800D01*
X101500Y123600D02*X86400D01*
X101500Y114800D02*Y123600D01*
X86400Y114800D02*X101500D01*
X86400Y123600D02*Y114800D01*
X37400Y123600D02*Y114800D01*
X51500Y123600D02*X36400D01*
X51500Y114800D02*Y123600D01*
X36400Y114800D02*X51500D01*
X36400Y123600D02*Y114800D01*
X89100Y143000D02*X77000D01*
X89100Y136000D02*Y143000D01*
X77000Y136000D02*X89100D01*
X77000Y143000D02*Y136000D01*
X49100Y143000D02*X37000D01*
X49100Y136000D02*Y143000D01*
X37000Y136000D02*X49100D01*
X37000Y143000D02*Y136000D01*
X69100Y143000D02*X57000D01*
X69100Y136000D02*Y143000D01*
X57000Y136000D02*X69100D01*
X57000Y143000D02*Y136000D01*
X112400Y123600D02*Y114800D01*
X126500Y123600D02*X111400D01*
X126500Y114800D02*Y123600D01*
X111400Y114800D02*X126500D01*
X111400Y123600D02*Y114800D01*
G54D11*X40000Y15000D02*X100000D01*
X40000Y5000D02*Y15000D01*
X100000Y5000D02*X40000D01*
X100000Y15000D02*Y5000D01*
X110000Y15000D02*X170000D01*
X110000Y5000D02*Y15000D01*
X170000Y5000D02*X110000D01*
X170000Y15000D02*Y5000D01*
X4000Y205000D02*X84000D01*
X4000Y195000D02*Y205000D01*
X84000Y195000D02*X4000D01*
X84000Y205000D02*Y195000D01*
X170000Y205000D02*X90000D01*
X170000Y195000D02*Y205000D01*
X90000Y195000D02*X170000D01*
X90000Y205000D02*Y195000D01*
G54D25*X77400Y73600D02*Y64800D01*
X91500Y73600D02*X76400D01*
X91500Y64800D02*Y73600D01*
X76400Y64800D02*X91500D01*
X76400Y73600D02*Y64800D01*
X89100Y38000D02*X77000D01*
X89100Y31000D02*Y38000D01*
X77000Y31000D02*X89100D01*
X77000Y38000D02*Y31000D01*
X49100Y53000D02*X37000D01*
X49100Y46000D02*Y53000D01*
X37000Y46000D02*X49100D01*
X37000Y53000D02*Y46000D01*
G54D11*X170000Y75000D02*Y85000D01*
X160000Y75000D02*X170000D01*
Y85000D02*X160000D01*
X170000Y25000D02*Y85000D01*
X160000Y25000D02*X170000D01*
X160000Y85000D02*Y25000D01*
X100000Y65000D02*Y50000D01*
Y40000D02*Y25000D01*
Y65000D02*X140000D01*
Y25000D01*
X100000D02*X140000D01*
X100000Y40000D02*G75*G03X100000Y50000I0J5000D01*G01*
G54D25*X49100Y173000D02*X37000D01*
X49100Y166000D02*Y173000D01*
X37000Y166000D02*X49100D01*
X37000Y173000D02*Y166000D01*
X49100Y188000D02*X37000D01*
X49100Y181000D02*Y188000D01*
X37000Y181000D02*X49100D01*
X37000Y188000D02*Y181000D01*
X49100Y158000D02*X37000D01*
X49100Y151000D02*Y158000D01*
X37000Y151000D02*X49100D01*
X37000Y158000D02*Y151000D01*
X49100Y38000D02*X37000D01*
X49100Y31000D02*Y38000D01*
X37000Y31000D02*X49100D01*
X37000Y38000D02*Y31000D01*
X52400Y73600D02*Y64800D01*
X66500Y73600D02*X51400D01*
X66500Y64800D02*Y73600D01*
X51400Y64800D02*X66500D01*
X51400Y73600D02*Y64800D01*
X69100Y53000D02*X57000D01*
X69100Y46000D02*Y53000D01*
X57000Y46000D02*X69100D01*
X57000Y53000D02*Y46000D01*
X69100Y38000D02*X57000D01*
X69100Y31000D02*Y38000D01*
X57000Y31000D02*X69100D01*
X57000Y38000D02*Y31000D01*
X89100Y53000D02*X77000D01*
X89100Y46000D02*Y53000D01*
X77000Y46000D02*X89100D01*
X77000Y53000D02*Y46000D01*
X69100Y158000D02*X57000D01*
X69100Y151000D02*Y158000D01*
X57000Y151000D02*X69100D01*
X57000Y158000D02*Y151000D01*
X69100Y173000D02*X57000D01*
X69100Y166000D02*Y173000D01*
X57000Y166000D02*X69100D01*
X57000Y173000D02*Y166000D01*
X69100Y188000D02*X57000D01*
X69100Y181000D02*Y188000D01*
X57000Y181000D02*X69100D01*
X57000Y188000D02*Y181000D01*
X89100Y158000D02*X77000D01*
X89100Y151000D02*Y158000D01*
X77000Y151000D02*X89100D01*
X77000Y158000D02*Y151000D01*
G54D11*X100000Y185000D02*Y170000D01*
Y160000D02*Y145000D01*
Y185000D02*X170000D01*
Y145000D01*
X100000D02*X170000D01*
X100000Y160000D02*G75*G03X100000Y170000I0J5000D01*G01*
G54D25*X89100Y173000D02*X77000D01*
X89100Y166000D02*Y173000D01*
X77000Y166000D02*X89100D01*
X77000Y173000D02*Y166000D01*
X89100Y188000D02*X77000D01*
X89100Y181000D02*Y188000D01*
X77000Y181000D02*X89100D01*
X77000Y188000D02*Y181000D01*
G54D11*X118600Y108300D02*X120100D01*
X118100Y108800D02*X118600Y108300D01*
X118100Y111800D02*Y108800D01*
Y111800D02*X118600Y112300D01*
X120100D01*
X121301Y111800D02*X121801Y112300D01*
X123301D01*
X123801Y111800D01*
Y110800D01*
X121301Y108300D02*X123801Y110800D01*
X121301Y108300D02*X123801D01*
X125002Y108800D02*X125502Y108300D01*
X125002Y111800D02*Y108800D01*
Y111800D02*X125502Y112300D01*
X126502D01*
X127002Y111800D01*
Y108800D01*
X126502Y108300D02*X127002Y108800D01*
X125502Y108300D02*X126502D01*
X125002Y109300D02*X127002Y111300D01*
X128703Y108300D02*X129703D01*
X129203Y112300D02*Y108300D01*
X128203Y111300D02*X129203Y112300D01*
X171000Y84500D02*Y83000D01*
X171500Y85000D02*X171000Y84500D01*
X171500Y85000D02*X174500D01*
X175000Y84500D01*
Y83000D01*
X171500Y81799D02*X174500D01*
X175000Y81299D01*
Y80299D01*
X174500Y79799D01*
X171500D02*X174500D01*
X171000Y80299D02*X171500Y79799D01*
X171000Y81299D02*Y80299D01*
X171500Y81799D02*X171000Y81299D01*
Y78598D02*X175000D01*
X174500D02*X175000D01*
X174500D02*X172000Y76098D01*
X171000D02*X175000D01*
X171000Y74897D02*X175000D01*
X174500D02*X175000D01*
X174500D02*X172000Y72397D01*
X171000D02*X175000D01*
X171000Y70696D02*Y69696D01*
Y70196D02*X175000D01*
X174000Y71196D02*X175000Y70196D01*
X171500Y68495D02*X171000Y67995D01*
X171500Y68495D02*X174500D01*
X175000Y67995D01*
Y66995D01*
X174500Y66495D01*
X171500D02*X174500D01*
X171000Y66995D02*X171500Y66495D01*
X171000Y67995D02*Y66995D01*
X172000Y68495D02*X174000Y66495D01*
X171000Y64794D02*Y63794D01*
Y64294D02*X175000D01*
X174000Y65294D02*X175000Y64294D01*
X45000Y21500D02*Y18000D01*
X45500Y17500D01*
X46500D01*
X47000Y18000D01*
Y21500D02*Y18000D01*
X48701Y17500D02*X49701D01*
X49201Y21500D02*Y17500D01*
X48201Y20500D02*X49201Y21500D01*
X50902Y18000D02*X51402Y17500D01*
X50902Y21000D02*Y18000D01*
Y21000D02*X51402Y21500D01*
X52402D01*
X52902Y21000D01*
Y18000D01*
X52402Y17500D02*X52902Y18000D01*
X51402Y17500D02*X52402D01*
X50902Y18500D02*X52902Y20500D01*
X54603Y17500D02*X55603D01*
X55103Y21500D02*Y17500D01*
X54103Y20500D02*X55103Y21500D01*
X110000Y46000D02*Y42500D01*
X110500Y42000D01*
X111500D01*
X112000Y42500D01*
Y46000D02*Y42500D01*
X113201Y45500D02*X113701Y46000D01*
X114701D01*
X115201Y45500D01*
Y42500D01*
X114701Y42000D02*X115201Y42500D01*
X113701Y42000D02*X114701D01*
X113201Y42500D02*X113701Y42000D01*
Y44000D02*X115201D01*
X116402Y42500D02*X116902Y42000D01*
X116402Y45500D02*Y42500D01*
Y45500D02*X116902Y46000D01*
X117902D01*
X118402Y45500D01*
Y42500D01*
X117902Y42000D02*X118402Y42500D01*
X116902Y42000D02*X117902D01*
X116402Y43000D02*X118402Y45000D01*
X120103Y42000D02*X121103D01*
X120603Y46000D02*Y42000D01*
X119603Y45000D02*X120603Y46000D01*
X42500Y28500D02*X44500D01*
X45000Y28000D01*
Y27000D01*
X44500Y26500D02*X45000Y27000D01*
X43000Y26500D02*X44500D01*
X43000Y28500D02*Y24500D01*
Y26500D02*X45000Y24500D01*
X46201Y28000D02*X46701Y28500D01*
X47701D01*
X48201Y28000D01*
Y25000D01*
X47701Y24500D02*X48201Y25000D01*
X46701Y24500D02*X47701D01*
X46201Y25000D02*X46701Y24500D01*
Y26500D02*X48201D01*
X49402Y25000D02*X49902Y24500D01*
X49402Y28000D02*Y25000D01*
Y28000D02*X49902Y28500D01*
X50902D01*
X51402Y28000D01*
Y25000D01*
X50902Y24500D02*X51402Y25000D01*
X49902Y24500D02*X50902D01*
X49402Y25500D02*X51402Y27500D01*
X52603Y28500D02*X54603D01*
X52603D02*Y26500D01*
X53103Y27000D01*
X54103D01*
X54603Y26500D01*
Y25000D01*
X54103Y24500D02*X54603Y25000D01*
X53103Y24500D02*X54103D01*
X52603Y25000D02*X53103Y24500D01*
X62500Y28500D02*X64500D01*
X65000Y28000D01*
Y27000D01*
X64500Y26500D02*X65000Y27000D01*
X63000Y26500D02*X64500D01*
X63000Y28500D02*Y24500D01*
Y26500D02*X65000Y24500D01*
X66201Y28000D02*X66701Y28500D01*
X67701D01*
X68201Y28000D01*
Y25000D01*
X67701Y24500D02*X68201Y25000D01*
X66701Y24500D02*X67701D01*
X66201Y25000D02*X66701Y24500D01*
Y26500D02*X68201D01*
X69402Y25000D02*X69902Y24500D01*
X69402Y28000D02*Y25000D01*
Y28000D02*X69902Y28500D01*
X70902D01*
X71402Y28000D01*
Y25000D01*
X70902Y24500D02*X71402Y25000D01*
X69902Y24500D02*X70902D01*
X69402Y25500D02*X71402Y27500D01*
X72603Y28000D02*X73103Y28500D01*
X74103D01*
X74603Y28000D01*
Y25000D01*
X74103Y24500D02*X74603Y25000D01*
X73103Y24500D02*X74103D01*
X72603Y25000D02*X73103Y24500D01*
Y26500D02*X74603D01*
X82500Y28500D02*X84500D01*
X85000Y28000D01*
Y27000D01*
X84500Y26500D02*X85000Y27000D01*
X83000Y26500D02*X84500D01*
X83000Y28500D02*Y24500D01*
Y26500D02*X85000Y24500D01*
X86201Y28000D02*X86701Y28500D01*
X87701D01*
X88201Y28000D01*
Y25000D01*
X87701Y24500D02*X88201Y25000D01*
X86701Y24500D02*X87701D01*
X86201Y25000D02*X86701Y24500D01*
Y26500D02*X88201D01*
X89402Y25000D02*X89902Y24500D01*
X89402Y28000D02*Y25000D01*
Y28000D02*X89902Y28500D01*
X90902D01*
X91402Y28000D01*
Y25000D01*
X90902Y24500D02*X91402Y25000D01*
X89902Y24500D02*X90902D01*
X89402Y25500D02*X91402Y27500D01*
X93103Y24500D02*X94103D01*
X93603Y28500D02*Y24500D01*
X92603Y27500D02*X93603Y28500D01*
X58600Y58300D02*X60100D01*
X58100Y58800D02*X58600Y58300D01*
X58100Y61800D02*Y58800D01*
Y61800D02*X58600Y62300D01*
X60100D01*
X61301Y61800D02*X61801Y62300D01*
X62801D01*
X63301Y61800D01*
Y58800D01*
X62801Y58300D02*X63301Y58800D01*
X61801Y58300D02*X62801D01*
X61301Y58800D02*X61801Y58300D01*
Y60300D02*X63301D01*
X64502Y58800D02*X65002Y58300D01*
X64502Y61800D02*Y58800D01*
Y61800D02*X65002Y62300D01*
X66002D01*
X66502Y61800D01*
Y58800D01*
X66002Y58300D02*X66502Y58800D01*
X65002Y58300D02*X66002D01*
X64502Y59300D02*X66502Y61300D01*
X67703Y61800D02*X68203Y62300D01*
X69703D01*
X70203Y61800D01*
Y60800D01*
X67703Y58300D02*X70203Y60800D01*
X67703Y58300D02*X70203D01*
X83600D02*X85100D01*
X83100Y58800D02*X83600Y58300D01*
X83100Y61800D02*Y58800D01*
Y61800D02*X83600Y62300D01*
X85100D01*
X86301Y61800D02*X86801Y62300D01*
X87801D01*
X88301Y61800D01*
Y58800D01*
X87801Y58300D02*X88301Y58800D01*
X86801Y58300D02*X87801D01*
X86301Y58800D02*X86801Y58300D01*
Y60300D02*X88301D01*
X89502Y58800D02*X90002Y58300D01*
X89502Y61800D02*Y58800D01*
Y61800D02*X90002Y62300D01*
X91002D01*
X91502Y61800D01*
Y58800D01*
X91002Y58300D02*X91502Y58800D01*
X90002Y58300D02*X91002D01*
X89502Y59300D02*X91502Y61300D01*
X93203Y58300D02*X94203D01*
X93703Y62300D02*Y58300D01*
X92703Y61300D02*X93703Y62300D01*
X62500Y43500D02*X64500D01*
X65000Y43000D01*
Y42000D01*
X64500Y41500D02*X65000Y42000D01*
X63000Y41500D02*X64500D01*
X63000Y43500D02*Y39500D01*
Y41500D02*X65000Y39500D01*
X66201Y43000D02*X66701Y43500D01*
X67701D01*
X68201Y43000D01*
Y40000D01*
X67701Y39500D02*X68201Y40000D01*
X66701Y39500D02*X67701D01*
X66201Y40000D02*X66701Y39500D01*
Y41500D02*X68201D01*
X69402Y40000D02*X69902Y39500D01*
X69402Y43000D02*Y40000D01*
Y43000D02*X69902Y43500D01*
X70902D01*
X71402Y43000D01*
Y40000D01*
X70902Y39500D02*X71402Y40000D01*
X69902Y39500D02*X70902D01*
X69402Y40500D02*X71402Y42500D01*
X72603Y41500D02*X74603Y43500D01*
X72603Y41500D02*X75103D01*
X74603Y43500D02*Y39500D01*
X82500Y43500D02*X84500D01*
X85000Y43000D01*
Y42000D01*
X84500Y41500D02*X85000Y42000D01*
X83000Y41500D02*X84500D01*
X83000Y43500D02*Y39500D01*
Y41500D02*X85000Y39500D01*
X86201Y43000D02*X86701Y43500D01*
X87701D01*
X88201Y43000D01*
Y40000D01*
X87701Y39500D02*X88201Y40000D01*
X86701Y39500D02*X87701D01*
X86201Y40000D02*X86701Y39500D01*
Y41500D02*X88201D01*
X89402Y40000D02*X89902Y39500D01*
X89402Y43000D02*Y40000D01*
Y43000D02*X89902Y43500D01*
X90902D01*
X91402Y43000D01*
Y40000D01*
X90902Y39500D02*X91402Y40000D01*
X89902Y39500D02*X90902D01*
X89402Y40500D02*X91402Y42500D01*
X92603Y43000D02*X93103Y43500D01*
X94603D01*
X95103Y43000D01*
Y42000D01*
X92603Y39500D02*X95103Y42000D01*
X92603Y39500D02*X95103D01*
X42500Y43500D02*X44500D01*
X45000Y43000D01*
Y42000D01*
X44500Y41500D02*X45000Y42000D01*
X43000Y41500D02*X44500D01*
X43000Y43500D02*Y39500D01*
Y41500D02*X45000Y39500D01*
X46201Y43000D02*X46701Y43500D01*
X47701D01*
X48201Y43000D01*
Y40000D01*
X47701Y39500D02*X48201Y40000D01*
X46701Y39500D02*X47701D01*
X46201Y40000D02*X46701Y39500D01*
Y41500D02*X48201D01*
X49402Y40000D02*X49902Y39500D01*
X49402Y43000D02*Y40000D01*
Y43000D02*X49902Y43500D01*
X50902D01*
X51402Y43000D01*
Y40000D01*
X50902Y39500D02*X51402Y40000D01*
X49902Y39500D02*X50902D01*
X49402Y40500D02*X51402Y42500D01*
X54103Y43500D02*X54603Y43000D01*
X53103Y43500D02*X54103D01*
X52603Y43000D02*X53103Y43500D01*
X52603Y43000D02*Y40000D01*
X53103Y39500D01*
X54103Y41500D02*X54603Y41000D01*
X52603Y41500D02*X54103D01*
X53103Y39500D02*X54103D01*
X54603Y40000D01*
Y41000D02*Y40000D01*
X62500Y148500D02*X64500D01*
X65000Y148000D01*
Y147000D01*
X64500Y146500D02*X65000Y147000D01*
X63000Y146500D02*X64500D01*
X63000Y148500D02*Y144500D01*
Y146500D02*X65000Y144500D01*
X66201Y148000D02*X66701Y148500D01*
X68201D01*
X68701Y148000D01*
Y147000D01*
X66201Y144500D02*X68701Y147000D01*
X66201Y144500D02*X68701D01*
X69902Y145000D02*X70402Y144500D01*
X69902Y148000D02*Y145000D01*
Y148000D02*X70402Y148500D01*
X71402D01*
X71902Y148000D01*
Y145000D01*
X71402Y144500D02*X71902Y145000D01*
X70402Y144500D02*X71402D01*
X69902Y145500D02*X71902Y147500D01*
X73103Y144500D02*X75603Y147000D01*
Y148500D02*Y147000D01*
X73103Y148500D02*X75603D01*
X62500Y163500D02*X64500D01*
X65000Y163000D01*
Y162000D01*
X64500Y161500D02*X65000Y162000D01*
X63000Y161500D02*X64500D01*
X63000Y163500D02*Y159500D01*
Y161500D02*X65000Y159500D01*
X66201Y163000D02*X66701Y163500D01*
X68201D01*
X68701Y163000D01*
Y162000D01*
X66201Y159500D02*X68701Y162000D01*
X66201Y159500D02*X68701D01*
X69902Y160000D02*X70402Y159500D01*
X69902Y163000D02*Y160000D01*
Y163000D02*X70402Y163500D01*
X71402D01*
X71902Y163000D01*
Y160000D01*
X71402Y159500D02*X71902Y160000D01*
X70402Y159500D02*X71402D01*
X69902Y160500D02*X71902Y162500D01*
X74603Y163500D02*X75103Y163000D01*
X73603Y163500D02*X74603D01*
X73103Y163000D02*X73603Y163500D01*
X73103Y163000D02*Y160000D01*
X73603Y159500D01*
X74603Y161500D02*X75103Y161000D01*
X73103Y161500D02*X74603D01*
X73603Y159500D02*X74603D01*
X75103Y160000D01*
Y161000D02*Y160000D01*
X68600Y108300D02*X70100D01*
X68100Y108800D02*X68600Y108300D01*
X68100Y111800D02*Y108800D01*
Y111800D02*X68600Y112300D01*
X70100D01*
X71301Y111800D02*X71801Y112300D01*
X73301D01*
X73801Y111800D01*
Y110800D01*
X71301Y108300D02*X73801Y110800D01*
X71301Y108300D02*X73801D01*
X75002Y108800D02*X75502Y108300D01*
X75002Y111800D02*Y108800D01*
Y111800D02*X75502Y112300D01*
X76502D01*
X77002Y111800D01*
Y108800D01*
X76502Y108300D02*X77002Y108800D01*
X75502Y108300D02*X76502D01*
X75002Y109300D02*X77002Y111300D01*
X78203Y111800D02*X78703Y112300D01*
X79703D01*
X80203Y111800D01*
Y108800D01*
X79703Y108300D02*X80203Y108800D01*
X78703Y108300D02*X79703D01*
X78203Y108800D02*X78703Y108300D01*
Y110300D02*X80203D01*
X93600Y108300D02*X95100D01*
X93100Y108800D02*X93600Y108300D01*
X93100Y111800D02*Y108800D01*
Y111800D02*X93600Y112300D01*
X95100D01*
X96301Y111800D02*X96801Y112300D01*
X98301D01*
X98801Y111800D01*
Y110800D01*
X96301Y108300D02*X98801Y110800D01*
X96301Y108300D02*X98801D01*
X100002Y108800D02*X100502Y108300D01*
X100002Y111800D02*Y108800D01*
Y111800D02*X100502Y112300D01*
X101502D01*
X102002Y111800D01*
Y108800D01*
X101502Y108300D02*X102002Y108800D01*
X100502Y108300D02*X101502D01*
X100002Y109300D02*X102002Y111300D01*
X103203Y111800D02*X103703Y112300D01*
X105203D01*
X105703Y111800D01*
Y110800D01*
X103203Y108300D02*X105703Y110800D01*
X103203Y108300D02*X105703D01*
X43600D02*X45100D01*
X43100Y108800D02*X43600Y108300D01*
X43100Y111800D02*Y108800D01*
Y111800D02*X43600Y112300D01*
X45100D01*
X46301Y111800D02*X46801Y112300D01*
X48301D01*
X48801Y111800D01*
Y110800D01*
X46301Y108300D02*X48801Y110800D01*
X46301Y108300D02*X48801D01*
X50002Y108800D02*X50502Y108300D01*
X50002Y111800D02*Y108800D01*
Y111800D02*X50502Y112300D01*
X51502D01*
X52002Y111800D01*
Y108800D01*
X51502Y108300D02*X52002Y108800D01*
X50502Y108300D02*X51502D01*
X50002Y109300D02*X52002Y111300D01*
X53203Y110300D02*X55203Y112300D01*
X53203Y110300D02*X55703D01*
X55203Y112300D02*Y108300D01*
X82500Y133500D02*X84500D01*
X85000Y133000D01*
Y132000D01*
X84500Y131500D02*X85000Y132000D01*
X83000Y131500D02*X84500D01*
X83000Y133500D02*Y129500D01*
Y131500D02*X85000Y129500D01*
X86201Y133000D02*X86701Y133500D01*
X88201D01*
X88701Y133000D01*
Y132000D01*
X86201Y129500D02*X88701Y132000D01*
X86201Y129500D02*X88701D01*
X89902Y130000D02*X90402Y129500D01*
X89902Y133000D02*Y130000D01*
Y133000D02*X90402Y133500D01*
X91402D01*
X91902Y133000D01*
Y130000D01*
X91402Y129500D02*X91902Y130000D01*
X90402Y129500D02*X91402D01*
X89902Y130500D02*X91902Y132500D01*
X93103Y131500D02*X95103Y133500D01*
X93103Y131500D02*X95603D01*
X95103Y133500D02*Y129500D01*
X62500Y133500D02*X64500D01*
X65000Y133000D01*
Y132000D01*
X64500Y131500D02*X65000Y132000D01*
X63000Y131500D02*X64500D01*
X63000Y133500D02*Y129500D01*
Y131500D02*X65000Y129500D01*
X66201Y133000D02*X66701Y133500D01*
X68201D01*
X68701Y133000D01*
Y132000D01*
X66201Y129500D02*X68701Y132000D01*
X66201Y129500D02*X68701D01*
X69902Y130000D02*X70402Y129500D01*
X69902Y133000D02*Y130000D01*
Y133000D02*X70402Y133500D01*
X71402D01*
X71902Y133000D01*
Y130000D01*
X71402Y129500D02*X71902Y130000D01*
X70402Y129500D02*X71402D01*
X69902Y130500D02*X71902Y132500D01*
X73103Y130000D02*X73603Y129500D01*
X73103Y131000D02*Y130000D01*
Y131000D02*X73603Y131500D01*
X74603D01*
X75103Y131000D01*
Y130000D01*
X74603Y129500D02*X75103Y130000D01*
X73603Y129500D02*X74603D01*
X73103Y132000D02*X73603Y131500D01*
X73103Y133000D02*Y132000D01*
Y133000D02*X73603Y133500D01*
X74603D01*
X75103Y133000D01*
Y132000D01*
X74603Y131500D02*X75103Y132000D01*
X82500Y148500D02*X84500D01*
X85000Y148000D01*
Y147000D01*
X84500Y146500D02*X85000Y147000D01*
X83000Y146500D02*X84500D01*
X83000Y148500D02*Y144500D01*
Y146500D02*X85000Y144500D01*
X86201Y148000D02*X86701Y148500D01*
X88201D01*
X88701Y148000D01*
Y147000D01*
X86201Y144500D02*X88701Y147000D01*
X86201Y144500D02*X88701D01*
X89902Y145000D02*X90402Y144500D01*
X89902Y148000D02*Y145000D01*
Y148000D02*X90402Y148500D01*
X91402D01*
X91902Y148000D01*
Y145000D01*
X91402Y144500D02*X91902Y145000D01*
X90402Y144500D02*X91402D01*
X89902Y145500D02*X91902Y147500D01*
X93103Y148000D02*X93603Y148500D01*
X94603D01*
X95103Y148000D01*
Y145000D01*
X94603Y144500D02*X95103Y145000D01*
X93603Y144500D02*X94603D01*
X93103Y145000D02*X93603Y144500D01*
Y146500D02*X95103D01*
X82500Y163500D02*X84500D01*
X85000Y163000D01*
Y162000D01*
X84500Y161500D02*X85000Y162000D01*
X83000Y161500D02*X84500D01*
X83000Y163500D02*Y159500D01*
Y161500D02*X85000Y159500D01*
X86201Y163000D02*X86701Y163500D01*
X88201D01*
X88701Y163000D01*
Y162000D01*
X86201Y159500D02*X88701Y162000D01*
X86201Y159500D02*X88701D01*
X89902Y160000D02*X90402Y159500D01*
X89902Y163000D02*Y160000D01*
Y163000D02*X90402Y163500D01*
X91402D01*
X91902Y163000D01*
Y160000D01*
X91402Y159500D02*X91902Y160000D01*
X90402Y159500D02*X91402D01*
X89902Y160500D02*X91902Y162500D01*
X93103Y163000D02*X93603Y163500D01*
X95103D01*
X95603Y163000D01*
Y162000D01*
X93103Y159500D02*X95603Y162000D01*
X93103Y159500D02*X95603D01*
X110000Y166000D02*Y162500D01*
X110500Y162000D01*
X111500D01*
X112000Y162500D01*
Y166000D02*Y162500D01*
X113201Y165500D02*X113701Y166000D01*
X115201D01*
X115701Y165500D01*
Y164500D01*
X113201Y162000D02*X115701Y164500D01*
X113201Y162000D02*X115701D01*
X116902Y162500D02*X117402Y162000D01*
X116902Y165500D02*Y162500D01*
Y165500D02*X117402Y166000D01*
X118402D01*
X118902Y165500D01*
Y162500D01*
X118402Y162000D02*X118902Y162500D01*
X117402Y162000D02*X118402D01*
X116902Y163000D02*X118902Y165000D01*
X120603Y162000D02*X121603D01*
X121103Y166000D02*Y162000D01*
X120103Y165000D02*X121103Y166000D01*
X82500Y178500D02*X84500D01*
X85000Y178000D01*
Y177000D01*
X84500Y176500D02*X85000Y177000D01*
X83000Y176500D02*X84500D01*
X83000Y178500D02*Y174500D01*
Y176500D02*X85000Y174500D01*
X86201Y178000D02*X86701Y178500D01*
X88201D01*
X88701Y178000D01*
Y177000D01*
X86201Y174500D02*X88701Y177000D01*
X86201Y174500D02*X88701D01*
X89902Y175000D02*X90402Y174500D01*
X89902Y178000D02*Y175000D01*
Y178000D02*X90402Y178500D01*
X91402D01*
X91902Y178000D01*
Y175000D01*
X91402Y174500D02*X91902Y175000D01*
X90402Y174500D02*X91402D01*
X89902Y175500D02*X91902Y177500D01*
X93603Y174500D02*X94603D01*
X94103Y178500D02*Y174500D01*
X93103Y177500D02*X94103Y178500D01*
X62500D02*X64500D01*
X65000Y178000D01*
Y177000D01*
X64500Y176500D02*X65000Y177000D01*
X63000Y176500D02*X64500D01*
X63000Y178500D02*Y174500D01*
Y176500D02*X65000Y174500D01*
X66201Y178000D02*X66701Y178500D01*
X68201D01*
X68701Y178000D01*
Y177000D01*
X66201Y174500D02*X68701Y177000D01*
X66201Y174500D02*X68701D01*
X69902Y175000D02*X70402Y174500D01*
X69902Y178000D02*Y175000D01*
Y178000D02*X70402Y178500D01*
X71402D01*
X71902Y178000D01*
Y175000D01*
X71402Y174500D02*X71902Y175000D01*
X70402Y174500D02*X71402D01*
X69902Y175500D02*X71902Y177500D01*
X73103Y178500D02*X75103D01*
X73103D02*Y176500D01*
X73603Y177000D01*
X74603D01*
X75103Y176500D01*
Y175000D01*
X74603Y174500D02*X75103Y175000D01*
X73603Y174500D02*X74603D01*
X73103Y175000D02*X73603Y174500D01*
X42500Y163500D02*X44500D01*
X45000Y163000D01*
Y162000D01*
X44500Y161500D02*X45000Y162000D01*
X43000Y161500D02*X44500D01*
X43000Y163500D02*Y159500D01*
Y161500D02*X45000Y159500D01*
X46201Y163000D02*X46701Y163500D01*
X48201D01*
X48701Y163000D01*
Y162000D01*
X46201Y159500D02*X48701Y162000D01*
X46201Y159500D02*X48701D01*
X50402D02*X51402D01*
X50902Y163500D02*Y159500D01*
X49902Y162500D02*X50902Y163500D01*
X52603Y160000D02*X53103Y159500D01*
X52603Y163000D02*Y160000D01*
Y163000D02*X53103Y163500D01*
X54103D01*
X54603Y163000D01*
Y160000D01*
X54103Y159500D02*X54603Y160000D01*
X53103Y159500D02*X54103D01*
X52603Y160500D02*X54603Y162500D01*
X42500Y178500D02*X44500D01*
X45000Y178000D01*
Y177000D01*
X44500Y176500D02*X45000Y177000D01*
X43000Y176500D02*X44500D01*
X43000Y178500D02*Y174500D01*
Y176500D02*X45000Y174500D01*
X46201Y178000D02*X46701Y178500D01*
X48201D01*
X48701Y178000D01*
Y177000D01*
X46201Y174500D02*X48701Y177000D01*
X46201Y174500D02*X48701D01*
X49902Y175000D02*X50402Y174500D01*
X49902Y178000D02*Y175000D01*
Y178000D02*X50402Y178500D01*
X51402D01*
X51902Y178000D01*
Y175000D01*
X51402Y174500D02*X51902Y175000D01*
X50402Y174500D02*X51402D01*
X49902Y175500D02*X51902Y177500D01*
X53103Y174500D02*X55103Y176500D01*
Y178000D02*Y176500D01*
X54603Y178500D02*X55103Y178000D01*
X53603Y178500D02*X54603D01*
X53103Y178000D02*X53603Y178500D01*
X53103Y178000D02*Y177000D01*
X53603Y176500D01*
X55103D01*
X42500Y133500D02*X44500D01*
X45000Y133000D01*
Y132000D01*
X44500Y131500D02*X45000Y132000D01*
X43000Y131500D02*X44500D01*
X43000Y133500D02*Y129500D01*
Y131500D02*X45000Y129500D01*
X46201Y133000D02*X46701Y133500D01*
X48201D01*
X48701Y133000D01*
Y132000D01*
X46201Y129500D02*X48701Y132000D01*
X46201Y129500D02*X48701D01*
X50402D02*X51402D01*
X50902Y133500D02*Y129500D01*
X49902Y132500D02*X50902Y133500D01*
X52603Y133000D02*X53103Y133500D01*
X54603D01*
X55103Y133000D01*
Y132000D01*
X52603Y129500D02*X55103Y132000D01*
X52603Y129500D02*X55103D01*
X42500Y148500D02*X44500D01*
X45000Y148000D01*
Y147000D01*
X44500Y146500D02*X45000Y147000D01*
X43000Y146500D02*X44500D01*
X43000Y148500D02*Y144500D01*
Y146500D02*X45000Y144500D01*
X46201Y148000D02*X46701Y148500D01*
X48201D01*
X48701Y148000D01*
Y147000D01*
X46201Y144500D02*X48701Y147000D01*
X46201Y144500D02*X48701D01*
X50402D02*X51402D01*
X50902Y148500D02*Y144500D01*
X49902Y147500D02*X50902Y148500D01*
X53103Y144500D02*X54103D01*
X53603Y148500D02*Y144500D01*
X52603Y147500D02*X53603Y148500D01*
M02*
