G04 start of page 8 for group -4015 idx -4015 *
G04 Title: (unknown), toppaste *
G04 Creator: pcb 20091103 *
G04 CreationDate: Sat 12 Mar 2011 05:15:37 PM GMT UTC *
G04 For: jlamothe *
G04 Format: Gerber/RS-274X *
G04 PCB-Dimensions: 180000 210000 *
G04 PCB-Coordinate-Origin: lower left *
%MOIN*%
%FSLAX25Y25*%
%LNFRONTPASTE*%
%ADD16R,0.0430X0.0430*%
%ADD17R,0.0300X0.0300*%
G54D17*X40000Y50000D02*Y49000D01*
X46100Y50000D02*Y49000D01*
X80000Y35000D02*Y34000D01*
X86100Y35000D02*Y34000D01*
G54D16*X80000Y70000D02*Y68400D01*
X87900Y70000D02*Y68400D01*
G54D17*X80000Y50000D02*Y49000D01*
X86100Y50000D02*Y49000D01*
X60000Y35000D02*Y34000D01*
X66100Y35000D02*Y34000D01*
X60000Y50000D02*Y49000D01*
X66100Y50000D02*Y49000D01*
G54D16*X55000Y70000D02*Y68400D01*
X62900Y70000D02*Y68400D01*
G54D17*X40000Y35000D02*Y34000D01*
X46100Y35000D02*Y34000D01*
X60000Y140000D02*Y139000D01*
X66100Y140000D02*Y139000D01*
X40000Y155000D02*Y154000D01*
X46100Y155000D02*Y154000D01*
X40000Y140000D02*Y139000D01*
X46100Y140000D02*Y139000D01*
X40000Y185000D02*Y184000D01*
X46100Y185000D02*Y184000D01*
X40000Y170000D02*Y169000D01*
X46100Y170000D02*Y169000D01*
X80000Y185000D02*Y184000D01*
X86100Y185000D02*Y184000D01*
G54D16*X115000Y120000D02*Y118400D01*
X122900Y120000D02*Y118400D01*
G54D17*X80000Y170000D02*Y169000D01*
X86100Y170000D02*Y169000D01*
X80000Y155000D02*Y154000D01*
X86100Y155000D02*Y154000D01*
X80000Y140000D02*Y139000D01*
X86100Y140000D02*Y139000D01*
G54D16*X40000Y120000D02*Y118400D01*
X47900Y120000D02*Y118400D01*
X90000Y120000D02*Y118400D01*
X97900Y120000D02*Y118400D01*
G54D17*X60000Y185000D02*Y184000D01*
X66100Y185000D02*Y184000D01*
X60000Y170000D02*Y169000D01*
X66100Y170000D02*Y169000D01*
X60000Y155000D02*Y154000D01*
X66100Y155000D02*Y154000D01*
G54D16*X65000Y120000D02*Y118400D01*
X72900Y120000D02*Y118400D01*
M02*
