M48
INCH
T12C0.020
T20C0.038
T21C0.030
T22C0.028
T31C0.039
T32C0.059
%
T12
X004330Y013470
X000874Y017139
X006180Y014760
X005070Y016430
X006640Y015090
X012980Y010840
X013340Y009185
X010019Y014339
X010304Y010613
X011349Y009845
X005200Y007361
X013670Y008144
X004640Y017470
X007570Y005960
X007775Y013470
X008310Y014669
T22
X014000Y003000
X014000Y006000
X013000Y006000
X012000Y006000
X011000Y003000
X012000Y003000
X013000Y003000
X011000Y015000
X012000Y015000
X013000Y015000
X014000Y015000
X015000Y015000
X016000Y015000
X017000Y015000
X017000Y018000
X016000Y018000
X015000Y018000
X014000Y018000
X013000Y018000
X012000Y018000
X011000Y018000
X011000Y006000
T21
X017000Y001000
X016000Y001000
X015000Y001000
X014000Y001000
X013000Y001000
X012000Y001000
X017000Y020000
X016000Y020000
X015000Y020000
X014000Y020000
X013000Y020000
X012000Y020000
X011000Y020000
X010000Y020000
X008400Y020000
X007400Y020000
X006400Y020000
X005400Y020000
X004400Y020000
X003400Y020000
X002400Y020000
X001400Y020000
X010000Y001000
X009000Y001000
X008000Y001000
X007000Y001000
X006000Y001000
X005000Y001000
T20
X017000Y008000
X017000Y007000
X017000Y006000
X017000Y005000
X017000Y004000
X017000Y003000
T31
X007771Y010000
X007771Y007441
X006000Y007441
X006000Y010000
T32
X002000Y009000
X002000Y007031
M30
