G04 start of page 2 for group 0 idx 0 *
G04 Title: (unknown), layer1 *
G04 Creator: pcb 20091103 *
G04 CreationDate: Tue 15 Mar 2011 11:02:10 PM GMT UTC *
G04 For: jlamothe *
G04 Format: Gerber/RS-274X *
G04 PCB-Dimensions: 185000 210000 *
G04 PCB-Coordinate-Origin: lower left *
%MOIN*%
%FSLAX25Y25*%
%LNFRONT*%
%ADD11C,0.0100*%
%ADD12C,0.0200*%
%ADD13C,0.0600*%
%ADD14C,0.0750*%
%ADD15C,0.0787*%
%ADD16C,0.1181*%
%ADD17C,0.0360*%
%ADD18R,0.0300X0.0300*%
%ADD19R,0.0430X0.0430*%
%ADD20C,0.0380*%
%ADD21C,0.0300*%
%ADD22C,0.0280*%
%ADD23C,0.0394*%
%ADD24C,0.0591*%
G54D11*X147901Y30000D02*X140000D01*
X147900Y88400D02*Y29999D01*
X100000Y23499D02*Y9999D01*
Y15251D02*Y9999D01*
X120000Y30000D02*Y25499D01*
X130000Y36502D02*Y29999D01*
X125500Y34501D02*X110000D01*
X125499D02*Y25499D01*
X120000Y60000D02*Y55499D01*
X108050Y51498D02*Y36501D01*
X110000Y34501D02*Y29999D01*
Y33001D02*Y29999D01*
X170001Y60000D02*X165499D01*
X117901Y84750D02*X60000D01*
X117900Y88400D02*Y84749D01*
X52000Y73615D02*Y68972D01*
X72280Y68973D02*X52000D01*
X72279Y81449D02*Y68972D01*
X100001Y23499D02*X27406D01*
X60000Y39000D02*Y25499D01*
X86100Y39000D02*Y36501D01*
X66100Y39000D02*Y33000D01*
X80001Y60000D02*X75700D01*
X80000Y43001D02*Y39999D01*
X75700Y60000D02*Y59607D01*
X60001Y39000D02*X46100D01*
X80001Y43001D02*X43000D01*
Y35999D01*
X43001Y36000D02*X36999D01*
X110001Y33001D02*X66100D01*
X120001Y25500D02*X60000D01*
X130001Y36502D02*X86100D01*
X174501Y15251D02*X100000D01*
X165500Y25500D02*X125499D01*
X165499Y40000D02*Y25499D01*
X170001Y40000D02*X165499D01*
X140000Y150000D02*Y135651D01*
X130001Y150000D02*X126501D01*
X126999Y163001D02*Y152999D01*
X130001Y153000D02*X126999D01*
X130000D02*Y149999D01*
X175250Y205251D02*Y184500D01*
X175251Y184501D02*X120000D01*
Y200000D02*Y194749D01*
X140000Y200000D02*Y192748D01*
X150000Y165002D02*Y149999D01*
X140000Y180000D02*Y175499D01*
X120000Y184501D02*Y179999D01*
X130000Y180000D02*Y173498D01*
X24000Y200000D02*Y168097D01*
X8749Y205251D02*Y171398D01*
X24000Y184049D02*Y178999D01*
X40001Y179000D02*X24000D01*
X40000Y159000D02*Y139999D01*
X24001Y168098D02*X12593D01*
X174501Y175500D02*X140000D01*
X154501Y173499D02*X130000D01*
X105500Y183001D02*X83099D01*
X105499D02*Y165001D01*
X150001Y165002D02*X105499D01*
X86101Y160000D02*X83099D01*
Y183001D02*Y159999D01*
X86100Y179000D02*Y163000D01*
X80000Y176000D02*Y159999D01*
X80001Y176000D02*X76999D01*
X66100Y179000D02*Y163000D01*
X77000Y163001D02*X66100D01*
X60000Y147601D02*Y139999D01*
X60001Y139000D02*X46100D01*
X61801Y147601D02*X60000D01*
X80000Y146699D02*Y139999D01*
X83101Y146699D02*X80000D01*
X66101Y139000D02*X63099D01*
X50701Y160000D02*X46100D01*
X50700Y164300D02*Y159999D01*
X60001Y159000D02*X46100D01*
X46401Y179000D02*X46100D01*
X46400D02*Y174699D01*
X100199Y140000D02*X86100D01*
X100198Y143398D02*Y139999D01*
X86101Y139000D02*X83099D01*
X110001Y150000D02*X76999D01*
X66402Y159000D02*X66100D01*
X66401D02*Y150900D01*
X76999Y163001D02*Y149999D01*
X175251Y205251D02*X8749D01*
X60001Y179000D02*X46100D01*
X64001Y194750D02*X43099D01*
X64000Y200000D02*Y194749D01*
X43100Y176000D02*X36999D01*
X43099Y194750D02*Y175999D01*
X76999Y194750D02*Y175999D01*
X120001Y194750D02*X76999D01*
X140001Y192749D02*X80000D01*
Y179999D01*
X140001Y135652D02*X128502D01*
X174500Y175500D02*Y15250D01*
X154500Y173499D02*Y114151D01*
X150000Y150000D02*Y133650D01*
X126501Y150000D02*Y133650D01*
X170000Y97153D02*Y79999D01*
X140000Y88400D02*Y62249D01*
X154501Y114152D02*X113050D01*
X165499Y95152D02*Y59999D01*
X113499Y98452D02*Y97152D01*
X170001Y97153D02*X113499D01*
X12593Y168098D02*Y70314D01*
X40000Y139000D02*Y89499D01*
X46101Y120000D02*X43301D01*
Y134700D02*Y119999D01*
X36999Y176000D02*Y35999D01*
X83099Y139000D02*Y112150D01*
X127000Y163001D02*X86100D01*
X63099Y139000D02*Y105437D01*
X140000Y64501D02*Y59999D01*
X108051Y51498D02*X43099D01*
X110001Y88400D02*X43099D01*
X40000Y119000D02*Y59999D01*
Y59000D02*Y39999D01*
X43099Y88400D02*Y51497D01*
X20001Y70315D02*X12593D01*
X60000Y84750D02*Y74409D01*
X40000Y100000D02*Y89499D01*
X60001Y100000D02*X40000D01*
X27406Y90000D02*Y23498D01*
X27407Y90000D02*X20000D01*
X60000Y59000D02*Y53498D01*
X60001Y59000D02*X46100D01*
X66100D02*Y55499D01*
X60001Y119000D02*X46100D01*
X80001Y120000D02*X77750D01*
X66100Y119000D02*Y107438D01*
X129802Y108400D02*Y104749D01*
X129803Y108400D02*X117900D01*
Y91851D02*Y86574D01*
X133401Y91851D02*X117900D01*
X99748Y105438D02*Y95151D01*
X117900Y128400D02*Y124749D01*
X147901Y124750D02*X117900D01*
X147900Y128400D02*Y124749D01*
X128503Y128400D02*X117900D01*
X128502Y135652D02*Y128399D01*
X110000Y133651D02*Y128399D01*
X77750Y134700D02*Y119999D01*
X147901Y104750D02*X129802D01*
X147900Y108400D02*Y104749D01*
X140000Y114152D02*Y108399D01*
X103049Y107439D02*Y106138D01*
X150001Y133651D02*X142001D01*
X126502D02*X110000D01*
X142001D02*Y132148D01*
X142002Y132149D02*X140000D01*
Y128399D01*
X86100Y119000D02*Y114151D01*
X110001Y112151D02*X83099D01*
X103050Y107439D02*X66100D01*
X99749Y105438D02*X63099D01*
X130001Y53499D02*X60000D01*
X105500Y60000D02*X86100D01*
X136701Y81449D02*X72279D01*
X120001Y55500D02*X66100D01*
X130000Y60000D02*Y53498D01*
X105499Y64501D02*Y59999D01*
X140001Y64501D02*X105499D01*
X140001Y114152D02*X86100D01*
X110000Y112151D02*Y108399D01*
X165500Y95152D02*X99748D01*
G54D12*G36*
X167000Y83000D02*Y77000D01*
X173000D01*
Y83000D01*
X167000D01*
G37*
G54D13*X170000Y70000D03*
Y60000D03*
Y50000D03*
Y40000D03*
Y30000D03*
G54D14*Y10000D03*
X160000D03*
X150000D03*
X140000D03*
G54D13*Y30000D03*
Y60000D03*
X130000D03*
X120000D03*
G54D12*G36*
X107000Y33000D02*Y27000D01*
X113000D01*
Y33000D01*
X107000D01*
G37*
G54D13*X120000Y30000D03*
X130000D03*
G54D14*Y10000D03*
X120000D03*
X170000Y200000D03*
X160000D03*
X150000D03*
X140000D03*
X130000D03*
X120000D03*
X110000D03*
X100000D03*
X84000D03*
X74000D03*
X64000D03*
X54000D03*
X44000D03*
X34000D03*
X24000D03*
X14000D03*
G54D12*G36*
X107000Y153000D02*Y147000D01*
X113000D01*
Y153000D01*
X107000D01*
G37*
G54D13*X120000Y150000D03*
X130000D03*
X140000D03*
X150000D03*
X160000D03*
X170000D03*
Y180000D03*
X160000D03*
X150000D03*
X140000D03*
X130000D03*
X120000D03*
X110000D03*
Y60000D03*
G54D12*G36*
X73780Y103937D02*Y96063D01*
X81654D01*
Y103937D01*
X73780D01*
G37*
G54D15*X77717Y74410D03*
G54D14*X100000Y10000D03*
X90000D03*
X80000D03*
X70000D03*
X60000D03*
X50000D03*
G54D15*X60000Y74410D03*
Y100000D03*
G54D12*G36*
X14095Y95905D02*Y84094D01*
X25906D01*
Y95905D01*
X14095D01*
G37*
G54D16*X20000Y70315D03*
G54D17*X43301Y134700D03*
X8749Y171399D03*
X61800Y147601D03*
X50700Y164300D03*
X66401Y150901D03*
X129802Y108400D03*
X133400Y91851D03*
X100198Y143398D03*
X103049Y106139D03*
X113499Y98452D03*
X52000Y73615D03*
X136700Y81449D03*
X46400Y174700D03*
X75700Y59608D03*
X77750Y134700D03*
X83100Y146699D03*
G54D18*X40000Y60000D02*Y59000D01*
X46100Y60000D02*Y59000D01*
X60000Y60000D02*Y59000D01*
X66100Y60000D02*Y59000D01*
X80000Y60000D02*Y59000D01*
X40000Y40000D02*Y39000D01*
Y120000D02*Y119000D01*
Y140000D02*Y139000D01*
Y160000D02*Y159000D01*
X46100Y40000D02*Y39000D01*
X60000Y160000D02*Y159000D01*
X66100Y160000D02*Y159000D01*
X80000Y160000D02*Y159000D01*
G54D19*X140000Y90000D02*Y88400D01*
X147900Y90000D02*Y88400D01*
X140000Y110000D02*Y108400D01*
X147900Y110000D02*Y108400D01*
G54D18*X86100Y60000D02*Y59000D01*
X80000Y120000D02*Y119000D01*
X86100Y120000D02*Y119000D01*
X60000Y40000D02*Y39000D01*
X66100Y40000D02*Y39000D01*
X80000Y40000D02*Y39000D01*
X86100Y40000D02*Y39000D01*
G54D19*X110000Y90000D02*Y88400D01*
X117900Y90000D02*Y88400D01*
X110000Y110000D02*Y108400D01*
X117900Y110000D02*Y108400D01*
X140000Y130000D02*Y128400D01*
X110000Y130000D02*Y128400D01*
X117900Y130000D02*Y128400D01*
X147900Y130000D02*Y128400D01*
G54D18*X46100Y120000D02*Y119000D01*
X60000Y120000D02*Y119000D01*
X66100Y120000D02*Y119000D01*
X80000Y180000D02*Y179000D01*
Y140000D02*Y139000D01*
X86100Y180000D02*Y179000D01*
Y140000D02*Y139000D01*
Y160000D02*Y159000D01*
X46100Y140000D02*Y139000D01*
X60000Y140000D02*Y139000D01*
X66100Y140000D02*Y139000D01*
X46100Y160000D02*Y159000D01*
X40000Y180000D02*Y179000D01*
X46100Y180000D02*Y179000D01*
X60000Y180000D02*Y179000D01*
X66100Y180000D02*Y179000D01*
G54D20*G54D21*G54D22*G54D21*G54D22*G54D23*G54D21*G54D23*G54D24*G54D12*M02*
